<svg width="33" height="33" viewBox="0 0 33 33" fill="none" xmlns="http://www.w3.org/2000/svg">
<path d="M17.7935 0.651855H24.3306C25.2745 0.651855 26.1784 1.03308 26.8372 1.70905L31.11 6.09338C31.747 6.74698 32.1035 7.62353 32.1035 8.53619V28.1519C32.1035 30.0849 30.5365 31.6519 28.6035 31.6519H8.88274C7.93692 31.6519 7.03136 31.2691 6.37232 30.5907L2.0931 26.1858C1.4585 25.5326 1.10352 24.6577 1.10352 23.747V4.15185C1.10352 2.21886 2.67052 0.651855 4.60352 0.651855H17.7935Z" stroke="white"/>
<g clip-path="url(#clip0)">
<path d="M23.8829 10.8637C23.59 10.5708 23.1152 10.5708 22.8222 10.8637L13.8368 19.8493L10.3829 16.3954C10.09 16.1025 9.61516 16.1025 9.32222 16.3954C9.02931 16.6883 9.02931 17.1631 9.32222 17.456L13.3064 21.4402C13.5992 21.7331 14.0744 21.7329 14.3671 21.4402L23.8829 11.9244C24.1758 11.6315 24.1758 11.1566 23.8829 10.8637Z" fill="white"/>
</g>
<defs>
<clipPath id="clip0">
<rect width="15" height="15" fill="white" transform="translate(9.10352 8.65186)"/>
</clipPath>
</defs>
</svg>
