<svg width="33" height="33" viewBox="0 0 33 33" fill="none" xmlns="http://www.w3.org/2000/svg">
<path d="M17.7935 0.651855H24.3306C25.2745 0.651855 26.1784 1.03308 26.8372 1.70905L31.11 6.09338C31.747 6.74698 32.1035 7.62353 32.1035 8.53619V28.1519C32.1035 30.0849 30.5365 31.6519 28.6035 31.6519H8.88274C7.93692 31.6519 7.03136 31.2691 6.37232 30.5907L2.0931 26.1858C1.4585 25.5326 1.10352 24.6577 1.10352 23.747V4.15185C1.10352 2.21886 2.67052 0.651855 4.60352 0.651855H17.7935Z" stroke="white"/>
<g clip-path="url(#clip0)">
<path d="M9.80664 17.5581C9.80664 17.419 9.84788 17.2831 9.92514 17.1675C10.0024 17.0518 10.1122 16.9617 10.2407 16.9085C10.3692 16.8553 10.5105 16.8414 10.6469 16.8685C10.7833 16.8956 10.9086 16.9626 11.007 17.0609C11.1053 17.1593 11.1723 17.2845 11.1994 17.4209C11.2265 17.5573 11.2126 17.6987 11.1594 17.8272C11.1062 17.9557 11.016 18.0655 10.9004 18.1427C10.7848 18.22 10.6488 18.2612 10.5098 18.2612C10.3233 18.2612 10.1444 18.1872 10.0126 18.0553C9.88072 17.9234 9.80664 17.7446 9.80664 17.5581ZM14.7285 22.48C14.8676 22.48 15.0035 22.4387 15.1192 22.3615C15.2348 22.2842 15.3249 22.1744 15.3781 22.0459C15.4313 21.9174 15.4453 21.7761 15.4181 21.6397C15.391 21.5033 15.324 21.378 15.2257 21.2797C15.1274 21.1813 15.0021 21.1144 14.8657 21.0872C14.7293 21.0601 14.5879 21.074 14.4594 21.1273C14.331 21.1805 14.2211 21.2706 14.1439 21.3862C14.0666 21.5018 14.0254 21.6378 14.0254 21.7769C14.0254 21.9633 14.0995 22.1422 14.2313 22.274C14.3632 22.4059 14.542 22.48 14.7285 22.48ZM12.0625 20.9272C12.2016 20.9272 12.3375 20.886 12.4531 20.8087C12.5688 20.7315 12.6589 20.6217 12.7121 20.4932C12.7653 20.3647 12.7792 20.2233 12.7521 20.0869C12.725 19.9506 12.658 19.8253 12.5597 19.7269C12.4614 19.6286 12.3361 19.5616 12.1997 19.5345C12.0633 19.5074 11.9219 19.5213 11.7934 19.5745C11.6649 19.6277 11.5551 19.7179 11.4779 19.8335C11.4006 19.9491 11.3594 20.0851 11.3594 20.2241C11.3594 20.4106 11.4335 20.5894 11.5653 20.7213C11.6972 20.8532 11.876 20.9272 12.0625 20.9272ZM15.4316 21.7769C15.4316 21.6378 15.3904 21.5018 15.3131 21.3862C15.2359 21.2706 15.1261 21.1805 14.9976 21.1273C14.8691 21.074 14.7277 21.0601 14.5913 21.0872C14.4549 21.1144 14.3297 21.1813 14.2313 21.2797C14.133 21.378 14.066 21.5033 14.0389 21.6397C14.0118 21.7761 14.0257 21.9174 14.0789 22.0459C14.1321 22.1744 14.2223 22.2842 14.3379 22.3615C14.4535 22.4387 14.5895 22.48 14.7285 22.48C14.915 22.48 15.0938 22.4059 15.2257 22.274C15.3576 22.1422 15.4316 21.9633 15.4316 21.7769ZM12.0625 20.9272C12.2016 20.9272 12.3375 20.886 12.4531 20.8087C12.5688 20.7315 12.6589 20.6217 12.7121 20.4932C12.7653 20.3647 12.7792 20.2233 12.7521 20.0869C12.725 19.9506 12.658 19.8253 12.5597 19.7269C12.4614 19.6286 12.3361 19.5616 12.1997 19.5345C12.0633 19.5074 11.9219 19.5213 11.7934 19.5745C11.6649 19.6277 11.5551 19.7179 11.4779 19.8335C11.4006 19.9491 11.3594 20.0851 11.3594 20.2241C11.3594 20.4106 11.4335 20.5894 11.5653 20.7213C11.6972 20.8532 11.876 20.9272 12.0625 20.9272ZM9.80664 14.2769C9.80664 14.4159 9.84788 14.5519 9.92514 14.6675C10.0024 14.7831 10.1122 14.8732 10.2407 14.9265C10.3692 14.9797 10.5105 14.9936 10.6469 14.9665C10.7833 14.9393 10.9086 14.8724 11.007 14.774C11.1053 14.6757 11.1723 14.5504 11.1994 14.414C11.2265 14.2776 11.2126 14.1363 11.1594 14.0078C11.1062 13.8793 11.016 13.7695 10.9004 13.6922C10.7848 13.615 10.6488 13.5737 10.5098 13.5737C10.3233 13.5737 10.1444 13.6478 10.0126 13.7797C9.88072 13.9115 9.80664 14.0904 9.80664 14.2769ZM14.0254 10.0581C14.0254 10.1972 14.0666 10.3331 14.1439 10.4487C14.2211 10.5644 14.331 10.6545 14.4594 10.7077C14.5879 10.7609 14.7293 10.7749 14.8657 10.7477C15.0021 10.7206 15.1274 10.6536 15.2257 10.5553C15.324 10.457 15.391 10.3317 15.4181 10.1953C15.4453 10.0589 15.4313 9.91751 15.3781 9.78903C15.3249 9.66055 15.2348 9.55074 15.1192 9.47348C15.0035 9.39622 14.8676 9.35498 14.7285 9.35498C14.542 9.35498 14.3632 9.42906 14.2313 9.56092C14.0995 9.69278 14.0254 9.87163 14.0254 10.0581ZM11.3594 11.6108C11.3594 11.7499 11.4006 11.8858 11.4779 12.0015C11.5551 12.1171 11.6649 12.2072 11.7934 12.2604C11.9219 12.3137 12.0633 12.3276 12.1997 12.3005C12.3361 12.2733 12.4614 12.2064 12.5597 12.108C12.658 12.0097 12.725 11.8844 12.7521 11.748C12.7792 11.6116 12.7653 11.4702 12.7121 11.3418C12.6589 11.2133 12.5688 11.1035 12.4531 11.0262C12.3375 10.949 12.2016 10.9077 12.0625 10.9077C11.876 10.9077 11.6972 10.9818 11.5653 11.1137C11.4335 11.2455 11.3594 11.4244 11.3594 11.6108ZM9.80664 14.2769C9.80664 14.4159 9.84788 14.5519 9.92514 14.6675C10.0024 14.7831 10.1122 14.8732 10.2407 14.9265C10.3692 14.9797 10.5105 14.9936 10.6469 14.9665C10.7833 14.9393 10.9086 14.8724 11.007 14.774C11.1053 14.6757 11.1723 14.5504 11.1994 14.414C11.2265 14.2776 11.2126 14.1363 11.1594 14.0078C11.1062 13.8793 11.016 13.7695 10.9004 13.6922C10.7848 13.615 10.6488 13.5737 10.5098 13.5737C10.3233 13.5737 10.1444 13.6478 10.0126 13.7797C9.88072 13.9115 9.80664 14.0904 9.80664 14.2769ZM15.4316 10.0581C15.4316 9.91904 15.3904 9.7831 15.3131 9.66747C15.2359 9.55184 15.1261 9.46172 14.9976 9.4085C14.8691 9.35529 14.7277 9.34136 14.5913 9.36849C14.4549 9.39562 14.3297 9.46259 14.2313 9.56092C14.133 9.65926 14.066 9.78454 14.0389 9.92093C14.0118 10.0573 14.0257 10.1987 14.0789 10.3272C14.1321 10.4557 14.2223 10.5655 14.3379 10.6427C14.4535 10.72 14.5895 10.7612 14.7285 10.7612C14.915 10.7612 15.0938 10.6872 15.2257 10.5553C15.3576 10.4234 15.4316 10.2446 15.4316 10.0581ZM11.3594 11.6108C11.3594 11.7499 11.4006 11.8858 11.4779 12.0015C11.5551 12.1171 11.6649 12.2072 11.7934 12.2604C11.9219 12.3137 12.0633 12.3276 12.1997 12.3005C12.3361 12.2733 12.4614 12.2064 12.5597 12.108C12.658 12.0097 12.725 11.8844 12.7521 11.748C12.7792 11.6116 12.7653 11.4702 12.7121 11.3418C12.6589 11.2133 12.5688 11.1035 12.4531 11.0262C12.3375 10.949 12.2016 10.9077 12.0625 10.9077C11.876 10.9077 11.6972 10.9818 11.5653 11.1137C11.4335 11.2455 11.3594 11.4244 11.3594 11.6108ZM18.0508 10.7342C20.3726 11.3985 21.9941 13.5298 21.9941 15.9175C21.9985 17.1048 21.6054 18.2595 20.8775 19.1976C20.5967 19.5603 20.2708 19.8859 19.9078 20.1663L19.7417 20.7642L21.1887 20.9249C21.8867 20.291 22.4441 19.518 22.825 18.6555C23.2059 17.793 23.4019 16.8603 23.4004 15.9175C23.4031 14.4208 22.9039 12.9665 21.9824 11.7871C21.0845 10.6313 19.8436 9.78943 18.4377 9.38226C18.2591 9.33302 18.0682 9.35629 17.9066 9.44701C17.745 9.53773 17.6258 9.68857 17.5749 9.86673C17.5239 10.0449 17.5453 10.236 17.6345 10.3984C17.7236 10.5609 17.8733 10.6815 18.051 10.7342H18.0508ZM23.1617 22.3232C23.1823 22.1379 23.1284 21.952 23.012 21.8064C22.8955 21.6609 22.7259 21.5675 22.5406 21.5469L19.1427 21.1692L20.0935 17.7463C20.1187 17.6572 20.126 17.564 20.1151 17.472C20.1042 17.38 20.0752 17.2911 20.0298 17.2104C19.9845 17.1297 19.9236 17.0587 19.8507 17.0015C19.7778 16.9444 19.6943 16.9022 19.6051 16.8774C19.5159 16.8526 19.4226 16.8457 19.3307 16.8571C19.2388 16.8684 19.15 16.8978 19.0695 16.9436C18.989 16.9894 18.9183 17.0506 18.8615 17.1237C18.8047 17.1969 18.7629 17.2806 18.7386 17.3699L17.5667 21.5887C17.5394 21.6868 17.5338 21.7896 17.5502 21.8901C17.5666 21.9906 17.6046 22.0864 17.6617 22.1707C17.7187 22.2551 17.7934 22.3261 17.8806 22.3787C17.9677 22.4314 18.0653 22.4645 18.1665 22.4757L22.3853 22.9445C22.4113 22.9473 22.4375 22.9488 22.4637 22.9488C22.6366 22.9486 22.8034 22.8846 22.9321 22.7692C23.0609 22.6539 23.1426 22.4951 23.1617 22.3232Z" fill="white"/>
</g>
<defs>
<clipPath id="clip0">
<rect width="15" height="15" fill="white" transform="translate(9.10352 8.65186)"/>
</clipPath>
</defs>
</svg>
