<svg width="18" height="18" viewBox="0 0 18 18" fill="none" xmlns="http://www.w3.org/2000/svg">
<path fill-rule="evenodd" clip-rule="evenodd" d="M1.32875 0H16.6713C17.0237 0 17.3617 0.139993 17.6109 0.389183C17.86 0.638372 18 0.976346 18 1.32875V16.6713C18 17.0237 17.86 17.3617 17.6109 17.6109C17.3617 17.86 17.0237 18 16.6713 18H1.32875C0.976346 18 0.638372 17.86 0.389183 17.6109C0.139993 17.3617 0 17.0237 0 16.6713V1.32875C0 0.976346 0.139993 0.638372 0.389183 0.389183C0.638372 0.139993 0.976346 0 1.32875 0ZM9.85733 6.13383C8.82372 6.56374 6.75797 7.45355 3.66006 8.80325C3.15701 9.0033 2.89349 9.199 2.8695 9.39036C2.82896 9.71376 3.23395 9.84111 3.78544 10.0145C3.86045 10.0381 3.93818 10.0626 4.01787 10.0885C4.56045 10.2648 5.29032 10.4712 5.66975 10.4794C6.01393 10.4868 6.39807 10.3449 6.82217 10.0537C9.71664 8.09983 11.2108 7.11227 11.3046 7.09098C11.3708 7.07596 11.4625 7.05707 11.5246 7.1123C11.5867 7.16753 11.5806 7.27212 11.5741 7.30018C11.5339 7.47121 9.9442 8.94917 9.12151 9.71401C8.86504 9.95245 8.68312 10.1216 8.64593 10.1602C8.56262 10.2467 8.47771 10.3286 8.39611 10.4073C7.89204 10.8932 7.51404 11.2576 8.41704 11.8526C8.85098 12.1386 9.19822 12.3751 9.54464 12.611C9.92298 12.8686 10.3003 13.1256 10.7886 13.4457C10.913 13.5272 11.0318 13.6119 11.1475 13.6944C11.5878 14.0083 11.9833 14.2903 12.472 14.2453C12.756 14.2192 13.0493 13.9522 13.1982 13.1558C13.5503 11.2738 14.2423 7.19608 14.4022 5.51575C14.4162 5.36853 14.3986 5.18012 14.3844 5.09741C14.3703 5.0147 14.3407 4.89686 14.2332 4.80962C14.1059 4.70631 13.9093 4.68453 13.8214 4.68607C13.4217 4.69312 12.8085 4.90634 9.85733 6.13383Z" fill="#FF23A7"/>
</svg>
