<svg width="18" height="18" viewBox="0 0 18 18" fill="none" xmlns="http://www.w3.org/2000/svg">
<path fill-rule="evenodd" clip-rule="evenodd" d="M1.32875 0H16.6713C16.6739 0 16.6765 7.63183e-06 16.6791 2.28882e-05C17.0287 0.00207346 17.3635 0.141833 17.6109 0.389183C17.86 0.638372 18 0.976346 18 1.32875V16.6713C18 17.0237 17.86 17.3617 17.6109 17.6109C17.3617 17.86 17.0237 18 16.6713 18L12.42 18.0001V10.998H14.769L15.12 8.29804H12.42V6.56104C12.42 5.77804 12.636 5.23803 13.77 5.23803H15.201V2.80803C14.5047 2.73178 13.8045 2.69572 13.104 2.70003C12.6274 2.66606 12.149 2.73678 11.7026 2.90724C11.2561 3.07771 10.8524 3.34378 10.5196 3.6868C10.1869 4.02982 9.93326 4.44149 9.77647 4.89292C9.61968 5.34435 9.56355 5.82462 9.61202 6.30004V8.32504H7.27202V11.025H9.61202V18.0001L1.32875 18C0.976346 18 0.638372 17.86 0.389183 17.6109C0.139993 17.3617 0 17.0237 0 16.6713V1.32875C0 0.976346 0.139993 0.638372 0.389183 0.389183C0.636532 0.141833 0.971359 0.00207346 1.32095 2.28882e-05C1.32355 7.63358e-06 1.32615 0 1.32875 0Z" fill="#FF23A7"/>
<path fill-rule="evenodd" clip-rule="evenodd" d="M16.6791 2.28882e-05H1.32095C0.971359 0.00207346 0.636532 0.141833 0.389183 0.389183C0.139993 0.638372 0 0.976346 0 1.32875V16.6713C0 17.0237 0.139993 17.3617 0.389183 17.6109C0.638372 17.86 0.976346 18 1.32875 18L9.61202 18.0001V11.025H7.27202V8.32504H9.61202V6.30004C9.56355 5.82462 9.61968 5.34435 9.77647 4.89292C9.93326 4.44149 10.1869 4.02982 10.5196 3.6868C10.8524 3.34378 11.2561 3.07771 11.7026 2.90724C12.149 2.73678 12.6274 2.66606 13.104 2.70003C13.8045 2.69572 14.5047 2.73178 15.201 2.80803V5.23803H13.77C12.636 5.23803 12.42 5.77804 12.42 6.56104V8.29804H15.12L14.769 10.998H12.42V18.0001L16.6713 18C17.0237 18 17.3617 17.86 17.6109 17.6109C17.86 17.3617 18 17.0237 18 16.6713V1.32875C18 0.976346 17.86 0.638372 17.6109 0.389183C17.3635 0.141833 17.0287 0.00207346 16.6791 2.28882e-05Z" fill="#FF23A7"/>
</svg>
