<svg width="18" height="18" viewBox="0 0 18 18" fill="none" xmlns="http://www.w3.org/2000/svg">
<g clip-path="url(#clip0_9_10254)">
<path d="M16.6713 0H1.32875C0.976346 0 0.638372 0.139993 0.389183 0.389183C0.139993 0.638372 0 0.976346 0 1.32875V16.6713C0 17.0237 0.139993 17.3617 0.389183 17.6109C0.638372 17.86 0.976346 18 1.32875 18H16.6713C17.0237 18 17.3617 17.86 17.6109 17.6109C17.86 17.3617 18 17.0237 18 16.6713V1.32875C18 0.976346 17.86 0.638372 17.6109 0.389183C17.3617 0.139993 17.0237 0 16.6713 0ZM5.36501 15.3338H2.65876V6.73751H5.36501V15.3338ZM4.01001 5.54626C3.70303 5.54453 3.40344 5.45191 3.14906 5.28008C2.89467 5.10825 2.69689 4.86491 2.58066 4.58078C2.46444 4.29664 2.43499 3.98445 2.49603 3.6836C2.55707 3.38275 2.70586 3.10671 2.92362 2.89034C3.14139 2.67397 3.41837 2.52696 3.71961 2.46785C4.02085 2.40875 4.33284 2.4402 4.61622 2.55824C4.8996 2.67629 5.14167 2.87563 5.31186 3.13112C5.48205 3.3866 5.57275 3.68678 5.57251 3.99376C5.57541 4.19928 5.5369 4.40329 5.45927 4.59361C5.38165 4.78394 5.2665 4.95669 5.12069 5.10156C4.97488 5.24644 4.8014 5.36047 4.61058 5.43687C4.41976 5.51328 4.21551 5.55048 4.01001 5.54626ZM15.34 15.3413H12.635V10.645C12.635 9.26002 12.0463 8.83252 11.2863 8.83252C10.4838 8.83252 9.69627 9.43752 9.69627 10.68V15.3413H6.99001V6.74377H9.59252V7.93502H9.62752C9.88877 7.40627 10.8038 6.50251 12.2 6.50251C13.71 6.50251 15.3413 7.39877 15.3413 10.0238L15.34 15.3413Z" fill="#FF23A7"/>
</g>
<defs>
<clipPath id="clip0_9_10254">
<rect width="18" height="18" fill="white"/>
</clipPath>
</defs>
</svg>
