<svg width="270" height="98" viewBox="0 0 270 98" fill="none" xmlns="http://www.w3.org/2000/svg">
<g filter="url(#filter0_d)">
<path fill-rule="evenodd" clip-rule="evenodd" d="M15 15.1431H218.387L245 36.9242V72.1431H40.3078L15 49.5315V15.1431Z" fill="url(#paint0_linear)"/>
</g>
<path d="M51.9677 48.1431H45.6317V35.5431H51.5537C52.7177 35.5431 53.6417 35.8191 54.3257 36.3711C55.0217 36.9231 55.3697 37.6971 55.3697 38.6931C55.3697 39.3051 55.2197 39.8271 54.9197 40.2591C54.6197 40.6911 54.2417 41.0031 53.7857 41.1951C54.4697 41.3391 55.0697 41.7111 55.5857 42.3111C56.0897 42.8991 56.3417 43.6491 56.3417 44.5611C56.3417 45.6291 55.9457 46.4931 55.1537 47.1531C54.3737 47.8131 53.3117 48.1431 51.9677 48.1431ZM48.2237 42.6171V45.9111H51.4817C52.1297 45.9111 52.6337 45.7731 52.9937 45.4971C53.3537 45.2091 53.5337 44.8011 53.5337 44.2731C53.5337 43.7451 53.3537 43.3371 52.9937 43.0491C52.6337 42.7611 52.1297 42.6171 51.4817 42.6171H48.2237ZM48.2237 37.7031V40.4751H51.1397C51.6797 40.4751 52.0997 40.3551 52.3997 40.1151C52.7117 39.8751 52.8677 39.5391 52.8677 39.1071C52.8677 38.6631 52.7117 38.3211 52.3997 38.0811C52.0997 37.8291 51.6797 37.7031 51.1397 37.7031H48.2237ZM60.9104 48.1431H58.3724V39.1611H60.9104V40.6731C61.1864 40.1931 61.6064 39.7851 62.1704 39.4491C62.7584 39.1011 63.3824 38.9271 64.0424 38.9271C64.1864 38.9271 64.2824 38.9331 64.3304 38.9451V41.4291C64.0904 41.3691 63.8264 41.3391 63.5384 41.3391C62.9504 41.3391 62.4104 41.4951 61.9184 41.8071C61.4384 42.1071 61.1024 42.4731 60.9104 42.9051V48.1431ZM67.8918 43.6431C67.8918 44.3631 68.1258 44.9631 68.5938 45.4431C69.0618 45.9231 69.6558 46.1631 70.3758 46.1631C71.0958 46.1631 71.6898 45.9231 72.1578 45.4431C72.6258 44.9511 72.8598 44.3511 72.8598 43.6431C72.8598 42.9231 72.6258 42.3291 72.1578 41.8611C71.6898 41.3811 71.0958 41.1411 70.3758 41.1411C69.6558 41.1411 69.0618 41.3811 68.5938 41.8611C68.1258 42.3291 67.8918 42.9231 67.8918 43.6431ZM65.3898 43.6431C65.3898 42.3111 65.8578 41.1951 66.7938 40.2951C67.7178 39.3831 68.9118 38.9271 70.3758 38.9271C71.8398 38.9271 73.0338 39.3831 73.9578 40.2951C74.8938 41.2071 75.3618 42.3231 75.3618 43.6431C75.3618 44.9871 74.8938 46.1151 73.9578 47.0271C73.0218 47.9271 71.8278 48.3771 70.3758 48.3771C68.9238 48.3771 67.7298 47.9271 66.7938 47.0271C65.8578 46.1151 65.3898 44.9871 65.3898 43.6431ZM81.36 48.2151H79.2L76.158 39.1611H78.696L80.478 44.5071L82.242 39.1251H84.276L86.094 44.5071L87.84 39.1611H90.36L87.282 48.2151H85.086L83.214 42.7971L81.36 48.2151ZM95.2587 48.3771C93.6627 48.3771 92.4027 48.0951 91.4787 47.5311V45.2811C91.9107 45.5691 92.4567 45.8151 93.1167 46.0191C93.7887 46.2111 94.4667 46.3071 95.1507 46.3071C96.1827 46.3071 96.6987 46.0551 96.6987 45.5511C96.6987 45.3111 96.5487 45.1251 96.2487 44.9931C96.0927 44.9211 95.9367 44.8671 95.7807 44.8311L95.1147 44.6691C95.0187 44.6451 94.8867 44.6151 94.7187 44.5791C94.5627 44.5311 94.4547 44.4951 94.3947 44.4711C93.3267 44.1831 92.5707 43.8411 92.1267 43.4451C91.6947 43.0371 91.4787 42.4491 91.4787 41.6811C91.4787 40.8291 91.8267 40.1571 92.5227 39.6651C93.2307 39.1731 94.2027 38.9271 95.4387 38.9271C96.8067 38.9271 97.9287 39.2031 98.8047 39.7551V41.9151C97.7367 41.2911 96.6507 40.9791 95.5467 40.9791C94.5867 40.9791 94.1067 41.2191 94.1067 41.6991C94.1067 41.7951 94.1307 41.8851 94.1787 41.9691C94.2387 42.0411 94.2927 42.0951 94.3407 42.1311C94.4007 42.1671 94.4907 42.2211 94.6107 42.2931C94.6827 42.3171 94.8147 42.3591 95.0067 42.4191C95.1987 42.4671 95.3247 42.5031 95.3847 42.5271L96.3387 42.7251C97.3347 42.9531 98.0727 43.2951 98.5527 43.7511C99.0327 44.1951 99.2727 44.8011 99.2727 45.5691C99.2727 46.4091 98.9067 47.0871 98.1747 47.6031C97.4427 48.1191 96.4707 48.3771 95.2587 48.3771ZM105.55 48.3771C104.146 48.3771 102.964 47.9451 102.004 47.0811C101.044 46.2171 100.564 45.0711 100.564 43.6431C100.564 42.3111 100.996 41.1951 101.86 40.2951C102.724 39.3831 103.852 38.9271 105.244 38.9271C106.54 38.9271 107.578 39.3891 108.358 40.3131C109.138 41.2371 109.528 42.3591 109.528 43.6791V44.3451H103.084C103.216 44.9451 103.546 45.4071 104.074 45.7311C104.614 46.0551 105.286 46.2171 106.09 46.2171C107.086 46.2171 108.046 45.9531 108.97 45.4251V47.4591C108.166 48.0711 107.026 48.3771 105.55 48.3771ZM103.084 42.7251H107.026C107.002 42.2091 106.816 41.7831 106.468 41.4471C106.132 41.0991 105.688 40.9251 105.136 40.9251C104.572 40.9251 104.104 41.0931 103.732 41.4291C103.36 41.7531 103.144 42.1851 103.084 42.7251ZM117.989 43.6431C117.989 44.3631 118.223 44.9631 118.691 45.4431C119.159 45.9231 119.753 46.1631 120.473 46.1631C121.193 46.1631 121.787 45.9231 122.255 45.4431C122.723 44.9511 122.957 44.3511 122.957 43.6431C122.957 42.9231 122.723 42.3291 122.255 41.8611C121.787 41.3811 121.193 41.1411 120.473 41.1411C119.753 41.1411 119.159 41.3811 118.691 41.8611C118.223 42.3291 117.989 42.9231 117.989 43.6431ZM115.487 43.6431C115.487 42.3111 115.955 41.1951 116.891 40.2951C117.815 39.3831 119.009 38.9271 120.473 38.9271C121.937 38.9271 123.131 39.3831 124.055 40.2951C124.991 41.2071 125.459 42.3231 125.459 43.6431C125.459 44.9871 124.991 46.1151 124.055 47.0271C123.119 47.9271 121.925 48.3771 120.473 48.3771C119.021 48.3771 117.827 47.9271 116.891 47.0271C115.955 46.1151 115.487 44.9871 115.487 43.6431ZM129.869 42.4191V48.1431H127.331V39.1611H129.869V40.2411C130.673 39.3651 131.675 38.9271 132.875 38.9271C133.907 38.9271 134.711 39.2571 135.287 39.9171C135.863 40.5651 136.151 41.4711 136.151 42.6351V48.1431H133.613V43.1571C133.613 42.5091 133.451 42.0291 133.127 41.7171C132.815 41.4051 132.407 41.2491 131.903 41.2491C131.519 41.2491 131.135 41.3631 130.751 41.5911C130.379 41.8071 130.085 42.0831 129.869 42.4191ZM149.544 48.1431H143.208V35.5431H149.13C150.294 35.5431 151.218 35.8191 151.902 36.3711C152.598 36.9231 152.946 37.6971 152.946 38.6931C152.946 39.3051 152.796 39.8271 152.496 40.2591C152.196 40.6911 151.818 41.0031 151.362 41.1951C152.046 41.3391 152.646 41.7111 153.162 42.3111C153.666 42.8991 153.918 43.6491 153.918 44.5611C153.918 45.6291 153.522 46.4931 152.73 47.1531C151.95 47.8131 150.888 48.1431 149.544 48.1431ZM145.8 42.6171V45.9111H149.058C149.706 45.9111 150.21 45.7731 150.57 45.4971C150.93 45.2091 151.11 44.8011 151.11 44.2731C151.11 43.7451 150.93 43.3371 150.57 43.0491C150.21 42.7611 149.706 42.6171 149.058 42.6171H145.8ZM145.8 37.7031V40.4751H148.716C149.256 40.4751 149.676 40.3551 149.976 40.1151C150.288 39.8751 150.444 39.5391 150.444 39.1071C150.444 38.6631 150.288 38.3211 149.976 38.0811C149.676 37.8291 149.256 37.7031 148.716 37.7031H145.8ZM159.261 48.3771C157.665 48.3771 156.405 48.0951 155.481 47.5311V45.2811C155.913 45.5691 156.459 45.8151 157.119 46.0191C157.791 46.2111 158.469 46.3071 159.153 46.3071C160.185 46.3071 160.701 46.0551 160.701 45.5511C160.701 45.3111 160.551 45.1251 160.251 44.9931C160.095 44.9211 159.939 44.8671 159.783 44.8311L159.117 44.6691C159.021 44.6451 158.889 44.6151 158.721 44.5791C158.565 44.5311 158.457 44.4951 158.397 44.4711C157.329 44.1831 156.573 43.8411 156.129 43.4451C155.697 43.0371 155.481 42.4491 155.481 41.6811C155.481 40.8291 155.829 40.1571 156.525 39.6651C157.233 39.1731 158.205 38.9271 159.441 38.9271C160.809 38.9271 161.931 39.2031 162.807 39.7551V41.9151C161.739 41.2911 160.653 40.9791 159.549 40.9791C158.589 40.9791 158.109 41.2191 158.109 41.6991C158.109 41.7951 158.133 41.8851 158.181 41.9691C158.241 42.0411 158.295 42.0951 158.343 42.1311C158.403 42.1671 158.493 42.2211 158.613 42.2931C158.685 42.3171 158.817 42.3591 159.009 42.4191C159.201 42.4671 159.327 42.5031 159.387 42.5271L160.341 42.7251C161.337 42.9531 162.075 43.2951 162.555 43.7511C163.035 44.1951 163.275 44.8011 163.275 45.5691C163.275 46.4091 162.909 47.0871 162.177 47.6031C161.445 48.1191 160.473 48.3771 159.261 48.3771ZM169.444 48.3771C168.112 48.3771 166.966 47.9451 166.006 47.0811C165.046 46.1931 164.566 45.0411 164.566 43.6251C164.566 42.2091 165.046 41.0751 166.006 40.2231C166.978 39.3591 168.136 38.9271 169.48 38.9271C170.464 38.9271 171.352 39.1251 172.144 39.5211V41.6811C171.364 41.3211 170.602 41.1411 169.858 41.1411C169.066 41.1411 168.4 41.3751 167.86 41.8431C167.332 42.2991 167.068 42.8991 167.068 43.6431C167.068 44.3871 167.338 44.9931 167.878 45.4611C168.418 45.9291 169.078 46.1631 169.858 46.1631C170.782 46.1631 171.592 45.9591 172.288 45.5511V47.7111C171.448 48.1551 170.5 48.3771 169.444 48.3771ZM178.761 48.3951C176.865 48.3951 175.269 47.9451 173.973 47.0451V44.3451C174.501 44.8011 175.197 45.1971 176.061 45.5331C176.937 45.8571 177.801 46.0191 178.653 46.0191C179.361 46.0191 179.943 45.8931 180.399 45.6411C180.855 45.3771 181.083 45.0171 181.083 44.5611C181.083 44.0691 180.867 43.7211 180.435 43.5171C180.255 43.4091 180.015 43.3011 179.715 43.1931L179.283 43.0491L178.275 42.7431L177.339 42.4371C177.207 42.4011 176.925 42.2991 176.493 42.1311C176.121 41.9871 175.851 41.8611 175.683 41.7531C175.059 41.3211 174.663 40.9551 174.495 40.6551C174.207 40.0791 174.063 39.4911 174.063 38.8911C174.063 37.7751 174.489 36.8991 175.341 36.2631C176.193 35.6151 177.351 35.2911 178.815 35.2911C180.291 35.2911 181.665 35.6391 182.937 36.3351V38.8551C181.653 38.0631 180.291 37.6671 178.851 37.6671C177.423 37.6671 176.709 38.0811 176.709 38.9091C176.709 39.2691 176.931 39.5571 177.375 39.7731C177.639 39.9171 177.981 40.0431 178.401 40.1511C178.965 40.3071 179.421 40.4391 179.769 40.5471C180.813 40.8711 181.725 41.3091 182.505 41.8611C183.345 42.4491 183.765 43.3251 183.765 44.4891C183.765 45.7011 183.291 46.6551 182.343 47.3511C181.395 48.0471 180.201 48.3951 178.761 48.3951ZM190.045 48.3771C188.713 48.3771 187.567 47.9451 186.607 47.0811C185.647 46.1931 185.167 45.0411 185.167 43.6251C185.167 42.2091 185.647 41.0751 186.607 40.2231C187.579 39.3591 188.737 38.9271 190.081 38.9271C191.065 38.9271 191.953 39.1251 192.745 39.5211V41.6811C191.965 41.3211 191.203 41.1411 190.459 41.1411C189.667 41.1411 189.001 41.3751 188.461 41.8431C187.933 42.2991 187.669 42.8991 187.669 43.6431C187.669 44.3871 187.939 44.9931 188.479 45.4611C189.019 45.9291 189.679 46.1631 190.459 46.1631C191.383 46.1631 192.193 45.9591 192.889 45.5511V47.7111C192.049 48.1551 191.101 48.3771 190.045 48.3771ZM203.592 46.1811C203.808 46.1811 203.982 46.1451 204.114 46.0731V47.9271C203.79 48.1791 203.334 48.3051 202.746 48.3051C201.726 48.3051 201.048 47.9211 200.712 47.1531C199.92 47.9691 198.888 48.3771 197.616 48.3771C196.632 48.3771 195.834 48.1011 195.222 47.5491C194.61 46.9971 194.304 46.2711 194.304 45.3711C194.304 44.4111 194.652 43.6791 195.348 43.1751C196.044 42.6711 196.878 42.4191 197.85 42.4191C198.87 42.4191 199.734 42.6051 200.442 42.9771V42.7071C200.442 41.5791 199.65 41.0151 198.066 41.0151C197.094 41.0151 196.188 41.2671 195.348 41.7711V39.6471C196.26 39.1671 197.37 38.9271 198.678 38.9271C199.974 38.9271 201.006 39.2391 201.774 39.8631C202.566 40.4871 202.962 41.3511 202.962 42.4551V45.4971C202.962 45.9531 203.172 46.1811 203.592 46.1811ZM200.442 45.4971V44.5971C199.914 44.2491 199.29 44.0751 198.57 44.0751C198.03 44.0751 197.598 44.1771 197.274 44.3811C196.962 44.5851 196.806 44.8731 196.806 45.2451C196.806 45.6291 196.95 45.9231 197.238 46.1271C197.526 46.3191 197.916 46.4151 198.408 46.4151C199.296 46.4151 199.974 46.1091 200.442 45.4971ZM208.408 42.4191V48.1431H205.87V39.1611H208.408V40.2411C209.212 39.3651 210.214 38.9271 211.414 38.9271C212.446 38.9271 213.25 39.2571 213.826 39.9171C214.402 40.5651 214.69 41.4711 214.69 42.6351V48.1431H212.152V43.1571C212.152 42.5091 211.99 42.0291 211.666 41.7171C211.354 41.4051 210.946 41.2491 210.442 41.2491C210.058 41.2491 209.674 41.3631 209.29 41.5911C208.918 41.8071 208.624 42.0831 208.408 42.4191Z" fill="white"/>
<defs>
<filter id="filter0_d" x="0" y="0.143066" width="270" height="97" filterUnits="userSpaceOnUse" color-interpolation-filters="sRGB">
<feFlood flood-opacity="0" result="BackgroundImageFix"/>
<feColorMatrix in="SourceAlpha" type="matrix" values="0 0 0 0 0 0 0 0 0 0 0 0 0 0 0 0 0 0 127 0" result="hardAlpha"/>
<feOffset dx="5" dy="5"/>
<feGaussianBlur stdDeviation="10"/>
<feComposite in2="hardAlpha" operator="out"/>
<feColorMatrix type="matrix" values="0 0 0 0 0.231373 0 0 0 0 0.487372 0 0 0 0 0.984314 0 0 0 0.3 0"/>
<feBlend mode="normal" in2="BackgroundImageFix" result="effect1_dropShadow"/>
<feBlend mode="normal" in="SourceGraphic" in2="effect1_dropShadow" result="shape"/>
</filter>
<linearGradient id="paint0_linear" x1="215.38" y1="7.3168" x2="32.1201" y2="71.4099" gradientUnits="userSpaceOnUse">
<stop stop-color="#D73898"/>
<stop offset="1" stop-color="#056ECF"/>
</linearGradient>
</defs>
</svg>
