<svg width="766" height="357" viewBox="0 0 766 357" fill="none" xmlns="http://www.w3.org/2000/svg">
<g filter="url(#filter0_d_728:3008)">
<path d="M639.84 13.3916H408.37H28C19.7157 13.3916 13 20.1073 13 28.3916V254.203C13 259.323 15.6111 264.089 19.9256 266.845L114.156 327.033C116.568 328.573 119.369 329.392 122.231 329.392H734C742.284 329.392 749 322.676 749 314.392V88.3536C749 83.2268 746.382 78.4551 742.057 75.7013L647.897 15.7392C645.489 14.206 642.694 13.3916 639.84 13.3916Z" fill="#03000E"/>
<path d="M408.37 13.8916H639.84C642.599 13.8916 645.301 14.6789 647.629 16.161L741.789 76.123C745.969 78.785 748.5 83.3977 748.5 88.3536V314.392C748.5 322.4 742.008 328.892 734 328.892H122.231C119.465 328.892 116.757 328.1 114.425 326.612L20.1947 266.423C16.024 263.759 13.5 259.152 13.5 254.203V28.3916C13.5 20.3835 19.9919 13.8916 28 13.8916H408.37Z" stroke="#FF23A7"/>
</g>
<defs>
<filter id="filter0_d_728:3008" x="0" y="0.391602" width="776" height="356" filterUnits="userSpaceOnUse" color-interpolation-filters="sRGB">
<feFlood flood-opacity="0" result="BackgroundImageFix"/>
<feColorMatrix in="SourceAlpha" type="matrix" values="0 0 0 0 0 0 0 0 0 0 0 0 0 0 0 0 0 0 127 0" result="hardAlpha"/>
<feOffset dx="7" dy="7"/>
<feGaussianBlur stdDeviation="10"/>
<feColorMatrix type="matrix" values="0 0 0 0 1 0 0 0 0 0.137255 0 0 0 0 0.654902 0 0 0 0.5 0"/>
<feBlend mode="normal" in2="BackgroundImageFix" result="effect1_dropShadow_728:3008"/>
<feBlend mode="normal" in="SourceGraphic" in2="effect1_dropShadow_728:3008" result="shape"/>
</filter>
</defs>
</svg>
