<svg width="137" height="122" viewBox="0 0 137 122" fill="none" xmlns="http://www.w3.org/2000/svg">
<g filter="url(#filter0_d)">
<path d="M89.1731 51.8031L76.3016 46.8445L75.4442 56.524L88.326 61.4722C92.1172 62.9288 94.204 65.5837 93.9715 68.1508L94.829 58.4713C95.0511 55.9145 92.9643 53.2597 89.1731 51.8031Z" fill="url(#paint0_linear)"/>
<path d="M44.8111 34.7524L44.6562 34.6904C44.5115 34.6387 44.3669 34.5871 44.2171 34.5406C44.0673 34.4941 43.9847 34.4631 43.8711 34.4321L43.8298 34.3908L43.8039 34.365C43.649 34.3133 43.494 34.272 43.3391 34.2307C43.1841 34.1894 43.0446 34.1532 42.8949 34.117C42.7296 34.0757 42.5539 34.0447 42.3835 34.0086C42.213 33.9724 42.1201 33.9621 41.991 33.9363L41.8773 33.9156L41.8412 33.8794C41.607 33.8381 41.3694 33.8071 41.1284 33.7865C41.1031 33.7796 41.0768 33.7779 41.0509 33.7813C40.6067 33.7297 40.1573 33.7038 39.7131 33.6935L39.4084 33.6883C39.0262 33.6883 38.6439 33.6987 38.2669 33.7245L38.0913 33.7245L37.9931 33.74L37.7091 33.7658C37.5696 33.7813 37.4301 33.7865 37.2958 33.8071L37.0634 33.8433L36.831 33.8794L36.6295 33.9053L36.0304 34.0292L36.0045 34.0551L35.5139 34.1739L35.1988 34.2617L35.0955 34.2927L35.0542 34.334L34.5945 34.4838L34.3465 34.5767L34.2846 34.6387L34.2019 34.6697L33.8249 34.8298L33.5356 34.9641L33.5046 34.9951L33.174 35.1707L32.8538 35.3463L32.8177 35.3825L32.7867 35.4135L32.5697 35.5478L32.2908 35.7441L32.172 35.8629L32.1255 35.9093L32.0532 35.9817L31.795 36.1883L31.5574 36.4259L31.3146 36.6686L31.0718 36.9114L31.0047 36.9785L30.8239 37.1593C30.7361 37.2471 30.6535 37.3298 30.6173 37.4589L30.5347 37.5415L30.4624 37.6138L30.3745 37.7533L30.1886 38.1252L30.1473 38.1665L30.1008 38.2853L29.9975 38.5436L29.9458 38.7398L29.8787 38.9826L29.8477 39.1169C29.8174 39.2619 29.795 39.4085 29.7806 39.5559L28.9231 49.2354C28.9407 49.042 28.9735 48.8503 29.0213 48.6621L29.0884 48.4193C29.1275 48.2638 29.1793 48.1118 29.2434 47.9648L29.2899 47.846C29.3756 47.6488 29.474 47.4573 29.5843 47.2727L29.6566 47.2004C29.7882 46.9915 29.9331 46.7914 30.0905 46.6012C30.2642 46.4068 30.4487 46.2223 30.6431 46.0485C30.8242 45.8837 31.0139 45.7285 31.2113 45.5837L31.2578 45.5372C31.4592 45.3874 31.671 45.2479 31.8776 45.124L31.9086 45.093C32.141 44.9469 32.3826 44.8157 32.6317 44.7004L32.6627 44.6694C32.9055 44.5506 33.1534 44.4473 33.391 44.3647L33.4788 44.3285C33.7267 44.2356 33.985 44.1426 34.2484 44.0651L34.3465 44.0393L35.1575 43.8172C35.426 43.7552 35.6946 43.7036 35.9736 43.6622C36.0502 43.6452 36.1278 43.6331 36.206 43.6261C36.4178 43.5899 36.6347 43.5692 36.8465 43.5434L37.1305 43.5176L37.4043 43.5021C37.7796 43.478 38.1619 43.4677 38.551 43.4711L38.8505 43.4711C39.2948 43.4815 39.7441 43.5073 40.1883 43.5589C40.4776 43.5899 40.7616 43.6261 41.0457 43.6726L41.1542 43.688C41.4693 43.7449 41.774 43.8017 42.0839 43.874C42.399 43.9515 42.7192 44.0341 43.0343 44.1322C43.048 44.1425 43.0602 44.1547 43.0705 44.1684C43.3855 44.2665 43.7006 44.375 44.0105 44.4886L56.8924 49.4472L57.755 39.7625L44.8111 34.7524Z" fill="url(#paint1_linear)"/>
<path d="M80.9141 30.8682L80.945 30.8992C80.9868 30.9468 81.0317 30.9917 81.0793 31.0335C81.1671 31.1213 81.2549 31.2091 81.3789 31.2607L81.6733 31.4932C81.7405 31.5603 81.8025 31.6223 81.8696 31.6894L81.9471 31.7669C82.0401 31.8599 82.1279 31.9477 82.2208 32.0407C82.3138 32.1336 82.4119 32.2318 82.5049 32.3247L82.6909 32.5107C82.7088 32.5236 82.7245 32.5393 82.7373 32.5572C82.7641 32.5784 82.7884 32.6027 82.8097 32.6295C82.9091 32.7484 83.0022 32.8726 83.0886 33.0014C83.2074 33.1202 83.2694 33.2751 83.352 33.4198C83.4605 33.6109 83.5586 33.8123 83.6464 34.0034L83.7342 34.2565L83.7962 34.4115C83.8858 34.6827 83.9532 34.9609 83.9976 35.2431C84.0235 35.2689 84.0028 35.3412 84.0131 35.3928C84.0467 35.6826 84.0519 35.975 84.0286 36.2658L83.1712 45.9452C83.1953 45.6526 83.1884 45.3583 83.1506 45.0672L83.1351 44.9174C83.0906 44.6364 83.0215 44.3598 82.9285 44.0909C82.9141 44.0361 82.8951 43.9825 82.8716 43.9308C82.764 43.6408 82.6345 43.3593 82.4843 43.0889C82.3064 42.7856 82.1043 42.4971 81.8799 42.2263C81.8799 42.2263 81.8489 42.1953 81.8283 42.1747C81.5834 41.8934 81.3193 41.6293 81.038 41.3844L81.007 41.3534C80.7034 41.0854 80.3843 40.8353 80.0515 40.6045L80.0153 40.5683C79.6482 40.3209 79.2671 40.095 78.8738 39.8917C78.4432 39.6682 78 39.4699 77.5464 39.2977C77.2416 39.1789 76.9317 39.0756 76.6167 38.9775C76.602 38.9646 76.5881 38.9508 76.5753 38.9361C76.2602 38.838 75.94 38.7554 75.6198 38.683C75.3099 38.6107 75.0051 38.5539 74.6952 38.5023L74.5816 38.4816C74.2975 38.4351 74.0134 38.399 73.7293 38.3628C73.28 38.3163 72.8306 38.2905 72.3916 38.275L72.0817 38.275C71.6925 38.2716 71.3103 38.2819 70.935 38.306L70.6716 38.3215L70.3823 38.3525L69.7367 38.43L69.5042 38.4661C69.2305 38.5126 68.9567 38.5591 68.6881 38.6211L67.8721 38.838L67.7688 38.869C67.5053 38.9465 67.2471 39.0394 66.9992 39.1324L66.9372 39.1944C66.6789 39.2977 66.431 39.401 66.2089 39.4991L66.1779 39.5301C65.9287 39.6468 65.6857 39.7761 65.4496 39.9175L65.4186 39.9485C65.1965 40.088 64.9847 40.2274 64.7988 40.3617L64.7523 40.4082C64.3365 40.7212 63.9571 41.0799 63.6211 41.4774L56.9891 49.4317L57.8517 39.7471L64.3133 31.7566L64.3804 31.6894L64.6232 31.4467L64.866 31.2039L65.0984 30.9715L65.3618 30.7597L65.4341 30.6874L65.4806 30.6409L65.5994 30.5221L65.8835 30.331L66.1004 30.1967L66.1314 30.1657L66.1624 30.1347L66.4775 29.9539L66.8132 29.7835L66.839 29.7577L66.87 29.7267C66.9682 29.6802 67.056 29.6337 67.1541 29.5975C67.2765 29.5367 67.4024 29.4833 67.5312 29.4374L67.619 29.4013L67.7068 29.3651L67.9495 29.2773L68.4041 29.1224L68.4816 29.1069L68.5848 29.0759L68.8948 28.9829L69.3958 28.8641L69.9898 28.7453L70.2067 28.7143L70.4288 28.6782L70.6561 28.6472L71.0745 28.6007L71.3637 28.5697L71.4618 28.5645L71.6271 28.5542C72.0093 28.537 72.3916 28.5267 72.7738 28.5232L73.0837 28.5232C73.5279 28.5335 73.9721 28.5645 74.4215 28.611L74.4989 28.6162C74.7365 28.6472 74.9741 28.6782 75.2117 28.7195L75.2789 28.7246L75.3874 28.7505L75.7747 28.8176C75.9504 28.8486 76.126 28.8899 76.2964 28.9261C76.441 28.9674 76.5908 29.0036 76.7406 29.0397C76.8904 29.0759 77.0505 29.1224 77.2055 29.174L77.2313 29.1998C77.2313 29.1998 77.2571 29.2257 77.2726 29.2412C77.2881 29.2567 77.4999 29.3135 77.6187 29.3496L78.0526 29.5046L78.2075 29.5666C78.3005 29.5976 78.3883 29.6337 78.4761 29.6699C78.5639 29.706 78.7395 29.7783 78.8738 29.8403C79.0081 29.9023 79.1217 29.9539 79.2457 30.0159C79.3697 30.0779 79.442 30.1089 79.5298 30.1554L79.566 30.1916L79.9068 30.3775C79.9947 30.4653 80.1289 30.5066 80.2374 30.5738C80.3459 30.6409 80.4544 30.7081 80.5525 30.7752L80.9141 30.8682Z" fill="url(#paint2_linear)"/>
<path d="M40.3162 61.7979L39.4536 71.4722C39.5546 70.4968 39.9552 69.5766 40.6003 68.838L47.2426 60.8733L48.1001 51.1938L41.4629 59.1533C40.8138 59.8934 40.4127 60.8182 40.3162 61.7979Z" fill="url(#paint3_linear)"/>
<path d="M29.8574 46.6069C32.5278 43.451 38.8086 42.4593 43.9376 44.4376L56.8194 49.3961L63.467 41.4366C66.1167 38.2601 72.4285 37.289 77.5627 39.2621C82.6968 41.2352 84.7319 45.3983 82.0718 48.5852L75.4398 56.5395L88.3217 61.4877C93.461 63.466 95.4857 67.6187 92.8205 70.8108C90.1553 74.0029 83.8693 74.9584 78.7352 72.9853L65.8223 68.0061L59.1851 75.9656C56.5405 79.137 50.2287 80.1081 45.0894 78.1401C39.9501 76.1722 37.9202 72.004 40.5802 68.8171L47.2226 60.8524L34.3407 55.9042C29.2427 53.9673 27.2232 49.7887 29.8574 46.6069Z" fill="url(#paint4_linear)"/>
</g>
<defs>
<filter id="filter0_d" x="0.700195" y="0.523193" width="136.145" height="120.635" filterUnits="userSpaceOnUse" color-interpolation-filters="sRGB">
<feFlood flood-opacity="0" result="BackgroundImageFix"/>
<feColorMatrix in="SourceAlpha" type="matrix" values="0 0 0 0 0 0 0 0 0 0 0 0 0 0 0 0 0 0 127 0" result="hardAlpha"/>
<feOffset dx="7" dy="7"/>
<feGaussianBlur stdDeviation="17.5"/>
<feColorMatrix type="matrix" values="0 0 0 0 1 0 0 0 0 0.137255 0 0 0 0 0.654902 0 0 0 0.5 0"/>
<feBlend mode="normal" in2="BackgroundImageFix" result="effect1_dropShadow"/>
<feBlend mode="normal" in="SourceGraphic" in2="effect1_dropShadow" result="shape"/>
</filter>
<linearGradient id="paint0_linear" x1="86.1919" y1="70.4276" x2="85.7236" y2="53.6571" gradientUnits="userSpaceOnUse">
<stop stop-color="#140B31"/>
<stop offset="0.557292" stop-color="#10072D"/>
<stop offset="1" stop-color="#07001C"/>
</linearGradient>
<linearGradient id="paint1_linear" x1="37.2697" y1="63.6546" x2="30.5457" y2="44.3345" gradientUnits="userSpaceOnUse">
<stop stop-color="#140B31"/>
<stop offset="0.557292" stop-color="#10072D"/>
<stop offset="1" stop-color="#07001C"/>
</linearGradient>
<linearGradient id="paint2_linear" x1="62.6252" y1="61.8256" x2="55.03" y2="45.1379" gradientUnits="userSpaceOnUse">
<stop stop-color="#140B31"/>
<stop offset="0.557292" stop-color="#10072D"/>
<stop offset="1" stop-color="#07001C"/>
</linearGradient>
<linearGradient id="paint3_linear" x1="36.3397" y1="72.9438" x2="32.5561" y2="67.3362" gradientUnits="userSpaceOnUse">
<stop stop-color="#140B31"/>
<stop offset="0.557292" stop-color="#10072D"/>
<stop offset="1" stop-color="#07001C"/>
</linearGradient>
<linearGradient id="paint4_linear" x1="52.529" y1="98.8221" x2="40.5638" y2="55.4915" gradientUnits="userSpaceOnUse">
<stop stop-color="#140B31"/>
<stop offset="0.557292" stop-color="#10072D"/>
<stop offset="1" stop-color="#07001C"/>
</linearGradient>
</defs>
</svg>
