<svg width="114" height="116" viewBox="0 0 114 116" fill="none" xmlns="http://www.w3.org/2000/svg">
<g filter="url(#filter0_d)">
<path d="M31.5737 42.6537L37.9374 50.5313L42.0357 44.6918L35.6617 36.817C33.7859 34.4992 33.4337 32.0452 34.5238 30.4983L30.4255 36.3379C29.3457 37.8819 29.6979 40.3359 31.5737 42.6537Z" fill="url(#paint0_linear)"/>
<path d="M53.5213 69.779L53.5971 69.8753C53.6701 69.9612 53.7431 70.0472 53.8212 70.1317C53.8994 70.2162 53.9406 70.2663 54.0014 70.3277L54.0126 70.3691L54.0195 70.395C54.0991 70.4848 54.1824 70.5679 54.2658 70.6511C54.3491 70.7342 54.4245 70.8084 54.5065 70.8864C54.5964 70.9733 54.6967 71.0575 54.7918 71.143C54.8869 71.2286 54.9422 71.2693 55.0148 71.3331L55.0795 71.388L55.0892 71.4242C55.2229 71.5365 55.3626 71.6434 55.5083 71.745C55.5218 71.7586 55.5379 71.7694 55.5556 71.7767C55.8191 71.9726 56.0953 72.154 56.374 72.3236L56.5658 72.4388C56.8089 72.5791 57.0557 72.7128 57.3049 72.8348L57.4165 72.8993L57.4846 72.9254L57.6747 73.0133C57.7691 73.0546 57.8596 73.1026 57.9526 73.1387L58.1137 73.2011L58.2747 73.2634L58.4123 73.3209L58.8387 73.462L58.8646 73.4551L59.2202 73.5597L59.4528 73.6195L59.5298 73.6377L59.5713 73.6266L59.9185 73.7001L60.1103 73.732L60.1725 73.7154L60.2364 73.726L60.5349 73.7626L60.7681 73.7834L60.7992 73.7751L61.0738 73.7848L61.3419 73.7907L61.3782 73.781L61.4092 73.7726L61.5965 73.7669L61.8459 73.7445L61.965 73.7126L62.0116 73.7001L62.0841 73.6806L62.3242 73.6441L62.5625 73.5802L62.8059 73.515L63.0494 73.4497L63.1167 73.4317L63.298 73.3831C63.3861 73.3595 63.469 73.3373 63.5394 73.2685L63.6223 73.2463L63.6948 73.2268L63.8018 73.1704L64.0565 73.0022L64.098 72.9911L64.1711 72.9327L64.3316 72.8064L64.4365 72.7005L64.5683 72.5708L64.6373 72.4968C64.7098 72.4158 64.7779 72.3308 64.8412 72.2423L68.9395 66.4028C68.8573 66.5193 68.7661 66.6291 68.6667 66.7313L68.5348 66.861C68.4529 66.9455 68.3642 67.0231 68.2695 67.0931L68.1963 67.1516C68.0694 67.2455 67.9366 67.3311 67.7987 67.408L67.7261 67.4275C67.5658 67.5119 67.4002 67.586 67.2303 67.6491C67.0485 67.7089 66.8635 67.7585 66.6761 67.7977C66.5004 67.836 66.3229 67.865 66.1442 67.8846L66.0976 67.8971C65.9145 67.9184 65.7287 67.9294 65.5518 67.9323L65.5207 67.9407C65.3193 67.9482 65.1176 67.9429 64.9169 67.9248L64.8858 67.9331C64.6878 67.9196 64.4923 67.8942 64.3109 67.8596L64.2418 67.8503C64.05 67.8184 63.8517 67.7827 63.6557 67.7353L63.5839 67.7157L62.9867 67.5592C62.7932 67.5 62.6035 67.4343 62.411 67.3582C62.356 67.3409 62.3022 67.3201 62.2499 67.2958C62.102 67.2411 61.9565 67.1746 61.8124 67.1133L61.6223 67.0254L61.4425 66.9348C61.195 66.8123 60.9482 66.6786 60.7021 66.5335L60.5116 66.4236C60.233 66.2539 59.9567 66.0726 59.6933 65.8767C59.5207 65.7508 59.3534 65.6235 59.1898 65.4897L59.1266 65.44C58.9471 65.2882 58.7742 65.1402 58.6037 64.9805C58.4318 64.8156 58.2585 64.6455 58.0942 64.4674C58.0893 64.4559 58.086 64.4437 58.0845 64.4312C57.9202 64.2531 57.7597 64.0685 57.6044 63.8825L51.2342 56.0011L47.1307 61.842L53.5213 69.779Z" fill="url(#paint1_linear)"/>
<path d="M29.1407 58.9956L29.1323 58.9645C29.1233 58.9189 29.1112 58.8739 29.0963 58.8298C29.0727 58.7418 29.0491 58.6537 28.9892 58.5754L28.8873 58.3195C28.8693 58.2522 28.8526 58.19 28.8346 58.1227L28.8138 58.045C28.7888 57.9517 28.7652 57.8637 28.7402 57.7704C28.7152 57.6772 28.6889 57.5788 28.6639 57.4855L28.6139 57.299C28.6073 57.2843 28.603 57.2685 28.6014 57.2524C28.5922 57.2291 28.5857 57.2047 28.582 57.1799C28.5624 57.0677 28.5488 56.9546 28.5412 56.8411C28.5092 56.7219 28.5267 56.6006 28.5273 56.4784C28.5284 56.317 28.54 56.1529 28.5543 55.9992L28.5914 55.806L28.6089 55.6847C28.6515 55.4794 28.7107 55.2778 28.7861 55.0821C28.7791 55.0562 28.8188 55.0178 28.8312 54.9811C28.9162 54.7846 29.0202 54.5968 29.1418 54.4205L33.2401 48.5809C33.1174 48.7581 33.0137 48.9478 32.9309 49.1468L32.8858 49.2477C32.8109 49.4427 32.7533 49.6439 32.7138 49.849C32.7027 49.8892 32.6951 49.9302 32.6911 49.9717C32.6531 50.1956 32.6321 50.4221 32.6284 50.6492C32.6301 50.9073 32.6527 51.1649 32.696 51.4194C32.696 51.4194 32.7043 51.4505 32.7098 51.4712C32.7623 51.74 32.8332 52.0048 32.9222 52.2638L32.9305 52.2949C33.0252 52.5768 33.1363 52.8529 33.2631 53.1218L33.2729 53.1581C33.4155 53.4501 33.5749 53.7337 33.7503 54.0073C33.942 54.3075 34.151 54.5963 34.3762 54.8723C34.5264 55.0597 34.6855 55.2391 34.8498 55.4172C34.8544 55.4307 34.8581 55.4446 34.8609 55.4586C35.0252 55.6367 35.1985 55.8067 35.3755 55.9703C35.546 56.13 35.7189 56.278 35.897 56.4246L35.9617 56.4795C36.1252 56.6133 36.2926 56.7406 36.4599 56.8678C36.7286 57.0624 37.0048 57.2437 37.2783 57.4148L37.4753 57.5285C37.7214 57.6735 37.9682 57.8073 38.2157 57.9297L38.3889 58.0166L38.5842 58.1031L39.0231 58.2908L39.1842 58.3531C39.3753 58.4241 39.5664 58.495 39.76 58.5542L40.3585 58.7158L40.4355 58.734C40.6315 58.7815 40.8298 58.8172 41.0215 58.8491L41.0837 58.8324C41.2858 58.8615 41.4814 58.8869 41.6586 58.906L41.6897 58.8977C41.891 58.9149 42.093 58.9219 42.295 58.9187L42.326 58.9104C42.5184 58.9032 42.7043 58.8923 42.8718 58.8752L42.9184 58.8627C43.2977 58.8163 43.6706 58.7275 44.0301 58.5981L51.1667 55.9752L47.0632 61.8162L40.0217 64.5246L39.9544 64.5427L39.7109 64.6079L39.4674 64.6731L39.2343 64.7356L38.9891 64.7735L38.9166 64.793L38.87 64.8055L38.7508 64.8374L38.5 64.8546L38.3128 64.8604L38.2817 64.8687L38.2507 64.877L37.984 64.8763L37.7079 64.8614L37.682 64.8684L37.651 64.8767C37.5715 64.8702 37.4986 64.8676 37.4229 64.8545C37.3228 64.8483 37.2231 64.836 37.1244 64.8179L37.0553 64.8087L36.9862 64.7994L36.7996 64.7661L36.4538 64.6978L36.3988 64.6792L36.3218 64.661L36.0906 64.6063L35.7284 64.498L35.3071 64.3555L35.1578 64.2955L35.0034 64.237L34.8475 64.1733L34.5644 64.0492L34.3691 63.9628L34.3048 63.93L34.196 63.8759C33.9466 63.7466 33.6998 63.6128 33.4555 63.4747L33.2585 63.3609C32.9798 63.1913 32.7088 63.0086 32.4401 62.814L32.3928 62.7823C32.2531 62.6754 32.1134 62.5685 31.9775 62.455L31.9367 62.427L31.8772 62.3708L31.6556 62.1859C31.5553 62.1017 31.4588 62.011 31.3637 61.9255C31.2869 61.8461 31.2049 61.7681 31.123 61.6901C31.041 61.6122 30.9563 61.5238 30.8767 61.4341L30.8698 61.4082C30.8698 61.4082 30.8628 61.3823 30.8587 61.3668C30.8545 61.3512 30.7407 61.2374 30.6785 61.1708L30.4595 60.913L30.3837 60.8167C30.336 60.7629 30.2934 60.7076 30.2509 60.6524C30.2083 60.5972 30.1232 60.4868 30.0606 60.3981C29.9979 60.3093 29.9446 60.2348 29.8886 60.1499C29.8325 60.065 29.7979 60.0187 29.7591 59.9569L29.7494 59.9207L29.6009 59.6773C29.5773 59.5892 29.5071 59.5137 29.4628 59.4312C29.4185 59.3487 29.3742 59.2661 29.3364 59.1874L29.1407 58.9956Z" fill="url(#paint2_linear)"/>
<path d="M66.3059 54.2331L70.4056 48.3988C69.9833 48.9819 69.3908 49.4199 68.7096 49.6527L61.5626 52.2784L57.4643 58.1179L64.606 55.4936C65.2904 55.2614 65.8849 54.8206 66.3059 54.2331Z" fill="url(#paint3_linear)"/>
<path d="M67.3797 67.7316C64.5233 68.7579 60.1659 67.0829 57.631 63.9423L51.2608 56.0609L44.1125 58.6814C41.2617 59.7284 36.8921 58.0289 34.3521 54.8897C31.8121 51.7505 32.0464 48.3566 34.9075 47.3068L42.0441 44.6839L35.6701 36.809C33.1287 33.6647 33.3657 30.2811 36.2321 29.2299C39.0984 28.1787 43.4458 29.8786 45.9859 33.0178L52.3682 40.9237L59.51 38.2994C62.3556 37.2538 66.7251 38.9534 69.2704 42.0912C71.8156 45.2289 71.5761 48.6243 68.715 49.6741L61.568 52.2998L67.942 60.1746C70.4723 63.2775 70.2225 66.6756 67.3797 67.7316Z" fill="url(#paint4_linear)"/>
</g>
<defs>
<filter id="filter0_d" x="0.522461" y="0.918701" width="112.509" height="114.872" filterUnits="userSpaceOnUse" color-interpolation-filters="sRGB">
<feFlood flood-opacity="0" result="BackgroundImageFix"/>
<feColorMatrix in="SourceAlpha" type="matrix" values="0 0 0 0 0 0 0 0 0 0 0 0 0 0 0 0 0 0 127 0" result="hardAlpha"/>
<feOffset dx="7" dy="7"/>
<feGaussianBlur stdDeviation="17.5"/>
<feColorMatrix type="matrix" values="0 0 0 0 1 0 0 0 0 0.137255 0 0 0 0 0.654902 0 0 0 0.5 0"/>
<feBlend mode="normal" in2="BackgroundImageFix" result="effect1_dropShadow"/>
<feBlend mode="normal" in="SourceGraphic" in2="effect1_dropShadow" result="shape"/>
</filter>
<linearGradient id="paint0_linear" x1="40.306" y1="31.9065" x2="34.4475" y2="42.7412" gradientUnits="userSpaceOnUse">
<stop stop-color="#140B31"/>
<stop offset="0.557292" stop-color="#10072D"/>
<stop offset="1" stop-color="#07001C"/>
</linearGradient>
<linearGradient id="paint1_linear" x1="68.9258" y1="54.1711" x2="66.1088" y2="68.9232" gradientUnits="userSpaceOnUse">
<stop stop-color="#140B31"/>
<stop offset="0.557292" stop-color="#10072D"/>
<stop offset="1" stop-color="#07001C"/>
</linearGradient>
<linearGradient id="paint2_linear" x1="52.1329" y1="46.0262" x2="50.8361" y2="59.4244" gradientUnits="userSpaceOnUse">
<stop stop-color="#140B31"/>
<stop offset="0.557292" stop-color="#10072D"/>
<stop offset="1" stop-color="#07001C"/>
</linearGradient>
<linearGradient id="paint3_linear" x1="72.9257" y1="48.6061" x2="73.2728" y2="53.5604" gradientUnits="userSpaceOnUse">
<stop stop-color="#140B31"/>
<stop offset="0.557292" stop-color="#10072D"/>
<stop offset="1" stop-color="#07001C"/>
</linearGradient>
<linearGradient id="paint4_linear" x1="72.1322" y1="26.2104" x2="63.8338" y2="58.1526" gradientUnits="userSpaceOnUse">
<stop stop-color="#140B31"/>
<stop offset="0.557292" stop-color="#10072D"/>
<stop offset="1" stop-color="#07001C"/>
</linearGradient>
</defs>
</svg>
