<svg width="189" height="57" viewBox="0 0 189 57" fill="none" xmlns="http://www.w3.org/2000/svg">
<rect x="1.24854" y="1.17041" width="186.767" height="55.2021" rx="8" fill="white" stroke="#CFCFCF"/>
<path fill-rule="evenodd" clip-rule="evenodd" d="M48.5619 27.5129C48.5287 23.5604 51.7967 21.6394 51.9402 21.5511C50.0854 18.8572 47.2149 18.4818 46.2103 18.4487C43.8034 18.1948 41.4629 19.895 40.2374 19.895C38.9898 19.895 37.0909 18.4818 35.0594 18.5149C32.4429 18.5591 29.9808 20.0716 28.645 22.4343C25.8738 27.2369 27.9384 34.3027 30.5991 38.189C31.935 40.0879 33.4807 42.2187 35.5231 42.1414C37.5104 42.0642 38.2612 40.8718 40.6569 40.8718C43.0417 40.8718 43.7372 42.1414 45.8128 42.0973C47.9546 42.0642 49.2905 40.1873 50.5823 38.2663C52.1169 36.0913 52.7351 33.9384 52.7572 33.828C52.702 33.8059 48.606 32.2382 48.5619 27.5129Z" fill="black"/>
<path fill-rule="evenodd" clip-rule="evenodd" d="M44.6422 15.8983C45.7131 14.5624 46.4418 12.7408 46.243 10.886C44.6974 10.9522 42.7543 11.9569 41.6392 13.2707C40.6566 14.43 39.7734 16.3179 39.9942 18.0954C41.7385 18.2279 43.5271 17.2121 44.6422 15.8983Z" fill="black"/>
<path fill-rule="evenodd" clip-rule="evenodd" d="M72.6408 35.0645L71.2608 30.8139C71.1172 30.3723 70.8412 29.3566 70.4438 27.7447H70.3886C70.223 28.4402 69.969 29.467 69.6157 30.8139L68.2578 35.0645H72.6408ZM77.3999 41.8653H74.6177L73.0942 37.0738H67.7948L66.3485 41.8653H63.6436L68.8878 25.5586H72.1336L77.3999 41.8653Z" fill="black"/>
<path fill-rule="evenodd" clip-rule="evenodd" d="M88.2188 35.9367C88.2188 34.7885 87.9649 33.85 87.446 33.1103C86.8829 32.3375 86.1212 31.9511 85.1717 31.9511C84.5313 31.9511 83.9462 32.1719 83.4163 32.5914C82.8974 33.022 82.5441 33.574 82.3895 34.2696C82.3122 34.5897 82.268 34.8547 82.268 35.0645V37.0297C82.268 37.8798 82.533 38.6084 83.0519 39.1936C83.5708 39.7787 84.2553 40.0768 85.0944 40.0768C86.077 40.0768 86.8388 39.6904 87.3908 38.9397C87.9428 38.1779 88.2188 37.1842 88.2188 35.9367ZM90.8802 35.8484C90.8802 37.8467 90.3392 39.4255 89.2462 40.5848C88.2747 41.6226 87.0602 42.1304 85.625 42.1304C84.0683 42.1304 82.9532 41.5784 82.2687 40.4633V46.6349H79.6521V33.9715C79.6521 32.7129 79.619 31.4322 79.5527 30.1074H81.8491L81.9927 31.9732H82.0368C82.909 30.5711 84.2339 29.8645 86.0003 29.8645C87.3914 29.8645 88.5396 30.4165 89.467 31.5095C90.4165 32.6136 90.8802 34.0488 90.8802 35.8484Z" fill="black"/>
<path fill-rule="evenodd" clip-rule="evenodd" d="M101.732 35.9367C101.732 34.7885 101.478 33.85 100.959 33.1103C100.396 32.3375 99.6344 31.9511 98.685 31.9511C98.0446 31.9511 97.4595 32.1719 96.9295 32.5914C96.4106 33.022 96.0684 33.574 95.9028 34.2696C95.8255 34.5897 95.7813 34.8547 95.7813 35.0645V37.0297C95.7813 37.8798 96.0463 38.6084 96.5652 39.1936C97.0841 39.7787 97.7686 40.0768 98.6077 40.0768C99.5903 40.0768 100.363 39.6904 100.904 38.9397C101.467 38.1779 101.732 37.1842 101.732 35.9367ZM104.393 35.8484C104.393 37.8467 103.852 39.4255 102.759 40.5848C101.787 41.6226 100.573 42.1304 99.1377 42.1304C97.581 42.1304 96.4659 41.5784 95.7814 40.4633V46.6349H93.1648V33.9715C93.1648 32.7129 93.1317 31.4322 93.0654 30.1074H95.3618L95.5054 31.9732H95.5495C96.4217 30.5711 97.7466 29.8645 99.513 29.8645C100.904 29.8645 102.052 30.4165 102.98 31.5095C103.929 32.6136 104.393 34.0488 104.393 35.8484Z" fill="black"/>
<path fill-rule="evenodd" clip-rule="evenodd" d="M119.518 37.2945C119.518 38.6856 119.033 39.8117 118.072 40.6839C117.012 41.6334 115.533 42.1081 113.634 42.1081C111.879 42.1081 110.476 41.7658 109.417 41.0924L110.024 38.9174C111.172 39.5909 112.431 39.9331 113.8 39.9331C114.782 39.9331 115.555 39.7123 116.096 39.2707C116.648 38.8291 116.924 38.2329 116.924 37.4932C116.924 36.8308 116.692 36.2788 116.251 35.8261C115.798 35.3734 115.047 34.9539 113.998 34.5675C111.117 33.4966 109.693 31.9399 109.693 29.8974C109.693 28.5615 110.2 27.4685 111.205 26.6073C112.21 25.7572 113.546 25.3267 115.213 25.3267C116.692 25.3267 117.929 25.5806 118.911 26.0995L118.249 28.2193C117.321 27.7224 116.284 27.4685 115.113 27.4685C114.197 27.4685 113.468 27.7004 112.949 28.142C112.519 28.5505 112.298 29.0362 112.298 29.6214C112.298 30.2617 112.552 30.8027 113.049 31.2112C113.479 31.5976 114.274 32.0172 115.422 32.4698C116.825 33.0329 117.851 33.6953 118.514 34.4571C119.187 35.2189 119.518 36.1684 119.518 37.2945Z" fill="black"/>
<path fill-rule="evenodd" clip-rule="evenodd" d="M128.174 32.0724H125.293V37.7803C125.293 39.2266 125.801 39.9553 126.816 39.9553C127.28 39.9553 127.666 39.9111 127.975 39.8338L128.053 41.8211C127.534 42.0088 126.86 42.1082 126.021 42.1082C124.984 42.1082 124.189 41.788 123.603 41.1587C123.018 40.5294 122.731 39.4695 122.731 37.9901V32.0614H121.02V30.1072H122.731V27.9543L125.293 27.1815V30.1072H128.174V32.0724Z" fill="black"/>
<path fill-rule="evenodd" clip-rule="evenodd" d="M138.431 35.9475C138.431 34.8656 138.2 33.9492 137.736 33.1764C137.184 32.2379 136.4 31.7742 135.384 31.7742C134.335 31.7742 133.529 32.2379 132.988 33.1764C132.514 33.9492 132.293 34.8876 132.293 36.0027C132.293 37.0847 132.525 38.0121 132.988 38.7739C133.552 39.7123 134.346 40.176 135.362 40.176C136.356 40.176 137.14 39.7013 137.714 38.7518C138.189 37.9569 138.431 37.0295 138.431 35.9475ZM141.136 35.8923C141.136 37.7029 140.617 39.1823 139.59 40.3416C138.508 41.5339 137.073 42.1301 135.284 42.1301C133.562 42.1301 132.182 41.556 131.155 40.4188C130.128 39.2817 129.621 37.8354 129.621 36.091C129.621 34.2693 130.151 32.7789 131.199 31.6196C132.259 30.4604 133.683 29.8752 135.472 29.8752C137.194 29.8752 138.585 30.4493 139.634 31.5975C140.639 32.7016 141.136 34.1368 141.136 35.8923Z" fill="black"/>
<path fill-rule="evenodd" clip-rule="evenodd" d="M149.636 32.4037C149.382 32.3595 149.106 32.3374 148.808 32.3374C147.892 32.3374 147.174 32.6797 146.677 33.3752C146.247 33.9825 146.026 34.7663 146.026 35.6937V41.8653H143.409V33.8058C143.409 32.4478 143.387 31.2113 143.332 30.1073H145.606L145.706 32.3595H145.783C146.059 31.5867 146.49 30.9574 147.086 30.4937C147.671 30.0741 148.3 29.8644 148.974 29.8644C149.217 29.8644 149.437 29.8865 149.625 29.9085L149.636 32.4037Z" fill="black"/>
<path fill-rule="evenodd" clip-rule="evenodd" d="M158.822 34.7552C158.844 33.9824 158.668 33.3089 158.315 32.7459C157.862 32.0172 157.166 31.6529 156.239 31.6529C155.389 31.6529 154.694 32.0062 154.164 32.7127C153.733 33.2758 153.468 33.9603 153.39 34.7442L158.822 34.7552ZM161.317 35.4287C161.317 35.8924 161.284 36.2898 161.218 36.61H153.379C153.412 37.7692 153.788 38.6635 154.516 39.2707C155.179 39.8117 156.029 40.0877 157.078 40.0877C158.237 40.0877 159.297 39.9 160.246 39.5357L160.655 41.3463C159.54 41.8321 158.226 42.075 156.713 42.075C154.892 42.075 153.457 41.534 152.419 40.4631C151.381 39.3922 150.862 37.9459 150.862 36.1463C150.862 34.3798 151.348 32.9004 152.319 31.7191C153.335 30.4605 154.704 29.8312 156.426 29.8312C158.116 29.8312 159.407 30.4605 160.268 31.7191C160.964 32.7348 161.317 33.9603 161.317 35.4287Z" fill="black"/>
<path fill-rule="evenodd" clip-rule="evenodd" d="M69.0311 16.3839L68.3577 14.2862C68.2914 14.0764 68.1589 13.5686 67.9492 12.7737H67.9271C67.8388 13.1159 67.7284 13.6127 67.5407 14.2862L66.8782 16.3839H69.0311ZM71.382 19.7292H70.013L69.2623 17.3776H66.6567L65.9391 19.7292H64.6143L67.1867 11.7139H68.7765L71.382 19.7292Z" fill="black"/>
<path fill-rule="evenodd" clip-rule="evenodd" d="M77.8302 13.9441L75.6442 19.7293H74.3966L72.2769 13.9441H73.6569L74.6395 17.0023C74.8051 17.5101 74.9486 17.9959 75.059 18.4596H75.0922C75.1915 18.0401 75.3351 17.5543 75.5117 17.0023L76.4833 13.9441H77.8302Z" fill="black"/>
<path fill-rule="evenodd" clip-rule="evenodd" d="M82.3121 16.8477C80.8879 16.8477 80.1703 17.1899 80.1703 18.0179C80.1703 18.6252 80.5346 18.9233 81.0535 18.9233C81.7049 18.9233 82.3121 18.4264 82.3121 17.7419V16.8477ZM82.489 19.7293L82.3897 19.0668H82.3565C81.9591 19.5968 81.396 19.8618 80.6673 19.8618C79.6295 19.8618 78.9009 19.1331 78.9009 18.1615C78.9009 16.7373 80.1374 15.9976 82.2792 15.9976V15.8872C82.2792 15.1254 81.8708 14.75 81.0758 14.75C80.5017 14.75 80.0049 14.8936 79.5633 15.1806L79.2983 14.3415C79.8283 14.0103 80.5017 13.8447 81.2856 13.8447C82.7981 13.8447 83.5599 14.6396 83.5599 16.2405V18.3713C83.5599 18.9564 83.582 19.4091 83.6483 19.7514L82.489 19.7293Z" fill="black"/>
<mask id="mask0_728:1715" style="mask-type:alpha" maskUnits="userSpaceOnUse" x="1" y="1" width="187" height="56">
<path fill-rule="evenodd" clip-rule="evenodd" d="M1.24854 56.3725H187.556V1.17041H1.24854V56.3725Z" fill="white"/>
</mask>
<g mask="url(#mask0_728:1715)">
<path fill-rule="evenodd" clip-rule="evenodd" d="M85.8005 19.7182H87.0812V13.9441H85.8005V19.7182ZM86.419 12.9947C85.9884 12.9947 85.6572 12.6635 85.6572 12.2219C85.6572 11.7803 85.9995 11.4601 86.4411 11.4601C86.8827 11.4601 87.236 11.7803 87.225 12.2219C87.225 12.6856 86.8938 12.9947 86.419 12.9947Z" fill="black"/>
<path fill-rule="evenodd" clip-rule="evenodd" d="M89.3677 19.7183H90.6484V11.2944H89.3677V19.7183Z" fill="black"/>
<path fill-rule="evenodd" clip-rule="evenodd" d="M95.9248 16.8478C94.5006 16.8478 93.783 17.1901 93.783 18.0181C93.783 18.6253 94.1473 18.9234 94.6662 18.9234C95.3176 18.9234 95.9248 18.4266 95.9248 17.7421V16.8478ZM96.1018 19.7293L96.0024 19.0669H95.9693C95.5719 19.5968 95.0088 19.8618 94.2801 19.8618C93.2423 19.8618 92.5137 19.1331 92.5137 18.1616C92.5137 16.7374 93.7502 15.9977 95.892 15.9977V15.8873C95.892 15.1255 95.4835 14.7501 94.6886 14.7501C94.1145 14.7501 93.6177 14.8936 93.1761 15.1807L92.9111 14.3306C93.4411 13.9993 94.1145 13.8337 94.8984 13.8337C96.4109 13.8337 97.1727 14.6287 97.1727 16.2295V18.3603C97.1727 18.9455 97.1948 19.3981 97.25 19.7404H96.1018V19.7293Z" fill="black"/>
<path fill-rule="evenodd" clip-rule="evenodd" d="M102.119 14.8382C101.379 14.8382 100.706 15.4786 100.706 16.3729V17.3886C100.706 18.1835 101.313 18.8349 102.097 18.8349C103.058 18.8349 103.632 18.051 103.632 16.8034C103.632 15.6332 103.036 14.8382 102.119 14.8382ZM102.384 19.8617C101.567 19.8617 100.96 19.5194 100.562 18.8349H100.54L100.463 19.7292H99.3701C99.4032 19.2655 99.4143 18.7466 99.4143 18.1725V11.2943H100.706V14.7941H100.728C101.115 14.1538 101.722 13.8336 102.572 13.8336C103.963 13.8336 104.934 15.026 104.934 16.7593C104.934 18.5479 103.853 19.8617 102.384 19.8617Z" fill="black"/>
<path fill-rule="evenodd" clip-rule="evenodd" d="M106.833 19.7183H108.113V11.2944H106.833V19.7183Z" fill="black"/>
<path fill-rule="evenodd" clip-rule="evenodd" d="M113.933 16.2294C113.933 15.3351 113.48 14.7058 112.663 14.7058C111.923 14.7058 111.349 15.3462 111.261 16.2294H113.933ZM115.102 17.1459H111.249C111.271 18.2389 111.999 18.8571 113.07 18.8571C113.645 18.8571 114.163 18.7578 114.627 18.5811L114.826 19.4754C114.285 19.7183 113.645 19.8287 112.894 19.8287C111.083 19.8287 110.012 18.6915 110.012 16.914C110.012 15.1475 111.105 13.8116 112.75 13.8116C114.219 13.8116 115.157 14.9046 115.157 16.5607C115.157 16.7926 115.146 16.9913 115.102 17.1459Z" fill="black"/>
<path fill-rule="evenodd" clip-rule="evenodd" d="M122.941 14.7722C122.014 14.7722 121.417 15.6444 121.417 16.8478C121.417 18.0401 122.025 18.9013 122.93 18.9013C123.835 18.9013 124.443 17.9739 124.443 16.8147C124.431 15.6444 123.846 14.7722 122.941 14.7722ZM122.886 19.8618C121.197 19.8618 120.104 18.6032 120.104 16.8919C120.104 15.1034 121.219 13.8337 122.985 13.8337C124.652 13.8337 125.767 15.0371 125.767 16.7926C125.767 18.5922 124.619 19.8618 122.886 19.8618Z" fill="black"/>
<path fill-rule="evenodd" clip-rule="evenodd" d="M132.667 19.7291H131.387V16.406C131.387 15.3792 130.989 14.8713 130.216 14.8713C129.455 14.8713 128.936 15.5227 128.936 16.2845V19.7181H127.655V15.6C127.655 15.0922 127.644 14.5401 127.611 13.944H128.737L128.792 14.8382H128.825C129.168 14.22 129.874 13.8225 130.658 13.8225C131.872 13.8225 132.667 14.7499 132.667 16.2624V19.7291Z" fill="black"/>
<path fill-rule="evenodd" clip-rule="evenodd" d="M141.069 14.9156H139.656V17.7199C139.656 18.4375 139.91 18.7908 140.407 18.7908C140.628 18.7908 140.826 18.7687 140.981 18.7356L141.014 19.7071C140.76 19.8065 140.429 19.8507 140.02 19.8507C139.005 19.8507 138.408 19.2876 138.408 17.8303V14.9156H137.569V13.9551H138.408V12.8952L139.667 12.5088V13.944H141.08V14.9156" fill="black"/>
<path fill-rule="evenodd" clip-rule="evenodd" d="M147.87 19.7293H146.59V16.4282C146.59 15.3904 146.192 14.8715 145.419 14.8715C144.757 14.8715 144.139 15.3242 144.139 16.2405V19.7183H142.858V11.2944H144.139V14.7611H144.161C144.569 14.1318 145.143 13.8227 145.894 13.8227C147.12 13.8227 147.87 14.7722 147.87 16.2847V19.7293Z" fill="black"/>
<path fill-rule="evenodd" clip-rule="evenodd" d="M153.258 16.2294C153.258 15.3351 152.806 14.7058 151.989 14.7058C151.249 14.7058 150.664 15.3462 150.587 16.2294H153.258ZM154.429 17.1459H150.575C150.597 18.2389 151.326 18.8571 152.397 18.8571C152.971 18.8571 153.49 18.7578 153.954 18.5811L154.152 19.4754C153.612 19.7183 152.971 19.8287 152.22 19.8287C150.41 19.8287 149.339 18.6915 149.339 16.914C149.339 15.1475 150.432 13.8116 152.077 13.8116C153.545 13.8116 154.484 14.9046 154.484 16.5607C154.484 16.7926 154.473 16.9913 154.429 17.1459Z" fill="black"/>
</g>
</svg>
