<svg width="252" height="98" viewBox="0 0 252 98" fill="none" xmlns="http://www.w3.org/2000/svg">
<g filter="url(#filter0_d)">
<path fill-rule="evenodd" clip-rule="evenodd" d="M15 15.5044H202.47L227 37.2856V72.5044H38.3272L15 49.8929V15.5044Z" fill="url(#paint0_linear)"/>
</g>
<path d="M104.663 48.7564C103.355 48.7564 102.347 48.5104 101.639 48.0184V45.4624C102.359 46.0384 103.187 46.3264 104.123 46.3264C104.939 46.3264 105.539 46.1404 105.923 45.7684C106.319 45.3844 106.517 44.7724 106.517 43.9324V35.9044H109.091V44.3644C109.091 45.1684 108.971 45.8644 108.731 46.4524C108.503 47.0404 108.179 47.4964 107.759 47.8204C107.339 48.1444 106.871 48.3784 106.355 48.5224C105.851 48.6784 105.287 48.7564 104.663 48.7564ZM113.461 44.0044C113.461 44.7244 113.695 45.3244 114.163 45.8044C114.631 46.2844 115.225 46.5244 115.945 46.5244C116.665 46.5244 117.259 46.2844 117.727 45.8044C118.195 45.3124 118.429 44.7124 118.429 44.0044C118.429 43.2844 118.195 42.6904 117.727 42.2224C117.259 41.7424 116.665 41.5024 115.945 41.5024C115.225 41.5024 114.631 41.7424 114.163 42.2224C113.695 42.6904 113.461 43.2844 113.461 44.0044ZM110.959 44.0044C110.959 42.6724 111.427 41.5564 112.363 40.6564C113.287 39.7444 114.481 39.2884 115.945 39.2884C117.409 39.2884 118.603 39.7444 119.527 40.6564C120.463 41.5684 120.931 42.6844 120.931 44.0044C120.931 45.3484 120.463 46.4764 119.527 47.3884C118.591 48.2884 117.397 48.7384 115.945 48.7384C114.493 48.7384 113.299 48.2884 112.363 47.3884C111.427 46.4764 110.959 45.3484 110.959 44.0044ZM125.467 48.5044H122.929V39.5224H125.467V48.5044ZM122.677 37.1464C122.677 36.7144 122.821 36.3544 123.109 36.0664C123.409 35.7664 123.769 35.6164 124.189 35.6164C124.609 35.6164 124.963 35.7664 125.251 36.0664C125.551 36.3544 125.701 36.7144 125.701 37.1464C125.701 37.5664 125.551 37.9264 125.251 38.2264C124.963 38.5144 124.609 38.6584 124.189 38.6584C123.769 38.6584 123.409 38.5144 123.109 38.2264C122.821 37.9264 122.677 37.5664 122.677 37.1464ZM130.614 42.7804V48.5044H128.076V39.5224H130.614V40.6024C131.418 39.7264 132.42 39.2884 133.62 39.2884C134.652 39.2884 135.456 39.6184 136.032 40.2784C136.608 40.9264 136.896 41.8324 136.896 42.9964V48.5044H134.358V43.5184C134.358 42.8704 134.196 42.3904 133.872 42.0784C133.56 41.7664 133.152 41.6104 132.648 41.6104C132.264 41.6104 131.88 41.7244 131.496 41.9524C131.124 42.1684 130.83 42.4444 130.614 42.7804ZM146.491 48.5044H143.953V35.9044H146.167L152.521 43.9684V35.9044H155.041V48.5044H152.899L146.491 40.4044V48.5044ZM159.604 44.0044C159.604 44.7244 159.838 45.3244 160.306 45.8044C160.774 46.2844 161.368 46.5244 162.088 46.5244C162.808 46.5244 163.402 46.2844 163.87 45.8044C164.338 45.3124 164.572 44.7124 164.572 44.0044C164.572 43.2844 164.338 42.6904 163.87 42.2224C163.402 41.7424 162.808 41.5024 162.088 41.5024C161.368 41.5024 160.774 41.7424 160.306 42.2224C159.838 42.6904 159.604 43.2844 159.604 44.0044ZM157.102 44.0044C157.102 42.6724 157.57 41.5564 158.506 40.6564C159.43 39.7444 160.624 39.2884 162.088 39.2884C163.552 39.2884 164.746 39.7444 165.67 40.6564C166.606 41.5684 167.074 42.6844 167.074 44.0044C167.074 45.3484 166.606 46.4764 165.67 47.3884C164.734 48.2884 163.54 48.7384 162.088 48.7384C160.636 48.7384 159.442 48.2884 158.506 47.3884C157.57 46.4764 157.102 45.3484 157.102 44.0044ZM173.072 48.5764H170.912L167.87 39.5224H170.408L172.19 44.8684L173.954 39.4864H175.988L177.806 44.8684L179.552 39.5224H182.072L178.994 48.5764H176.798L174.926 43.1584L173.072 48.5764Z" fill="white"/>
<path fill-rule="evenodd" clip-rule="evenodd" d="M65.6052 46.6927C65.6654 46.7125 65.7261 46.7263 65.7868 46.7349C65.853 46.8858 65.9385 47.0809 66.0383 47.309C66.2818 47.8658 66.6098 48.619 66.9484 49.4046C67.639 51.0069 68.3356 52.6585 68.4895 53.1313C68.6799 53.7157 68.8812 54.113 69.101 54.3843C69.2146 54.5246 69.3461 54.647 69.4999 54.7398C69.5773 54.7864 69.659 54.8247 69.7444 54.8533C69.7482 54.8546 69.7519 54.8558 69.7557 54.857C70.1957 55.018 70.5969 54.951 70.848 54.869C70.9824 54.825 71.0912 54.7721 71.1682 54.7291C71.2075 54.7071 71.2407 54.6867 71.2672 54.6694L71.2735 54.6654L75.1595 52.3154L79.6482 55.6525C79.7145 55.7017 79.7867 55.743 79.8632 55.7754C80.4025 56.0035 80.9246 56.0831 81.4159 56.018C81.9062 55.9531 82.2956 55.7534 82.5855 55.5285C82.8693 55.3083 83.0616 55.0616 83.1815 54.8785C83.2427 54.7848 83.2886 54.702 83.321 54.6387C83.3373 54.6068 83.3504 54.5794 83.3604 54.5574L83.3735 54.5283L83.3783 54.5168L83.3804 54.5121L83.3813 54.5098L83.3821 54.5077C83.4058 54.4505 83.4238 54.3913 83.4362 54.3309L87.5341 34.2969C87.5472 34.2328 87.5538 34.1677 87.5538 34.1023C87.5538 33.5157 87.3258 32.9578 86.7898 32.6193C86.3317 32.3299 85.8213 32.3175 85.4987 32.3412C85.1508 32.3668 84.8295 32.4501 84.6137 32.5167C84.5015 32.5513 84.4075 32.5847 84.3397 32.6102C84.3056 32.623 84.2775 32.634 84.2568 32.6424L84.2411 32.6488L61.2598 41.3909L61.2568 41.3919C61.2422 41.3971 61.2234 41.4039 61.201 41.4123C61.1565 41.4291 61.0969 41.4527 61.0272 41.4834C60.8914 41.5431 60.7009 41.6363 60.5053 41.7662C60.1929 41.9737 59.4745 42.5418 59.5955 43.4795C59.692 44.2277 60.2205 44.6871 60.5425 44.9081C60.7193 45.0294 60.8873 45.1161 61.0097 45.1726C61.0664 45.1987 61.1843 45.2451 61.2354 45.2654L61.2483 45.2705L65.6052 46.6927ZM85.0455 34.4904L85.0422 34.4918C85.0308 34.4966 85.0192 34.5012 85.0077 34.5056L61.9984 43.2583C61.9863 43.2629 61.9742 43.2673 61.9621 43.2714L61.9493 43.2761C61.9345 43.2817 61.9098 43.2914 61.8787 43.305C61.861 43.3127 61.8426 43.3213 61.8238 43.3303C61.8496 43.3445 61.8743 43.3566 61.8962 43.3667C61.9173 43.3765 61.9333 43.3831 61.9421 43.3866L66.2632 44.7973C66.3423 44.8231 66.4161 44.8573 66.4837 44.8986L80.7518 36.7992L80.7651 36.7916C80.7756 36.7856 80.7892 36.778 80.8055 36.769C80.838 36.7512 80.8827 36.7275 80.9357 36.7013C81.0347 36.6524 81.1931 36.5799 81.3716 36.5264C81.4959 36.4891 81.8624 36.3842 82.2585 36.5074C82.503 36.5835 82.7561 36.747 82.9207 37.0239C83.0025 37.1615 83.0461 37.2997 83.0671 37.4262C83.1232 37.6255 83.1144 37.8223 83.0706 37.9922C82.976 38.3583 82.7107 38.6437 82.4694 38.8621C82.2628 39.0493 79.5878 41.5505 76.9491 44.0195C75.6331 45.2507 74.3305 46.4699 73.357 47.3811L72.7175 47.9798L80.7915 53.9822C80.9766 54.0465 81.086 54.0433 81.1368 54.0365C81.1971 54.0285 81.2465 54.0059 81.297 53.9669C81.3533 53.9231 81.4027 53.8639 81.4395 53.8075L81.4411 53.8053L85.4155 34.3746C85.3565 34.3884 85.2968 34.4047 85.2394 34.4225C85.1742 34.4426 85.1206 34.4617 85.0849 34.4751C85.0673 34.4817 85.0547 34.4867 85.0478 34.4895L85.0455 34.4904ZM73.4112 51.0156L71.8004 49.8181L71.41 52.2257L73.4112 51.0156ZM70.3227 47.4418L71.9245 45.9422C72.8982 45.0309 74.2009 43.8117 75.5169 42.5802L76.8541 41.3293L67.889 46.4183L67.9371 46.5283C68.1815 47.0871 68.511 47.8435 68.8514 48.6334C69.106 49.2239 69.3722 49.8458 69.6146 50.4215L70.0038 48.021C70.0413 47.7895 70.1579 47.5893 70.3227 47.4418Z" fill="white"/>
<defs>
<filter id="filter0_d" x="0" y="0.504395" width="252" height="97" filterUnits="userSpaceOnUse" color-interpolation-filters="sRGB">
<feFlood flood-opacity="0" result="BackgroundImageFix"/>
<feColorMatrix in="SourceAlpha" type="matrix" values="0 0 0 0 0 0 0 0 0 0 0 0 0 0 0 0 0 0 127 0" result="hardAlpha"/>
<feOffset dx="5" dy="5"/>
<feGaussianBlur stdDeviation="10"/>
<feComposite in2="hardAlpha" operator="out"/>
<feColorMatrix type="matrix" values="0 0 0 0 0.231373 0 0 0 0 0.487372 0 0 0 0 0.984314 0 0 0 0.3 0"/>
<feBlend mode="normal" in2="BackgroundImageFix" result="effect1_dropShadow"/>
<feBlend mode="normal" in="SourceGraphic" in2="effect1_dropShadow" result="shape"/>
</filter>
<linearGradient id="paint0_linear" x1="199.698" y1="7.67813" x2="27.9654" y2="63.0392" gradientUnits="userSpaceOnUse">
<stop stop-color="#D73898"/>
<stop offset="1" stop-color="#056ECF"/>
</linearGradient>
</defs>
</svg>
