<svg width="74" height="71" viewBox="0 0 74 71" fill="none" xmlns="http://www.w3.org/2000/svg">
<g filter="url(#filter0_d)">
<mask id="path-1-inside-1" fill="white">
<path fill-rule="evenodd" clip-rule="evenodd" d="M55 31.0001C55 42.5981 45.598 52.0001 34 52.0001C22.402 52.0001 13 42.5981 13 31.0001C13 23.7026 16.7222 17.2745 22.3716 13.5108C23.3469 12.8611 24 11.7995 24 10.6276C24 8.36821 21.7159 6.84389 19.7955 8.0342C12.1153 12.7945 7 21.3 7 31.0001C7 45.9118 19.0883 58.0001 34 58.0001C48.9117 58.0001 61 45.9118 61 31.0001C61 21.3 55.8847 12.7945 48.2045 8.0342C46.2841 6.84389 44 8.36821 44 10.6276C44 11.7995 44.6531 12.8611 45.6284 13.5108C51.2778 17.2745 55 23.7026 55 31.0001Z"/>
</mask>
<path d="M45.6284 13.5108L45.0739 14.343L45.6284 13.5108ZM19.7955 8.0342L20.3223 8.88417L19.7955 8.0342ZM34 53.0001C46.1503 53.0001 56 43.1504 56 31.0001H54C54 42.0458 45.0457 51.0001 34 51.0001V53.0001ZM12 31.0001C12 43.1504 21.8497 53.0001 34 53.0001V51.0001C22.9543 51.0001 14 42.0458 14 31.0001H12ZM21.8172 12.6786C15.9013 16.6198 12 23.3542 12 31.0001H14C14 24.0511 17.5431 17.9292 22.9261 14.343L21.8172 12.6786ZM19.2687 7.18423C11.3066 12.1193 6 20.9396 6 31.0001H8C8 21.6603 12.924 13.4698 20.3223 8.88417L19.2687 7.18423ZM6 31.0001C6 46.4641 18.536 59.0001 34 59.0001V57.0001C19.6406 57.0001 8 45.3595 8 31.0001H6ZM34 59.0001C49.464 59.0001 62 46.4641 62 31.0001H60C60 45.3595 48.3594 57.0001 34 57.0001V59.0001ZM62 31.0001C62 20.9396 56.6934 12.1193 48.7313 7.18423L47.6777 8.88417C55.076 13.4698 60 21.6603 60 31.0001H62ZM56 31.0001C56 23.3542 52.0987 16.6198 46.1828 12.6786L45.0739 14.343C50.4569 17.9292 54 24.0511 54 31.0001H56ZM43 10.6276C43 12.182 43.8628 13.5362 45.0739 14.343L46.1828 12.6786C45.4433 12.1859 45 11.417 45 10.6276H43ZM25 10.6276C25 9.15259 24.2513 7.88948 23.1537 7.19293C22.0418 6.48727 20.5773 6.37308 19.2687 7.18423L20.3223 8.88417C20.9341 8.505 21.5719 8.55782 22.0821 8.88159C22.6066 9.21447 23 9.84322 23 10.6276H25ZM48.7313 7.18423C47.4227 6.37308 45.9582 6.48727 44.8463 7.19293C43.7487 7.88948 43 9.15259 43 10.6276H45C45 9.84322 45.3934 9.21447 45.9179 8.88159C46.4281 8.55782 47.0659 8.505 47.6777 8.88417L48.7313 7.18423ZM22.9261 14.343C24.1372 13.5362 25 12.182 25 10.6276H23C23 11.417 22.5567 12.1859 21.8172 12.6786L22.9261 14.343Z" fill="#FF23A7" mask="url(#path-1-inside-1)"/>
</g>
<defs>
<filter id="filter0_d" x="0" y="0.618896" width="74" height="70.3812" filterUnits="userSpaceOnUse" color-interpolation-filters="sRGB">
<feFlood flood-opacity="0" result="BackgroundImageFix"/>
<feColorMatrix in="SourceAlpha" type="matrix" values="0 0 0 0 0 0 0 0 0 0 0 0 0 0 0 0 0 0 127 0" result="hardAlpha"/>
<feOffset dx="3" dy="3"/>
<feGaussianBlur stdDeviation="5"/>
<feColorMatrix type="matrix" values="0 0 0 0 1 0 0 0 0 0.137255 0 0 0 0 0.654902 0 0 0 0.5 0"/>
<feBlend mode="normal" in2="BackgroundImageFix" result="effect1_dropShadow"/>
<feBlend mode="normal" in="SourceGraphic" in2="effect1_dropShadow" result="shape"/>
</filter>
</defs>
</svg>
