<svg width="239" height="43" viewBox="0 0 239 43" fill="none" xmlns="http://www.w3.org/2000/svg">
<path d="M224.723 42.0677H220.586C218.256 42.0677 217.537 39.8495 217.479 38.682C217.479 38.6625 217.479 38.6625 217.479 38.6431V12.958C217.479 11.5765 217.887 10.4868 218.683 9.7085C219.848 8.57991 221.421 8.56045 221.615 8.541C221.946 8.541 230.355 8.40479 232.588 8.40479C235.773 8.40479 237.91 9.90308 237.91 12.1602C237.91 14.3007 236.201 15.293 235.288 15.5265C235.249 15.5265 235.21 15.546 235.171 15.546L233.443 15.7017C233.035 15.7406 232.685 15.4292 232.647 15.0401C232.608 14.6315 232.918 14.2812 233.307 14.2423L234.958 14.1061C235.249 14.0088 236.434 13.5613 236.434 12.1797C236.434 10.4868 234.356 9.88361 232.569 9.88361C230.316 9.88361 221.693 10.0198 221.615 10.0198H221.596C221.596 10.0198 220.45 10.0198 219.693 10.7787C219.188 11.2652 218.935 12.0046 218.935 12.9775V38.6625C218.955 38.9155 219.129 40.6473 220.586 40.6473H224.723C225.131 40.6473 225.461 40.9781 225.461 41.3867C225.461 41.7953 225.131 42.0677 224.723 42.0677Z" fill="#FF4FB9"/>
<path d="M230.043 42.0676C229.655 42.0676 229.344 41.7757 229.325 41.3866C229.305 40.978 229.597 40.6277 230.005 40.6082L235.909 40.2191H235.928C235.928 40.2191 236.258 40.1996 236.472 39.9078C236.724 39.577 236.783 39.0127 236.647 38.2343C236.258 36.0745 232.762 36.0745 232.724 36.0745L226.082 36.2301C226.043 36.2301 226.004 36.2301 225.984 36.2301C224.955 36.0939 222.994 35.121 222.994 32.2801C222.994 28.5441 224.334 27.3182 225.46 26.929C226.237 26.6566 227.674 26.7344 229.791 26.8901C230.684 26.9485 231.539 27.0069 232.141 27.0069C232.335 27.0069 232.529 27.0069 232.743 27.0069C234.433 27.0263 235.248 26.9485 235.423 25.061C235.462 24.6135 235.365 24.2827 235.093 24.0103C234.277 23.193 232.257 23.1347 231.17 23.2319C231.131 23.2319 230.956 23.2709 230.82 23.2903C229.344 23.5627 225.46 24.2632 223.829 21.578C222.722 19.7294 222.45 17.9393 223.071 16.5188C223.693 15.1178 225.111 14.1838 227.286 13.7557C227.674 13.6779 228.062 13.9309 228.14 14.3395C228.218 14.7287 227.965 15.1178 227.558 15.1957C225.887 15.5264 224.819 16.1686 224.392 17.122C223.965 18.0755 224.217 19.4376 225.072 20.8386C226.179 22.6871 229.364 22.1034 230.568 21.8893C230.781 21.8504 230.937 21.831 231.053 21.8115C231.888 21.7337 234.724 21.6169 236.122 23.0179C236.685 23.5822 236.957 24.3605 236.88 25.2167C236.588 28.5246 234.277 28.5052 232.743 28.4857C232.549 28.4857 232.374 28.4857 232.18 28.4857C231.539 28.4857 230.646 28.4273 229.713 28.3689C228.354 28.2717 226.509 28.1549 225.946 28.3495C224.994 28.6608 224.47 30.0813 224.47 32.319C224.47 34.3816 225.848 34.7513 226.159 34.8291L232.762 34.6735C232.762 34.6735 232.762 34.6735 232.782 34.6735C233.112 34.6735 237.559 34.7318 238.142 38.0397C238.356 39.2656 238.2 40.2385 237.656 40.9001C237.054 41.6395 236.219 41.7174 236.045 41.7368L230.141 42.126C230.082 42.0676 230.063 42.0676 230.043 42.0676Z" fill="#FF4FB9"/>
<path d="M205.592 42.1259C205.476 42.1259 205.418 42.1259 205.359 42.1259H205.34C204.816 42.1259 200.31 42.0675 198.271 39.9076C197.533 39.1293 197.183 38.1758 197.241 37.0862C197.338 35.4517 197.843 34.362 198.776 33.8561C200.135 33.1361 201.708 34.0312 201.883 34.1285C201.922 34.148 201.941 34.1674 201.98 34.1869C202.64 34.7317 204.68 36.0549 206.156 35.7046C206.816 35.549 207.321 35.082 207.69 34.2452C208.913 31.56 207.748 30.6649 204.777 28.7385C204.058 28.2715 203.223 27.7462 202.407 27.1235C200.543 25.7419 199.164 23.8545 198.426 21.6751C197.669 19.4764 197.591 17.1413 198.212 14.9231C199.358 10.7201 205.049 7.78188 209.69 9.00776C211.827 9.57205 213.205 10.8563 213.477 12.5297C213.71 13.9502 213.07 15.4096 211.904 16.1684C210.059 17.3554 208.408 16.1684 207.787 15.3706C207.535 15.0593 207.593 14.5923 207.923 14.3393C208.234 14.0864 208.7 14.1448 208.952 14.4561C209.127 14.6701 210.001 15.6625 211.127 14.9231C211.807 14.495 212.176 13.5999 212.04 12.7438C211.865 11.6541 210.894 10.8174 209.321 10.4088C205.456 9.39692 200.562 11.8681 199.63 15.2928C199.086 17.2386 199.164 19.2818 199.805 21.1887C200.465 23.0956 201.669 24.7496 203.281 25.9365C204.058 26.5203 204.835 27.0262 205.573 27.4932C208.389 29.3028 210.797 30.8789 209.011 34.829C208.447 36.0743 207.593 36.8527 206.466 37.1056C204.136 37.6505 201.495 35.6463 201.087 35.3349C200.776 35.1598 199.98 34.8485 199.455 35.1209C198.892 35.4127 198.737 36.3857 198.698 37.1445C198.659 37.8256 198.873 38.3899 199.319 38.8763C200.698 40.3357 204.039 40.6276 205.301 40.6276C205.321 40.6276 205.34 40.6276 205.379 40.6276C205.398 40.6276 205.418 40.6276 205.418 40.6276C205.612 40.647 210.059 40.8416 212.118 36.5024C214.254 31.9881 212.526 28.7775 210.7 26.8705C208.855 24.9442 204.252 21.4222 203.922 21.1692C202.796 20.4103 201.164 18.3478 202.835 15.7209C203.048 15.3901 203.495 15.2733 203.845 15.5068C204.175 15.7209 204.291 16.1684 204.058 16.5187C202.757 18.5424 204.544 19.8266 204.757 19.9628C204.777 19.9628 204.777 19.9823 204.796 19.9823C204.99 20.1379 209.768 23.7766 211.768 25.8392C213.536 27.6683 216.08 31.56 213.458 37.1056C211.244 41.8145 206.719 42.1259 205.592 42.1259Z" fill="#FF4FB9"/>
<path d="M191.921 41.9117C189.357 41.9117 188.619 39.9269 188.599 39.8491C188.464 39.4599 188.658 39.0513 189.046 38.9151C189.415 38.7789 189.842 38.9734 189.978 39.3626C190.017 39.4794 190.445 40.4523 191.921 40.4523C192.367 40.4523 193.727 40.4523 193.727 35.7044C193.727 33.0192 193.319 12.763 193.299 11.3815C193.222 11.0701 192.833 9.74698 191.435 9.74698C190.114 9.74698 189.609 10.2529 189.609 11.5761C189.609 12.7825 189.804 33.817 189.804 34.031C189.804 34.4396 189.493 34.7704 189.085 34.7704C188.677 34.7704 188.366 34.4396 188.366 34.0505C188.366 33.1749 188.172 12.7825 188.172 11.5761C188.172 9.4551 189.338 8.2876 191.454 8.2876C193.649 8.2876 194.581 10.1751 194.775 11.1674C194.775 11.2064 194.795 11.2453 194.795 11.2842C194.795 11.4982 195.222 32.9219 195.222 35.7044C195.164 37.2416 195.164 41.9117 191.921 41.9117Z" fill="#FF4FB9"/>
<path d="M172.092 24.7693C171.742 24.7693 171.432 24.5163 171.373 24.1661C171.296 23.7769 171.568 23.3877 171.956 23.3099C173.238 23.0764 178.054 21.6754 178.054 19.1847C178.054 16.6746 175.374 15.8573 175.18 15.799C172.403 15.1179 171.14 15.5266 170.635 15.8379C170.325 16.0325 170.189 16.2465 170.13 16.3438V21.5197C170.13 21.9284 169.8 22.2592 169.392 22.2592C168.985 22.2592 168.654 21.9284 168.654 21.5197V16.2076C168.654 16.1492 168.654 16.0908 168.674 16.0325C168.693 15.9546 168.907 15.1568 169.858 14.5925C171.101 13.8337 173.024 13.7558 175.529 14.3785C176.908 14.7677 179.511 16.2465 179.511 19.1847C179.511 23.3683 172.306 24.7304 172.228 24.7498C172.189 24.7693 172.15 24.7693 172.092 24.7693Z" fill="#FF4FB9"/>
<path d="M182.656 42.1264C179.704 42.1264 178.5 40.3557 178.267 39.3439C178.17 38.9547 178.422 38.5656 178.811 38.4683C179.199 38.371 179.587 38.6239 179.685 39.0131C179.723 39.1882 180.248 40.8616 183.161 40.6281C183.899 40.5698 184.365 40.3752 184.54 40.0249C184.851 39.4023 184.384 38.2348 184.093 37.7678C184.093 37.7483 184.074 37.7483 184.074 37.7289C184.054 37.6899 182.093 34.0318 180.461 31.0352C178.597 27.6105 180.5 25.2755 180.578 25.1782C180.597 25.1588 180.636 25.1198 180.656 25.1004C184.384 21.8508 183.782 18.3678 183.763 18.2121C182.578 11.1682 176.266 10.2731 175.703 10.1953H167.352C165.332 10.1953 164.245 12.1606 163.992 12.6665V37.9624C163.992 37.9818 163.992 38.0013 163.992 38.0013C163.992 38.0013 163.934 39.2855 164.633 40.0249C164.983 40.4141 165.507 40.5892 166.187 40.5892C168.42 40.5892 168.634 39.1493 168.653 38.838V30.9768C168.653 29.5174 169.1 28.564 169.974 28.097C171.605 27.2603 173.742 28.7002 173.994 28.8753C175.159 29.712 176.81 33.4869 177.121 34.2264C177.276 34.5961 177.102 35.0241 176.733 35.1798C176.364 35.3355 175.936 35.1604 175.781 34.7906C174.946 32.8253 173.703 30.4514 173.159 30.0623C172.499 29.5953 171.256 29.0699 170.654 29.3812C170.207 29.6147 170.11 30.3736 170.11 30.9574V38.8769V38.8964C170.071 39.986 169.217 42.0681 166.187 42.0681C165.099 42.0681 164.225 41.7178 163.585 41.0368C162.516 39.8887 162.536 38.1959 162.555 37.9429V12.5303C162.555 12.433 162.575 12.3357 162.614 12.2579C162.672 12.1217 164.109 8.75537 167.372 8.75537H175.762C175.781 8.75537 175.8 8.75537 175.839 8.75537C175.917 8.75537 183.821 9.63099 185.22 17.9592C185.258 18.1148 186.016 22.3373 181.685 26.1511C181.491 26.4041 180.461 27.9802 181.763 30.3347C183.355 33.234 185.239 36.7754 185.375 37.0284C185.55 37.3202 186.598 39.2272 185.86 40.6865C185.433 41.5038 184.579 41.9708 183.316 42.0875C183.064 42.107 182.87 42.1264 182.656 42.1264Z" fill="#FF4FB9"/>
<path d="M145.757 42.0677H141.621C139.29 42.0677 138.572 39.8495 138.513 38.682C138.513 38.6625 138.513 38.6625 138.513 38.6431V12.958C138.513 11.5765 138.921 10.4868 139.717 9.7085C140.883 8.57991 142.456 8.541 142.65 8.541C142.98 8.541 151.389 8.40479 153.623 8.40479C156.808 8.40479 158.944 9.90308 158.944 12.1602C158.944 14.3007 157.235 15.293 156.322 15.5265C156.284 15.5265 156.245 15.546 156.206 15.546L154.477 15.7017C154.089 15.7406 153.72 15.4292 153.681 15.0401C153.642 14.6315 153.953 14.2812 154.341 14.2423L155.992 14.1061C156.284 14.0088 157.468 13.5613 157.468 12.1797C157.468 10.4868 155.39 9.88361 153.603 9.88361C151.351 9.88361 142.747 10.0198 142.65 10.0198H142.631C142.631 10.0198 141.485 10.0198 140.727 10.7787C140.222 11.2652 139.97 12.0046 139.97 12.9775V38.6625C139.989 38.9155 140.164 40.6473 141.621 40.6473H145.757C146.165 40.6473 146.495 40.9781 146.495 41.3867C146.495 41.7953 146.165 42.0677 145.757 42.0677Z" fill="#FF4FB9"/>
<path d="M151.078 42.0678C150.69 42.0678 150.379 41.7759 150.36 41.3868C150.34 40.9781 150.632 40.6279 151.04 40.6084L156.944 40.2193H156.963C156.963 40.2193 157.293 40.1998 157.507 39.9079C157.759 39.5771 157.818 39.0128 157.682 38.2345C157.293 36.0941 153.817 36.0746 153.759 36.0746L147.117 36.2303C147.078 36.2303 147.039 36.2303 147 36.2303C145.971 36.0941 144.009 35.1017 144.009 32.2608C144.009 28.5248 145.349 27.2989 146.476 26.9097C147.253 26.6373 148.69 26.7152 150.807 26.8708C151.7 26.9292 152.554 26.9876 153.156 26.9876C153.351 26.9876 153.545 26.9876 153.759 26.9876C155.448 27.007 156.264 26.9292 156.439 25.0417C156.477 24.5942 156.38 24.2634 156.108 23.991C155.293 23.1737 153.273 23.1154 152.185 23.2127C152.147 23.2127 151.972 23.2516 151.836 23.271C150.36 23.5435 146.476 24.2439 144.844 21.5587C143.737 19.7102 143.465 17.92 144.087 16.4995C144.708 15.0985 146.126 14.1645 148.301 13.7364C148.69 13.6586 149.078 13.9116 149.156 14.3202C149.233 14.7094 148.981 15.0985 148.573 15.1764C146.903 15.5072 145.835 16.1493 145.427 17.1027C145 18.0562 145.252 19.4183 146.107 20.8193C147.214 22.6678 150.399 22.0841 151.603 21.87C151.816 21.8311 151.972 21.8117 152.088 21.7922C152.923 21.7144 155.759 21.5976 157.157 22.9986C157.72 23.5629 157.992 24.3412 157.915 25.1974C157.623 28.5053 155.312 28.4859 153.778 28.4664C153.584 28.4664 153.409 28.4664 153.215 28.4664C152.574 28.4859 151.68 28.408 150.748 28.3497C149.389 28.2524 147.544 28.1356 146.981 28.3302C146.029 28.6415 145.505 30.062 145.505 32.2997C145.505 34.3623 146.884 34.7515 147.194 34.8098L153.797 34.6542C153.797 34.6542 153.797 34.6542 153.817 34.6542C154.147 34.6542 158.594 34.7126 159.177 38.0205C159.391 39.2463 159.235 40.2193 158.691 40.8809C158.089 41.6203 157.254 41.6981 157.08 41.7176L151.176 42.1067C151.117 42.0678 151.098 42.0678 151.078 42.0678Z" fill="#FF4FB9"/>
<path d="M121.733 42.0676C119.558 42.0676 118.353 39.4212 118.315 39.3239C118.315 39.3045 118.295 39.3045 118.295 39.285L111.789 21.6752C111.653 21.3055 111.847 20.8774 112.216 20.7412C112.585 20.605 113.013 20.7996 113.149 21.1693L119.635 38.7596C119.888 39.3045 120.703 40.6276 121.713 40.6276C122.879 40.6276 123.714 39.1683 123.85 38.9542L133.638 13.2886C133.638 13.2692 133.657 13.2497 133.657 13.2303C133.793 12.9384 134.104 12.0044 133.813 11.3234C133.618 10.8953 133.172 10.5839 132.511 10.3894C131.812 10.1948 131.249 10.2337 130.783 10.5256C129.89 11.0704 129.598 12.3157 129.598 12.3352C129.598 12.3741 129.579 12.3936 129.579 12.4325L123.675 28.758C122.879 30.8401 122.49 31.0152 122.043 31.0152C121.616 31.0152 121.208 30.8401 120.354 28.758C120.354 28.758 120.354 28.7386 120.334 28.7386L114.197 12.0628C114.081 11.8293 113.09 9.88344 111.478 10.5256C110.974 10.7202 110.643 11.0315 110.449 11.4596C110.08 12.3547 110.294 13.814 111.129 15.8182C111.284 16.1879 111.109 16.616 110.74 16.7717C110.371 16.9274 109.944 16.7522 109.789 16.3825C108.798 13.9697 108.565 12.1795 109.109 10.8953C109.439 10.0975 110.061 9.51373 110.935 9.16348C113.323 8.21002 114.974 10.2531 115.518 11.479C115.518 11.4985 115.537 11.5179 115.537 11.5179L121.674 28.2132C121.772 28.4662 121.888 28.7191 122.005 28.9526C122.102 28.7386 122.199 28.5051 122.277 28.2716L128.161 12.0044C128.239 11.6736 128.685 10.1169 129.987 9.31915C130.802 8.81323 131.773 8.71594 132.861 9.02727C133.987 9.3386 134.745 9.92235 135.114 10.7785C135.716 12.1212 135.075 13.6194 134.958 13.8724L125.17 39.538C125.17 39.5574 125.151 39.5769 125.131 39.6158C125.112 39.6742 123.888 42.0676 121.733 42.0676Z" fill="#FF4FB9"/>
<path d="M92.9508 42.0677H88.8141C86.4836 42.0677 85.765 39.8495 85.7067 38.682C85.7067 38.6625 85.7067 38.6625 85.7067 38.6431V12.958C85.7067 11.5765 86.1146 10.4868 86.9108 9.7085C88.0761 8.57991 89.6492 8.541 89.8434 8.541C90.1736 8.541 98.5829 8.40479 100.816 8.40479C104.001 8.40479 106.138 9.90308 106.138 12.1602C106.138 14.3007 104.429 15.293 103.516 15.5265C103.477 15.5265 103.438 15.546 103.399 15.546L101.671 15.7017C101.263 15.7406 100.913 15.4292 100.875 15.0401C100.836 14.6509 101.146 14.2812 101.535 14.2423L103.205 14.1061C103.496 14.0088 104.681 13.5613 104.681 12.1797C104.681 10.4868 102.603 9.88361 100.816 9.88361C98.5634 9.88361 89.9599 10.0198 89.8628 10.0198H89.8434C89.8434 10.0198 88.6976 10.0198 87.9401 10.7787C87.4352 11.2652 87.1827 12.0046 87.1827 12.9775V38.6625C87.2022 38.9155 87.3769 40.6473 88.8335 40.6473H92.9702C93.378 40.6473 93.7082 40.9781 93.7082 41.3867C93.7082 41.7953 93.3586 42.0677 92.9508 42.0677Z" fill="#FF4FB9"/>
<path d="M98.2916 42.0676C97.9031 42.0676 97.5924 41.7757 97.573 41.3866C97.5536 40.978 97.8449 40.6277 98.2527 40.6082L104.157 40.2191H104.176C104.176 40.2191 104.506 40.1996 104.72 39.9078C104.972 39.577 105.031 39.0127 104.895 38.2343C104.506 36.0939 101.069 36.0745 100.972 36.0745L94.3297 36.2301C94.2908 36.2301 94.252 36.2301 94.2326 36.2301C93.2033 36.0939 91.2417 35.121 91.2417 32.2801C91.2417 28.5441 92.5818 27.3182 93.7082 26.929C94.485 26.6566 95.9222 26.7344 98.0391 26.8901C98.9325 26.9485 99.787 27.0069 100.389 27.0069C100.583 27.0069 100.777 27.0069 100.991 27.0069C102.681 27.0263 103.496 26.9485 103.671 25.061C103.71 24.6135 103.613 24.2827 103.341 24.0103C102.545 23.193 100.506 23.1347 99.418 23.2319C99.3791 23.2319 99.2043 23.2709 99.0684 23.2903C97.5924 23.5627 93.7082 24.2632 92.0768 21.578C90.9698 19.7294 90.6979 17.9393 91.3194 16.5188C91.9409 15.1178 93.3586 14.1838 95.5338 13.7557C95.9222 13.6779 96.3106 13.9309 96.3883 14.3395C96.466 14.7287 96.2135 15.1178 95.8057 15.1957C94.1355 15.5264 93.0673 16.1686 92.64 17.122C92.2128 18.0755 92.4653 19.4376 93.3198 20.8386C94.4268 22.6677 97.6118 22.1034 98.8159 21.8893C99.0296 21.8504 99.1849 21.831 99.3015 21.8115C100.137 21.7337 102.972 21.6169 104.37 23.0179C104.934 23.5822 105.205 24.3605 105.128 25.2167C104.836 28.5246 102.525 28.5052 100.991 28.4857C100.797 28.4857 100.622 28.4857 100.428 28.4857C99.787 28.5052 98.8936 28.4273 97.9614 28.3689C96.6019 28.2717 94.7569 28.1549 94.1937 28.3495C93.2421 28.6608 92.7177 30.0813 92.7177 32.319C92.7177 34.3816 94.0966 34.7513 94.4074 34.8291L101.01 34.6735C101.205 34.6735 105.788 34.6929 106.39 38.0397C106.604 39.2656 106.448 40.2385 105.905 40.9001C105.303 41.6395 104.467 41.7174 104.293 41.7368L98.4081 42.126C98.311 42.0676 98.2916 42.0676 98.2916 42.0676Z" fill="#FF4FB9"/>
<path d="M69.0054 24.7299C68.6558 24.7299 68.3451 24.4769 68.2868 24.1266C68.2091 23.7375 68.481 23.3483 68.8695 23.2705C70.1512 23.037 74.9677 21.636 74.9677 19.1453C74.9677 16.6352 72.2876 15.818 72.0934 15.7596C68.0926 14.7672 67.1992 16.0125 67.0439 16.3044V21.4803C67.0439 21.8889 66.7137 22.2197 66.3059 22.2197C65.898 22.2197 65.5679 21.8889 65.5679 21.4803V16.1682C65.5679 16.1098 65.5679 16.0515 65.5873 15.9931C65.6067 15.9152 65.8203 15.1175 66.772 14.5337C68.0149 13.7748 69.9376 13.697 72.4429 14.3197C73.8218 14.7088 76.4243 16.1877 76.4243 19.1259C76.4243 23.3094 69.219 24.6715 69.1413 24.6909C69.1025 24.7104 69.0637 24.7299 69.0054 24.7299Z" fill="#FF4FB9"/>
<path d="M79.5696 42.0682C76.6176 42.0682 75.4135 40.2975 75.1804 39.2857C75.1028 38.8965 75.3358 38.5073 75.7242 38.41C76.1127 38.3127 76.5011 38.5657 76.5982 38.9549C76.637 39.13 77.1614 40.8034 80.0746 40.5699C80.8126 40.5115 81.2787 40.2975 81.4534 39.9667C81.7642 39.344 81.2981 38.1765 81.0068 37.7095C81.0068 37.6901 80.9873 37.6901 80.9873 37.6706C80.9679 37.6317 79.0064 33.9735 77.375 30.9769C75.5106 27.5523 77.4139 25.2173 77.4916 25.12C77.511 25.1005 77.5498 25.0616 77.5692 25.0421C81.2981 21.7926 80.696 18.3095 80.6766 18.1733C79.4919 11.1099 73.1801 10.2343 72.6169 10.1565H64.2658C62.2849 10.1565 61.1779 12.1218 60.9254 12.6277V37.9236C60.9254 37.943 60.9254 37.9625 60.9254 37.9625C60.9254 37.9819 60.8671 39.2467 61.5663 39.9861C61.9159 40.3753 62.4208 40.5504 63.1005 40.5504C65.334 40.5504 65.5476 39.1105 65.567 38.7992V30.8991C65.567 29.4397 66.0137 28.4863 66.8877 28.0193C68.2083 27.3382 70.0339 28.1944 70.9078 28.7976C72.0731 29.6343 73.7239 33.4092 74.0346 34.1486C74.19 34.5183 74.0152 34.9464 73.6462 35.1021C73.2772 35.2578 72.8499 35.0826 72.6945 34.7129C71.8594 32.7476 70.6165 30.3737 70.0727 29.9846C69.4124 29.5176 68.1694 28.9922 67.5674 29.3035C67.1207 29.537 67.0236 30.2959 67.0236 30.8796V38.7992V38.8186C66.9848 39.9083 66.1302 41.9904 63.1005 41.9904C62.013 41.9904 61.139 41.6401 60.4981 40.9591C59.43 39.811 59.4494 38.1182 59.4688 37.8652V12.4915C59.4688 12.3942 59.4882 12.2969 59.5271 12.2191C59.5853 12.0828 61.0225 8.71655 64.2658 8.71655H72.6557C72.6751 8.71655 72.6946 8.71655 72.7334 8.71655C72.8111 8.71655 80.7154 9.59218 82.1138 17.9204C82.172 18.2317 82.8518 22.3763 78.5791 26.1123C78.3849 26.3653 77.3556 27.9414 78.6568 30.2959C80.2493 33.1952 82.1332 36.7366 82.2691 36.9896C82.4439 37.2814 83.4927 39.1884 82.7547 40.6477C82.3274 41.465 81.4729 41.932 80.2105 42.0487C79.9774 42.0682 79.7638 42.0682 79.5696 42.0682Z" fill="#FF4FB9"/>
<path d="M41.4853 36.6573C41.1745 36.6573 40.9997 36.6378 40.9997 36.6378C40.5919 36.5989 40.3006 36.2487 40.3394 35.8595C40.3783 35.4509 40.7278 35.159 41.1163 35.1979C41.4464 35.2174 49.0012 35.7233 49.7586 28.5626C50.283 23.5813 49.5062 19.7869 47.5446 17.5881C46.2434 16.1287 44.379 15.3893 42.0485 15.3893C35.5424 15.3893 33.8139 22.1608 33.8139 25.7411C33.8139 29.4966 36.7854 33.505 36.8242 33.5634C37.0573 33.8942 36.999 34.3418 36.6688 34.5753C36.3387 34.8088 35.892 34.7504 35.6589 34.439C35.523 34.2639 32.3574 29.9831 32.3574 25.7411C32.3574 23.1337 33.0954 20.3512 34.3577 18.3081C36.0862 15.4477 38.7663 13.9299 42.0485 13.9299C44.8257 13.9299 47.0397 14.825 48.6322 16.6152C50.8851 19.1253 51.7784 23.3089 51.2152 28.7183C50.419 36.1319 43.408 36.6573 41.4853 36.6573Z" fill="#FF4FB9"/>
<path d="M42.3397 42.0872C41.7959 42.0872 41.4269 42.0483 41.3104 42.0483C38.6886 42.0288 34.6296 40.511 31.4445 37.1642C29.347 34.9654 26.9194 31.1516 27.2107 25.5476C27.4632 20.5662 29.1528 16.3049 32.1048 13.2304C34.7655 10.4674 38.2225 8.9107 41.8542 8.81341C45.2335 8.73557 48.1466 9.7085 50.5548 11.6932C52.7882 13.5612 54.575 16.3243 55.8568 19.9241C58.3621 26.9291 54.206 34.4984 54.0312 34.8292C53.837 35.1795 53.3903 35.3157 53.0407 35.1016C52.6911 34.907 52.5552 34.4595 52.7688 34.1092C52.8271 34.012 56.7696 26.7929 54.4973 20.4106C52.0502 13.5418 47.8164 10.1366 41.9125 10.2728C35.7171 10.4284 29.1917 15.7406 28.6867 25.606C28.4343 30.6846 30.6288 34.1482 32.5321 36.1329C35.4258 39.1879 39.1547 40.5694 41.3881 40.5694C41.4075 40.5694 41.4463 40.5694 41.4658 40.5694C41.524 40.5694 46.4958 41.0948 49.9722 37.9425C50.2635 37.6701 50.7296 37.6896 51.0015 38.0009C51.2734 38.2928 51.254 38.7598 50.9432 39.0322C47.933 41.7175 44.1653 42.0872 42.3397 42.0872Z" fill="#FF4FB9"/>
<path d="M5.24578 41.8339C1.88594 41.8339 0.701255 38.7401 0.565308 37.1055C0.565308 37.0861 0.565308 37.0666 0.565308 37.0277C0.565308 36.7358 0.720675 7.37318 0.720675 5.60247C0.740096 4.49334 1.12852 3.44259 1.80826 2.58642C2.48799 1.73025 3.4202 1.12705 4.46894 0.85463C6.41105 0.368171 14.6262 0.776795 15.5584 0.83517C15.9662 0.854628 16.2769 1.20488 16.2381 1.59404C16.2187 2.00267 15.8691 2.29455 15.4807 2.27509C13.0142 2.13888 6.29452 1.88592 4.83794 2.25563C4.09994 2.45021 3.43962 2.8783 2.9541 3.48151C2.46857 4.08472 2.19668 4.84359 2.17725 5.60247C2.17725 7.3148 2.02189 35.724 2.02189 36.9693C2.06073 37.3196 2.48799 40.3551 5.24578 40.3551C7.94531 40.3551 8.29489 38.6038 8.35315 38.312C8.25605 36.5218 7.82878 28.3687 7.90647 27.6099C8.13952 25.2943 9.86799 23.9906 12.4898 24.1268C15.5584 24.263 19.3843 24.263 19.8893 24.263C20.2194 24.2047 22.2198 23.7571 22.2198 21.9864C22.2198 19.9433 20.1417 18.8147 19.0542 18.8147C17.7141 18.8147 10.3535 18.9509 10.2758 18.9509C10.2176 18.9509 10.1399 18.9509 10.0816 18.9314C9.11057 18.6785 7.28499 17.4915 7.28499 14.7868C7.28499 11.9653 7.26557 10.3114 7.26557 10.3114C7.26557 10.2336 7.24615 9.33847 8.02299 8.54068C8.78041 7.76235 10.0039 7.35372 11.6353 7.35372C14.1406 7.37318 16.6459 7.60668 19.1124 8.05422C19.1513 8.05422 19.1707 8.07368 19.2095 8.07368C19.2872 8.09313 21.2293 8.67689 22.6665 6.65322C23.5793 5.36897 23.9677 4.24038 23.6958 3.63717C23.4627 3.13126 22.6665 2.93667 22.0644 2.8783C21.6566 2.83938 21.3653 2.48913 21.4041 2.0805C21.4429 1.67188 21.7925 1.38 22.2004 1.41892C23.6569 1.55513 24.6086 2.09996 25.0358 3.0145C25.5408 4.14309 25.1329 5.6803 23.8512 7.47047C22.2198 9.7471 19.8698 9.76655 18.8211 9.43576C16.4517 9.02713 14.0435 8.79364 11.6353 8.77418C10.4312 8.77418 9.53783 9.02714 9.07173 9.5136C8.74157 9.86385 8.72215 10.2141 8.72215 10.2141C8.72215 10.253 8.74157 11.907 8.74157 14.7284C8.74157 16.7132 10.0428 17.3164 10.3729 17.4332C11.3634 17.4137 17.7724 17.2969 19.0542 17.2969C20.7049 17.2969 23.6764 18.8342 23.6764 21.928C23.6764 24.4382 21.307 25.45 20.064 25.6446C20.0252 25.6446 19.9864 25.6446 19.9669 25.6446C19.9281 25.6446 15.7332 25.664 12.4316 25.5084C10.5477 25.4111 9.51841 26.1505 9.36304 27.6877C9.30478 28.252 9.61552 34.4398 9.80973 38.2147C9.80973 38.2536 9.80973 38.2731 9.80973 38.312C9.71262 39.5962 8.62505 41.8339 5.24578 41.8339Z" fill="#FF4FB9"/>
</svg>
