<svg width="187" height="56" viewBox="0 0 187 56" fill="none" xmlns="http://www.w3.org/2000/svg">
<mask id="mask0_728:1771" style="mask-type:alpha" maskUnits="userSpaceOnUse" x="0" y="0" width="187" height="56">
<path fill-rule="evenodd" clip-rule="evenodd" d="M0 0.17041H186.307V55.3725H0V0.17041Z" fill="white"/>
</mask>
<g mask="url(#mask0_728:1771)">
<path fill-rule="evenodd" clip-rule="evenodd" d="M179.407 55.3725H6.90026C3.03612 55.3725 0 52.3364 0 48.4723V7.07067C0 3.20653 3.03612 0.17041 6.90026 0.17041H179.407C183.271 0.17041 186.307 3.20653 186.307 7.07067V48.4723C186.307 52.3364 183.271 55.3725 179.407 55.3725Z" fill="black"/>
</g>
<path fill-rule="evenodd" clip-rule="evenodd" d="M104.332 18.111V9.83064H105.574L109.576 16.3169V9.83064H110.68V18.111H109.576L105.298 11.3487V18.111H104.332ZM96.3275 16.3168C96.8796 16.8688 97.7076 17.2828 98.5356 17.2828C99.3636 17.2828 100.192 17.0068 100.744 16.3168C101.296 15.7648 101.71 14.9368 101.71 13.9707C101.71 13.0047 101.434 12.1766 100.744 11.6246C100.192 11.0726 99.3636 10.6586 98.5356 10.6586C97.7076 10.6586 96.8796 10.9346 96.3275 11.6246C95.7755 12.1766 95.3615 13.0047 95.3615 13.9707C95.3615 14.9368 95.6375 15.7648 96.3275 16.3168ZM101.572 17.007C100.744 17.8351 99.778 18.2491 98.5359 18.2491C97.2939 18.2491 96.3278 17.8351 95.4998 17.007C94.6718 16.179 94.2578 15.213 94.2578 13.9709C94.2578 12.7289 94.6718 11.7628 95.4998 10.9348C96.3278 10.1068 97.2939 9.69275 98.5359 9.69275C99.778 9.69275 100.744 10.1068 101.572 10.9348C102.4 11.7628 102.814 12.7289 102.814 13.9709C102.814 15.213 102.4 16.179 101.572 17.007ZM88.4616 18.111H87.3576V10.7967H85.0115V9.83064H90.6697V10.7967H88.3236V18.111H88.4616ZM82.6653 18.111H83.7693V9.83064H82.6653V18.111ZM76.317 18.111H75.2129V10.7967H72.8668V9.83064H78.6631V10.7967H76.317V18.111ZM71.7632 10.7967H68.037V13.4188H71.4872V14.3848H68.037V17.0069H71.7632V18.111H66.933V9.83064H71.7632V10.7967ZM65.4141 14.2469C65.4141 15.351 65.1381 16.317 64.4481 17.007C63.62 17.8351 62.654 18.2491 61.412 18.2491C60.1699 18.2491 59.2039 17.8351 58.3758 17.007C57.5478 16.179 57.1338 15.213 57.1338 13.9709C57.1338 12.7289 57.5478 11.7628 58.3758 10.9348C59.2039 10.1068 60.1699 9.69276 61.412 9.69276C61.964 9.69276 62.516 9.83076 63.068 10.1068C63.62 10.3828 64.0341 10.6588 64.3101 11.0728L63.62 11.7628C63.068 11.0728 62.378 10.7968 61.412 10.7968C60.5839 10.7968 59.7559 11.0728 59.2039 11.7628C58.5138 12.3149 58.2378 13.1429 58.2378 14.1089C58.2378 15.075 58.5138 15.903 59.2039 16.455C59.8939 17.007 60.5839 17.4211 61.412 17.4211C62.378 17.4211 63.068 17.145 63.758 16.455C64.1721 16.041 64.4481 15.489 64.4481 14.799H61.412V13.6949H65.4141V14.2469Z" fill="white"/>
<path d="M104.332 18.111H104.305V18.138H104.332V18.111ZM104.332 9.83064V9.80364H104.305V9.83064H104.332ZM105.574 9.83064L105.597 9.81646L105.589 9.80364H105.574V9.83064ZM109.576 16.3169L109.553 16.3311L109.603 16.4121V16.3169H109.576ZM109.576 9.83064V9.80364H109.549V9.83064H109.576ZM110.68 9.83064H110.707V9.80364H110.68V9.83064ZM110.68 18.111V18.138H110.707V18.111H110.68ZM109.576 18.111L109.553 18.1254L109.561 18.138H109.576V18.111ZM105.298 11.3487L105.321 11.3343L105.271 11.2555V11.3487H105.298ZM105.298 18.111V18.138H105.325V18.111H105.298ZM96.3275 16.3168L96.3467 16.2976L96.3444 16.2957L96.3275 16.3168ZM100.744 16.3168L100.724 16.2976L100.723 16.2999L100.744 16.3168ZM100.744 11.6246L100.724 11.6438L100.727 11.6457L100.744 11.6246ZM96.3275 11.6246L96.3467 11.6438L96.3486 11.6415L96.3275 11.6246ZM87.3576 18.111H87.3306V18.138H87.3576V18.111ZM87.3576 10.7967H87.3846V10.7697H87.3576V10.7967ZM85.0115 10.7967H84.9845V10.8237H85.0115V10.7967ZM85.0115 9.83064V9.80364H84.9845V9.83064H85.0115ZM90.6697 9.83064H90.6967V9.80364H90.6697V9.83064ZM90.6697 10.7967V10.8237H90.6967V10.7967H90.6697ZM88.3236 10.7967V10.7697H88.2966V10.7967H88.3236ZM88.3236 18.111H88.2966V18.138H88.3236V18.111ZM82.6653 18.111H82.6383V18.138H82.6653V18.111ZM83.7693 18.111V18.138H83.7963V18.111H83.7693ZM83.7693 9.83064H83.7963V9.80364H83.7693V9.83064ZM82.6653 9.83064V9.80364H82.6383V9.83064H82.6653ZM76.317 18.111V18.138H76.344V18.111H76.317ZM75.2129 18.111H75.1859V18.138H75.2129V18.111ZM75.2129 10.7967H75.2399V10.7697H75.2129V10.7967ZM72.8668 10.7967H72.8398V10.8237H72.8668V10.7967ZM72.8668 9.83064V9.80364H72.8398V9.83064H72.8668ZM78.6631 9.83064H78.6901V9.80364H78.6631V9.83064ZM78.6631 10.7967V10.8237H78.6901V10.7967H78.6631ZM76.317 10.7967V10.7697H76.29V10.7967H76.317ZM71.7632 10.7967V10.8237H71.7902V10.7967H71.7632ZM68.037 10.7967V10.7697H68.01V10.7967H68.037ZM68.037 13.4188H68.01V13.4458H68.037V13.4188ZM71.4872 13.4188H71.5142V13.3918H71.4872V13.4188ZM71.4872 14.3848V14.4118H71.5142V14.3848H71.4872ZM68.037 14.3848V14.3578H68.01V14.3848H68.037ZM68.037 17.0069H68.01V17.0339H68.037V17.0069ZM71.7632 17.0069H71.7902V16.9799H71.7632V17.0069ZM71.7632 18.111V18.138H71.7902V18.111H71.7632ZM66.933 18.111H66.906V18.138H66.933V18.111ZM66.933 9.83064V9.80364H66.906V9.83064H66.933ZM71.7632 9.83064H71.7902V9.80364H71.7632V9.83064ZM64.3101 11.0728L64.3292 11.0919L64.3448 11.0763L64.3325 11.0578L64.3101 11.0728ZM63.62 11.7628L63.599 11.7797L63.6178 11.8033L63.6391 11.7819L63.62 11.7628ZM59.2039 11.7628L59.2212 11.7844L59.225 11.7797L59.2039 11.7628ZM64.4481 14.799H64.4751V14.772H64.4481V14.799ZM61.412 14.799H61.385V14.826H61.412V14.799ZM61.412 13.6949V13.6679H61.385V13.6949H61.412ZM65.4141 13.6949H65.4411V13.6679H65.4141V13.6949ZM104.359 18.111V9.83064H104.305V18.111H104.359ZM104.332 9.85764H105.574V9.80364H104.332V9.85764ZM105.551 9.84482L109.553 16.3311L109.599 16.3027L105.597 9.81646L105.551 9.84482ZM109.603 16.3169V9.83064H109.549V16.3169H109.603ZM109.576 9.85764H110.68V9.80364H109.576V9.85764ZM110.653 9.83064V18.111H110.707V9.83064H110.653ZM110.68 18.084H109.576V18.138H110.68V18.084ZM109.599 18.0965L105.321 11.3343L105.275 11.3631L109.553 18.1254L109.599 18.0965ZM105.271 11.3487V18.111H105.325V11.3487H105.271ZM105.298 18.084H104.332V18.138H105.298V18.084ZM96.3084 16.3359C96.8646 16.892 97.6992 17.3098 98.5356 17.3098V17.2558C97.716 17.2558 96.8946 16.8456 96.3466 16.2977L96.3084 16.3359ZM98.5356 17.3098C99.3693 17.3098 100.206 17.0318 100.765 16.3337L100.723 16.2999C100.177 16.9818 99.358 17.2558 98.5356 17.2558V17.3098ZM100.763 16.3359C101.319 15.7793 101.737 14.9446 101.737 13.9707H101.683C101.683 14.9289 101.272 15.7503 100.725 16.2977L100.763 16.3359ZM101.737 13.9707C101.737 12.9997 101.459 12.1624 100.761 11.6035L100.727 11.6457C101.408 12.1909 101.683 13.0097 101.683 13.9707H101.737ZM100.763 11.6055C100.207 11.0494 99.3721 10.6316 98.5356 10.6316V10.6856C99.3552 10.6856 100.177 11.0958 100.725 11.6437L100.763 11.6055ZM98.5356 10.6316C97.7019 10.6316 96.865 10.9096 96.3064 11.6078L96.3486 11.6415C96.8941 10.9596 97.7133 10.6856 98.5356 10.6856V10.6316ZM96.3084 11.6055C95.7518 12.1621 95.3345 12.9969 95.3345 13.9707H95.3885C95.3885 13.0125 95.7992 12.1912 96.3466 11.6437L96.3084 11.6055ZM95.3345 13.9707C95.3345 14.9417 95.6121 15.779 96.3107 16.3379L96.3444 16.2957C95.6629 15.7505 95.3885 14.9318 95.3885 13.9707H95.3345ZM101.553 16.9879C100.73 17.8109 99.7708 18.2221 98.5359 18.2221V18.2761C99.7851 18.2761 100.758 17.8592 101.591 17.0261L101.553 16.9879ZM98.5359 18.2221C97.301 18.2221 96.3419 17.8109 95.5189 16.9879L95.4807 17.0261C96.3138 17.8592 97.2867 18.2761 98.5359 18.2761V18.2221ZM95.5189 16.9879C94.6959 16.165 94.2848 15.2058 94.2848 13.9709H94.2308C94.2308 15.2201 94.6476 16.193 95.4807 17.0261L95.5189 16.9879ZM94.2848 13.9709C94.2848 12.736 94.6959 11.7768 95.5189 10.9539L95.4807 10.9157C94.6476 11.7488 94.2308 12.7217 94.2308 13.9709H94.2848ZM95.5189 10.9539C96.3419 10.1309 97.301 9.71975 98.5359 9.71975V9.66575C97.2867 9.66575 96.3138 10.0826 95.4807 10.9157L95.5189 10.9539ZM98.5359 9.71975C99.7708 9.71975 100.73 10.1309 101.553 10.9539L101.591 10.9157C100.758 10.0826 99.7851 9.66575 98.5359 9.66575V9.71975ZM101.553 10.9539C102.376 11.7768 102.787 12.736 102.787 13.9709H102.841C102.841 12.7217 102.424 11.7488 101.591 10.9157L101.553 10.9539ZM102.787 13.9709C102.787 15.2058 102.376 16.165 101.553 16.9879L101.591 17.0261C102.424 16.193 102.841 15.2201 102.841 13.9709H102.787ZM88.4616 18.084H87.3576V18.138H88.4616V18.084ZM87.3846 18.111V10.7967H87.3306V18.111H87.3846ZM87.3576 10.7697H85.0115V10.8237H87.3576V10.7697ZM85.0385 10.7967V9.83064H84.9845V10.7967H85.0385ZM85.0115 9.85764H90.6697V9.80364H85.0115V9.85764ZM90.6427 9.83064V10.7967H90.6967V9.83064H90.6427ZM90.6697 10.7697H88.3236V10.8237H90.6697V10.7697ZM88.2966 10.7967V18.111H88.3506V10.7967H88.2966ZM88.3236 18.138H88.4616V18.084H88.3236V18.138ZM82.6653 18.138H83.7693V18.084H82.6653V18.138ZM83.7963 18.111V9.83064H83.7423V18.111H83.7963ZM83.7693 9.80364H82.6653V9.85764H83.7693V9.80364ZM82.6383 9.83064V18.111H82.6923V9.83064H82.6383ZM76.317 18.084H75.2129V18.138H76.317V18.084ZM75.2399 18.111V10.7967H75.1859V18.111H75.2399ZM75.2129 10.7697H72.8668V10.8237H75.2129V10.7697ZM72.8938 10.7967V9.83064H72.8398V10.7967H72.8938ZM72.8668 9.85764H78.6631V9.80364H72.8668V9.85764ZM78.6361 9.83064V10.7967H78.6901V9.83064H78.6361ZM78.6631 10.7697H76.317V10.8237H78.6631V10.7697ZM76.29 10.7967V18.111H76.344V10.7967H76.29ZM71.7632 10.7697H68.037V10.8237H71.7632V10.7697ZM68.01 10.7967V13.4188H68.064V10.7967H68.01ZM68.037 13.4458H71.4872V13.3918H68.037V13.4458ZM71.4602 13.4188V14.3848H71.5142V13.4188H71.4602ZM71.4872 14.3578H68.037V14.4118H71.4872V14.3578ZM68.01 14.3848V17.0069H68.064V14.3848H68.01ZM68.037 17.0339H71.7632V16.9799H68.037V17.0339ZM71.7362 17.0069V18.111H71.7902V17.0069H71.7362ZM71.7632 18.084H66.933V18.138H71.7632V18.084ZM66.96 18.111V9.83064H66.906V18.111H66.96ZM66.933 9.85764H71.7632V9.80364H66.933V9.85764ZM71.7362 9.83064V10.7967H71.7902V9.83064H71.7362ZM65.3871 14.2469C65.3871 15.3468 65.1122 16.3048 64.429 16.9879L64.4672 17.0261C65.164 16.3293 65.4411 15.3551 65.4411 14.2469H65.3871ZM64.429 16.9879C63.606 17.8109 62.6469 18.2221 61.412 18.2221V18.2761C62.6611 18.2761 63.6341 17.8592 64.4672 17.0261L64.429 16.9879ZM61.412 18.2221C60.1771 18.2221 59.2179 17.8109 58.3949 16.9879L58.3567 17.0261C59.1898 17.8592 60.1628 18.2761 61.412 18.2761V18.2221ZM58.3949 16.9879C57.572 16.165 57.1608 15.2058 57.1608 13.9709H57.1068C57.1068 15.2201 57.5236 16.193 58.3567 17.0261L58.3949 16.9879ZM57.1608 13.9709C57.1608 12.736 57.572 11.7769 58.3949 10.9539L58.3567 10.9157C57.5236 11.7488 57.1068 12.7217 57.1068 13.9709H57.1608ZM58.3949 10.9539C59.2179 10.1309 60.1771 9.71976 61.412 9.71976V9.66576C60.1628 9.66576 59.1898 10.0826 58.3567 10.9157L58.3949 10.9539ZM61.412 9.71976C61.9593 9.71976 62.5072 9.85656 63.0559 10.1309L63.0801 10.0826C62.5248 9.80496 61.9686 9.66576 61.412 9.66576V9.71976ZM63.0559 10.1309C63.6068 10.4064 64.0156 10.6798 64.2876 11.0878L64.3325 11.0578C64.0525 10.6378 63.6333 10.3592 63.0801 10.0826L63.0559 10.1309ZM64.291 11.0537L63.6009 11.7437L63.6391 11.7819L64.3292 11.0919L64.291 11.0537ZM63.6411 11.746C63.0829 11.0483 62.3844 10.7698 61.412 10.7698V10.8238C62.3716 10.8238 63.0531 11.0974 63.599 11.7797L63.6411 11.746ZM61.412 10.7698C60.5782 10.7698 59.7413 11.0478 59.1828 11.746L59.225 11.7797C59.7705 11.0978 60.5896 10.8238 61.412 10.8238V10.7698ZM59.187 11.7418C58.4884 12.3006 58.2108 13.1379 58.2108 14.1089H58.2648C58.2648 13.1479 58.5393 12.3291 59.2207 11.7839L59.187 11.7418ZM58.2108 14.1089C58.2108 15.0799 58.4884 15.9172 59.187 16.4761L59.2207 16.4339C58.5393 15.8888 58.2648 15.07 58.2648 14.1089H58.2108ZM59.187 16.4761C59.8781 17.029 60.5743 17.4481 61.412 17.4481V17.3941C60.5935 17.3941 59.9096 16.9851 59.2207 16.4339L59.187 16.4761ZM61.412 17.4481C61.8976 17.4481 62.3152 17.3787 62.6987 17.2218C63.0822 17.0649 63.4301 16.8211 63.7771 16.4741L63.7389 16.4359C63.3959 16.779 63.0538 17.0182 62.6783 17.1718C62.3027 17.3254 61.8923 17.3941 61.412 17.3941V17.4481ZM63.7771 16.4741C64.1957 16.0556 64.4751 15.4969 64.4751 14.799H64.4211C64.4211 15.4811 64.1485 16.0264 63.7389 16.4359L63.7771 16.4741ZM64.4481 14.772H61.412V14.826H64.4481V14.772ZM61.439 14.799V13.6949H61.385V14.799H61.439ZM61.412 13.7219H65.4141V13.6679H61.412V13.7219ZM65.3871 13.6949V14.2469H65.4411V13.6949H65.3871Z" fill="white"/>
<mask id="mask1_728:1771" style="mask-type:alpha" maskUnits="userSpaceOnUse" x="0" y="0" width="187" height="56">
<path fill-rule="evenodd" clip-rule="evenodd" d="M0 55.3725H186.307V0.17041H0V55.3725Z" fill="white"/>
</mask>
<g mask="url(#mask1_728:1771)">
<path fill-rule="evenodd" clip-rule="evenodd" d="M147.528 41.5719H150.15V24.3213H147.528V41.5719ZM170.712 30.5315L167.814 37.9838H167.676L164.64 30.5315H161.88L166.434 41.0199L163.812 46.8161H166.434L173.472 30.5315H170.712ZM156.223 39.6399C155.395 39.6399 154.153 39.2259 154.153 38.1218C154.153 36.7418 155.671 36.3277 156.913 36.3277C158.017 36.3277 158.569 36.6038 159.259 36.8798C158.983 38.5358 157.603 39.6399 156.223 39.6399ZM156.498 30.1175C154.566 30.1175 152.634 30.9455 151.944 32.7396L154.29 33.7057C154.842 32.7396 155.67 32.4636 156.636 32.4636C158.016 32.4636 159.258 33.2916 159.396 34.6717V34.8097C158.982 34.5337 157.878 34.1197 156.774 34.1197C154.29 34.1197 151.806 35.4997 151.806 37.9838C151.806 40.3299 153.876 41.848 156.084 41.848C157.878 41.848 158.706 41.0199 159.396 40.1919H159.534V41.572H162.018V34.9477C161.742 31.9116 159.396 30.1175 156.498 30.1175ZM140.628 32.6016H136.902V26.6674H140.628C142.56 26.6674 143.664 28.3234 143.664 29.5655C143.526 31.0835 142.422 32.6016 140.628 32.6016ZM140.49 24.3213H134.279V41.5719H136.901V35.0857H140.49C143.388 35.0857 146.148 33.0156 146.148 29.7035C146.148 26.3913 143.388 24.3213 140.49 24.3213ZM106.816 39.6399C105.022 39.6399 103.504 38.1218 103.504 36.0518C103.504 33.9817 105.022 32.4636 106.816 32.4636C108.61 32.4636 109.99 33.9817 109.99 36.0518C109.99 38.1218 108.61 39.6399 106.816 39.6399ZM109.853 31.4976C109.163 30.8075 108.059 30.1175 106.679 30.1175C103.781 30.1175 101.021 32.7396 101.021 36.0517C101.021 39.3639 103.643 41.848 106.679 41.848C108.059 41.848 109.163 41.1579 109.715 40.4679H109.853V41.2959C109.853 43.504 108.611 44.7461 106.679 44.7461C105.161 44.7461 104.057 43.642 103.781 42.676L101.573 43.642C102.263 45.1601 103.919 47.0922 106.817 47.0922C109.853 47.0922 112.337 45.2981 112.337 41.0199V30.5315H109.853V31.4976ZM113.993 41.5719H116.615V24.3213H113.993V41.5719ZM120.479 35.9138C120.479 33.7057 122.273 32.4636 123.515 32.4636C124.481 32.4636 125.447 33.0156 125.723 33.7057L120.479 35.9138ZM128.483 33.9816C127.931 32.6015 126.551 30.2554 123.515 30.2554C120.478 30.2554 117.994 32.6015 117.994 36.1896C117.994 39.5018 120.478 42.1239 123.791 42.1239C126.413 42.1239 128.069 40.4678 128.621 39.5018L126.689 38.1217C125.999 39.0877 125.171 39.7778 123.791 39.7778C122.411 39.7778 121.582 39.2257 120.892 37.9837L128.759 34.6716L128.483 33.9816ZM65.829 32.0496V34.5337H71.7633C71.6253 35.9137 71.0732 37.0178 70.3832 37.7078C69.5552 38.5358 68.1751 39.5019 65.829 39.5019C62.1029 39.5019 59.3428 36.6038 59.3428 32.8776C59.3428 29.1515 62.2409 26.2534 65.829 26.2534C67.7611 26.2534 69.2792 27.0814 70.3832 28.0475L72.1773 26.2534C70.6592 24.8733 68.7272 23.7693 65.9671 23.7693C60.9989 23.7693 56.7207 27.9094 56.7207 32.8776C56.7207 37.8458 60.9989 41.986 65.9671 41.986C68.7272 41.986 70.6592 41.1579 72.3153 39.3639C73.9714 37.7078 74.5234 35.3617 74.5234 33.5677C74.5234 33.0156 74.5234 32.4636 74.3854 32.0496H65.829ZM81.1473 39.6399C79.3532 39.6399 77.8351 38.1218 77.8351 36.0518C77.8351 33.9817 79.3532 32.4636 81.1473 32.4636C82.9413 32.4636 84.4594 33.8437 84.4594 36.0518C84.4594 38.1218 82.9413 39.6399 81.1473 39.6399ZM81.1467 30.2554C77.8346 30.2554 75.2125 32.7395 75.2125 36.1896C75.2125 39.5018 77.8346 42.1239 81.1467 42.1239C84.4588 42.1239 87.0809 39.6398 87.0809 36.1896C87.0809 32.6015 84.4588 30.2554 81.1467 30.2554ZM93.9823 39.6399C92.1882 39.6399 90.6702 38.1218 90.6702 36.0518C90.6702 33.9817 92.1882 32.4636 93.9823 32.4636C95.7764 32.4636 97.2944 33.8437 97.2944 36.0518C97.2944 38.1218 95.7764 39.6399 93.9823 39.6399ZM93.9818 30.2554C90.6696 30.2554 88.0475 32.7395 88.0475 36.1896C88.0475 39.5018 90.6696 42.1239 93.9818 42.1239C97.2939 42.1239 99.916 39.6398 99.916 36.1896C99.916 32.6015 97.2939 30.2554 93.9818 30.2554Z" fill="white"/>
</g>
<mask id="mask2_728:1771" style="mask-type:alpha" maskUnits="userSpaceOnUse" x="13" y="10" width="19" height="36">
<path fill-rule="evenodd" clip-rule="evenodd" d="M13.8008 12.4529V42.9521C13.8008 43.7804 14.0768 44.4701 14.4908 44.8842L14.6288 45.0224L31.7415 27.9098V27.6335L14.3528 10.5211C13.9388 10.9349 13.8008 11.6249 13.8008 12.4529Z" fill="white"/>
</mask>
<g mask="url(#mask2_728:1771)">
<path fill-rule="evenodd" clip-rule="evenodd" d="M13.8008 12.4529V42.9521C13.8008 43.7804 14.0768 44.4701 14.4908 44.8842L14.6288 45.0224L31.7415 27.9098V27.6335L14.3528 10.5211C13.9388 10.9349 13.8008 11.6249 13.8008 12.4529Z" fill="#32BBFF"/>
</g>
<mask id="mask3_728:1771" style="mask-type:alpha" maskUnits="userSpaceOnUse" x="31" y="21" width="15" height="13">
<path fill-rule="evenodd" clip-rule="evenodd" d="M31.6025 27.6335V28.0475L37.2608 33.7057L44.161 29.9796C46.0931 28.8755 46.0931 27.0814 44.161 25.9771L37.3988 22.1133L37.2608 21.975L31.6025 27.6335Z" fill="white"/>
</mask>
<g mask="url(#mask3_728:1771)">
<path fill-rule="evenodd" clip-rule="evenodd" d="M31.6025 27.6335V28.0475L37.2608 33.7057L44.161 29.9796C46.0931 28.8755 46.0931 27.0814 44.161 25.9771L37.3988 22.1133L37.2608 21.975L31.6025 27.6335Z" fill="#FFD500"/>
</g>
<mask id="mask4_728:1771" style="mask-type:alpha" maskUnits="userSpaceOnUse" x="14" y="27" width="24" height="19">
<path fill-rule="evenodd" clip-rule="evenodd" d="M14.3521 45.0223C15.0421 45.712 16.0081 45.712 17.2502 45.16L37.3989 33.5676L31.6027 27.7714L14.3521 45.0223Z" fill="white"/>
</mask>
<g mask="url(#mask4_728:1771)">
<path fill-rule="evenodd" clip-rule="evenodd" d="M14.3521 45.0223C15.0421 45.712 16.0081 45.712 17.2502 45.16L37.3989 33.5676L31.6027 27.7714L14.3521 45.0223Z" fill="url(#paint0_linear_728:1771)"/>
</g>
<mask id="mask5_728:1771" style="mask-type:alpha" maskUnits="userSpaceOnUse" x="14" y="10" width="24" height="18">
<path fill-rule="evenodd" clip-rule="evenodd" d="M14.3521 10.6588L31.6027 27.7714L37.3989 21.9752L17.2502 10.521C16.6904 10.21 16.187 10.0673 15.7396 10.0673C15.1936 10.067 14.7313 10.2795 14.3521 10.6588Z" fill="white"/>
</mask>
<g mask="url(#mask5_728:1771)">
<path fill-rule="evenodd" clip-rule="evenodd" d="M14.3521 10.6588L31.6027 27.7714L37.3989 21.9752L17.2502 10.521C16.6904 10.21 16.187 10.0673 15.7396 10.0673C15.1936 10.067 14.7313 10.2795 14.3521 10.6588Z" fill="#29CC5E"/>
</g>
<path fill-rule="evenodd" clip-rule="evenodd" d="M37.2604 33.4296L17.2497 44.746C16.1456 45.436 15.1796 45.298 14.4896 44.746L14.3516 44.884L14.4896 45.022C15.1796 45.574 16.1456 45.712 17.2497 45.022L37.2604 33.4296Z" fill="black"/>
<path fill-rule="evenodd" clip-rule="evenodd" d="M44.1604 29.5653L37.2601 33.4295L37.3981 33.5675L44.1604 29.7033C45.1264 29.1513 45.5404 28.4613 45.5404 27.7712C45.5404 28.4613 44.9884 29.0133 44.1604 29.5653ZM14.3513 44.7458C13.9373 44.3318 13.7993 43.6418 13.7993 42.8137V42.9517C13.7993 43.7798 14.0753 44.4698 14.4893 44.8838V44.7458H14.3513Z" fill="black"/>
<path fill-rule="evenodd" clip-rule="evenodd" d="M17.2494 10.6586L44.1605 25.9772C44.9885 26.5292 45.5405 27.0812 45.5405 27.7712C45.5405 27.0812 45.1265 26.3912 44.1605 25.8392L17.2494 10.5206C15.3174 9.41654 13.7993 10.2446 13.7993 12.4527V12.5907C13.7993 10.5206 15.3174 9.55455 17.2494 10.6586Z" fill="white"/>
<defs>
<linearGradient id="paint0_linear_728:1771" x1="13.8987" y1="18.8045" x2="-8.13419" y2="55.7954" gradientUnits="userSpaceOnUse">
<stop stop-color="#FF3A44"/>
<stop offset="1" stop-color="#C31162"/>
</linearGradient>
</defs>
</svg>
