<svg width="16" height="75" viewBox="0 0 16 75" fill="none" xmlns="http://www.w3.org/2000/svg">
<path d="M8.60207 74.1236C2.96356 74.1236 1.34036 69.7582 1.29764 69.587C0.99863 68.731 1.42581 67.8323 2.28013 67.5327C3.09174 67.2331 4.03146 67.6611 4.33047 68.517C4.4159 68.7738 5.35566 70.9137 8.60207 70.9137C9.58454 70.9137 12.5747 70.9137 12.5747 60.4711C12.5747 54.565 11.6777 10.0124 11.635 6.97379C11.4641 6.28903 10.6097 3.37879 7.53417 3.37879C4.62948 3.37879 3.51891 4.49152 3.51891 7.40177C3.51891 10.0552 3.94607 56.3197 3.94607 56.7905C3.94607 57.6892 3.26258 58.4168 2.36554 58.4168C1.46851 58.4168 0.785071 57.6892 0.785071 56.8332C0.785071 54.9073 0.35791 10.0552 0.35791 7.40177C0.35791 2.73681 2.92088 0.168945 7.57693 0.168945C12.4038 0.168945 14.4542 4.32034 14.8814 6.50303C14.8814 6.58862 14.9241 6.67421 14.9241 6.7598C14.9241 7.23058 15.8638 54.351 15.8638 60.4711C15.7357 63.8521 15.7357 74.1236 8.60207 74.1236Z" fill="#FF4FB9"/>
</svg>
