<svg width="243" height="67" viewBox="0 0 243 67" fill="none" xmlns="http://www.w3.org/2000/svg">
<path d="M37.1008 25.1204C37.1008 25.4016 37.051 25.7034 36.9514 26.0256C36.8577 26.3479 36.6994 26.6467 36.4768 26.9221C36.26 27.1975 35.9758 27.429 35.6243 27.6165C35.2727 27.7981 34.842 27.8889 34.3323 27.8889H25.6575C25.4934 27.8889 25.341 27.8596 25.2004 27.801C25.0598 27.7424 24.9368 27.6633 24.8313 27.5637C24.7317 27.4583 24.6526 27.3352 24.594 27.1946C24.5354 27.054 24.5061 26.9016 24.5061 26.7375V16.4368C24.5061 16.2786 24.5354 16.1292 24.594 15.9885C24.6526 15.8479 24.7317 15.7249 24.8313 15.6194C24.9368 15.5139 25.0598 15.4319 25.2004 15.3733C25.341 15.3147 25.4934 15.2854 25.6575 15.2854H33.3039C33.5852 15.2854 33.8869 15.3352 34.2092 15.4348C34.5315 15.5344 34.8303 15.6956 35.1057 15.9182C35.3869 16.135 35.6184 16.4192 35.8 16.7708C35.9875 17.1223 36.0813 17.553 36.0813 18.0627V18.4934C36.0813 18.8977 36.0139 19.3342 35.8791 19.803C35.7444 20.2659 35.5276 20.7053 35.2287 21.1213C35.4866 21.2795 35.7268 21.47 35.9494 21.6926C36.178 21.9153 36.3772 22.1731 36.5471 22.4661C36.717 22.759 36.8518 23.0901 36.9514 23.4592C37.051 23.8284 37.1008 24.2356 37.1008 24.6809V25.1204ZM34.8157 24.6809C34.8157 24.3821 34.7688 24.1155 34.675 23.8811C34.5813 23.6409 34.4494 23.4358 34.2795 23.2659C34.1096 23.0959 33.9045 22.967 33.6643 22.8792C33.4241 22.7854 33.1545 22.7385 32.8557 22.7385H27.7053V20.4358H31.8274C32.1262 20.4358 32.3957 20.3918 32.636 20.304C32.8762 20.2102 33.0813 20.0784 33.2512 19.9084C33.4211 19.7385 33.55 19.5364 33.6379 19.302C33.7317 19.0618 33.7785 18.7922 33.7785 18.4934V18.0627C33.7785 17.7346 33.6203 17.5706 33.3039 17.5706H26.7912V25.6038H34.3323C34.3733 25.6038 34.4231 25.6008 34.4817 25.595C34.5403 25.5891 34.593 25.5715 34.6399 25.5422C34.6868 25.5129 34.7278 25.4631 34.7629 25.3928C34.7981 25.3225 34.8157 25.2258 34.8157 25.1028V24.6809ZM49.0627 21.5344C49.0627 21.8508 49.0071 22.1936 48.8957 22.5627C48.7844 22.926 48.6028 23.2659 48.3508 23.5823C48.1047 23.8928 47.7795 24.1536 47.3752 24.3645C46.9768 24.5754 46.4905 24.6809 45.9162 24.6809H41.7942V22.51H45.9162C46.2268 22.51 46.467 22.4163 46.6369 22.2288C46.8069 22.0354 46.8918 21.7981 46.8918 21.5168C46.8918 21.218 46.7952 20.9836 46.6018 20.8137C46.4143 20.6438 46.1858 20.5588 45.9162 20.5588H41.7942C41.4836 20.5588 41.2434 20.6555 41.0735 20.8489C40.9035 21.0364 40.8186 21.2708 40.8186 21.552V24.7424C40.8186 25.0471 40.9123 25.2844 41.0998 25.4543C41.2932 25.6243 41.5305 25.7092 41.8118 25.7092H45.9162V27.8889H41.7942C41.4778 27.8889 41.135 27.8333 40.7659 27.7219C40.4026 27.6106 40.0627 27.4319 39.7463 27.1858C39.4358 26.9338 39.175 26.6086 38.9641 26.2102C38.7532 25.8059 38.6477 25.3167 38.6477 24.7424V21.5344C38.6477 21.218 38.7034 20.8782 38.8147 20.5149C38.926 20.1458 39.1047 19.8059 39.3508 19.4954C39.6028 19.179 39.928 18.9153 40.3264 18.7043C40.7307 18.4934 41.22 18.3879 41.7942 18.3879H45.9162C46.2327 18.3879 46.5725 18.4436 46.9358 18.5549C47.3049 18.6663 47.6448 18.8479 47.9553 19.0999C48.2717 19.3459 48.5354 19.6711 48.7463 20.0754C48.9573 20.4739 49.0627 20.9602 49.0627 21.5344ZM61.0774 28.803C61.0774 29.1956 61.0276 29.5471 60.928 29.8577C60.8284 30.1741 60.6965 30.4495 60.5325 30.6838C60.3684 30.9241 60.178 31.1262 59.9612 31.2903C59.7444 31.4602 59.5159 31.5979 59.2756 31.7034C59.0412 31.8088 58.8039 31.885 58.5637 31.9319C58.3235 31.9846 58.095 32.011 57.8782 32.011H53.7561V29.7258H57.8782C58.1828 29.7258 58.4114 29.6467 58.5637 29.4885C58.716 29.3303 58.7922 29.1018 58.7922 28.803V18.3879H61.0774V28.803ZM57.8782 27.8889H53.7561C53.428 27.8889 53.0764 27.8333 52.7014 27.7219C52.3323 27.6106 51.9866 27.429 51.6643 27.177C51.342 26.9192 51.0754 26.5881 50.8645 26.1838C50.6535 25.7737 50.5481 25.2727 50.5481 24.6809V18.3879H52.8332V24.6809C52.8332 24.9797 52.9123 25.2083 53.0705 25.3665C53.2287 25.5247 53.4631 25.6038 53.7737 25.6038H57.8782V27.8889ZM73.593 24.6809C73.593 25.0735 73.5432 25.428 73.4436 25.7444C73.344 26.0549 73.2121 26.3303 73.0481 26.5706C72.884 26.8049 72.6936 27.0071 72.4768 27.177C72.26 27.3411 72.0315 27.4758 71.7912 27.5813C71.5569 27.6868 71.3166 27.7659 71.0705 27.8186C70.8303 27.8655 70.6018 27.8889 70.385 27.8889H66.2629C65.9465 27.8889 65.6008 27.8333 65.2258 27.7219C64.8508 27.6106 64.5022 27.429 64.1799 27.177C63.8635 26.9192 63.5969 26.5881 63.3801 26.1838C63.1692 25.7737 63.0637 25.2727 63.0637 24.6809V21.5872C63.0637 21.0012 63.1692 20.5061 63.3801 20.1018C63.5969 19.6917 63.8635 19.3606 64.1799 19.1086C64.5022 18.8508 64.8508 18.6663 65.2258 18.5549C65.6008 18.4436 65.9465 18.3879 66.2629 18.3879H70.385C70.9709 18.3879 71.469 18.4934 71.8791 18.7043C72.2893 18.9153 72.6203 19.1819 72.8723 19.5042C73.1243 19.8206 73.3059 20.1663 73.4172 20.5413C73.5344 20.9163 73.593 21.2649 73.593 21.5872V24.6809ZM71.3078 21.6047C71.3078 21.2883 71.2287 21.054 71.0705 20.9016C70.9123 20.7493 70.6838 20.6731 70.385 20.6731H66.2805C65.9758 20.6731 65.7444 20.7522 65.5862 20.9104C65.428 21.0627 65.3489 21.2883 65.3489 21.5872V24.6809C65.3489 24.9797 65.428 25.2083 65.5862 25.3665C65.7444 25.5247 65.9758 25.6038 66.2805 25.6038H70.385C70.6955 25.6038 70.927 25.5247 71.0793 25.3665C71.2317 25.2083 71.3078 24.9797 71.3078 24.6809V21.6047ZM86.0735 27.8889H83.7883V22.6155C83.7883 22.3167 83.7356 22.05 83.6301 21.8157C83.5305 21.5754 83.3928 21.3704 83.217 21.2004C83.0412 21.0305 82.8332 20.9016 82.593 20.8137C82.3586 20.72 82.1037 20.6731 81.8284 20.6731H77.8293V27.8889H75.5442V19.5217C75.5442 19.3635 75.5735 19.217 75.6321 19.0823C75.6907 18.9417 75.7727 18.8215 75.8782 18.7219C75.9836 18.6165 76.1067 18.5344 76.2473 18.4758C76.3879 18.4172 76.5373 18.3879 76.6955 18.3879H81.8459C82.133 18.3879 82.4348 18.4202 82.7512 18.4846C83.0735 18.5491 83.3899 18.6545 83.7004 18.801C84.0168 18.9417 84.3157 19.1233 84.5969 19.3459C84.884 19.5627 85.136 19.8293 85.3528 20.1458C85.5754 20.4563 85.7512 20.8167 85.8801 21.2268C86.009 21.637 86.0735 22.0999 86.0735 22.6155V27.8889ZM98.5012 24.6809C98.5012 25.0735 98.4514 25.428 98.3518 25.7444C98.2522 26.0549 98.1203 26.3303 97.9563 26.5706C97.7922 26.8049 97.6018 27.0071 97.385 27.177C97.1682 27.3411 96.9397 27.4758 96.6994 27.5813C96.4651 27.6868 96.2248 27.7659 95.9787 27.8186C95.7385 27.8655 95.51 27.8889 95.2932 27.8889H91.1711C90.7785 27.8889 90.427 27.8391 90.1164 27.7395C89.8059 27.6399 89.5305 27.5081 89.2903 27.344C89.0559 27.1741 88.8537 26.9807 88.6838 26.7639C88.5198 26.5471 88.385 26.3215 88.2795 26.0872C88.1741 25.8469 88.095 25.6067 88.0422 25.3665C87.9953 25.1204 87.9719 24.8918 87.9719 24.6809V21.5872C87.9719 21.0012 88.0774 20.5061 88.2883 20.1018C88.5051 19.6917 88.7717 19.3606 89.0881 19.1086C89.4104 18.8508 89.759 18.6663 90.134 18.5549C90.509 18.4436 90.8547 18.3879 91.1711 18.3879H95.2932V20.6731H91.1887C90.884 20.6731 90.6526 20.7522 90.4944 20.9104C90.3362 21.0627 90.2571 21.2883 90.2571 21.5872V24.6633C90.2571 24.9739 90.3332 25.2083 90.4856 25.3665C90.6438 25.5247 90.8723 25.6038 91.1711 25.6038H95.2932C95.6037 25.6038 95.8352 25.5247 95.9875 25.3665C96.1399 25.2083 96.216 24.9797 96.216 24.6809V14.3713H98.5012V24.6809ZM115.033 20.6731H111.043V27.8889H108.732V20.6731H105.761V18.3879H108.732V15.2854H111.043V18.3879H115.033V20.6731ZM127.101 27.8889H124.816V21.5872C124.816 21.2883 124.739 21.0627 124.587 20.9104C124.435 20.7522 124.206 20.6731 123.902 20.6731H119.78V18.3879H123.902C124.118 18.3879 124.347 18.4143 124.587 18.467C124.827 18.5139 125.065 18.5901 125.299 18.6956C125.539 18.801 125.768 18.9387 125.985 19.1086C126.201 19.2727 126.392 19.4749 126.556 19.7151C126.72 19.9495 126.852 20.2219 126.951 20.5325C127.051 20.843 127.101 21.1946 127.101 21.5872V27.8889ZM118.857 27.8889H116.572V14.3713H118.857V27.8889ZM139.414 21.5344C139.414 21.8508 139.359 22.1936 139.247 22.5627C139.136 22.926 138.954 23.2659 138.702 23.5823C138.456 23.8928 138.131 24.1536 137.727 24.3645C137.328 24.5754 136.842 24.6809 136.268 24.6809H132.146V22.51H136.268C136.578 22.51 136.819 22.4163 136.989 22.2288C137.158 22.0354 137.243 21.7981 137.243 21.5168C137.243 21.218 137.147 20.9836 136.953 20.8137C136.766 20.6438 136.537 20.5588 136.268 20.5588H132.146C131.835 20.5588 131.595 20.6555 131.425 20.8489C131.255 21.0364 131.17 21.2708 131.17 21.552V24.7424C131.17 25.0471 131.264 25.2844 131.451 25.4543C131.645 25.6243 131.882 25.7092 132.163 25.7092H136.268V27.8889H132.146C131.829 27.8889 131.487 27.8333 131.117 27.7219C130.754 27.6106 130.414 27.4319 130.098 27.1858C129.787 26.9338 129.527 26.6086 129.316 26.2102C129.105 25.8059 128.999 25.3167 128.999 24.7424V21.5344C128.999 21.218 129.055 20.8782 129.166 20.5149C129.278 20.1458 129.456 19.8059 129.702 19.4954C129.954 19.179 130.28 18.9153 130.678 18.7043C131.082 18.4934 131.572 18.3879 132.146 18.3879H136.268C136.584 18.3879 136.924 18.4436 137.287 18.5549C137.656 18.6663 137.996 18.8479 138.307 19.0999C138.623 19.3459 138.887 19.6711 139.098 20.0754C139.309 20.4739 139.414 20.9602 139.414 21.5344ZM150.981 27.8889H149.961C149.633 27.8889 149.281 27.8333 148.906 27.7219C148.537 27.6106 148.192 27.429 147.869 27.177C147.547 26.9192 147.281 26.5881 147.07 26.1838C146.859 25.7737 146.753 25.2727 146.753 24.6809V14.3713H149.038V24.6809C149.038 24.9622 149.126 25.1877 149.302 25.3577C149.478 25.5217 149.697 25.6038 149.961 25.6038H150.981V27.8889ZM154.769 16.4368H152.484V14.3713H154.769V16.4368ZM154.769 27.8889H152.484V18.3879H154.769V27.8889ZM165.447 27.8889H163.162V21.5872C163.162 21.2883 163.083 21.0627 162.925 20.9104C162.767 20.7522 162.532 20.6731 162.222 20.6731H159.251V27.8889H156.966V19.5217C156.966 19.3635 156.995 19.217 157.054 19.0823C157.113 18.9417 157.195 18.8215 157.3 18.7219C157.406 18.6165 157.529 18.5344 157.669 18.4758C157.81 18.4172 157.959 18.3879 158.117 18.3879H162.239C162.556 18.3879 162.896 18.4436 163.259 18.5549C163.622 18.6663 163.968 18.845 164.296 19.0911V18.3879H167.39C167.607 18.3879 167.835 18.4143 168.075 18.467C168.316 18.5139 168.553 18.5901 168.787 18.6956C169.028 18.801 169.256 18.9387 169.473 19.1086C169.69 19.2727 169.88 19.4749 170.044 19.7151C170.208 19.9495 170.34 20.2219 170.44 20.5325C170.539 20.843 170.589 21.1946 170.589 21.5872V27.8889H168.304V21.5872C168.304 21.2883 168.228 21.0627 168.075 20.9104C167.929 20.7522 167.7 20.6731 167.39 20.6731H165.333C165.409 20.9543 165.447 21.259 165.447 21.5872V27.8889ZM175.019 16.4368H172.734V14.3713H175.019V16.4368ZM175.019 27.8889H172.734V18.3879H175.019V27.8889ZM185.856 20.6731H181.865V27.8889H179.554V20.6731H176.583V18.3879H179.554V15.2854H181.865V18.3879H185.856V20.6731ZM196.543 24.6809C196.543 25.0735 196.493 25.428 196.394 25.7444C196.294 26.0549 196.162 26.3303 195.998 26.5706C195.834 26.8049 195.644 27.0071 195.427 27.177C195.21 27.3411 194.982 27.4758 194.741 27.5813C194.507 27.6868 194.267 27.7659 194.021 27.8186C193.781 27.8655 193.552 27.8889 193.335 27.8889H187.148V25.6038H193.318C193.628 25.6038 193.863 25.5247 194.021 25.3665C194.179 25.2083 194.258 24.9797 194.258 24.6809C194.229 24.0715 193.921 23.7668 193.335 23.7668H189.793C189.289 23.7668 188.862 23.679 188.51 23.5032C188.158 23.3274 187.871 23.1077 187.649 22.844C187.432 22.5803 187.274 22.2961 187.174 21.9915C187.08 21.6868 187.033 21.4026 187.033 21.1389C187.033 20.6292 187.124 20.2014 187.306 19.8557C187.488 19.5042 187.716 19.22 187.991 19.0032C188.267 18.7864 188.566 18.6311 188.888 18.5374C189.21 18.4377 189.512 18.3879 189.793 18.3879H195.409V20.6731H189.811C189.694 20.6731 189.6 20.6877 189.53 20.717C189.465 20.7405 189.415 20.7756 189.38 20.8225C189.351 20.8635 189.333 20.9104 189.327 20.9631C189.322 21.01 189.319 21.0569 189.319 21.1038C189.324 21.1975 189.342 21.2708 189.371 21.3235C189.401 21.3762 189.436 21.4143 189.477 21.4377C189.524 21.4612 189.573 21.4758 189.626 21.4817C189.685 21.4817 189.74 21.4817 189.793 21.4817H193.335C193.921 21.4817 194.419 21.5872 194.829 21.7981C195.239 22.009 195.571 22.2756 195.822 22.5979C196.074 22.9143 196.256 23.26 196.367 23.635C196.485 24.01 196.543 24.3586 196.543 24.6809ZM212.197 22.6155H203.952V20.5588H212.197V22.6155Z" fill="#FF4FB9"/>
<path d="M67.0803 48.7424C67.0803 49.0588 67.0246 49.4016 66.9133 49.7708C66.802 50.134 66.6203 50.4739 66.3684 50.7903C66.1223 51.1008 65.7971 51.3616 65.3928 51.5725C64.9944 51.7834 64.508 51.8889 63.9338 51.8889H59.8118C59.4953 51.8889 59.1526 51.8333 58.7834 51.7219C58.4202 51.6106 58.0803 51.4319 57.7639 51.1858C57.4534 50.9338 57.1926 50.6086 56.9817 50.2102C56.7707 49.8059 56.6653 49.3167 56.6653 48.7424C56.6653 48.426 56.7209 48.0833 56.8323 47.7141C56.9436 47.345 57.1223 47.0051 57.3684 46.6946C57.6203 46.3782 57.9455 46.1145 58.344 45.9036C58.7483 45.6926 59.2375 45.5872 59.8118 45.5872H63.9338V47.7668H59.8118C59.5012 47.7668 59.261 47.8635 59.091 48.0569C58.9211 48.2444 58.8362 48.4788 58.8362 48.76C58.8362 49.0588 58.9328 49.2932 59.1262 49.4631C59.3254 49.6272 59.5598 49.7092 59.8293 49.7092H63.9338C64.2444 49.7092 64.4846 49.6155 64.6545 49.428C64.8244 49.2405 64.9094 49.0061 64.9094 48.7249V45.5344C64.9094 45.2356 64.8157 44.9983 64.6282 44.8225C64.4465 44.6467 64.2151 44.5588 63.9338 44.5588H58.9153V42.3879H63.9338C64.2502 42.3879 64.5901 42.4436 64.9534 42.5549C65.3225 42.6663 65.6623 42.8479 65.9729 43.0999C66.2893 43.3459 66.553 43.6711 66.7639 44.0754C66.9748 44.4739 67.0803 44.9602 67.0803 45.5344V48.7424ZM79.508 48.6809C79.508 48.8977 79.4817 49.1262 79.4289 49.3665C79.3821 49.6067 79.3059 49.8469 79.2004 50.0872C79.095 50.3215 78.9573 50.5471 78.7873 50.7639C78.6233 50.9807 78.4211 51.1741 78.1809 51.344C77.9465 51.5081 77.6741 51.6399 77.3635 51.7395C77.053 51.8391 76.7014 51.8889 76.3088 51.8889H72.1868C71.97 51.8889 71.7414 51.8655 71.5012 51.8186C71.261 51.7659 71.0207 51.6868 70.7805 51.5813C70.5461 51.4758 70.3205 51.3411 70.1037 51.177C69.8869 51.0071 69.6936 50.8049 69.5237 50.5706C69.3596 50.3303 69.2278 50.0549 69.1282 49.7444C69.0285 49.428 68.9787 49.0735 68.9787 48.6809V38.3713H71.2639V48.6809C71.2639 48.9622 71.3518 49.1877 71.5276 49.3577C71.7034 49.5217 71.9231 49.6038 72.1868 49.6038H76.3088C76.5959 49.6038 76.8186 49.5188 76.9768 49.3489C77.1409 49.179 77.2229 48.9563 77.2229 48.6809V45.5872C77.2229 45.3 77.1379 45.0774 76.968 44.9192C76.7981 44.7551 76.5784 44.6731 76.3088 44.6731H72.1868V42.3879H76.3088C76.5256 42.3879 76.7541 42.4143 76.9944 42.467C77.2346 42.5139 77.4719 42.5901 77.7063 42.6956C77.9465 42.801 78.175 42.9387 78.3918 43.1086C78.6086 43.2727 78.7991 43.4749 78.9631 43.7151C79.1272 43.9495 79.259 44.2219 79.3586 44.5325C79.4582 44.843 79.508 45.1946 79.508 45.5872V48.6809ZM91.7952 48.6809C91.7952 49.0735 91.7453 49.428 91.6457 49.7444C91.5461 50.0549 91.4143 50.3303 91.2502 50.5706C91.0862 50.8049 90.8957 51.0071 90.6789 51.177C90.4621 51.3411 90.2336 51.4758 89.9934 51.5813C89.759 51.6868 89.5188 51.7659 89.2727 51.8186C89.0325 51.8655 88.8039 51.8889 88.5871 51.8889H84.4651C84.1487 51.8889 83.803 51.8333 83.428 51.7219C83.053 51.6106 82.7043 51.429 82.3821 51.177C82.0657 50.9192 81.7991 50.5881 81.5823 50.1838C81.3713 49.7737 81.2659 49.2727 81.2659 48.6809V45.5872C81.2659 45.0012 81.3713 44.5061 81.5823 44.1018C81.7991 43.6917 82.0657 43.3606 82.3821 43.1086C82.7043 42.8508 83.053 42.6663 83.428 42.5549C83.803 42.4436 84.1487 42.3879 84.4651 42.3879H88.5871C89.1731 42.3879 89.6711 42.4934 90.0813 42.7043C90.4914 42.9153 90.8225 43.1819 91.0744 43.5042C91.3264 43.8206 91.508 44.1663 91.6194 44.5413C91.7366 44.9163 91.7952 45.2649 91.7952 45.5872V48.6809ZM89.51 45.6047C89.51 45.2883 89.4309 45.054 89.2727 44.9016C89.1145 44.7493 88.886 44.6731 88.5871 44.6731H84.4827C84.178 44.6731 83.9465 44.7522 83.7883 44.9104C83.6301 45.0627 83.551 45.2883 83.551 45.5872V48.6809C83.551 48.9797 83.6301 49.2083 83.7883 49.3665C83.9465 49.5247 84.178 49.6038 84.4827 49.6038H88.5871C88.8977 49.6038 89.1291 49.5247 89.2815 49.3665C89.4338 49.2083 89.51 48.9797 89.51 48.6809V45.6047ZM105.084 42.3879C104.826 43.1907 104.525 43.9817 104.179 44.761C103.833 45.5403 103.435 46.2844 102.984 46.9934C102.538 47.6965 102.037 48.3499 101.481 48.9534C100.93 49.551 100.318 50.0696 99.6438 50.509C98.9758 50.9426 98.2463 51.2854 97.4553 51.5374C96.6702 51.7834 95.8176 51.9065 94.8977 51.9065C94.7395 51.9065 94.5901 51.8772 94.4494 51.8186C94.3088 51.76 94.1858 51.6809 94.0803 51.5813C93.9748 51.4758 93.8928 51.3557 93.8342 51.2209C93.7756 51.0803 93.7463 50.9309 93.7463 50.7727V42.3879H96.0315V49.5334C96.5881 49.5334 97.1213 49.4133 97.6311 49.1731C98.1467 48.9329 98.633 48.6165 99.0901 48.2239C99.5471 47.8254 99.969 47.3743 100.356 46.8704C100.748 46.3665 101.097 45.8508 101.402 45.3235C101.706 44.7903 101.964 44.2688 102.175 43.759C102.392 43.2493 102.553 42.7922 102.658 42.3879H105.084ZM116.132 45.5344C116.132 45.8508 116.076 46.1936 115.965 46.5627C115.854 46.926 115.672 47.2659 115.42 47.5823C115.174 47.8928 114.849 48.1536 114.445 48.3645C114.046 48.5754 113.56 48.6809 112.986 48.6809H108.864V46.51H112.986C113.296 46.51 113.536 46.4163 113.706 46.2288C113.876 46.0354 113.961 45.7981 113.961 45.5168C113.961 45.218 113.864 44.9836 113.671 44.8137C113.484 44.6438 113.255 44.5588 112.986 44.5588H108.864C108.553 44.5588 108.313 44.6555 108.143 44.8489C107.973 45.0364 107.888 45.2708 107.888 45.552V48.7424C107.888 49.0471 107.982 49.2844 108.169 49.4543C108.363 49.6243 108.6 49.7092 108.881 49.7092H112.986V51.8889H108.864C108.547 51.8889 108.204 51.8333 107.835 51.7219C107.472 51.6106 107.132 51.4319 106.816 51.1858C106.505 50.9338 106.244 50.6086 106.033 50.2102C105.822 49.8059 105.717 49.3167 105.717 48.7424V45.5344C105.717 45.218 105.773 44.8782 105.884 44.5149C105.995 44.1458 106.174 43.8059 106.42 43.4954C106.672 43.179 106.997 42.9153 107.396 42.7043C107.8 42.4934 108.289 42.3879 108.864 42.3879H112.986C113.302 42.3879 113.642 42.4436 114.005 42.5549C114.374 42.6663 114.714 42.8479 115.025 43.0999C115.341 43.3459 115.605 43.6711 115.816 44.0754C116.027 44.4739 116.132 44.9602 116.132 45.5344ZM132.023 44.6731H128.032V51.8889H125.721V44.6731H122.75V42.3879H125.721V39.2854H128.032V42.3879H132.023V44.6731ZM144.09 51.8889H141.805V45.5872C141.805 45.2883 141.729 45.0627 141.576 44.9104C141.424 44.7522 141.196 44.6731 140.891 44.6731H136.769V42.3879H140.891C141.108 42.3879 141.336 42.4143 141.576 42.467C141.817 42.5139 142.054 42.5901 142.288 42.6956C142.529 42.801 142.757 42.9387 142.974 43.1086C143.191 43.2727 143.381 43.4749 143.545 43.7151C143.709 43.9495 143.841 44.2219 143.941 44.5325C144.04 44.843 144.09 45.1946 144.09 45.5872V51.8889ZM135.846 51.8889H133.561V38.3713H135.846V51.8889ZM156.404 45.5344C156.404 45.8508 156.348 46.1936 156.237 46.5627C156.125 46.926 155.944 47.2659 155.692 47.5823C155.446 47.8928 155.12 48.1536 154.716 48.3645C154.318 48.5754 153.831 48.6809 153.257 48.6809H149.135V46.51H153.257C153.568 46.51 153.808 46.4163 153.978 46.2288C154.148 46.0354 154.233 45.7981 154.233 45.5168C154.233 45.218 154.136 44.9836 153.943 44.8137C153.755 44.6438 153.527 44.5588 153.257 44.5588H149.135C148.824 44.5588 148.584 44.6555 148.414 44.8489C148.244 45.0364 148.159 45.2708 148.159 45.552V48.7424C148.159 49.0471 148.253 49.2844 148.441 49.4543C148.634 49.6243 148.871 49.7092 149.153 49.7092H153.257V51.8889H149.135C148.819 51.8889 148.476 51.8333 148.107 51.7219C147.743 51.6106 147.404 51.4319 147.087 51.1858C146.777 50.9338 146.516 50.6086 146.305 50.2102C146.094 49.8059 145.989 49.3167 145.989 48.7424V45.5344C145.989 45.218 146.044 44.8782 146.156 44.5149C146.267 44.1458 146.446 43.8059 146.692 43.4954C146.944 43.179 147.269 42.9153 147.667 42.7043C148.072 42.4934 148.561 42.3879 149.135 42.3879H153.257C153.573 42.3879 153.913 42.4436 154.277 42.5549C154.646 42.6663 154.986 42.8479 155.296 43.0999C155.613 43.3459 155.876 43.6711 156.087 44.0754C156.298 44.4739 156.404 44.9602 156.404 45.5344ZM172.98 48.6809C172.98 49.0735 172.93 49.428 172.83 49.7444C172.731 50.0549 172.599 50.3303 172.435 50.5706C172.271 50.8049 172.08 51.0071 171.864 51.177C171.647 51.3411 171.418 51.4758 171.178 51.5813C170.944 51.6868 170.703 51.7659 170.457 51.8186C170.217 51.8655 169.989 51.8889 169.772 51.8889H163.584V49.6038H169.754C170.065 49.6038 170.299 49.5247 170.457 49.3665C170.615 49.2083 170.695 48.9797 170.695 48.6809C170.665 48.0715 170.358 47.7668 169.772 47.7668H166.23C165.726 47.7668 165.298 47.679 164.947 47.5032C164.595 47.3274 164.308 47.1077 164.085 46.844C163.868 46.5803 163.71 46.2961 163.611 45.9915C163.517 45.6868 163.47 45.4026 163.47 45.1389C163.47 44.6292 163.561 44.2014 163.742 43.8557C163.924 43.5042 164.153 43.22 164.428 43.0032C164.703 42.7864 165.002 42.6311 165.324 42.5374C165.647 42.4377 165.948 42.3879 166.23 42.3879H171.846V44.6731H166.247C166.13 44.6731 166.036 44.6877 165.966 44.717C165.902 44.7405 165.852 44.7756 165.817 44.8225C165.787 44.8635 165.77 44.9104 165.764 44.9631C165.758 45.01 165.755 45.0569 165.755 45.1038C165.761 45.1975 165.779 45.2708 165.808 45.3235C165.837 45.3762 165.872 45.4143 165.913 45.4377C165.96 45.4612 166.01 45.4758 166.063 45.4817C166.121 45.4817 166.177 45.4817 166.23 45.4817H169.772C170.358 45.4817 170.856 45.5872 171.266 45.7981C171.676 46.009 172.007 46.2756 172.259 46.5979C172.511 46.9143 172.693 47.26 172.804 47.635C172.921 48.01 172.98 48.3586 172.98 48.6809ZM183.07 44.6731H179.079V51.8889H176.768V44.6731H173.797V42.3879H176.768V39.2854H179.079V42.3879H183.07V44.6731ZM193.836 48.7424C193.836 49.0588 193.781 49.4016 193.669 49.7708C193.558 50.134 193.376 50.4739 193.124 50.7903C192.878 51.1008 192.553 51.3616 192.149 51.5725C191.75 51.7834 191.264 51.8889 190.69 51.8889H186.568C186.251 51.8889 185.908 51.8333 185.539 51.7219C185.176 51.6106 184.836 51.4319 184.52 51.1858C184.209 50.9338 183.948 50.6086 183.738 50.2102C183.527 49.8059 183.421 49.3167 183.421 48.7424C183.421 48.426 183.477 48.0833 183.588 47.7141C183.699 47.345 183.878 47.0051 184.124 46.6946C184.376 46.3782 184.701 46.1145 185.1 45.9036C185.504 45.6926 185.993 45.5872 186.568 45.5872H190.69V47.7668H186.568C186.257 47.7668 186.017 47.8635 185.847 48.0569C185.677 48.2444 185.592 48.4788 185.592 48.76C185.592 49.0588 185.689 49.2932 185.882 49.4631C186.081 49.6272 186.316 49.7092 186.585 49.7092H190.69C191 49.7092 191.24 49.6155 191.41 49.428C191.58 49.2405 191.665 49.0061 191.665 48.7249V45.5344C191.665 45.2356 191.572 44.9983 191.384 44.8225C191.202 44.6467 190.971 44.5588 190.69 44.5588H185.671V42.3879H190.69C191.006 42.3879 191.346 42.4436 191.709 42.5549C192.078 42.6663 192.418 42.8479 192.729 43.0999C193.045 43.3459 193.309 43.6711 193.52 44.0754C193.731 44.4739 193.836 44.9602 193.836 45.5344V48.7424ZM204.102 44.6731H198.96C198.65 44.6731 198.415 44.7522 198.257 44.9104C198.099 45.0627 198.02 45.2883 198.02 45.5872V51.8889H195.735V45.5872C195.735 45.1946 195.784 44.843 195.884 44.5325C195.984 44.2219 196.115 43.9495 196.28 43.7151C196.449 43.4749 196.643 43.2727 196.86 43.1086C197.076 42.9387 197.302 42.801 197.536 42.6956C197.777 42.5901 198.017 42.5139 198.257 42.467C198.503 42.4143 198.732 42.3879 198.943 42.3879H204.102V44.6731ZM214.798 48.6809C214.798 49.0735 214.748 49.428 214.649 49.7444C214.549 50.0549 214.417 50.3303 214.253 50.5706C214.089 50.8049 213.899 51.0071 213.682 51.177C213.465 51.3411 213.237 51.4758 212.996 51.5813C212.762 51.6868 212.522 51.7659 212.276 51.8186C212.035 51.8655 211.807 51.8889 211.59 51.8889H205.403V49.6038H211.572C211.883 49.6038 212.117 49.5247 212.276 49.3665C212.434 49.2083 212.513 48.9797 212.513 48.6809C212.484 48.0715 212.176 47.7668 211.59 47.7668H208.048C207.544 47.7668 207.116 47.679 206.765 47.5032C206.413 47.3274 206.126 47.1077 205.904 46.844C205.687 46.5803 205.529 46.2961 205.429 45.9915C205.335 45.6868 205.288 45.4026 205.288 45.1389C205.288 44.6292 205.379 44.2014 205.561 43.8557C205.742 43.5042 205.971 43.22 206.246 43.0032C206.522 42.7864 206.821 42.6311 207.143 42.5374C207.465 42.4377 207.767 42.3879 208.048 42.3879H213.664V44.6731H208.066C207.948 44.6731 207.855 44.6877 207.784 44.717C207.72 44.7405 207.67 44.7756 207.635 44.8225C207.606 44.8635 207.588 44.9104 207.582 44.9631C207.576 45.01 207.573 45.0569 207.573 45.1038C207.579 45.1975 207.597 45.2708 207.626 45.3235C207.656 45.3762 207.691 45.4143 207.732 45.4377C207.779 45.4612 207.828 45.4758 207.881 45.4817C207.94 45.4817 207.995 45.4817 208.048 45.4817H211.59C212.176 45.4817 212.674 45.5872 213.084 45.7981C213.494 46.009 213.825 46.2756 214.077 46.5979C214.329 46.9143 214.511 47.26 214.622 47.635C214.739 48.01 214.798 48.3586 214.798 48.6809Z" fill="white"/>
<path fill-rule="evenodd" clip-rule="evenodd" d="M10 0.888916H20.2095V1.88892H10C5.02944 1.88892 1 5.91835 1 10.8889V47.1915C1 50.3341 2.63921 53.2491 5.32445 54.8817L21.0937 64.4692C22.5028 65.3259 24.1202 65.779 25.7693 65.779H180.266V66.779H25.7693C23.937 66.779 22.1399 66.2756 20.5742 65.3237L4.80495 55.7361C1.82134 53.9221 0 50.6832 0 47.1915V10.8889C0 5.36607 4.47715 0.888916 10 0.888916ZM212.266 66.779H232.266C237.789 66.779 242.266 62.3018 242.266 56.779V20.4345C242.266 16.9384 240.44 13.6961 237.45 11.8835L221.707 2.33796C220.144 1.39009 218.351 0.888916 216.523 0.888916H130.142H54.2095V1.88892H130.142H216.523C218.168 1.88892 219.782 2.33998 221.189 3.19306L236.932 12.7386C239.623 14.37 241.266 17.288 241.266 20.4345V56.779C241.266 61.7496 237.236 65.779 232.266 65.779H212.266V66.779Z" fill="#FF4FB9"/>
</svg>
