<svg width="619" height="247" viewBox="0 0 619 247" fill="none" xmlns="http://www.w3.org/2000/svg">
<path class="st0" d="M502.77,215.54c-1.24,0-2.43-0.04-3.59-0.09c-2.95-0.13-6.28-0.26-9.57-0.56l-2.35-0.21
		c-0.55-0.04-1.11-0.13-1.67-0.17l-3.03-0.34l-2.35-0.34c-0.94-0.13-1.88-0.3-2.82-0.43c-0.6-0.09-1.2-0.21-1.79-0.3
		c-1.32-0.21-2.61-0.47-3.89-0.68l-0.73-0.13c-6.02-1.16-12-2.61-17.81-4.32c-5.81-1.71-11.53-3.55-17.09-5.56l-4.19-1.54
		l-4.14-1.63c-1.02-0.38-2.05-0.81-3.03-1.24c-0.34-0.13-0.73-0.3-1.07-0.43l-2.05-0.86c-0.38-0.17-0.77-0.34-1.15-0.51
		c-0.26-0.13-0.55-0.26-0.81-0.34l-15.51-6.85c-0.47-0.21-0.9-0.38-1.33-0.6c-0.81-0.38-1.71-0.77-2.56-1.16l-3.8-1.8l-15.25-7.23
		l-7.56-3.72c-1.75-0.86-3.46-1.76-5.21-2.61c-3.25-1.63-6.58-3.25-9.82-4.97l-18.58-9.76h-0.04l-6.88-3.85l-5.6,3.04
		c-20.72,11.13-36.95,19.26-52.67,26.41c-6.07,2.74-11.11,4.88-15.76,6.8c-5.3,2.18-10.72,4.28-16.15,6.25
		c-10.98,4.02-22.3,7.36-33.7,9.93c-13.16,2.87-24.9,4.24-35.88,4.24c-6.19,0-12.43-0.47-18.54-1.41c-1.07-0.13-2.09-0.34-3.16-0.56
		c-0.47-0.08-0.94-0.17-1.41-0.26c-1.32-0.26-2.61-0.56-3.89-0.86l-0.68-0.17c-2.86-0.68-5.85-1.58-9.06-2.7
		c-0.64-0.21-1.28-0.47-1.92-0.73l-0.34-0.13c-0.26-0.08-0.51-0.21-0.77-0.3c-0.47-0.17-0.98-0.39-1.45-0.56l-3.29-1.46
		c-0.04,0-0.04,0-0.09-0.04l-3.2-1.58c-0.47-0.26-0.94-0.51-1.37-0.77c-0.26-0.13-0.51-0.3-0.77-0.43c-1.07-0.6-2.09-1.24-3.08-1.88
		c-0.38-0.26-0.73-0.47-1.11-0.73c0,0-0.04,0-0.04-0.04c-0.56-0.38-1.07-0.77-1.58-1.16l-1.37-0.98c-0.39-0.3-0.73-0.56-1.03-0.81
		l-0.6-0.47c-0.43-0.34-0.9-0.73-1.32-1.07l-0.04-0.04l-1.79-1.63c-2.48-2.27-4.74-4.79-6.75-7.45c-2.01-2.65-3.8-5.48-5.34-8.39
		c-1.5-2.91-2.78-5.91-3.8-8.99c-1.97-5.95-3.16-12.15-3.55-18.4c-0.6-9.03,0.09-18.36,2.09-28.55c0-0.04,0-0.04,0-0.09l1.84-7.36
		c-18.24,18.1-48.95,22.38-50.32,22.56c-0.21,0.04-20.08,2.44-23.07-5.22c-1.62-4.19,2.31-9.59,12.13-16.52
		c22.47-15.88,72.19-68.56,86.88-84.31l0.04-0.04l6.66-6.42c0.43-0.43,1.07-0.56,1.67-0.34c0.56,0.21,0.98,0.73,1.03,1.33l0.81,8.3
		c5.38,54.52,17.51,82.34,25.59,100.79c1.45,3.34,2.86,6.51,4.06,9.5c4.4,10.91,5.47,17.76,3.33,20.89
		c-0.9,1.33-2.09,1.54-2.56,1.58c-7.65,0.99-15.42-1.41-23.11-7.15c-6.02-4.49-12.05-11.04-17.86-19.52
		c-6.54-9.46-11.36-19.22-13.88-24.78l-0.94,8.13c-0.21,3.42-0.3,6.81-0.26,9.97c0.08,5.14,0.56,10.27,1.5,15.28
		c0.17,0.94,0.38,1.93,0.6,2.87l0.17,0.77l0.47,1.8c0.09,0.39,0.21,0.73,0.34,1.11c0.09,0.21,0.13,0.43,0.21,0.68
		c0.68,2.27,1.58,4.49,2.56,6.68c0.98,2.05,2.14,4.11,3.42,5.99c1.24,1.84,2.65,3.6,4.19,5.22l1.15,1.2l1.24,1.11
		c0,0,0.04,0,0.04,0.04c0.34,0.34,0.77,0.64,1.15,0.98c0.17,0.13,0.34,0.26,0.47,0.38c0.3,0.21,0.56,0.47,0.81,0.64
		c0,0,0.04,0,0.04,0.04l1.41,1.03c0.38,0.26,0.85,0.56,1.37,0.86l0.04,0.04c0.21,0.13,0.43,0.3,0.64,0.43l1.15,0.64
		c0.34,0.21,0.68,0.38,1.03,0.6c4.06,2.1,8.41,3.72,12.9,4.79c2.65,0.6,4.91,1.03,7.05,1.33h0.09c1.2,0.17,2.35,0.34,3.54,0.43
		c0.3,0.04,0.64,0.04,0.94,0.09c0.94,0.08,1.79,0.17,2.69,0.21c4.91,0.3,9.82,0.21,14.65-0.26c8.97-0.81,18.67-2.82,29.65-6.16
		c8.76-2.65,18.07-6.21,29.3-11.13c4.66-2.1,9.53-4.37,14.44-6.76c4.31-2.14,8.84-4.45,14.31-7.36
		c8.84-4.71,18.41-10.06,29.26-16.43l6.19-3.72l-6.71-3.77c-15.55-9.16-31.1-18.66-46.3-28.29c-1.45-0.94-2.9-1.88-4.36-2.78
		c-3.2-2.05-6.49-4.15-9.7-6.25c-4.23-2.78-9.18-5.99-13.97-9.24c-7.6-5.09-17.6-11.9-27.51-19.13c-0.64-0.47-1.11-1.2-1.28-1.97
		c-0.17-0.81-0.04-1.63,0.34-2.31c0.38-0.68,1.03-1.24,1.79-1.5c0.77-0.26,1.58-0.21,2.35,0.09c15.76,6.76,31.65,13.74,47.03,20.5
		c4.66,2.05,9.35,4.11,14.01,6.16c20.25,8.9,40.71,17.85,60.83,26.58l6.02,2.57l5.64,2.4l7.05-4.24l14.27-8.64
		c7.9-4.75,18.32-11,29.22-17.03c5.08-2.87,10.21-5.61,15.16-8.17c5.25-2.74,10.59-5.35,15.85-7.75c5.85-2.7,11.41-4.96,16.92-6.93
		l0.85-0.3c1.15-0.43,2.39-0.86,3.63-1.24l1.24-0.39c1.11-0.34,2.22-0.68,3.33-1.03l3.55-0.98h0.04l4.78-1.16l2.61-0.56
		c2.39-0.51,4.83-1.07,7.3-1.5c0.55-0.09,1.11-0.21,1.67-0.3c0.9-0.17,1.84-0.34,2.78-0.51l4.49-0.73c1.07-0.17,2.18-0.34,3.25-0.47
		c0.43-0.04,0.85-0.13,1.28-0.17l2.52-0.34c0.68-0.09,1.37-0.17,2.05-0.21l6.15-0.73l5.81-0.39c0.56-0.04,1.15-0.04,1.71-0.09
		c0.21,0,0.47,0,0.68,0c0.51,0,1.03-0.04,1.54-0.04c1.07-0.04,2.14-0.09,3.25-0.09l4.74,0.04c0.73,0,1.49,0.04,2.26,0.09l2.61,0.13
		c6.62,0.34,13.24,1.2,19.73,2.53c6.84,1.41,13.58,3.51,19.99,6.29c6.75,2.91,13.11,6.63,18.92,11.13
		c5.9,4.58,11.19,9.89,15.72,15.79c4.4,5.73,8.12,12.03,11.06,18.62c0.55,1.11,0.98,2.23,1.41,3.34c0.21,0.51,0.43,1.03,0.6,1.5
		c0.47,1.16,0.9,2.31,1.28,3.38c0.17,0.51,0.34,0.99,0.51,1.5c0.51,1.37,0.9,2.74,1.28,4.02l0.6,2.05c0.09,0.21,0.13,0.43,0.21,0.69
		l0.17,0.68c0,0.04,0,0.04,0,0.09l1.92,10.1c0,0.04,0,0.09,0,0.13c0.13,0.99,0.21,2.05,0.3,3.08c0.34,4.32,0.3,8.73-0.13,13.1
		c-0.43,4.07-1.15,8.09-2.26,11.94c-1.11,3.94-2.61,7.79-4.4,11.47c-3.63,7.32-8.46,13.91-14.4,19.52
		c-5.64,5.31-12.05,9.71-19.01,13.14c-3.29,1.63-6.71,3.04-10.12,4.24c-3.38,1.15-6.79,2.14-10.21,2.91
		c-6.62,1.46-13.37,2.35-20.12,2.65C506.78,215.5,504.73,215.54,502.77,215.54z M341.64,154.34l18.54,9.72
		c3.25,1.67,6.58,3.34,9.78,4.92c1.75,0.86,3.46,1.75,5.21,2.61l7.52,3.72l19.01,8.99c0.81,0.39,1.67,0.77,2.48,1.11
		c0.47,0.21,0.9,0.39,1.37,0.6l15.46,6.85c0.26,0.13,0.56,0.26,0.81,0.34c0.38,0.17,0.73,0.34,1.11,0.47l2.01,0.86
		c0.34,0.13,0.73,0.3,1.07,0.43c0.98,0.38,1.96,0.81,2.95,1.2l4.1,1.63l4.14,1.54c5.47,1.97,11.15,3.81,16.87,5.48
		c5.68,1.67,11.58,3.08,17.51,4.24l0.73,0.13c1.28,0.26,2.48,0.47,3.76,0.68c0.6,0.09,1.2,0.21,1.84,0.3
		c0.94,0.17,1.79,0.3,2.73,0.43l2.31,0.34l2.99,0.34c0.51,0.04,1.02,0.13,1.54,0.17l2.35,0.21c3.2,0.3,6.49,0.43,9.4,0.56
		c2.86,0.13,5.98,0.09,9.52-0.08c6.58-0.3,13.16-1.16,19.61-2.61c3.33-0.77,6.66-1.71,9.91-2.82c3.33-1.16,6.62-2.53,9.78-4.07
		c6.71-3.25,12.82-7.49,18.2-12.58c5.64-5.35,10.25-11.64,13.71-18.62c1.71-3.51,3.12-7.19,4.23-10.91
		c1.07-3.68,1.79-7.53,2.18-11.43c0.43-4.15,0.47-8.35,0.13-12.5c-0.08-0.98-0.17-1.93-0.3-2.87l-1.92-9.97l-0.17-0.64
		c-0.04-0.17-0.09-0.34-0.17-0.51v-0.04l-0.6-2.1c-0.38-1.33-0.77-2.57-1.24-3.85c-0.17-0.51-0.34-1.03-0.55-1.54
		c-0.38-1.11-0.77-2.14-1.2-3.21c-0.21-0.51-0.43-1.03-0.64-1.54c-0.43-1.07-0.85-2.1-1.37-3.12v-0.04
		c-2.86-6.38-6.45-12.45-10.68-17.98c-4.36-5.69-9.44-10.83-15.12-15.19c-5.6-4.32-11.75-7.92-18.24-10.74
		c-6.24-2.7-12.73-4.75-19.39-6.12c-6.32-1.28-12.81-2.14-19.26-2.48l-2.61-0.13c-0.73-0.04-1.41-0.09-2.09-0.09l-4.78-0.04
		c-1.03,0-2.09,0.04-3.12,0.09c-0.51,0-1.03,0.04-1.54,0.04c-0.21,0-0.47,0-0.68,0c-0.55,0-1.07,0.04-1.58,0.04l-5.81,0.39
		l-1.11,0.09l-4.57,0.47c-0.64,0.04-1.32,0.13-1.96,0.21l-2.52,0.3c-0.43,0.04-0.85,0.13-1.28,0.17c-1.03,0.13-2.14,0.26-3.16,0.43
		l-4.49,0.73c-0.9,0.13-1.79,0.3-2.65,0.47c-0.55,0.13-1.15,0.21-1.71,0.34c-2.39,0.43-4.83,0.94-7.18,1.46l-3.72,0.81l-3.54,0.9
		l-3.5,0.98c-1.07,0.34-2.18,0.68-3.25,1.03l-1.24,0.39c-1.2,0.39-2.35,0.81-3.5,1.2l-0.85,0.3c-5.42,1.97-10.85,4.19-16.66,6.85
		c-5.21,2.4-10.47,4.96-15.68,7.66c-4.96,2.57-10.04,5.31-15.08,8.13c-10.81,6.03-21.23,12.24-29.09,16.99l-16.45,9.97l-5.55,3.34
		c-0.43,0.26-0.98,0.3-1.45,0.09l-6.41-2.7l-6.02-2.57c-20.12-8.73-40.58-17.68-60.83-26.58c-4.66-2.05-9.35-4.11-14.01-6.16
		c-15.38-6.76-31.27-13.74-47.03-20.5h-0.04c0,0-0.04,0-0.04,0.04v0.04c0,0,0,0.04,0.04,0.04c9.87,7.19,19.82,13.95,27.42,19.09
		c4.78,3.21,9.7,6.46,13.92,9.2c3.2,2.1,6.49,4.19,9.7,6.25c1.45,0.94,2.9,1.88,4.36,2.78c15.16,9.63,30.67,19.09,46.18,28.2
		l9.1,5.14c0.51,0.3,0.81,0.81,0.81,1.37s-0.3,1.11-0.77,1.41l-8.59,5.18c-10.89,6.42-20.5,11.81-29.39,16.52
		c-5.47,2.91-10.04,5.26-14.39,7.4c-4.96,2.44-9.82,4.75-14.57,6.85c-11.32,5.01-20.76,8.56-29.65,11.25
		c-11.19,3.38-21.1,5.44-30.29,6.29c-5,0.47-10.08,0.56-15.12,0.26c-0.94-0.04-1.92-0.13-2.82-0.21c-0.3-0.04-0.64-0.04-0.94-0.08
		c-1.28-0.13-2.48-0.3-3.67-0.47h-0.09c-2.26-0.3-4.57-0.77-7.35-1.41c-4.74-1.11-9.31-2.82-13.63-5.05
		c-0.43-0.21-0.81-0.43-1.2-0.64l-1.15-0.64c-0.3-0.17-0.56-0.34-0.81-0.51c-0.51-0.34-0.98-0.64-1.49-0.94l-1.41-1.03
		c-0.38-0.26-0.73-0.56-1.03-0.81c-0.13-0.13-0.26-0.21-0.38-0.34c-0.47-0.38-0.94-0.77-1.41-1.2l-1.28-1.16
		c-0.04,0-0.04-0.04-0.08-0.09l-1.2-1.24c-1.67-1.75-3.2-3.64-4.57-5.65c-1.37-2.05-2.61-4.19-3.67-6.42
		c-1.07-2.31-2.01-4.66-2.73-7.1c-0.04-0.21-0.13-0.43-0.21-0.6c-0.13-0.39-0.26-0.81-0.38-1.28l-0.47-1.8v-0.04l-0.17-0.81
		c-0.21-0.98-0.47-1.97-0.64-3c-0.98-5.18-1.49-10.53-1.58-15.84c-0.04-3.25,0.04-6.72,0.26-10.27c0-0.04,0-0.04,0-0.09l1.62-14.17
		c0.09-0.77,0.68-1.33,1.45-1.41c0.77-0.09,1.45,0.38,1.67,1.11c0.08,0.3,0.21,0.56,0.3,0.81v0.04c0.21,0.6,23.45,58.03,53.57,54.05
		h0.04c0.04-0.04,0.17-0.13,0.34-0.47c0.51-1.15,1.2-5.18-3.8-17.68c-1.15-2.91-2.56-6.08-4.01-9.42
		c-8.12-18.62-20.42-46.73-25.84-101.73l-0.51-5.01l-4.27,4.11c-18.88,20.54-65.18,69.33-87.27,84.95
		c-11.28,8-11.45,11.56-10.98,12.71c1.32,3.42,12.34,4.19,19.69,3.21c11.66-1.54,37.29-8.6,50.87-24.18
		c0.68-0.77,1.24-1.45,1.75-2.1c0.47-0.6,1.28-0.77,1.96-0.43c0.68,0.34,1.03,1.11,0.85,1.84l-3.42,13.61
		c-1.96,9.89-2.65,18.92-2.05,27.65c0.38,5.99,1.5,11.9,3.37,17.59c0.98,2.91,2.18,5.78,3.59,8.52c1.45,2.78,3.16,5.43,5.04,7.96
		c1.92,2.53,4.06,4.88,6.36,7.02l1.79,1.58c0.43,0.34,0.81,0.68,1.24,1.03l0.6,0.47c0.3,0.26,0.6,0.47,0.9,0.73l1.37,0.98
		c0.51,0.39,0.98,0.73,1.5,1.07c0.39,0.21,0.73,0.47,1.11,0.73c0.98,0.64,1.92,1.24,2.86,1.76c0.26,0.17,0.56,0.3,0.81,0.47
		c0.43,0.26,0.86,0.47,1.28,0.68l3.12,1.58l3.2,1.41c0.43,0.17,0.85,0.34,1.32,0.51c0.26,0.09,0.56,0.21,0.81,0.3l0.34,0.13
		c0.6,0.26,1.2,0.47,1.75,0.64c3.16,1.07,6.02,1.93,8.8,2.61l0.68,0.17c1.24,0.3,2.48,0.6,3.72,0.81c0.47,0.09,0.98,0.17,1.45,0.26
		c0.98,0.17,2.01,0.38,2.99,0.51c5.98,0.94,12.05,1.41,18.07,1.37c10.76,0,22.3-1.37,35.2-4.19c11.23-2.52,22.47-5.86,33.32-9.8
		c5.38-1.97,10.76-4.02,16.02-6.21c4.66-1.93,9.61-4.07,15.68-6.76c15.63-7.11,31.82-15.24,52.46-26.32l6.36-3.47
		c0.47-0.26,1.07-0.26,1.54,0L341.64,154.34z M497.98,176.17c-1.84,0-3.72-0.04-5.51-0.17l-1.79-0.09c-0.34,0-0.68-0.04-1.03-0.09
		c-0.26-0.04-0.51-0.04-0.81-0.04l-1.84-0.17l-1.84-0.17c-1.07-0.08-2.22-0.26-3.72-0.43c-1.24-0.17-2.43-0.34-3.67-0.51
		c-4.83-0.73-9.7-1.67-14.95-2.91c-5.25-1.24-10.12-2.57-14.95-4.02l-3.72-1.15l-3.72-1.2c-0.68-0.21-1.41-0.47-2.09-0.73
		c-0.55-0.17-1.07-0.38-1.62-0.56l-1.88-0.64c-0.51-0.17-1.11-0.39-1.67-0.6l-0.3-0.13l-7.65-2.83l-7.69-2.82
		c-0.38-0.13-0.81-0.3-1.2-0.43c-0.85-0.3-1.79-0.64-2.69-0.99l-11.45-4.45l-7.65-2.95l-7.65-3.08c-1.84-0.73-3.67-1.5-5.51-2.22
		c-2.95-1.2-6.02-2.4-9.01-3.64l-8.16-3.42c-0.55-0.26-0.94-0.77-0.98-1.41c-0.04-0.6,0.3-1.2,0.85-1.5l7.77-4.24l5.47-2.95
		c4.78-2.57,9.65-5.09,14.44-7.58c9.1-4.62,18.88-9.46,28.83-13.61c5.3-2.18,9.95-3.94,14.22-5.39l3.46-1.11c0.04,0,0.04,0,0.09,0
		c0.51-0.13,1.07-0.3,1.58-0.43c0.6-0.17,1.24-0.34,1.84-0.51l2.56-0.64l3.42-0.73l0.94-0.17c11.75-2.27,21.36-3.47,30.16-3.81
		l1.79-0.09c0.34,0,0.68,0,1.07,0c0.26,0,0.51,0,0.77,0c0.64-0.04,1.32,0,1.96,0c0.55,0,1.15,0,1.71,0h0.04l3.55,0.09
		c0.47,0,0.9,0.04,1.32,0.04c0.17,0,0.34,0,0.51,0.04l1.79,0.13c4.57,0.3,9.14,0.94,13.63,1.93c9.06,2.05,16.62,5.48,22.51,10.14
		c3.08,2.44,5.81,5.26,8.16,8.35c2.43,3.25,4.53,6.81,6.19,10.57c0.34,0.68,0.64,1.41,0.9,2.1c0.13,0.3,0.21,0.56,0.34,0.86
		c0.26,0.64,0.51,1.33,0.73,2.01c0.13,0.34,0.26,0.69,0.39,1.07c0.3,0.77,0.51,1.58,0.77,2.4c0.09,0.26,0.17,0.56,0.26,0.81
		l0.34,1.16c0,0.04,0,0.04,0.04,0.09l0.09,0.34c0.04,0.13,0.09,0.3,0.13,0.43c0.09,0.3,0.17,0.56,0.21,0.9
		c0.81,3.42,1.07,6.93,0.73,10.44c-0.6,6.72-3.59,12.97-8.41,17.63c-4.78,4.79-11.83,8.52-20.42,10.7c-4.36,1.11-8.8,1.8-13.28,2.14
		c-2.43,0.21-4.91,0.3-7.01,0.34C499.14,176.17,498.54,176.17,497.98,176.17z M368.64,134.01l5.08,2.14
		c2.99,1.24,6.02,2.44,8.97,3.64c1.84,0.73,3.67,1.46,5.51,2.23l7.65,3.08l19.09,7.4c0.85,0.34,1.75,0.64,2.6,0.94
		c0.43,0.13,0.81,0.3,1.24,0.43l7.69,2.82l7.95,2.95c0.51,0.21,1.07,0.38,1.58,0.56l1.84,0.64c0.51,0.17,1.07,0.38,1.62,0.56
		c0.68,0.21,1.37,0.47,2.01,0.68l3.72,1.2l3.67,1.15c4.74,1.46,9.57,2.74,14.74,3.98c5.13,1.24,9.95,2.14,14.65,2.87
		c1.2,0.17,2.43,0.34,3.63,0.51c1.45,0.17,2.56,0.34,3.59,0.43l1.84,0.17l1.79,0.13c0.26,0,0.56,0.04,0.81,0.04
		c0.3,0.04,0.64,0.04,0.94,0.08l1.79,0.09c2.31,0.17,4.66,0.21,7.01,0.17c2.05-0.04,4.49-0.13,6.83-0.3
		c4.31-0.3,8.59-0.99,12.73-2.06c7.99-2.05,14.57-5.48,18.97-9.89c4.31-4.15,6.96-9.71,7.47-15.62c0.3-3.17,0.09-6.33-0.64-9.46
		c0-0.04,0-0.04,0-0.09c-0.04-0.21-0.08-0.43-0.17-0.68c-0.04-0.17-0.09-0.34-0.13-0.51l-0.17-0.6l-0.26-0.77
		c-0.09-0.26-0.17-0.56-0.26-0.86c-0.21-0.77-0.43-1.5-0.68-2.18c-0.13-0.39-0.26-0.73-0.38-1.11c-0.21-0.64-0.43-1.24-0.68-1.84
		c-0.13-0.3-0.26-0.6-0.34-0.9c-0.26-0.68-0.51-1.33-0.81-1.88c0-0.04-0.04-0.04-0.04-0.08c-1.54-3.55-3.5-6.89-5.81-9.97
		c-2.18-2.91-4.74-5.52-7.6-7.79c-5.51-4.41-12.64-7.62-21.23-9.54c-4.32-0.94-8.71-1.58-13.16-1.84l-1.75-0.13
		c-0.17,0-0.34,0-0.51-0.04c-0.43-0.04-0.81-0.04-1.2-0.04l-3.54-0.09c-0.55,0-1.07,0-1.62,0c-0.64,0-1.28,0-1.92,0
		c-0.3,0-0.56,0-0.85,0c-0.3,0-0.6,0-0.9,0l-1.84,0.09c-8.63,0.3-18.07,1.5-29.69,3.77l-1.79,0.34l-3.29,0.73l-1.67,0.43
		c-0.55,0.17-1.15,0.34-1.75,0.47c-0.56,0.17-1.07,0.3-1.62,0.47l-3.42,1.07c-4.19,1.41-8.8,3.12-14.01,5.31
		c-9.82,4.11-19.56,8.9-28.62,13.52c-4.78,2.44-9.61,5.01-14.39,7.53l-5.47,2.91L368.64,134.01z" style="fill:#ef33a6;"/>
</svg>
