<svg width="619" height="247" viewBox="0 0 619 247" fill="none" xmlns="http://www.w3.org/2000/svg">
<g filter="url(#lay_logo)">
<path d="M499.161 214.517C497.922 214.517 496.726 214.474 495.573 214.431C492.626 214.303 489.294 214.174 486.005 213.875L483.655 213.661C483.1 213.618 482.545 213.532 481.989 213.49L478.957 213.147L476.607 212.805C475.668 212.676 474.728 212.505 473.788 212.377C473.19 212.291 472.592 212.163 471.994 212.077C470.67 211.863 469.388 211.606 468.107 211.392L467.381 211.264C461.358 210.109 455.378 208.653 449.568 206.942C443.759 205.23 438.035 203.389 432.482 201.378L428.296 199.837L424.152 198.211C423.127 197.826 422.102 197.398 421.12 196.97C420.778 196.841 420.393 196.67 420.052 196.542L418.001 195.686C417.617 195.515 417.232 195.343 416.848 195.172C416.592 195.044 416.293 194.915 416.036 194.83L400.531 187.982C400.061 187.768 399.634 187.597 399.206 187.383C398.395 186.998 397.498 186.613 396.643 186.227L392.842 184.43L377.592 177.197L370.032 173.474C368.28 172.618 366.572 171.719 364.82 170.863C361.574 169.237 358.242 167.61 354.996 165.898L336.414 156.141H336.372L329.494 152.289L323.899 155.327C303.181 166.455 286.949 174.586 271.23 181.734C265.164 184.473 260.124 186.613 255.468 188.538C250.171 190.721 244.746 192.818 239.321 194.787C228.343 198.81 217.024 202.148 205.619 204.716C192.462 207.583 180.715 208.953 169.738 208.953C163.544 208.953 157.307 208.482 151.199 207.541C150.131 207.412 149.106 207.198 148.038 206.984C147.568 206.899 147.098 206.813 146.628 206.728C145.304 206.471 144.023 206.171 142.741 205.872L142.058 205.7C139.196 205.016 136.206 204.117 133.002 203.004C132.361 202.79 131.721 202.533 131.08 202.277L130.738 202.148C130.482 202.063 130.225 201.934 129.969 201.849C129.499 201.677 128.987 201.463 128.517 201.292L125.228 199.837C125.185 199.837 125.185 199.837 125.142 199.794L121.939 198.211C121.469 197.954 120.999 197.697 120.572 197.44C120.315 197.312 120.059 197.141 119.803 197.012C118.735 196.413 117.71 195.771 116.727 195.129C116.343 194.873 116.001 194.659 115.617 194.402C115.617 194.402 115.574 194.402 115.574 194.359C115.019 193.974 114.506 193.589 113.993 193.203L112.627 192.219C112.242 191.919 111.9 191.663 111.601 191.406L111.003 190.935C110.576 190.593 110.106 190.208 109.679 189.865L109.636 189.822L107.842 188.196C105.365 185.928 103.101 183.403 101.093 180.749C99.0857 178.096 97.2916 175.271 95.7539 172.361C94.2588 169.451 92.9773 166.455 91.9522 163.373C89.9872 157.425 88.7912 151.219 88.4068 144.97C87.8087 135.94 88.4922 126.61 90.4998 116.424C90.4998 116.381 90.4998 116.381 90.4998 116.339L92.3366 108.977C74.097 127.081 43.3844 131.361 42.0175 131.532C41.8039 131.575 21.9411 133.971 18.951 126.311C17.3278 122.116 21.2576 116.724 31.0823 109.791C53.5507 93.9126 103.272 41.2286 117.966 25.479L118.009 25.4362L124.672 19.0165C125.1 18.5886 125.74 18.4602 126.338 18.6742C126.894 18.8882 127.321 19.4017 127.364 20.0009L128.175 28.3037C133.557 82.828 145.689 110.647 153.762 129.092C155.214 132.431 156.624 135.598 157.82 138.593C162.22 149.507 163.287 156.355 161.152 159.479C160.255 160.806 159.059 161.02 158.589 161.062C150.943 162.047 143.168 159.65 135.479 153.915C129.457 149.421 123.434 142.873 117.624 134.399C111.089 124.941 106.262 115.183 103.742 109.619L102.802 117.751C102.588 121.175 102.503 124.556 102.546 127.723C102.631 132.859 103.101 137.994 104.041 143.002C104.212 143.943 104.425 144.928 104.639 145.869L104.81 146.639L105.279 148.437C105.365 148.822 105.493 149.165 105.621 149.55C105.707 149.764 105.749 149.978 105.835 150.234C106.518 152.503 107.415 154.728 108.398 156.911C109.38 158.965 110.534 161.02 111.815 162.903C113.054 164.743 114.463 166.498 116.001 168.124L117.154 169.322L118.393 170.435C118.393 170.435 118.436 170.435 118.436 170.478C118.778 170.82 119.205 171.12 119.589 171.462C119.76 171.591 119.931 171.719 120.059 171.847C120.358 172.061 120.614 172.318 120.871 172.489C120.871 172.489 120.913 172.489 120.913 172.532L122.323 173.559C122.707 173.816 123.177 174.116 123.69 174.415L123.733 174.458C123.946 174.586 124.16 174.758 124.373 174.886L125.527 175.528C125.868 175.742 126.21 175.913 126.552 176.127C130.61 178.224 134.967 179.851 139.452 180.92C142.1 181.52 144.364 181.948 146.5 182.247H146.586C147.782 182.418 148.935 182.59 150.131 182.675C150.43 182.718 150.772 182.718 151.071 182.761C152.01 182.846 152.865 182.932 153.762 182.975C158.674 183.274 163.586 183.189 168.413 182.718C177.384 181.905 187.08 179.893 198.058 176.555C206.815 173.902 216.127 170.349 227.361 165.428C232.017 163.331 236.887 161.062 241.799 158.666C246.113 156.526 250.641 154.215 256.109 151.304C264.951 146.597 274.519 141.247 285.369 134.87L291.563 131.147L284.856 127.38C269.308 118.222 253.759 108.721 238.553 99.0912C237.1 98.1496 235.648 97.2081 234.196 96.3093C230.992 94.255 227.703 92.1579 224.499 90.0608C220.27 87.279 215.315 84.0691 210.531 80.8165C202.928 75.7236 192.932 68.9187 183.022 61.6859C182.381 61.2151 181.911 60.4876 181.741 59.7172C181.57 58.9041 181.698 58.0909 182.082 57.4061C182.467 56.7214 183.108 56.165 183.876 55.9082C184.645 55.6514 185.457 55.6942 186.226 55.9938C201.988 62.7559 217.878 69.7319 233.256 76.4939C237.912 78.5482 242.611 80.6025 247.267 82.6568C267.514 91.5587 287.975 100.503 308.094 109.234L314.117 111.802L319.755 114.199L326.803 109.962L341.07 101.317C348.973 96.5661 359.395 90.3176 370.288 84.2831C375.371 81.4157 380.497 78.6766 385.452 76.1088C390.706 73.3697 396.045 70.759 401.299 68.3624C407.152 65.6661 412.705 63.3978 418.215 61.4291L419.069 61.1295C420.223 60.7016 421.461 60.2736 422.7 59.8884L423.939 59.5032C425.049 59.1608 426.16 58.8185 427.271 58.4761L430.816 57.4917H430.859L435.643 56.3362L438.249 55.7798C440.641 55.2662 443.075 54.7099 445.553 54.2819C446.108 54.1963 446.664 54.0679 447.219 53.9823C448.116 53.8111 449.056 53.6399 449.995 53.4687L454.481 52.7412C455.548 52.57 456.659 52.3988 457.727 52.2704C458.154 52.2276 458.581 52.142 459.008 52.0992L461.529 51.7568C462.212 51.6712 462.896 51.5856 463.579 51.5428L469.73 50.8153L475.539 50.4301C476.095 50.3873 476.693 50.3873 477.248 50.3445C477.462 50.3445 477.718 50.3445 477.931 50.3445C478.444 50.3445 478.957 50.3017 479.469 50.3017C480.537 50.2589 481.605 50.2161 482.716 50.2161L487.457 50.2589C488.183 50.2589 488.952 50.3017 489.721 50.3445L492.327 50.4729C498.948 50.8153 505.569 51.6712 512.061 52.998C518.896 54.4103 525.645 56.5074 532.052 59.2892C538.801 62.1995 545.166 65.9229 550.975 70.4167C556.87 74.996 562.167 80.3029 566.695 86.209C571.094 91.9439 574.811 98.2352 577.758 104.826C578.313 105.939 578.741 107.052 579.168 108.164C579.381 108.678 579.595 109.191 579.766 109.662C580.236 110.818 580.663 111.973 581.047 113.043C581.218 113.557 581.389 114.028 581.56 114.541C582.072 115.911 582.457 117.28 582.841 118.564L583.439 120.618C583.525 120.832 583.567 121.046 583.653 121.303L583.824 121.988C583.824 122.031 583.824 122.031 583.824 122.074L585.746 132.174C585.746 132.217 585.746 132.259 585.746 132.302C585.874 133.287 585.96 134.357 586.045 135.384C586.387 139.706 586.344 144.114 585.917 148.48C585.49 152.546 584.764 156.569 583.653 160.42C582.542 164.358 581.047 168.21 579.253 171.89C575.622 179.209 570.795 185.799 564.858 191.406C559.22 196.713 552.812 201.121 545.849 204.545C542.56 206.171 539.143 207.583 535.726 208.782C532.351 209.937 528.934 210.922 525.517 211.692C518.896 213.147 512.147 214.046 505.398 214.346C503.176 214.474 501.126 214.517 499.161 214.517ZM338.037 153.316L356.576 163.031C359.822 164.7 363.154 166.369 366.358 167.953C368.109 168.809 369.818 169.707 371.569 170.563L379.087 174.287L398.096 183.274C398.907 183.66 399.762 184.045 400.573 184.387C401.043 184.601 401.47 184.772 401.94 184.986L417.403 191.834C417.66 191.962 417.959 192.091 418.215 192.176C418.599 192.347 418.941 192.519 419.326 192.647L421.333 193.503C421.675 193.631 422.059 193.803 422.401 193.931C423.384 194.316 424.366 194.744 425.348 195.129L429.449 196.756L433.593 198.296C439.06 200.265 444.741 202.105 450.465 203.774C456.146 205.444 462.041 206.856 467.979 208.011L468.705 208.14C469.986 208.397 471.182 208.611 472.464 208.825C473.062 208.91 473.66 209.039 474.301 209.124C475.24 209.295 476.095 209.424 477.034 209.552L479.341 209.895L482.331 210.237C482.844 210.28 483.356 210.365 483.869 210.408L486.218 210.622C489.422 210.922 492.711 211.05 495.616 211.178C498.478 211.307 501.596 211.264 505.141 211.093C511.72 210.793 518.298 209.937 524.748 208.482C528.08 207.712 531.412 206.77 534.658 205.658C537.99 204.502 541.279 203.133 544.44 201.592C551.146 198.339 557.255 194.102 562.637 189.009C568.275 183.66 572.889 177.368 576.349 170.392C578.057 166.883 579.467 163.202 580.577 159.479C581.645 155.798 582.371 151.946 582.756 148.052C583.183 143.9 583.226 139.706 582.884 135.555C582.799 134.57 582.713 133.629 582.585 132.687L580.663 122.716L580.492 122.074C580.449 121.902 580.407 121.731 580.321 121.56V121.517L579.723 119.42C579.339 118.093 578.954 116.852 578.484 115.568C578.313 115.055 578.143 114.541 577.929 114.028C577.545 112.915 577.16 111.888 576.733 110.818C576.519 110.304 576.306 109.791 576.092 109.277C575.665 108.207 575.238 107.18 574.725 106.153V106.11C571.863 99.7331 568.275 93.6558 564.046 88.1349C559.689 82.4428 554.606 77.3071 548.925 72.9417C543.329 68.6191 537.178 65.0241 530.685 62.1995C524.449 59.5032 517.956 57.4489 511.292 56.0794C504.971 54.7955 498.478 53.9395 492.028 53.5971L489.422 53.4687C488.696 53.4259 488.012 53.3831 487.329 53.3831L482.545 53.3403C481.52 53.3403 480.452 53.3831 479.427 53.4259C478.914 53.4259 478.401 53.4687 477.889 53.4687C477.675 53.4687 477.419 53.4687 477.205 53.4687C476.65 53.4687 476.137 53.5115 475.625 53.5115L469.815 53.8967L468.705 53.9823L464.134 54.4531C463.494 54.4959 462.81 54.5815 462.169 54.6671L459.649 54.9667C459.222 55.0095 458.795 55.0951 458.368 55.1379C457.343 55.2662 456.232 55.3946 455.207 55.5658L450.722 56.2934C449.825 56.4218 448.928 56.593 448.073 56.7642C447.518 56.8926 446.92 56.9782 446.365 57.1065C443.972 57.5345 441.538 58.0481 439.188 58.5617L435.472 59.3748L431.927 60.2736L428.424 61.2579C427.356 61.6003 426.245 61.9427 425.178 62.2851L423.939 62.6703C422.743 63.0554 421.589 63.4834 420.436 63.8686L419.582 64.1682C414.157 66.1369 408.732 68.3624 402.923 71.0158C397.711 73.4125 392.457 75.9804 387.246 78.6766C382.291 81.2445 377.208 83.9835 372.167 86.8082C361.36 92.8427 350.938 99.0484 343.078 103.799L326.632 113.771L321.079 117.109C320.652 117.366 320.097 117.409 319.627 117.195L313.22 114.498L307.197 111.93C287.078 103.2 266.617 94.255 246.37 85.3531C241.714 83.2988 237.015 81.2445 232.359 79.1902C216.981 72.4282 201.091 65.4521 185.329 58.6901H185.286C185.286 58.6901 185.243 58.6901 185.243 58.7329V58.7757C185.243 58.7757 185.243 58.8185 185.286 58.8185C195.153 66.0085 205.106 72.7705 212.71 77.9063C217.494 81.1161 222.406 84.3687 226.635 87.1078C229.839 89.2049 233.128 91.302 236.331 93.3563C237.784 94.2978 239.236 95.2394 240.688 96.1381C255.852 105.768 271.358 115.226 286.864 124.342L295.962 129.478C296.475 129.777 296.774 130.291 296.774 130.847C296.774 131.403 296.475 131.96 296.005 132.259L287.419 137.438C276.527 143.858 266.916 149.25 258.031 153.958C252.563 156.868 247.993 159.222 243.636 161.362C238.681 163.801 233.811 166.112 229.07 168.21C217.75 173.217 208.31 176.769 199.425 179.465C188.233 182.846 178.323 184.901 169.139 185.757C164.142 186.227 159.059 186.313 154.018 186.013C153.078 185.971 152.096 185.885 151.199 185.799C150.9 185.757 150.558 185.757 150.259 185.714C148.978 185.585 147.782 185.414 146.586 185.243H146.5C144.236 184.943 141.93 184.473 139.153 183.831C134.412 182.718 129.841 181.006 125.527 178.781C125.1 178.567 124.715 178.353 124.331 178.139L123.177 177.497C122.878 177.325 122.622 177.154 122.366 176.983C121.853 176.641 121.383 176.341 120.871 176.042L119.461 175.014C119.077 174.758 118.735 174.458 118.436 174.201C118.308 174.073 118.18 173.987 118.051 173.859C117.582 173.474 117.112 173.088 116.642 172.661L115.36 171.505C115.318 171.505 115.318 171.462 115.275 171.419L114.079 170.178C112.413 168.424 110.875 166.54 109.508 164.529C108.141 162.475 106.903 160.335 105.835 158.109C104.767 155.798 103.827 153.444 103.101 151.005C103.058 150.791 102.973 150.577 102.887 150.406C102.759 150.02 102.631 149.593 102.503 149.122L102.033 147.324V147.281L101.862 146.468C101.649 145.484 101.392 144.5 101.221 143.472C100.239 138.294 99.7264 132.944 99.641 127.637C99.5983 124.385 99.6837 120.918 99.8973 117.366C99.8973 117.323 99.8973 117.323 99.8973 117.28L101.52 103.114C101.606 102.344 102.204 101.787 102.973 101.702C103.742 101.616 104.425 102.087 104.639 102.815C104.724 103.114 104.852 103.371 104.938 103.628V103.671C105.151 104.27 128.389 161.704 158.503 157.724H158.546C158.589 157.681 158.717 157.596 158.888 157.253C159.4 156.098 160.084 152.075 155.086 139.578C153.933 136.668 152.523 133.501 151.071 130.162C142.955 111.545 130.653 83.4272 125.228 28.4321L124.715 23.4247L120.444 27.5333C101.563 48.0762 55.2594 96.8657 33.1753 112.487C21.8984 120.49 21.7275 124.042 22.1974 125.198C23.5216 128.622 34.5422 129.392 41.8893 128.408C53.5507 126.867 79.1802 119.805 92.7638 104.227C93.4472 103.457 94.0025 102.772 94.5151 102.13C94.985 101.531 95.7966 101.359 96.48 101.702C97.1635 102.044 97.5052 102.815 97.3343 103.542L93.9171 117.152C91.9522 127.038 91.2687 136.068 91.8667 144.799C92.2512 150.791 93.3618 156.697 95.2413 162.389C96.2237 165.299 97.4198 168.167 98.8294 170.906C100.282 173.688 101.99 176.341 103.87 178.866C105.792 181.391 107.928 183.745 110.234 185.885L112.029 187.469C112.456 187.811 112.84 188.153 113.267 188.496L113.865 188.966C114.164 189.223 114.463 189.437 114.762 189.694L116.129 190.678C116.642 191.064 117.112 191.406 117.624 191.748C118.009 191.962 118.35 192.219 118.735 192.476C119.717 193.118 120.657 193.717 121.597 194.231C121.853 194.402 122.152 194.53 122.408 194.701C122.836 194.958 123.263 195.172 123.69 195.386L126.808 196.97L130.012 198.382C130.439 198.553 130.866 198.724 131.336 198.896C131.592 198.981 131.891 199.11 132.148 199.195L132.489 199.324C133.087 199.58 133.685 199.794 134.241 199.965C137.402 201.035 140.264 201.891 143.04 202.576L143.724 202.747C144.962 203.047 146.201 203.346 147.44 203.56C147.91 203.646 148.422 203.732 148.892 203.817C149.875 203.988 150.9 204.202 151.882 204.331C157.863 205.272 163.928 205.743 169.951 205.7C180.715 205.7 192.249 204.331 205.149 201.506C216.383 198.981 227.617 195.643 238.467 191.706C243.849 189.737 249.231 187.683 254.486 185.5C259.142 183.574 264.097 181.434 270.162 178.738C285.796 171.633 301.985 163.502 322.617 152.417L328.982 148.951C329.452 148.694 330.05 148.694 330.52 148.951L338.037 153.316ZM494.377 175.143C492.54 175.143 490.661 175.1 488.867 174.972L487.073 174.886C486.731 174.886 486.389 174.843 486.047 174.8C485.791 174.758 485.535 174.758 485.236 174.758L483.399 174.586L481.562 174.415C480.494 174.33 479.341 174.158 477.846 173.987C476.607 173.816 475.411 173.645 474.173 173.474C469.346 172.746 464.476 171.805 459.222 170.563C453.968 169.322 449.098 167.996 444.272 166.54L440.555 165.385L436.839 164.187C436.156 163.973 435.429 163.716 434.746 163.459C434.191 163.288 433.678 163.074 433.123 162.903L431.243 162.261C430.731 162.089 430.133 161.875 429.577 161.661L429.278 161.533L421.632 158.708L413.943 155.884C413.559 155.755 413.132 155.584 412.747 155.456C411.893 155.156 410.953 154.814 410.056 154.471L398.608 150.02L390.962 147.067L383.316 143.986C381.479 143.258 379.643 142.488 377.806 141.761C374.858 140.562 371.783 139.364 368.793 138.123L360.634 134.699C360.079 134.442 359.694 133.929 359.652 133.287C359.609 132.687 359.951 132.088 360.506 131.789L368.28 127.552L373.748 124.599C378.532 122.031 383.402 119.506 388.186 117.023C397.284 112.401 407.066 107.565 417.019 103.414C422.316 101.231 426.972 99.4763 431.243 98.0212L434.703 96.9085C434.746 96.9085 434.746 96.9085 434.789 96.9085C435.301 96.7801 435.857 96.6089 436.369 96.4805C436.967 96.3093 437.608 96.1381 438.206 95.9669L440.769 95.325L444.186 94.5974L445.126 94.4262C456.873 92.1579 466.484 90.9596 475.283 90.6172L477.077 90.5316C477.419 90.5316 477.761 90.5316 478.145 90.5316C478.401 90.5316 478.658 90.5316 478.914 90.5316C479.555 90.4888 480.238 90.5316 480.879 90.5316C481.434 90.5316 482.032 90.5316 482.587 90.5316H482.63L486.176 90.6172C486.646 90.6172 487.073 90.66 487.5 90.66C487.671 90.66 487.842 90.66 488.012 90.7028L489.806 90.8312C494.377 91.1308 498.948 91.7727 503.433 92.7571C512.489 94.8114 520.049 98.2352 525.944 102.9C529.019 105.34 531.753 108.164 534.103 111.246C536.537 114.498 538.631 118.051 540.296 121.817C540.638 122.502 540.937 123.229 541.194 123.914C541.322 124.213 541.407 124.47 541.535 124.77C541.791 125.412 542.048 126.097 542.261 126.781C542.39 127.124 542.518 127.466 542.646 127.851C542.945 128.622 543.158 129.435 543.415 130.248C543.5 130.505 543.586 130.804 543.671 131.061L544.013 132.217C544.013 132.259 544.013 132.259 544.055 132.302L544.141 132.645C544.184 132.773 544.226 132.944 544.269 133.073C544.354 133.372 544.44 133.629 544.483 133.971C545.294 137.395 545.55 140.905 545.209 144.414C544.611 151.133 541.621 157.382 536.794 162.047C532.01 166.84 524.961 170.563 516.376 172.746C512.019 173.859 507.576 174.544 503.091 174.886C500.656 175.1 498.179 175.186 496.086 175.228C495.53 175.143 494.932 175.143 494.377 175.143ZM365.034 132.987L370.117 135.127C373.107 136.368 376.14 137.566 379.087 138.765C380.924 139.492 382.761 140.22 384.598 140.99L392.244 144.072L411.338 151.476C412.192 151.818 413.089 152.118 413.943 152.417C414.371 152.546 414.755 152.717 415.182 152.845L422.871 155.67L430.816 158.623C431.329 158.837 431.884 159.008 432.397 159.179L434.233 159.821C434.746 159.992 435.301 160.206 435.857 160.378C436.54 160.592 437.223 160.848 437.864 161.062L441.58 162.261L445.254 163.416C449.995 164.871 454.822 166.155 459.991 167.396C465.117 168.638 469.944 169.536 474.642 170.264C475.838 170.435 477.077 170.606 478.273 170.777C479.726 170.949 480.836 171.12 481.861 171.205L483.698 171.377L485.492 171.505C485.748 171.505 486.048 171.548 486.304 171.548C486.603 171.591 486.945 171.591 487.244 171.633L489.038 171.719C491.344 171.89 493.694 171.933 496.043 171.89C498.093 171.847 500.528 171.762 502.877 171.591C507.192 171.291 511.463 170.606 515.607 169.536C523.595 167.482 530.173 164.058 534.573 159.65C538.887 155.499 541.535 149.935 542.048 144.029C542.347 140.862 542.133 137.695 541.407 134.571C541.407 134.528 541.407 134.528 541.407 134.485C541.364 134.271 541.322 134.057 541.236 133.8C541.193 133.629 541.151 133.458 541.108 133.287L540.937 132.687L540.681 131.917C540.595 131.66 540.51 131.361 540.425 131.061C540.211 130.291 539.997 129.563 539.741 128.878C539.613 128.493 539.485 128.151 539.357 127.766C539.143 127.124 538.93 126.525 538.673 125.925C538.545 125.626 538.417 125.326 538.332 125.027C538.075 124.342 537.819 123.7 537.52 123.143C537.52 123.101 537.477 123.101 537.477 123.058C535.939 119.506 533.975 116.167 531.668 113.086C529.489 110.176 526.926 107.565 524.064 105.297C518.554 100.889 511.421 97.6788 502.835 95.7529C498.52 94.8114 494.121 94.1694 489.678 93.9126L487.927 93.7842C487.756 93.7842 487.585 93.7842 487.414 93.7414C486.987 93.6986 486.603 93.6986 486.218 93.6986L482.673 93.613C482.118 93.613 481.605 93.613 481.05 93.613C480.409 93.613 479.768 93.613 479.128 93.613C478.829 93.613 478.572 93.613 478.273 93.613C477.974 93.613 477.675 93.613 477.376 93.613L475.539 93.6986C466.911 93.9982 457.471 95.1966 445.852 97.4648L444.058 97.8072L440.769 98.5348L439.103 98.9628C438.548 99.134 437.95 99.3051 437.352 99.4335C436.796 99.6047 436.284 99.7331 435.728 99.9043L432.311 100.974C428.125 102.387 423.512 104.098 418.3 106.281C408.476 110.39 398.737 115.183 389.681 119.805C384.897 122.245 380.07 124.813 375.286 127.338L369.818 130.248L365.034 132.987Z" fill="#FF4FB9"/>
</g>
<defs>
<filter id="lay_logo" x="0.596191" y="0.57251" width="617.677" height="245.944" filterUnits="userSpaceOnUse" color-interpolation-filters="sRGB">
<feFlood flood-opacity="0" result="BackgroundImageFix"/>
<feColorMatrix in="SourceAlpha" type="matrix" values="0 0 0 0 0 0 0 0 0 0 0 0 0 0 0 0 0 0 127 0" result="hardAlpha"/>
<feOffset dx="7" dy="7"/>
<feGaussianBlur stdDeviation="12.5"/>
<feComposite in2="hardAlpha" operator="out"/>
<feColorMatrix type="matrix" values="0 0 0 0 1 0 0 0 0 0.360784 0 0 0 0 0.745098 0 0 0 1 0"/>
<feBlend mode="normal" in2="BackgroundImageFix" result="effect1_dropShadow_561:9109"/>
<feBlend mode="normal" in="SourceGraphic" in2="effect1_dropShadow_561:9109" result="shape"/>
</filter>
</defs>
</svg>
