<svg width="151" height="119" viewBox="0 0 151 119" fill="none" xmlns="http://www.w3.org/2000/svg">
<g filter="url(#filter0_d)">
<path d="M102.59 51.0582C102.648 50.969 102.701 50.877 102.749 50.7823C102.749 50.7823 102.782 50.7253 102.793 50.7062C102.804 50.6872 102.826 50.6492 102.843 50.6206C102.859 50.5921 102.881 50.554 102.898 50.5255C102.93 50.4286 102.957 50.33 102.979 50.2302C102.998 50.1451 103.01 50.0586 103.014 49.9716C103.025 49.9117 103.03 49.8512 103.03 49.7905L103.202 34.3793C103.199 34.5237 103.184 34.6677 103.157 34.8096C103.127 34.9497 103.086 35.0872 103.034 35.2204C103.034 35.2204 103.034 35.2204 102.99 35.2965C102.929 35.4345 102.854 35.5653 102.765 35.6865L102.732 35.7436C102.66 35.8672 102.583 36.0004 102.512 36.1241C102.493 36.1469 102.479 36.1726 102.468 36.2002C102.386 36.3428 102.231 36.4566 102.105 36.5868C101.98 36.717 102.067 36.6534 102.045 36.6914C101.926 36.8036 101.802 36.9094 101.672 37.0086C101.65 37.0425 101.63 37.0774 101.611 37.1132C101.435 37.2502 101.252 37.3772 101.062 37.4935C101.015 37.5296 100.964 37.5596 100.909 37.5828C100.73 37.6951 100.557 37.7978 100.359 37.8991L88.4624 44.0937L88.2852 59.4259L100.181 53.2313L100.293 53.1691C100.456 53.0854 100.588 53.0096 100.726 52.9244C100.782 52.8957 100.835 52.8627 100.885 52.8257C101.049 52.727 101.208 52.62 101.362 52.5049L101.389 52.4574L101.455 52.3432L101.667 52.1739L101.828 52.0261C101.828 52.0261 101.867 51.9595 101.889 51.9215C101.896 51.8964 101.909 51.8735 101.927 51.8549C101.993 51.7408 102.116 51.6596 102.195 51.5659C102.2 51.5478 102.209 51.5313 102.223 51.5184C102.231 51.4938 102.244 51.4711 102.261 51.4518L102.371 51.2616C102.41 51.195 102.448 51.1284 102.486 51.0618L102.59 51.0582Z" fill="#07001C"/>
<path d="M49.1654 45.6666L33.9504 40.5854C33.5546 40.4583 33.1942 40.3137 32.8434 40.1745L32.3974 39.9805L31.8172 39.6455L30.866 39.0963C30.7402 39.0363 30.6194 38.9665 30.5045 38.8876C30.3596 38.7919 30.2213 38.6866 30.0905 38.5725L29.8095 38.3342L29.4759 37.9894L29.2645 37.7405C29.1755 37.6249 29.0924 37.5049 29.0154 37.3811L28.8721 37.1461C28.8061 37.0157 28.7533 36.879 28.7145 36.7381C28.742 36.6906 28.6538 36.6016 28.6432 36.5321C28.5896 36.3316 28.5639 36.1248 28.5669 35.9173L28.3897 51.2495C28.3867 51.4569 28.4124 51.6638 28.466 51.8642C28.4823 51.9352 28.5062 52.0043 28.5372 52.0702C28.5761 52.2111 28.6288 52.3478 28.6948 52.4783L28.8382 52.7132L29.0818 53.0821L29.2986 53.3215C29.3999 53.4457 29.5115 53.561 29.6323 53.6663L29.9132 53.9046L30.3218 54.2293L30.6833 54.438L31.6344 54.9871L32.2421 55.2746L32.6606 55.5162L32.8033 55.5986L33.7567 55.9461L48.9936 60.9892L49.1654 45.6666Z" fill="#07001C"/>
<path d="M108.31 70.4545C108.368 70.3654 108.421 70.2733 108.469 70.1786C108.469 70.1786 108.502 70.1215 108.519 70.093C108.535 70.0645 108.546 70.0455 108.563 70.0169C108.586 69.9884 108.605 69.9563 108.618 69.9218C108.65 69.8249 108.677 69.7263 108.699 69.6265L108.729 69.3773C108.736 69.3154 108.738 69.253 108.735 69.1908L108.911 53.7305C108.911 53.8766 108.899 54.0223 108.874 54.1663C108.842 54.3049 108.797 54.4405 108.742 54.5717C108.742 54.5717 108.714 54.6193 108.698 54.6478C108.682 54.6763 108.55 54.9046 108.473 55.0378L108.44 55.0949C108.368 55.2185 108.297 55.3422 108.22 55.4753C108.143 55.6085 108.193 55.5229 108.176 55.5514C108.066 55.6902 107.945 55.8195 107.814 55.9381L107.753 56.0427L107.385 56.3503L107.319 56.4644C107.144 56.5917 106.97 56.719 106.77 56.8448L106.602 56.9381C106.429 57.0408 106.255 57.1436 106.057 57.2449C105.859 57.3462 105.54 57.5042 105.257 57.6201C104.975 57.736 104.455 57.9557 104.013 58.1063L103.085 58.3951C103.073 58.4088 103.063 58.425 103.057 58.4426L101.964 58.7116L101.605 58.7835L100.818 58.9381L100.371 59.0096L99.6364 59.1181L99.1212 59.1757C98.8485 59.2086 98.5759 59.2414 98.2993 59.2593L98.0417 59.2881C97.656 59.3191 97.2854 59.346 96.9012 59.3525L96.7186 59.3612L95.5604 59.3901L95.3983 59.3853C95.0046 59.3863 94.6109 59.3872 94.2187 59.3637L94.0566 59.3589C93.6588 59.3449 93.2761 59.3268 92.8894 59.2938L92.7178 59.2835L91.5304 59.1433L91.3643 59.1235C90.9831 59.0809 90.5978 59.0234 90.199 58.9453L90.0234 58.92C89.6436 58.8529 89.2638 58.7858 88.8855 58.6942L88.7903 58.6393L87.786 58.4019L87.5778 58.3451C87.2032 58.2472 86.8422 58.1402 86.4949 58.0242L71.2839 52.9581L70.9336 68.3045L86.1445 73.3706L86.2301 73.42C86.4774 73.5628 86.8097 73.6024 87.1049 73.6841L87.219 73.75L87.3998 73.8543L87.8406 73.9694L88.3986 74.1013L88.4937 74.1562L88.5413 74.1837L89.2463 74.3244L89.6166 74.386L89.7923 74.4113L89.9159 74.4827L90.5884 74.5919L90.9016 74.6206L91.0348 74.6975L91.2404 74.7147L91.9103 74.7844L92.199 74.8116L92.3707 74.8219L92.5763 74.8392L93.2382 74.8789L93.5324 74.8966L93.6945 74.9014L93.9056 74.9091L94.5745 74.9148L94.8742 74.923L95.0418 74.9183L95.2433 74.9205L95.9137 74.9017C96.0093 74.9052 96.1049 74.9011 96.1998 74.8894L96.3824 74.8807L96.614 74.8749L97.3499 74.8305L97.523 74.8163L97.7751 74.7969L98.2153 74.7594L98.6024 74.7039C98.7755 74.6897 98.9486 74.6755 99.1176 74.6462L99.3752 74.6174L99.8524 74.5378L100.486 74.2314L101.273 74.0769L101.631 74.0049L102.725 73.7359C102.725 73.7359 102.725 73.736 102.773 73.7634L103.65 73.4962C104.092 73.3456 104.5 73.188 104.894 73.0099L104.99 72.9763C105.23 72.8748 105.466 72.7608 105.694 72.6348C105.737 72.62 105.777 72.601 105.816 72.5781C105.963 72.4984 106.101 72.4132 106.239 72.328L106.407 72.2347C106.571 72.1265 106.73 72.0277 106.884 71.914C107.039 71.8002 106.884 71.914 106.912 71.8664L107.031 71.7702L107.237 71.6104L107.398 71.4626L107.459 71.358L107.503 71.2819C107.563 71.1772 107.686 71.0961 107.766 71.0024L107.842 70.8693C107.842 70.8693 107.87 70.8217 107.886 70.7932C107.926 70.7357 107.961 70.6753 107.991 70.6124C108.029 70.5458 108.068 70.4793 108.106 70.4127L108.31 70.4545Z" fill="#07001C"/>
<path d="M71.149 52.9943L59.2733 59.1754C59.0194 59.3077 58.7463 59.4291 58.4678 59.56C58.1893 59.6909 57.6613 59.8807 57.2192 60.0313C56.7771 60.1819 56.6121 60.2261 56.2916 60.3201L56.2166 60.3402C55.866 60.4421 55.4964 60.5331 55.1228 60.6091L54.7587 60.6906L53.9774 60.8356L53.5302 60.9072L52.805 61.0211L52.2843 61.0883L51.4679 61.1623L51.1953 61.1951L50.0698 61.2555L49.8872 61.2642C49.4975 61.2802 49.1078 61.2962 48.7195 61.2876L48.5519 61.2923L47.3818 61.2762L47.2102 61.2659L46.0009 61.1638L45.8293 61.1535L44.6895 61.0408L44.5234 61.021L43.3635 60.8333L43.188 60.808C42.8082 60.7409 42.4284 60.6738 42.0501 60.5822L41.9549 60.5273L40.9656 60.2858L40.7479 60.2236L39.6649 59.9027C39.2691 59.7756 38.9087 59.631 38.5578 59.4918L38.1119 59.2977L37.5221 58.9573L36.571 58.4081C36.4568 58.3422 36.3332 58.2708 36.219 58.2049C36.0706 58.1079 35.929 58.0008 35.7954 57.8842L35.5144 57.6459L35.1808 57.3011L34.9694 57.0523C34.8805 56.9367 34.7973 56.8167 34.7203 56.6928L34.577 56.4579L34.4194 56.0499L34.3481 55.8438C34.2988 55.6426 34.2733 55.4363 34.2719 55.2291L34.0946 70.5612C34.096 70.7684 34.1216 70.9747 34.1709 71.176C34.1434 71.2235 34.222 71.307 34.2421 71.382L34.3998 71.7901L34.5431 72.025C34.6201 72.1489 34.7032 72.2688 34.7922 72.3844L35.0036 72.6333L35.3372 72.9781L35.6181 73.2164L36.0362 73.5465L36.3882 73.7497L37.3393 74.2989L37.9291 74.6394L38.3476 74.881L38.4903 74.9634C38.7661 75.1227 39.1009 75.2018 39.4437 75.3109L39.5198 75.3549L40.3946 75.619L40.5088 75.6849L40.7169 75.7417L41.1578 75.8567L41.7158 75.9886L41.8109 76.0435L42.5255 76.1897L42.8862 76.2458L43.0564 76.2807L43.1895 76.3575L43.858 76.4518L44.1657 76.4899L44.3319 76.5098L44.532 76.5365L45.2019 76.6063L45.4961 76.6239L45.6622 76.6437L45.8733 76.6515L46.5448 76.6967L46.8295 76.7089L46.9916 76.7137L47.2027 76.7214L47.8755 76.7421L48.1712 76.7353L48.3333 76.7401L48.5404 76.7328L49.2203 76.7195L49.6609 76.5934L49.8435 76.5847L50.0806 76.5694L50.8014 76.529L50.9745 76.5148L51.2416 76.4915L51.6723 76.4484L52.054 76.4024L52.5747 76.3353C52.6612 76.3333 52.7474 76.3237 52.8323 76.3065L53.3095 76.2269L53.7566 76.1553C54.0197 76.117 54.2788 76.0636 54.5379 76.0103L54.902 75.9288C55.2756 75.8528 55.6452 75.7618 55.9957 75.6598C56.2958 75.5794 56.5864 75.4935 56.8729 75.3926C57.3095 75.2515 57.723 75.0844 58.1215 74.9214C58.1215 74.9214 58.1215 74.9214 58.213 74.8728C58.4601 74.7744 58.6935 74.6555 58.927 74.5367L70.9337 68.3044L71.149 52.9943Z" fill="#07001C"/>
<path d="M97.8236 29.7257C103.897 31.7485 104.963 35.3947 100.229 37.8612L88.3325 44.0559L103.562 49.133C109.627 51.1503 110.702 54.8021 105.958 57.2631C101.214 59.7241 92.453 60.0938 86.3793 58.0709L71.1683 53.0048L59.2927 59.1859C54.5435 61.6565 45.7781 62.0112 39.7139 59.9938C33.6496 57.9764 32.5597 54.3288 37.3088 51.8582L49.1845 45.6771L33.9695 40.596C27.9053 38.5787 26.8249 34.9365 31.574 32.4659C36.3232 29.9954 45.079 29.6352 51.1528 31.658L66.3227 36.7512L78.2188 30.5566C82.979 28.067 91.7499 27.7028 97.8236 29.7257Z" fill="#07001C"/>
</g>
<defs>
<filter id="filter0_d" x="0.389404" y="0.419434" width="150.528" height="118.323" filterUnits="userSpaceOnUse" color-interpolation-filters="sRGB">
<feFlood flood-opacity="0" result="BackgroundImageFix"/>
<feColorMatrix in="SourceAlpha" type="matrix" values="0 0 0 0 0 0 0 0 0 0 0 0 0 0 0 0 0 0 127 0" result="hardAlpha"/>
<feOffset dx="7" dy="7"/>
<feGaussianBlur stdDeviation="17.5"/>
<feColorMatrix type="matrix" values="0 0 0 0 1 0 0 0 0 0.137255 0 0 0 0 0.654902 0 0 0 0.5 0"/>
<feBlend mode="normal" in2="BackgroundImageFix" result="effect1_dropShadow"/>
<feBlend mode="normal" in="SourceGraphic" in2="effect1_dropShadow" result="shape"/>
</filter>
</defs>
</svg>
