<svg width="129" height="144" viewBox="0 0 129 144" fill="none" xmlns="http://www.w3.org/2000/svg">
<g filter="url(#filter0_d)">
<path d="M72.7645 89.0333C72.8537 89.0379 72.9431 89.0379 73.0323 89.0333C73.0323 89.0333 73.0877 89.0333 73.1061 89.0333C73.1246 89.0333 73.1615 89.0333 73.1892 89.0333C73.2169 89.0333 73.2538 89.0333 73.2815 89.0333C73.3657 89.0161 73.4489 88.9945 73.5308 88.9686C73.6007 88.9465 73.6686 88.9188 73.7339 88.8856C73.7818 88.8679 73.8281 88.8463 73.8724 88.8209L85.164 82.4688C85.0576 82.5274 84.9464 82.5768 84.8316 82.6165C84.7172 82.654 84.5998 82.6818 84.4808 82.6996C84.4808 82.6996 84.4808 82.6996 84.4069 82.6996C84.2811 82.7137 84.1542 82.7137 84.0284 82.6996L83.973 82.6996C83.853 82.6996 83.7237 82.6996 83.6037 82.6996C83.5792 82.6957 83.5543 82.6957 83.5298 82.6996C83.3913 82.6996 83.2436 82.635 83.0959 82.5981C82.9482 82.5612 83.0313 82.5981 82.9943 82.5981C82.8627 82.5587 82.7333 82.5124 82.6065 82.4596C82.5727 82.458 82.5388 82.458 82.505 82.4596C82.3313 82.3892 82.1618 82.309 81.9972 82.2195C81.9512 82.2005 81.9077 82.1757 81.8679 82.1457C81.711 82.0626 81.5633 81.9795 81.4063 81.8779L71.8966 75.8213L60.6605 82.1365L70.1701 88.1931L70.2624 88.2485C70.3917 88.3316 70.5025 88.3962 70.6225 88.4608C70.6667 88.489 70.713 88.5137 70.761 88.5347C70.9019 88.6129 71.0468 88.6838 71.195 88.747L71.2411 88.747L71.3519 88.747L71.5643 88.8302L71.7397 88.8856C71.7397 88.8856 71.8043 88.8856 71.8412 88.8856C71.8624 88.8801 71.8847 88.8801 71.9059 88.8856C72.0167 88.8856 72.1275 88.941 72.229 88.9594C72.2441 88.9551 72.2601 88.9551 72.2752 88.9594C72.2965 88.955 72.3185 88.955 72.3398 88.9594L72.5245 88.9594C72.5891 88.9594 72.6537 88.9594 72.7183 88.9594L72.7645 89.0333Z" fill="url(#paint0_linear)"/>
<path d="M54.2344 47.8738L51.5385 34.6617C51.4646 34.3201 51.4185 33.997 51.3723 33.6831L51.3261 33.2768L51.3261 32.7136L51.3261 31.7904C51.317 31.6736 51.317 31.5563 51.3261 31.4395C51.3349 31.2938 51.3534 31.1489 51.3815 31.0056L51.4369 30.7009L51.5477 30.3132L51.6401 30.0546C51.6868 29.9413 51.7392 29.8304 51.797 29.7223L51.9078 29.5192C51.975 29.4163 52.0523 29.3205 52.1386 29.233C52.1848 29.233 52.2125 29.1314 52.2586 29.0945C52.382 28.9712 52.5218 28.8655 52.6741 28.7805L41.4379 35.0957C41.2856 35.1807 41.1458 35.2864 41.0225 35.4096C40.9776 35.4514 40.9374 35.4978 40.9024 35.5481C40.8162 35.6356 40.7389 35.7315 40.6716 35.8343L40.5608 36.0374L40.3946 36.3698L40.3116 36.6283C40.2637 36.7542 40.2267 36.884 40.2008 37.0161L40.1454 37.3207L40.0807 37.7547L40.0807 38.1056L40.0807 39.0288L40.1269 39.592L40.1269 39.9982L40.1269 40.1368L40.2746 40.9769L43.0075 54.1889L54.2344 47.8738Z" fill="url(#paint1_linear)"/>
<path d="M61.0483 101.35C61.1375 101.354 61.2268 101.354 61.316 101.35C61.316 101.35 61.3714 101.35 61.3991 101.35C61.4268 101.35 61.4453 101.35 61.473 101.35C61.5035 101.355 61.5347 101.355 61.5653 101.35C61.6495 101.332 61.7327 101.311 61.8146 101.285L62.0085 101.202C62.0565 101.181 62.1028 101.156 62.147 101.128L73.4755 94.7576C73.3693 94.8191 73.2581 94.8716 73.1431 94.9145C73.0284 94.9488 72.911 94.9736 72.7922 94.9884C72.7922 94.9884 72.7461 94.9884 72.7184 94.9884C72.6907 94.9884 72.4691 94.9884 72.3398 94.9884L72.2844 94.9884C72.1644 94.9884 72.0444 94.9884 71.9151 94.9884C71.7859 94.9884 71.869 94.9884 71.8413 94.9884C71.6941 94.9667 71.5489 94.9327 71.4073 94.8868L71.3058 94.8868L70.9272 94.7483L70.8165 94.7483C70.6503 94.6744 70.4841 94.6006 70.3087 94.5082L70.1702 94.4252C70.0224 94.3421 69.8747 94.259 69.7178 94.1574C69.5608 94.0558 69.3115 93.8897 69.1084 93.7327C68.9053 93.5758 68.5267 93.2896 68.2313 93.031L67.6312 92.4771C67.616 92.4739 67.6002 92.4739 67.585 92.4771L66.9295 91.7938L66.7264 91.563L66.2832 91.0552L66.0432 90.7598L65.6554 90.2705L65.3969 89.9196C65.2584 89.735 65.1199 89.5503 64.9906 89.3565L64.8614 89.181C64.6767 88.9133 64.5013 88.6548 64.3351 88.3778L64.252 88.2485L63.7442 87.4176L63.6796 87.2975C63.5134 87.0113 63.3472 86.7251 63.1995 86.4297L63.1349 86.3096C62.9779 86.0142 62.8302 85.728 62.6917 85.4326L62.6271 85.3033L62.2301 84.38L62.1747 84.2508C62.0454 83.9553 61.9254 83.6506 61.8146 83.3275L61.7592 83.189C61.6484 82.8843 61.5376 82.5797 61.4453 82.2658L61.4453 82.1734L61.196 81.3425L61.1498 81.1671C61.0637 80.8532 60.9898 80.5454 60.9282 80.2438L58.2231 67.041L46.9038 73.2362L49.609 86.4389L49.609 86.522C49.609 86.7621 49.7198 87.0206 49.7844 87.2699L49.7844 87.3806L49.7844 87.5561L49.886 87.9253L50.0244 88.387L50.0244 88.4793L50.0244 88.5255L50.2183 89.0979L50.3291 89.3934L50.3845 89.5319L50.3845 89.6519L50.5876 90.1874L50.6984 90.4274L50.6984 90.5567L50.7723 90.7136L51.0031 91.2307L51.1047 91.4522L51.1693 91.5815L51.2432 91.7384L51.4924 92.237L51.6032 92.4586L51.6679 92.5787L51.751 92.7356L52.0279 93.2249L52.148 93.4465L52.2218 93.5666L52.3049 93.7143L52.6004 94.1944C52.638 94.2654 52.6812 94.3333 52.7296 94.3975L52.8127 94.5267L52.9143 94.6929L53.2559 95.2099L53.339 95.33L53.459 95.5054L53.6714 95.8101L53.8745 96.0686C53.9576 96.1886 54.0407 96.3086 54.133 96.4194L54.2622 96.5948L54.5208 96.9088L55.0101 97.2411L55.4533 97.7489L55.6564 97.9797L56.3119 98.663C56.3119 98.663 56.3119 98.663 56.3119 98.7092L56.8751 99.2354C57.1705 99.4939 57.4568 99.7247 57.7522 99.9371L57.8168 99.9925C57.9918 100.125 58.1737 100.248 58.3616 100.362C58.3901 100.386 58.421 100.408 58.4539 100.426C58.5739 100.5 58.6939 100.565 58.814 100.63L58.9525 100.713C59.1002 100.787 59.2387 100.86 59.3864 100.925C59.5341 100.99 59.3864 100.925 59.4326 100.925L59.5526 100.971L59.7557 101.054L59.9311 101.11L60.0327 101.11L60.1065 101.11C60.2081 101.11 60.3189 101.165 60.4204 101.184L60.5497 101.184C60.5497 101.184 60.5959 101.184 60.6236 101.184C60.682 101.188 60.7406 101.188 60.799 101.184C60.8636 101.184 60.9282 101.184 60.9929 101.184L61.0483 101.35Z" fill="url(#paint2_linear)"/>
<path d="M58.14 66.9579L48.6488 60.9105C48.4456 60.7813 48.2425 60.6335 48.0302 60.4858C47.8178 60.3381 47.4577 60.0334 47.1623 59.7749C46.8668 59.5164 46.7653 59.4148 46.5622 59.2209L46.516 59.1748C46.2944 58.9624 46.0728 58.7316 45.8605 58.4916L45.6481 58.2608L45.2142 57.7529L44.9741 57.4575L44.5864 56.9774L44.3186 56.6266L43.9216 56.0634L43.7831 55.8787L43.2661 55.0847L43.183 54.9554C43.0076 54.6785 42.8322 54.4015 42.6752 54.1152L42.6013 53.9952L42.1212 53.1366L42.0566 53.0074L41.6227 52.0841L41.5581 51.9548L41.161 51.0777L41.1057 50.9484L40.7548 50.0252L40.6994 49.8867C40.5886 49.582 40.4778 49.2774 40.3855 48.9634L40.3855 48.8711L40.1455 48.0494L40.0993 47.8648L39.8777 46.9415C39.8038 46.5999 39.7577 46.2767 39.7115 45.9628L39.6654 45.5566L39.6654 44.9842L39.6654 44.0609C39.6654 43.9501 39.6654 43.8301 39.6654 43.7193C39.6736 43.5705 39.6921 43.4223 39.7207 43.2761L39.7761 42.9714L39.8869 42.5836L39.9793 42.3251C40.026 42.2118 40.0784 42.1008 40.1362 41.9927L40.247 41.7896L40.4778 41.5034L40.5979 41.3649C40.7236 41.2444 40.8631 41.1391 41.0133 41.051L29.7771 47.3661C29.6269 47.4542 29.4875 47.5596 29.3617 47.6801C29.3155 47.6801 29.2878 47.7724 29.2416 47.8185L29.0108 48.1048L28.9 48.3079C28.8422 48.416 28.7899 48.5269 28.7431 48.6403L28.6508 48.8988L28.54 49.2866L28.4846 49.5913L28.4199 50.0344L28.4199 50.376L28.4199 51.2993L28.4199 51.8717L28.4199 52.2779L28.4199 52.4165C28.4199 52.6842 28.503 52.9612 28.5677 53.2566L28.5677 53.3305L28.7431 54.0783L28.7431 54.1891L28.7893 54.3645L28.8908 54.7339L29.0293 55.1955L29.0293 55.2878L29.2232 55.8695L29.334 56.1557L29.3801 56.2942L29.3801 56.4234L29.5925 56.9497L29.6941 57.1897L29.7494 57.319L29.8141 57.4759L30.0449 57.993L30.1557 58.2146L30.2111 58.3438L30.2942 58.5008L30.5435 59.0086L30.6543 59.2209L30.7189 59.341L30.802 59.4979L31.0697 59.9965L31.199 60.2088L31.2636 60.3289L31.3559 60.4766L31.6514 60.9659L31.9284 61.2337L32.0115 61.3629L32.1222 61.5291L32.4546 62.0369L32.5377 62.1569L32.667 62.3416L32.8793 62.637L33.0732 62.8955L33.341 63.2464C33.3788 63.3086 33.422 63.3673 33.4702 63.4218L33.7287 63.7357L33.9688 64.0312C34.1073 64.2066 34.255 64.3728 34.4027 64.539L34.6151 64.7698C34.8274 65.0098 35.049 65.2407 35.2706 65.453C35.4552 65.6377 35.6399 65.8131 35.8338 65.9793C36.12 66.2378 36.4154 66.4686 36.7017 66.6902C36.7017 66.6902 36.7017 66.6902 36.7755 66.7364C36.9509 66.8749 37.1356 66.9948 37.3203 67.1149L46.9038 73.2361L58.14 66.9579Z" fill="url(#paint3_linear)"/>
<path d="M86.2906 76.597C87.3708 81.8689 85.1642 84.177 81.3788 81.7673L71.8691 75.7107L74.5743 88.9319C75.6545 94.1945 73.4479 96.5119 69.6625 94.093C65.8771 91.674 61.9255 85.4512 60.8453 80.1793L58.1401 66.9765L48.6489 60.9291C44.8543 58.5102 40.9119 52.2781 39.8317 47.0155C38.7515 41.7528 40.9489 39.4262 44.7435 41.8452L54.2347 47.8926L51.5387 34.6806C50.4585 29.418 52.6559 27.1006 56.4505 29.5196C60.2452 31.9385 64.1875 38.1613 65.2677 43.4332L67.936 56.6175L77.4457 62.6741C81.2588 65.0931 85.2103 71.3252 86.2906 76.597Z" fill="url(#paint4_linear)"/>
</g>
<defs>
<filter id="filter0_d" x="0.419922" y="0.560791" width="128.145" height="142.793" filterUnits="userSpaceOnUse" color-interpolation-filters="sRGB">
<feFlood flood-opacity="0" result="BackgroundImageFix"/>
<feColorMatrix in="SourceAlpha" type="matrix" values="0 0 0 0 0 0 0 0 0 0 0 0 0 0 0 0 0 0 127 0" result="hardAlpha"/>
<feOffset dx="7" dy="7"/>
<feGaussianBlur stdDeviation="17.5"/>
<feColorMatrix type="matrix" values="0 0 0 0 1 0 0 0 0 0.137255 0 0 0 0 0.654902 0 0 0 0.5 0"/>
<feBlend mode="normal" in2="BackgroundImageFix" result="effect1_dropShadow"/>
<feBlend mode="normal" in="SourceGraphic" in2="effect1_dropShadow" result="shape"/>
</filter>
<linearGradient id="paint0_linear" x1="81.7045" y1="91.1318" x2="70.3117" y2="80.929" gradientUnits="userSpaceOnUse">
<stop stop-color="#140B31"/>
<stop offset="0.557292" stop-color="#10072D"/>
<stop offset="1" stop-color="#07001C"/>
</linearGradient>
<linearGradient id="paint1_linear" x1="52.2361" y1="58.217" x2="41.1782" y2="55.2418" gradientUnits="userSpaceOnUse">
<stop stop-color="#140B31"/>
<stop offset="0.557292" stop-color="#10072D"/>
<stop offset="1" stop-color="#07001C"/>
</linearGradient>
<linearGradient id="paint2_linear" x1="69.724" y1="106.793" x2="50.1937" y2="99.4882" gradientUnits="userSpaceOnUse">
<stop stop-color="#140B31"/>
<stop offset="0.557292" stop-color="#10072D"/>
<stop offset="1" stop-color="#07001C"/>
</linearGradient>
<linearGradient id="paint3_linear" x1="53.9439" y1="78.3386" x2="33.1749" y2="69.0756" gradientUnits="userSpaceOnUse">
<stop stop-color="#140B31"/>
<stop offset="0.557292" stop-color="#10072D"/>
<stop offset="1" stop-color="#07001C"/>
</linearGradient>
<linearGradient id="paint4_linear" x1="79.9281" y1="105.593" x2="44.6559" y2="93.5484" gradientUnits="userSpaceOnUse">
<stop stop-color="#140B31"/>
<stop offset="0.557292" stop-color="#10072D"/>
<stop offset="1" stop-color="#07001C"/>
</linearGradient>
</defs>
</svg>
