<svg width="134" height="121" viewBox="0 0 134 121" fill="none" xmlns="http://www.w3.org/2000/svg">
<g filter="url(#filter0_d)">
<path d="M80.5302 40.7464C80.5342 40.6703 80.5342 40.5941 80.5302 40.5181C80.5302 40.5181 80.5302 40.4708 80.5302 40.4551C80.5302 40.4393 80.5302 40.4079 80.5302 40.3842C80.5302 40.3606 80.5302 40.3291 80.5302 40.3055C80.5156 40.2337 80.4972 40.1628 80.4751 40.0929C80.4563 40.0334 80.4326 39.9754 80.4043 39.9197C80.3892 39.8789 80.3708 39.8394 80.3492 39.8016L74.9326 30.1731C74.9826 30.2638 75.0247 30.3586 75.0586 30.4565C75.0905 30.5541 75.1142 30.6542 75.1294 30.7557C75.1294 30.7557 75.1294 30.7557 75.1294 30.8187C75.1414 30.9259 75.1414 31.0342 75.1294 31.1415V31.1887C75.1294 31.291 75.1294 31.4013 75.1294 31.5036C75.1261 31.5245 75.1261 31.5457 75.1294 31.5666C75.1294 31.6847 75.0743 31.8107 75.0429 31.9366C75.0114 32.0626 75.0429 31.9917 75.0429 32.0232C75.0092 32.1354 74.9698 32.2458 74.9247 32.3539C74.9234 32.3827 74.9234 32.4116 74.9247 32.4405C74.8647 32.5886 74.7964 32.7331 74.72 32.8735C74.7038 32.9127 74.6826 32.9498 74.6571 32.9837C74.5862 33.1176 74.5153 33.2435 74.4287 33.3774L69.2641 41.4864L74.6492 51.0678L79.8138 42.9587L79.8611 42.8799C79.9319 42.7697 79.987 42.6753 80.0421 42.5729C80.0662 42.5352 80.0872 42.4958 80.1051 42.4548C80.1718 42.3347 80.2322 42.2112 80.2862 42.0848V42.0454V41.9509L80.3571 41.7699L80.4043 41.6203C80.4043 41.6203 80.4043 41.5652 80.4043 41.5337C80.3996 41.5156 80.3996 41.4966 80.4043 41.4786C80.4043 41.3841 80.4515 41.2896 80.4673 41.203C80.4636 41.1902 80.4636 41.1765 80.4673 41.1637C80.4635 41.1455 80.4635 41.1267 80.4673 41.1085V40.9511C80.4673 40.896 80.4673 40.8409 80.4673 40.7858L80.5302 40.7464Z" fill="url(#paint0_linear)"/>
<path d="M45.4329 56.5474L34.1667 58.8462C33.8754 58.9092 33.5999 58.9486 33.3322 58.988L32.9858 59.0273H32.5055H31.7183C31.6187 59.0351 31.5186 59.0351 31.4191 59.0273C31.2948 59.0198 31.1712 59.0041 31.0491 58.9801L30.7893 58.9328L30.4586 58.8384L30.2381 58.7596C30.1415 58.7198 30.0469 58.6751 29.9547 58.6258L29.7815 58.5313C29.6939 58.474 29.6121 58.4081 29.5375 58.3345C29.5375 58.2951 29.4509 58.2715 29.4194 58.2322C29.3143 58.127 29.2242 58.0077 29.1517 57.8779L34.5368 67.4592C34.6092 67.5891 34.6993 67.7083 34.8045 67.8135C34.8401 67.8517 34.8796 67.886 34.9225 67.9158C34.9971 67.9894 35.0789 68.0553 35.1666 68.1126L35.3398 68.2071L35.6232 68.3488L35.8436 68.4197C35.951 68.4605 36.0616 68.4921 36.1743 68.5142L36.4341 68.5614L36.8042 68.6165H37.1033H37.8906L38.3709 68.5771H38.7173H38.8354L39.5518 68.4512L50.8179 66.1208L45.4329 56.5474Z" fill="url(#paint1_linear)"/>
<path d="M91.0327 50.7371C91.0368 50.661 91.0368 50.5848 91.0327 50.5087C91.0327 50.5087 91.0327 50.4615 91.0327 50.4379C91.0327 50.4143 91.0327 50.3985 91.0327 50.3749C91.037 50.3488 91.037 50.3222 91.0327 50.2962C91.018 50.2244 90.9996 50.1535 90.9776 50.0836L90.9067 49.9183C90.8888 49.8773 90.8678 49.8378 90.8438 49.8002L85.4114 40.1401C85.4639 40.2307 85.5087 40.3255 85.5453 40.4236C85.5745 40.5214 85.5956 40.6214 85.6083 40.7227C85.6083 40.7227 85.6083 40.7621 85.6083 40.7857C85.6083 40.8093 85.6083 40.9983 85.6083 41.1085V41.1557C85.6083 41.2581 85.6083 41.3604 85.6083 41.4707C85.6083 41.5809 85.6083 41.51 85.6083 41.5336C85.5898 41.6592 85.5608 41.783 85.5217 41.9037V41.9903L85.4036 42.3131V42.4075C85.3406 42.5492 85.2776 42.691 85.1989 42.8405L85.128 42.9586C85.0572 43.0846 84.9863 43.2106 84.8997 43.3444C84.8131 43.4782 84.6714 43.6908 84.5376 43.864C84.4037 44.0372 84.1597 44.36 83.9392 44.6119L83.4669 45.1237C83.4641 45.1367 83.4641 45.1501 83.4669 45.163L82.8842 45.722L82.6874 45.8952L82.2544 46.2731L82.0025 46.4778L81.5852 46.8085L81.2861 47.0289C81.1286 47.147 80.9711 47.2651 80.8058 47.3753L80.6562 47.4855C80.4279 47.643 80.2075 47.7926 79.9713 47.9343L79.8611 48.0052L79.1525 48.4382L79.0501 48.4933C78.8061 48.635 78.562 48.7767 78.3101 48.9027L78.2077 48.9578C77.9558 49.0916 77.7118 49.2176 77.4598 49.3357L77.3496 49.3908L76.5623 49.7293L76.4521 49.7766C76.2002 49.8868 75.9403 49.9891 75.6648 50.0836L75.5467 50.1308C75.2869 50.2253 75.0271 50.3198 74.7594 50.3985H74.6807L73.9722 50.6111L73.8226 50.6504C73.5549 50.7239 73.2925 50.7869 73.0353 50.8394L61.777 53.1462L67.0597 62.7983L78.318 60.4916H78.3888C78.5935 60.4916 78.814 60.3971 79.0265 60.342H79.121H79.2706L79.5855 60.2554L79.9791 60.1373H80.0579H80.0972L80.5854 59.972L80.8373 59.8775L80.9554 59.8302H81.0578L81.5143 59.657L81.7191 59.5626H81.8293L81.9631 59.4996L82.404 59.3028L82.5929 59.2162L82.7032 59.161L82.837 59.0981L83.2622 58.8855L83.4511 58.791L83.5534 58.7359L83.6873 58.6651L84.1046 58.4289L84.2935 58.3265L84.3959 58.2635L84.5218 58.1927L84.9312 57.9407C84.9918 57.9087 85.0497 57.8718 85.1044 57.8305L85.2146 57.7597L85.3563 57.6731L85.7972 57.3818L85.8996 57.3109L86.0491 57.2086L86.309 57.0275L86.5294 56.8543C86.6317 56.7834 86.7341 56.7126 86.8286 56.6338L86.9781 56.5236L87.2458 56.3032L87.5293 55.8859L87.9623 55.508L88.1591 55.3348L88.7417 54.7758C88.7417 54.7758 88.7417 54.7758 88.7811 54.7758L89.2298 54.2956C89.4502 54.0437 89.647 53.7996 89.8281 53.5477L89.8754 53.4926C89.9884 53.3433 90.0935 53.1883 90.1903 53.0281C90.2113 53.0037 90.2297 52.9774 90.2454 52.9493C90.3084 52.847 90.3635 52.7446 90.4186 52.6423L90.4895 52.5242C90.5525 52.3982 90.6154 52.2801 90.6705 52.1542C90.7256 52.0282 90.6705 52.1542 90.6705 52.1148L90.7099 52.0125L90.7808 51.8393L90.828 51.6897V51.6031V51.5401C90.828 51.4535 90.8752 51.359 90.891 51.2724V51.1622C90.891 51.1622 90.891 51.1228 90.891 51.0992C90.8948 51.0494 90.8948 50.9994 90.891 50.9496C90.891 50.8945 90.891 50.8394 90.891 50.7843L91.0327 50.7371Z" fill="url(#paint2_linear)"/>
<path d="M61.7061 53.217L56.5494 61.3104C56.4392 61.4836 56.3132 61.6568 56.1872 61.8379C56.0612 62.0189 55.8014 62.326 55.581 62.5779C55.3605 62.8298 55.274 62.9164 55.1086 63.0897L55.0693 63.129C54.8882 63.318 54.6914 63.5069 54.4867 63.688L54.2899 63.8691L53.8568 64.2391L53.6049 64.4438L53.1955 64.7744L52.8964 65.0028L52.4161 65.3413L52.2586 65.4594L51.5816 65.9003L51.4714 65.9711C51.2352 66.1207 50.999 66.2703 50.7549 66.4041L50.6525 66.4671L49.9204 66.8765L49.8102 66.9316L49.0229 67.3016L48.9127 67.3568L48.1647 67.6953L48.0545 67.7425L47.2672 68.0417L47.1491 68.0889C46.8893 68.1834 46.6295 68.2779 46.3619 68.3566H46.2831L45.5824 68.5613L45.425 68.6007L44.6377 68.7896C44.3464 68.8526 44.0708 68.892 43.8032 68.9313L43.4568 68.9707H42.9686H42.1814C42.0869 68.9707 41.9845 68.9707 41.8901 68.9707C41.7632 68.9637 41.6369 68.9479 41.5121 68.9235L41.2523 68.8762L40.9217 68.7818L40.7012 68.703C40.6046 68.6631 40.51 68.6185 40.4178 68.5692L40.2446 68.4747L40.0005 68.2779L39.8824 68.1755C39.7797 68.0683 39.6899 67.9494 39.6148 67.8213L44.9998 77.4026C45.0749 77.5307 45.1648 77.6496 45.2675 77.7568C45.2675 77.7962 45.3462 77.8198 45.3856 77.8592L45.6297 78.056L45.8029 78.1505C45.8951 78.1998 45.9896 78.2444 46.0863 78.2843L46.3067 78.3631L46.6374 78.4575L46.8972 78.5048L47.2751 78.5599H47.5664H48.3537H48.8418H49.1882H49.3063C49.5346 78.5599 49.7708 78.489 50.0227 78.4339H50.0857L50.7234 78.2843H50.8179L50.9675 78.245L51.2824 78.1584L51.6761 78.0403H51.7548L52.2508 77.8749L52.4948 77.7805L52.6129 77.7411H52.7231L53.1719 77.56L53.3766 77.4734L53.4868 77.4262L53.6206 77.3711L54.0615 77.1743L54.2505 77.0798L54.3607 77.0325L54.4945 76.9617L54.9276 76.7491L55.1086 76.6546L55.211 76.5995L55.3448 76.5287L55.7699 76.3004L55.951 76.1901L56.0534 76.135L56.1793 76.0563L56.5966 75.8044L56.8249 75.5682L56.9352 75.4973L57.0769 75.4029L57.5099 75.1194L57.6122 75.0486L57.7697 74.9384L58.0216 74.7573L58.242 74.5919L58.5412 74.3636C58.5942 74.3314 58.6443 74.2945 58.6908 74.2534L58.9585 74.033L59.2104 73.8283C59.36 73.7102 59.5017 73.5842 59.6434 73.4582L59.8402 73.2772C60.0449 73.0961 60.2418 72.9071 60.4228 72.7182C60.5803 72.5607 60.7299 72.4033 60.8716 72.238C61.092 71.9939 61.2888 71.742 61.4778 71.4979C61.4778 71.4979 61.4778 71.4979 61.5172 71.4349C61.6353 71.2853 61.7376 71.1279 61.8399 70.9704L67.0597 62.7984L61.7061 53.217Z" fill="url(#paint3_linear)"/>
<path d="M69.9255 29.2125C74.4209 28.2914 76.3891 30.173 74.3343 33.4009L69.1697 41.5099L80.4437 39.2032C84.9312 38.2821 86.9073 40.1637 84.8446 43.3916C82.7819 46.6194 77.4756 49.989 72.9802 50.9102L61.7219 53.2169L56.5652 61.3103C54.5025 64.546 49.1883 67.9078 44.7007 68.8289C40.2132 69.75 38.2292 67.8763 40.2919 64.6405L45.4487 56.5472L34.1825 58.8461C29.695 59.7672 27.7189 57.8934 29.7816 54.6577C31.8443 51.4219 37.1506 48.0602 41.646 47.1391L52.8886 44.8638L58.0532 36.7547C60.1159 33.5032 65.4301 30.1336 69.9255 29.2125Z" fill="url(#paint4_linear)"/>
</g>
<defs>
<filter id="filter0_d" x="0.96405" y="0.978516" width="132.072" height="119.581" filterUnits="userSpaceOnUse" color-interpolation-filters="sRGB">
<feFlood flood-opacity="0" result="BackgroundImageFix"/>
<feColorMatrix in="SourceAlpha" type="matrix" values="0 0 0 0 0 0 0 0 0 0 0 0 0 0 0 0 0 0 127 0" result="hardAlpha"/>
<feOffset dx="7" dy="7"/>
<feGaussianBlur stdDeviation="17.5"/>
<feColorMatrix type="matrix" values="0 0 0 0 1 0 0 0 0 0.137255 0 0 0 0 0.654902 0 0 0 0.5 0"/>
<feBlend mode="normal" in2="BackgroundImageFix" result="effect1_dropShadow"/>
<feBlend mode="normal" in="SourceGraphic" in2="effect1_dropShadow" result="shape"/>
</filter>
<linearGradient id="paint0_linear" x1="82.3197" y1="33.1231" x2="73.6196" y2="42.8379" gradientUnits="userSpaceOnUse">
<stop stop-color="#140B31"/>
<stop offset="0.557292" stop-color="#10072D"/>
<stop offset="1" stop-color="#07001C"/>
</linearGradient>
<linearGradient id="paint1_linear" x1="54.2527" y1="58.2513" x2="51.7158" y2="67.6807" gradientUnits="userSpaceOnUse">
<stop stop-color="#140B31"/>
<stop offset="0.557292" stop-color="#10072D"/>
<stop offset="1" stop-color="#07001C"/>
</linearGradient>
<linearGradient id="paint2_linear" x1="95.6744" y1="43.3391" x2="89.4454" y2="59.993" gradientUnits="userSpaceOnUse">
<stop stop-color="#140B31"/>
<stop offset="0.557292" stop-color="#10072D"/>
<stop offset="1" stop-color="#07001C"/>
</linearGradient>
<linearGradient id="paint3_linear" x1="71.4106" y1="56.7951" x2="63.5119" y2="74.5052" gradientUnits="userSpaceOnUse">
<stop stop-color="#140B31"/>
<stop offset="0.557292" stop-color="#10072D"/>
<stop offset="1" stop-color="#07001C"/>
</linearGradient>
<linearGradient id="paint4_linear" x1="94.6508" y1="34.6379" x2="84.3803" y2="64.7152" gradientUnits="userSpaceOnUse">
<stop stop-color="#140B31"/>
<stop offset="0.557292" stop-color="#10072D"/>
<stop offset="1" stop-color="#07001C"/>
</linearGradient>
</defs>
</svg>
