<svg width="214" height="214" viewBox="0 0 214 214" fill="none" xmlns="http://www.w3.org/2000/svg">
<g filter="url(#filter0_d)">
<path d="M146.734 121.702C146.852 121.596 146.965 121.483 147.072 121.365C147.072 121.365 147.141 121.295 147.165 121.271C147.188 121.248 147.235 121.202 147.27 121.167C147.304 121.132 147.351 121.085 147.386 121.05C147.47 120.922 147.548 120.79 147.619 120.654C147.679 120.538 147.73 120.417 147.77 120.293C147.808 120.211 147.84 120.125 147.863 120.037L154.094 97.7816C154.034 97.9897 153.956 98.1922 153.861 98.3871C153.764 98.5787 153.651 98.7618 153.523 98.9345C153.523 98.9345 153.523 98.9345 153.43 99.0277C153.289 99.2041 153.129 99.3642 152.953 99.5052L152.883 99.575C152.731 99.7264 152.568 99.8895 152.417 100.041C152.381 100.067 152.35 100.098 152.324 100.134C152.149 100.309 151.881 100.414 151.648 100.553C151.415 100.693 151.567 100.635 151.52 100.681C151.305 100.798 151.083 100.903 150.856 100.996C150.812 101.037 150.769 101.079 150.728 101.124C150.421 101.254 150.106 101.367 149.785 101.462C149.703 101.496 149.617 101.519 149.529 101.532C149.226 101.625 148.935 101.706 148.609 101.776L128.974 106.132L122.766 128.271L142.402 123.915L142.588 123.868C142.856 123.81 143.077 123.752 143.31 123.682C143.401 123.662 143.491 123.635 143.578 123.601C143.854 123.522 144.126 123.428 144.393 123.321L144.451 123.263L144.591 123.123L144.964 122.96L145.255 122.809C145.255 122.809 145.336 122.727 145.383 122.681C145.403 122.647 145.431 122.619 145.464 122.599C145.604 122.459 145.814 122.389 145.965 122.285C145.979 122.26 145.999 122.24 146.023 122.226C146.045 122.194 146.072 122.166 146.105 122.145L146.338 121.912C146.419 121.83 146.501 121.749 146.582 121.667L146.734 121.702Z" fill="url(#paint0_linear)"/>
<path d="M71.4423 93.1586L51.3763 79.8938C50.8522 79.556 50.3864 79.2067 49.9322 78.8689L49.3616 78.4147L48.6512 77.7044L47.4866 76.5398C47.3277 76.404 47.1798 76.2561 47.044 76.0972C46.8713 75.9023 46.7118 75.6962 46.5666 75.48L46.2521 75.0258L45.9028 74.3969L45.6931 73.9544C45.6091 73.7524 45.5353 73.5464 45.4718 73.3371L45.3554 72.9412C45.3105 72.7267 45.2871 72.5082 45.2855 72.289C45.3438 72.2308 45.2506 72.0677 45.2622 71.9629C45.2623 71.6518 45.3054 71.3422 45.3903 71.0429L39.183 93.1818C39.0982 93.4811 39.0551 93.7908 39.055 94.1019C39.0511 94.2111 39.0588 94.3204 39.0782 94.4279C39.0798 94.6471 39.1032 94.8656 39.1481 95.0801L39.2646 95.4761L39.4742 96.105L39.6954 96.5358C39.7939 96.755 39.9108 96.9654 40.0449 97.1648L40.3593 97.6189L40.8251 98.2478L41.2677 98.6904L42.4323 99.855L43.2009 100.507L43.7133 101.02L43.888 101.194L45.1341 102.068L65.2466 115.286L71.4423 93.1586Z" fill="url(#paint1_linear)"/>
<path d="M147.491 152.017C147.609 151.911 147.722 151.798 147.828 151.679C147.828 151.679 147.898 151.61 147.933 151.575C147.968 151.54 147.991 151.516 148.026 151.481C148.071 151.449 148.111 151.41 148.143 151.365C148.227 151.237 148.305 151.105 148.376 150.969L148.515 150.62C148.55 150.533 148.577 150.443 148.597 150.352L154.851 128.027C154.794 128.238 154.72 128.445 154.63 128.644C154.528 128.832 154.411 129.011 154.28 129.18C154.28 129.18 154.222 129.238 154.187 129.273C154.152 129.308 153.873 129.587 153.71 129.75L153.64 129.82C153.488 129.971 153.337 130.123 153.174 130.286C153.011 130.449 153.116 130.344 153.081 130.379C152.868 130.537 152.642 130.678 152.405 130.798L152.277 130.926L151.625 131.229L151.485 131.369C151.182 131.485 150.88 131.602 150.542 131.707L150.262 131.777C149.971 131.858 149.68 131.94 149.354 132.009C149.028 132.079 148.504 132.184 148.05 132.242C147.595 132.301 146.757 132.417 146.058 132.464L144.602 132.522C144.579 132.537 144.559 132.557 144.544 132.58L142.855 132.545L142.308 132.51L141.109 132.429L140.433 132.359L139.327 132.231L138.558 132.114C138.151 132.056 137.743 131.998 137.335 131.916L136.951 131.858C136.38 131.753 135.833 131.648 135.274 131.509L135.006 131.45L133.317 131.043L133.085 130.973C132.514 130.822 131.943 130.67 131.384 130.484L131.151 130.414C130.581 130.239 130.033 130.065 129.486 129.867L129.241 129.785L127.576 129.121L127.343 129.028C126.807 128.818 126.272 128.586 125.724 128.318L125.48 128.213C124.956 127.968 124.432 127.724 123.919 127.444L123.803 127.328L122.44 126.594L122.161 126.431C121.656 126.144 121.175 125.849 120.717 125.546L100.651 112.305L94.1871 134.397L114.253 147.638L114.358 147.743C114.661 148.046 115.127 148.232 115.522 148.465L115.662 148.605L115.884 148.826L116.477 149.164L117.234 149.572L117.351 149.688L117.409 149.746L118.376 150.224L118.888 150.457L119.133 150.561L119.284 150.713L120.216 151.132L120.658 151.295L120.821 151.458L121.113 151.563L122.056 151.924L122.463 152.075L122.708 152.157L122.999 152.262L123.943 152.576L124.362 152.716L124.595 152.786L124.897 152.879L125.864 153.147L126.295 153.275L126.54 153.333L126.831 153.415L127.809 153.648C127.946 153.69 128.086 153.721 128.228 153.741L128.496 153.799L128.834 153.881L129.917 154.102L130.173 154.148L130.546 154.218L131.198 154.335L131.78 154.405C132.036 154.451 132.293 154.498 132.549 154.521L132.933 154.579L133.655 154.649L134.692 154.451L135.891 154.533L136.439 154.568L138.127 154.603C138.127 154.603 138.127 154.603 138.186 154.661L139.56 154.614C140.258 154.568 140.911 154.498 141.551 154.393L141.703 154.381C142.09 154.328 142.475 154.254 142.856 154.16C142.923 154.155 142.989 154.143 143.053 154.125C143.298 154.067 143.531 153.997 143.764 153.927L144.043 153.857C144.323 153.764 144.591 153.683 144.859 153.578C145.126 153.473 144.859 153.578 144.917 153.52L145.126 153.426L145.487 153.275L145.779 153.124L145.907 152.995L146 152.902C146.128 152.774 146.338 152.704 146.489 152.6L146.652 152.436C146.652 152.436 146.71 152.378 146.745 152.343C146.825 152.275 146.899 152.201 146.967 152.122C147.048 152.041 147.13 151.959 147.211 151.877L147.491 152.017Z" fill="url(#paint2_linear)"/>
<path d="M100.441 112.304L80.8411 116.648C80.4219 116.741 79.9793 116.811 79.5251 116.892C79.0709 116.974 78.2324 117.044 77.5336 117.09C76.8349 117.137 76.5787 117.137 76.0779 117.149L75.9615 117.149C75.4141 117.16 74.8435 117.149 74.2728 117.114L73.7138 117.09L72.5259 116.997L71.8504 116.927L70.7557 116.811L69.9754 116.706L68.7643 116.497L68.3567 116.438L66.703 116.089L66.4351 116.031C65.8644 115.903 65.2937 115.774 64.7347 115.611L64.4902 115.553L62.8015 115.076L62.557 114.994L60.8451 114.377L60.6005 114.295L58.9933 113.69L58.7604 113.597L57.1532 112.875L56.9087 112.77C56.3847 112.525 55.8606 112.281 55.3482 112.001L55.2317 111.885L53.8924 111.151L53.6013 110.976L52.1572 110.091C51.6331 109.754 51.1673 109.404 50.7131 109.066L50.1424 108.612L49.4204 107.89L48.2558 106.726C48.116 106.586 47.9646 106.434 47.8249 106.295C47.6475 106.097 47.4841 105.886 47.3357 105.666L47.0213 105.212L46.6719 104.583L46.4623 104.14C46.3784 103.938 46.3044 103.732 46.241 103.523L46.1246 103.127L46.0547 102.475L46.0314 102.149C46.0381 101.838 46.0811 101.529 46.1595 101.229L39.9522 123.368C39.8738 123.668 39.8308 123.977 39.8241 124.288C39.7659 124.346 39.8474 124.497 39.8474 124.614L39.9173 125.266L40.0337 125.662C40.0972 125.871 40.171 126.077 40.255 126.279L40.4646 126.722L40.814 127.351L41.1285 127.805L41.6059 128.445L42.0368 128.876L43.2014 130.041L43.9235 130.763L44.4359 131.275L44.6106 131.45C44.9483 131.788 45.4025 132.032 45.8567 132.323L45.9499 132.417L47.1145 133.139L47.2542 133.278L47.5337 133.441L48.1277 133.779L48.8847 134.187L49.0011 134.303L49.9794 134.792L50.4801 135.014L50.7131 135.13L50.8761 135.293L51.8078 135.689L52.2387 135.864L52.4716 135.957L52.7511 136.073L53.6944 136.434L54.1136 136.574L54.3466 136.667L54.6494 136.76L55.6044 137.087L56.012 137.215L56.2449 137.285L56.5477 137.378L57.5142 137.669L57.9452 137.774L58.1781 137.844L58.4809 137.913L59.4708 138.158L60.1579 138.146L60.4258 138.205L60.7752 138.274L61.8349 138.496L62.0911 138.542L62.4871 138.612L63.1276 138.717L63.6983 138.798L64.4785 138.903C64.6047 138.934 64.7333 138.954 64.8629 138.962L65.5849 139.031L66.2604 139.101C66.6564 139.148 67.0523 139.171 67.4483 139.194L68.0073 139.218C68.5779 139.253 69.1486 139.264 69.6959 139.253C70.1618 139.253 70.616 139.241 71.0702 139.206C71.7573 139.171 72.4211 139.09 73.0616 139.008C73.0616 139.008 73.0616 139.008 73.213 138.973C73.609 138.927 73.9933 138.845 74.3776 138.764L94.1873 134.396L100.441 112.304Z" fill="url(#paint3_linear)"/>
<path d="M148.108 88.9545C156.12 94.2417 156.248 99.9366 148.434 101.672L128.799 106.027L148.888 119.292C156.889 124.568 157.029 130.274 149.202 131.998C141.376 133.721 128.543 130.857 120.53 125.569L100.464 112.328L80.8641 116.672C73.0263 118.407 60.1925 115.519 52.1918 110.243C44.191 104.968 44.028 99.2611 51.8657 97.5259L71.4658 93.1819L51.3999 79.9172C43.3991 74.6416 43.2477 68.9468 51.0855 67.2115C58.9232 65.4763 71.7453 68.3528 79.7577 73.64L99.7538 86.9048L119.389 82.5492C127.25 80.7906 140.095 83.6672 148.108 88.9545Z" fill="url(#paint4_linear)"/>
</g>
<defs>
<filter id="filter0_d" x="0.566406" y="0.0163574" width="213.166" height="213.166" filterUnits="userSpaceOnUse" color-interpolation-filters="sRGB">
<feFlood flood-opacity="0" result="BackgroundImageFix"/>
<feColorMatrix in="SourceAlpha" type="matrix" values="0 0 0 0 0 0 0 0 0 0 0 0 0 0 0 0 0 0 127 0" result="hardAlpha"/>
<feOffset dx="7" dy="7"/>
<feGaussianBlur stdDeviation="17.5"/>
<feColorMatrix type="matrix" values="0 0 0 0 1 0 0 0 0 0.137255 0 0 0 0 0.654902 0 0 0 0.5 0"/>
<feBlend mode="normal" in2="BackgroundImageFix" result="effect1_dropShadow"/>
<feBlend mode="normal" in="SourceGraphic" in2="effect1_dropShadow" result="shape"/>
</filter>
<linearGradient id="paint0_linear" x1="160.658" y1="113.073" x2="133.417" y2="114.574" gradientUnits="userSpaceOnUse">
<stop stop-color="#140B31"/>
<stop offset="0.557292" stop-color="#10072D"/>
<stop offset="1" stop-color="#07001C"/>
</linearGradient>
<linearGradient id="paint1_linear" x1="81.9685" y1="108.726" x2="64.2674" y2="118.921" gradientUnits="userSpaceOnUse">
<stop stop-color="#140B31"/>
<stop offset="0.557292" stop-color="#10072D"/>
<stop offset="1" stop-color="#07001C"/>
</linearGradient>
<linearGradient id="paint2_linear" x1="165.3" y1="147.94" x2="131.451" y2="163.361" gradientUnits="userSpaceOnUse">
<stop stop-color="#140B31"/>
<stop offset="0.557292" stop-color="#10072D"/>
<stop offset="1" stop-color="#07001C"/>
</linearGradient>
<linearGradient id="paint3_linear" x1="109.504" y1="131.952" x2="71.622" y2="146.466" gradientUnits="userSpaceOnUse">
<stop stop-color="#140B31"/>
<stop offset="0.557292" stop-color="#10072D"/>
<stop offset="1" stop-color="#07001C"/>
</linearGradient>
<linearGradient id="paint4_linear" x1="176.657" y1="133.555" x2="116.973" y2="162.854" gradientUnits="userSpaceOnUse">
<stop stop-color="#140B31"/>
<stop offset="0.557292" stop-color="#10072D"/>
<stop offset="1" stop-color="#07001C"/>
</linearGradient>
</defs>
</svg>
