<svg width="130" height="149" viewBox="0 0 130 149" fill="none" xmlns="http://www.w3.org/2000/svg">
<g filter="url(#filter0_d)">
<path d="M65.5299 34.2514C65.4588 34.1725 65.3836 34.0973 65.3047 34.0262C65.3047 34.0262 65.2581 33.9796 65.2426 33.964C65.2271 33.9485 65.196 33.9174 65.1727 33.8941C65.1494 33.8708 65.1183 33.8398 65.095 33.8165C65.0098 33.7601 64.9216 33.7083 64.831 33.6611C64.7536 33.621 64.6731 33.5872 64.5902 33.5602C64.5351 33.5348 64.4779 33.514 64.4194 33.498L49.5779 29.343C49.7166 29.3833 49.8517 29.4352 49.9817 29.4984C50.1094 29.5632 50.2315 29.6385 50.3467 29.7236C50.3467 29.7236 50.3467 29.7236 50.4089 29.7857C50.5265 29.8797 50.6333 29.9865 50.7273 30.1041L50.7739 30.1507C50.8748 30.2517 50.9836 30.3604 51.0845 30.4614C51.1018 30.4853 51.1228 30.5063 51.1467 30.5235C51.2632 30.64 51.3331 30.8186 51.4263 30.974C51.5195 31.1293 51.4806 31.0283 51.5117 31.0594C51.5892 31.2032 51.6592 31.351 51.7214 31.5021C51.7485 31.5319 51.777 31.5604 51.8068 31.5875C51.8936 31.7928 51.9688 32.0028 52.032 32.2166C52.0547 32.2714 52.0704 32.3287 52.0786 32.3874C52.1408 32.5893 52.1951 32.7835 52.2417 33.001L55.1463 46.0951L69.9102 50.2345L67.0056 37.1404L66.9745 37.0162C66.9357 36.8376 66.8968 36.69 66.8502 36.5347C66.8368 36.4738 66.8186 36.4141 66.7959 36.356C66.7431 36.1717 66.6809 35.9903 66.6095 35.8124L66.5706 35.7736L66.4774 35.6804L66.3687 35.4318L66.2678 35.2377C66.2678 35.2377 66.2134 35.1833 66.1823 35.1523C66.1599 35.139 66.1412 35.1203 66.128 35.0979C66.0348 35.0047 65.9882 34.8649 65.9183 34.7639C65.9019 34.7549 65.8885 34.7414 65.8795 34.7251C65.8578 34.7109 65.8392 34.6924 65.8251 34.6707L65.6698 34.5154C65.6154 34.461 65.561 34.4067 65.5067 34.3523L65.5299 34.2514Z" fill="#07001C"/>
<path d="M46.4949 84.4601L37.649 97.8416C37.4238 98.1911 37.1908 98.5017 36.9656 98.8046L36.6627 99.1852L36.189 99.6589L35.4123 100.436C35.3218 100.541 35.2231 100.64 35.1172 100.731C34.9872 100.846 34.8497 100.952 34.7056 101.049L34.4027 101.259L33.9833 101.492L33.6882 101.632C33.5535 101.688 33.4162 101.737 33.2766 101.779L33.0125 101.857C32.8695 101.887 32.7238 101.902 32.5776 101.903C32.5388 101.865 32.4301 101.927 32.3602 101.919C32.1527 101.919 31.9462 101.89 31.7466 101.834L46.5104 105.973C46.71 106.03 46.9165 106.058 47.124 106.058C47.1968 106.061 47.2697 106.056 47.3414 106.043C47.4876 106.042 47.6333 106.026 47.7764 105.996L48.0404 105.919L48.4598 105.779L48.7471 105.631C48.8933 105.566 49.0336 105.488 49.1666 105.398L49.4694 105.189L49.8888 104.878L50.1839 104.583L50.9606 103.806L51.3955 103.294L51.7372 102.952L51.8537 102.835L52.4362 102.004L61.251 88.5919L46.4949 84.4601Z" fill="#07001C"/>
<path d="M85.7462 33.7463C85.6751 33.6673 85.6 33.5921 85.5209 33.5211C85.5209 33.5211 85.4743 33.4745 85.451 33.4512C85.4277 33.4279 85.4122 33.4124 85.3889 33.3891C85.3674 33.3591 85.3412 33.3329 85.3112 33.3114C85.226 33.2551 85.1378 33.2032 85.0472 33.1561L84.8142 33.0629C84.7561 33.0402 84.6964 33.0219 84.6356 33.0085L69.7475 28.838C69.8886 28.8755 70.0262 28.9249 70.1591 28.9856C70.2844 29.0532 70.4039 29.1311 70.5163 29.2185C70.5163 29.2185 70.5552 29.2574 70.5785 29.2807C70.6018 29.304 70.7881 29.4904 70.8969 29.5991L70.9435 29.6457C71.0444 29.7467 71.1454 29.8476 71.2541 29.9563C71.3629 30.0651 71.293 29.9952 71.3163 30.0185C71.4219 30.1606 71.5154 30.3112 71.5959 30.4689L71.6813 30.5543L71.8832 30.9893L71.9764 31.0825C72.0541 31.2844 72.1317 31.4863 72.2016 31.7116L72.2482 31.8979C72.3026 32.0921 72.3569 32.2863 72.4035 32.5037C72.4501 32.7212 72.5201 33.0706 72.5589 33.3735C72.5977 33.6764 72.6754 34.2356 72.7064 34.7016L72.7453 35.6724C72.7554 35.6879 72.7686 35.7011 72.7841 35.7112L72.7608 36.8373L72.7375 37.2024L72.6831 38.0023L72.6365 38.4527L72.5511 39.1905L72.4735 39.7031C72.4346 39.9749 72.3958 40.2467 72.3414 40.5186L72.3026 40.7749C72.2327 41.1554 72.1628 41.5204 72.0696 41.8932L72.0308 42.0718L71.7589 43.198L71.7123 43.3533C71.6114 43.7339 71.5104 44.1144 71.3861 44.4872L71.3395 44.6425C71.223 45.0231 71.1066 45.3881 70.9746 45.7531L70.9202 45.9162L70.4775 47.0268L70.4154 47.1821C70.2756 47.5394 70.1202 47.8966 69.9416 48.2616L69.8717 48.4247C69.7087 48.7742 69.5456 49.1237 69.3592 49.4654L69.2815 49.5431L68.7922 50.4517L68.6835 50.6381C68.4919 50.9747 68.2952 51.2957 68.0933 51.6011L59.2629 64.9826L73.9957 69.2929L82.826 55.9115L82.8959 55.8416C83.0978 55.6397 83.2221 55.329 83.3774 55.0649L83.4706 54.9718L83.6182 54.8242L83.8434 54.4281L84.1152 53.9233L84.1929 53.8456L84.2317 53.8068L84.5501 53.1622L84.7055 52.8205L84.7754 52.6574L84.8763 52.5564L85.1559 51.9351L85.2646 51.64L85.3734 51.5313L85.4433 51.3371L85.684 50.708L85.785 50.4362L85.8393 50.2731L85.9092 50.079L86.1189 49.4499L86.2121 49.1703L86.2587 49.015L86.3208 48.813L86.4995 48.1684L86.5849 47.8811L86.6238 47.718L86.6781 47.5238L86.8334 46.8714C86.8615 46.78 86.8823 46.6866 86.8956 46.5919L86.9344 46.4132L86.9888 46.188L87.1363 45.4658L87.1674 45.2949L87.214 45.0464L87.2917 44.6114L87.3382 44.2231C87.3693 44.0523 87.4004 43.8814 87.4159 43.7106L87.4547 43.4543L87.5013 42.9727L87.3693 42.2815L87.4237 41.4816L87.447 41.1166L87.4703 39.9905C87.4703 39.9905 87.4703 39.9904 87.5091 39.9516L87.478 39.0352C87.447 38.5692 87.4004 38.1343 87.3305 37.7072L87.3227 37.6062C87.2869 37.3475 87.2377 37.0909 87.1752 36.8373C87.1718 36.7926 87.164 36.7484 87.1519 36.7053C87.113 36.5422 87.0664 36.3869 87.0198 36.2316L86.9732 36.0452C86.9111 35.8588 86.8567 35.6802 86.7868 35.5015C86.7169 35.3229 86.7868 35.5015 86.748 35.4627L86.6859 35.3229L86.5849 35.0821L86.4839 34.888L86.3985 34.8025L86.3364 34.7404C86.251 34.655 86.2044 34.5152 86.1345 34.4142L86.0257 34.3055C86.0257 34.3055 85.9869 34.2667 85.9636 34.2434C85.9183 34.1904 85.869 34.1411 85.8161 34.0958C85.7617 34.0414 85.7073 33.9871 85.653 33.9327L85.7462 33.7463Z" fill="#07001C"/>
<path d="M59.2628 65.1222L62.1597 78.1929C62.2218 78.4725 62.2684 78.7677 62.3228 79.0705C62.3771 79.3734 62.4237 79.9326 62.4548 80.3986C62.4858 80.8646 62.4859 81.0354 62.4936 81.3694L62.4936 81.447C62.5014 81.8121 62.4937 82.1926 62.4703 82.5731L62.4548 82.9459L62.3926 83.7381L62.346 84.1886L62.2684 84.9186L62.1985 85.4389L62.0587 86.2466L62.0199 86.5185L61.7869 87.6213L61.7481 87.7999C61.6626 88.1805 61.5772 88.561 61.4685 88.9338L61.4296 89.0969L61.1112 90.223L61.0569 90.3861L60.6453 91.5277L60.5909 91.6909L60.187 92.7626L60.1249 92.918L59.6434 93.9897L59.5735 94.1528C59.4104 94.5023 59.2473 94.8518 59.0609 95.1935L58.9832 95.2712L58.4939 96.1643L58.3775 96.3584L57.7872 97.3215C57.562 97.6709 57.329 97.9816 57.1038 98.2845L56.8009 98.665L56.3194 99.1465L55.5428 99.9232C55.4496 100.016 55.3486 100.117 55.2554 100.211C55.1233 100.329 54.9831 100.438 54.836 100.537L54.5331 100.746L54.1137 100.979L53.8186 101.119C53.684 101.175 53.5465 101.224 53.407 101.267L53.1429 101.344L52.708 101.391L52.4906 101.407C52.2834 101.402 52.0775 101.373 51.877 101.321L66.6408 105.461C66.8413 105.513 67.0473 105.542 67.2544 105.546C67.2932 105.585 67.3942 105.531 67.4718 105.531L67.9068 105.484L68.1708 105.406C68.3104 105.364 68.4478 105.315 68.5824 105.259L68.8776 105.119L69.2969 104.886L69.5998 104.676L70.027 104.358L70.3143 104.07L71.091 103.294L71.5725 102.812L71.9142 102.471L72.0307 102.354C72.2559 102.129 72.419 101.826 72.6132 101.523L72.6753 101.461L73.1568 100.684L73.25 100.591L73.3587 100.405L73.584 100.009L73.8558 99.5038L73.9335 99.4261L74.2596 98.7738L74.4072 98.4398L74.4849 98.2845L74.5936 98.1758L74.8576 97.5545L74.9741 97.2671L75.0363 97.1118L75.1139 96.9254L75.3547 96.2963L75.4479 96.0167L75.51 95.8614L75.5721 95.6595L75.7896 95.0226L75.8751 94.7508L75.9217 94.5955L75.9838 94.3936L76.1779 93.749L76.2478 93.4616L76.2944 93.3062L76.341 93.1043L76.5041 92.4442L76.4964 91.986L76.5352 91.8073L76.5818 91.5744L76.7293 90.8676L76.7604 90.6968L76.807 90.4327L76.8769 90.0056L76.9313 89.625L77.0012 89.1047C77.0217 89.0206 77.0347 88.9348 77.04 88.8484L77.0866 88.3668L77.1332 87.9164C77.1643 87.6523 77.1798 87.3883 77.1953 87.1242L77.2109 86.7515C77.2342 86.3709 77.2419 85.9904 77.2342 85.6253C77.2342 85.3147 77.2264 85.0118 77.2031 84.7089C77.1798 84.2507 77.1254 83.808 77.071 83.3809C77.071 83.3809 77.0711 83.3809 77.0478 83.2799C77.0167 83.0158 76.9623 82.7596 76.908 82.5033L73.9956 69.2927L59.2628 65.1222Z" fill="#07001C"/>
<path d="M43.6909 33.3342C47.2168 27.9909 51.0145 27.9055 52.1717 33.1167L55.0764 46.2108L63.9222 32.8138C67.4404 27.4784 71.2459 27.3851 72.3953 32.6041C73.5448 37.8231 71.6342 46.3816 68.1083 51.7249L59.2779 65.1063L62.1748 78.1771C63.332 83.4039 61.4059 91.9624 57.8878 97.2979C54.3696 102.633 50.5641 102.742 49.4069 97.5153L46.5101 84.4445L37.6642 97.826C34.146 103.161 30.3483 103.262 29.1911 98.0356C28.0339 92.8089 29.9522 84.2582 33.4781 78.9149L42.324 65.5801L39.4194 52.486C38.2467 47.2437 40.165 38.6774 43.6909 33.3342Z" fill="#07001C"/>
</g>
<defs>
<filter id="filter0_d" x="0.854004" y="0.750244" width="128.655" height="147.309" filterUnits="userSpaceOnUse" color-interpolation-filters="sRGB">
<feFlood flood-opacity="0" result="BackgroundImageFix"/>
<feColorMatrix in="SourceAlpha" type="matrix" values="0 0 0 0 0 0 0 0 0 0 0 0 0 0 0 0 0 0 127 0" result="hardAlpha"/>
<feOffset dx="7" dy="7"/>
<feGaussianBlur stdDeviation="17.5"/>
<feColorMatrix type="matrix" values="0 0 0 0 1 0 0 0 0 0.137255 0 0 0 0 0.654902 0 0 0 0.5 0"/>
<feBlend mode="normal" in2="BackgroundImageFix" result="effect1_dropShadow"/>
<feBlend mode="normal" in="SourceGraphic" in2="effect1_dropShadow" result="shape"/>
</filter>
</defs>
</svg>
