<svg width="96" height="103" viewBox="0 0 96 103" fill="none" xmlns="http://www.w3.org/2000/svg">
<g clip-path="url(#clip0_426:1412)">
<path fill-rule="evenodd" clip-rule="evenodd" d="M94.5925 47.7523C94.5925 47.5663 94.4992 47.4397 94.3876 47.385L94.3815 47.382L94.3755 47.379L88.8129 44.5159L88.7919 44.5059C82.1354 41.5184 67.6577 34.944 52.9548 27.7476C38.2632 20.5569 23.2847 12.7157 15.6848 7.20615L15.6844 7.20588C12.4094 4.8284 9.75368 3.34858 7.66528 2.69553C5.57769 2.04273 4.19844 2.25343 3.28849 3.02445C2.44271 3.74627 2.03914 4.95353 1.99897 6.52815C1.9591 8.09172 2.28283 9.89243 2.75196 11.6286C3.21918 13.3576 3.82025 14.9854 4.31081 16.1916C4.74907 17.2693 5.08525 17.977 5.15413 18.1221C5.16358 18.1419 5.16799 18.1512 5.16695 18.1495L5.17944 18.1709L5.19033 18.1933C5.38198 18.5866 7.83388 23.4573 12.1705 29.1846C16.3792 34.7431 22.3251 41.0573 29.6587 44.8977C30.7421 45.3919 32.3482 46.1344 33.7166 46.8561C34.4416 47.2384 35.1204 47.6256 35.6241 47.9748C35.8735 48.1477 36.1043 48.3278 36.2795 48.5084C36.3672 48.5988 36.4576 48.7061 36.529 48.8287C36.5978 48.9472 36.6759 49.1262 36.6717 49.3451C36.6663 49.6338 36.53 49.8926 36.4281 50.0602C36.3108 50.253 36.1545 50.4569 35.982 50.6604C35.6353 51.0692 35.1705 51.5374 34.6765 52.0063C33.91 52.7338 33.0356 53.4982 32.3525 54.0928C29.3321 56.9803 24.3534 62.0854 19.9103 68.1501L19.9088 68.1522C15.7982 73.7197 12.9773 78.974 11.4567 83.7504C9.5199 89.8363 9.71379 95.1771 11.9281 99.6821L11.9337 99.6936L11.9388 99.7052C12.0254 99.899 12.3007 100.415 13.0737 100.625L13.0771 100.626C14.0513 100.896 15.5047 100.623 17.5619 99.5229C19.5924 98.4377 22.0866 96.6153 25.0753 94.0088L25.0771 94.0068C26.4104 92.8521 27.784 91.5833 29.2284 90.2484C29.5631 89.9397 29.9016 89.6269 30.2443 89.3107C40.2934 80.0137 55.4719 66.014 89.234 50.4608L89.2347 50.4605L94.3646 48.1033L94.3727 48.0996L94.3809 48.096C94.4823 48.0528 94.5837 47.9234 94.5925 47.7523ZM31.4445 53.0845C31.4126 53.1123 31.3809 53.1398 31.3497 53.167L31.3461 53.1701C31.1947 53.3018 31.0532 53.425 30.9247 53.5374L30.9469 53.563C27.8638 56.5465 23.103 61.4998 18.8226 67.3423C14.6515 72.9921 11.7471 78.379 10.169 83.3355C8.15373 89.6684 8.31064 95.3831 10.7108 100.274C10.8909 100.672 11.4172 101.583 12.72 101.938C14.2123 102.35 16.0634 101.864 18.1963 100.724C20.3564 99.5699 22.9384 97.672 25.9594 95.0377C27.3107 93.8674 28.7041 92.5795 30.1495 91.2439L30.1704 91.2249C30.4968 90.9237 30.8258 90.6197 31.1574 90.3137L31.1585 90.313C41.1471 81.0718 56.2075 67.171 89.7972 51.6973L94.9197 49.3436C95.5585 49.0655 95.9209 48.425 95.9446 47.7943V47.786V47.7778C95.9527 47.1071 95.6039 46.4716 94.9866 46.1657L89.4227 43.3022L89.4166 43.2991L89.4112 43.2963L89.374 43.2782L89.3638 43.2732L89.3537 43.2685C82.7074 40.2858 68.2378 33.7153 53.5464 26.5247C38.8361 19.3248 23.9652 11.5325 16.4757 6.10313C13.1589 3.69534 10.3631 2.11494 8.06665 1.39684C5.76991 0.678633 3.83128 0.785599 2.41645 1.9851L2.41497 1.98636C1.14098 3.07275 0.691728 4.75174 0.647308 6.49328C0.60259 8.24642 0.962752 10.1926 1.44719 11.9853C1.93355 13.7852 2.55574 15.4682 3.05934 16.7065C3.50691 17.8071 3.87535 18.5916 3.97644 18.7917L3.97619 18.7918C4.19439 19.2396 6.69036 24.1917 11.0948 30.0087C15.3339 35.6071 21.3785 42.0573 28.9052 46.0361L28.901 46.0455C28.955 46.0701 29.0105 46.0954 29.0675 46.1213C29.2979 46.2417 29.5297 46.3597 29.7628 46.4754L29.7769 46.4466C30.7811 46.9101 32.014 47.4937 33.0888 48.0606C33.7997 48.4355 34.4212 48.7925 34.8568 49.0946C35.029 49.2139 35.1574 49.3147 35.2463 49.3953C35.1804 49.4964 35.0834 49.6243 34.9532 49.7779C34.6541 50.1307 34.2309 50.5593 33.7485 51.0173C33.0855 51.6465 32.3403 52.3035 31.7043 52.8582L31.6938 52.8471C31.6123 52.9245 31.5292 53.0035 31.4445 53.0845ZM12.72 101.938L12.7183 101.937L12.8977 101.281L12.7217 101.938L12.72 101.938ZM93.4175 47.8071L92.1587 48.3927L89.0698 49.8293L89.0677 49.8303C55.2765 65.394 40.053 79.4371 29.9631 88.7449L29.9543 88.7531L29.8823 88.8197H29.882C29.5576 89.1189 29.2358 89.4161 28.9168 89.7105L28.9069 89.7201L28.9048 89.7214L28.9036 89.7228L28.9026 89.7242C27.4483 91.0672 26.0516 92.3578 24.728 93.4981C21.2602 96.5051 18.812 98.1487 17.099 99.032C15.3913 99.9126 14.3661 100.064 13.7647 100.011L13.7494 100.01L13.7342 100.008C13.5607 99.9847 13.4226 99.9486 13.308 99.9038C13.227 99.8725 13.0706 99.7902 13.1509 99.8296L12.8988 99.7059L12.8125 99.4536C10.4368 94.6276 10.7342 89.2502 12.4422 83.97C14.1542 78.6776 17.3035 73.4143 20.7249 68.7577C26.172 61.345 32.3732 55.3849 34.7781 53.1803L34.773 53.1735L34.8427 53.1212C35.4194 52.5938 35.7621 52.2965 35.8023 52.2642L35.8937 52.1909L35.919 52.1822C35.9382 52.1657 35.9592 52.1475 35.9834 52.1265L35.9839 52.126L36.0271 52.0886C36.1039 52.022 36.2028 51.9379 36.3188 51.8565L36.3247 51.8649C36.6812 51.5118 36.9253 51.2109 37.0929 50.9527C37.4178 50.4522 37.4646 50.0983 37.4646 49.77C37.4646 48.8376 37.0132 48.0921 36.3568 47.4858C35.845 47.013 35.2341 46.6509 34.6931 46.388L34.6913 46.3932C34.1651 46.2044 33.5933 45.9943 32.9355 45.7189L32.9383 45.72L33.1928 45.09L32.9329 45.7178L32.9355 45.7189C26.3271 43.0168 20.4724 37.8782 15.8399 32.5527C11.2024 27.2213 7.74654 21.6528 5.9475 18.0229L5.94805 18.024L6.55254 17.7195L5.9475 18.0229C4.80085 15.7196 3.7374 12.7228 3.19927 10.0827C2.93058 8.76444 2.78604 7.50277 2.84118 6.44532C2.89429 5.42698 3.14126 4.42338 3.83703 3.83042L3.83262 3.83428L4.27703 4.34672L3.84143 3.82668L3.83703 3.83042C4.39238 3.34637 5.39648 3.07242 7.11699 3.55111C8.83546 4.0292 11.3872 5.28421 15.2104 8.04405L15.2113 8.04466C22.5776 13.3798 36.5787 20.7913 50.943 27.836C65.2902 34.8723 79.9443 41.5163 88.5803 45.3138L88.5992 45.3222L88.6175 45.3317L92.183 47.1704L93.4175 47.8071ZM35.2317 54.6077C35.4032 54.4481 35.5612 54.3023 35.7047 54.1708C36.9923 53.1939 37.7696 52.3981 38.2252 51.6961C38.7153 50.9408 38.8167 50.319 38.8167 49.77C38.8167 48.3387 38.1065 47.2554 37.2714 46.4841C36.4434 45.7192 35.4518 45.2197 34.7603 44.9268L34.7436 44.9665C34.3432 44.8197 33.9201 44.6581 33.4528 44.4623L33.4474 44.4601C27.1118 41.8703 21.4213 36.9036 16.8575 31.6571C12.2982 26.4157 8.90638 20.9447 7.15756 17.4162L7.15702 17.4151C6.05989 15.2114 5.03687 12.3266 4.52383 9.80954C4.2669 8.54902 4.14469 7.41308 4.19144 6.51657C4.24012 5.58311 4.46278 5.07848 4.71263 4.86676L4.71706 4.863L4.72144 4.85916C4.80252 4.78801 5.26972 4.44822 6.75657 4.86189C8.24993 5.27737 10.6498 6.42592 14.4212 9.14837L14.8163 8.59655L14.4221 9.14898C21.8965 14.5623 35.9997 22.0204 50.3505 29.0584C64.7083 36.1 79.369 42.7473 88.0192 46.5515L90.332 47.744L88.5046 48.5938L88.5032 48.5946C54.529 64.2426 39.1892 78.3885 29.0404 87.7508L28.9688 87.8167C28.6365 88.1227 28.3083 88.426 27.9839 88.7259C26.5295 90.0696 25.1533 91.3405 23.8482 92.4652L23.8467 92.4666C20.4239 95.4355 18.0657 97.0049 16.4821 97.8216C14.9885 98.592 14.2259 98.6709 13.932 98.6593C11.8665 94.3094 12.108 89.3984 13.7279 84.3909C15.3768 79.2936 18.4337 74.1644 21.8123 69.5662C25.1872 64.9734 28.8605 60.9406 31.7141 58.0372C33.1401 56.5863 34.3594 55.4194 35.2317 54.6077Z" fill="#FF4FB9"/>
</g>
<defs>
<clipPath id="clip0_426:1412">
<rect width="96" height="102" fill="white" transform="translate(0 0.404785)"/>
</clipPath>
</defs>
</svg>
