<svg width="173" height="154" viewBox="0 0 173 154" fill="none" xmlns="http://www.w3.org/2000/svg">
<g filter="url(#filter0_d)">
<path d="M123.207 82.5802C123.311 82.4866 123.409 82.3877 123.503 82.2839C123.503 82.2839 123.564 82.2226 123.585 82.2022C123.605 82.1817 123.646 82.1409 123.677 82.1102C123.707 82.0795 123.748 82.0387 123.779 82.008C123.853 81.8958 123.921 81.7799 123.983 81.6606C124.036 81.5588 124.081 81.4529 124.116 81.3439C124.15 81.2713 124.177 81.1961 124.198 81.1191L129.664 61.5927C129.612 61.7753 129.543 61.953 129.46 62.124C129.375 62.2921 129.276 62.4527 129.164 62.6043C129.164 62.6043 129.164 62.6043 129.082 62.686C128.958 62.8408 128.818 62.9813 128.663 63.105L128.602 63.1663C128.469 63.2991 128.326 63.4422 128.193 63.575C128.162 63.5977 128.134 63.6253 128.111 63.6567C127.958 63.81 127.723 63.902 127.519 64.0246C127.314 64.1472 127.447 64.0961 127.406 64.137C127.217 64.239 127.023 64.331 126.824 64.4128C126.785 64.4485 126.747 64.486 126.712 64.5252C126.441 64.6395 126.165 64.7384 125.884 64.8216C125.812 64.8514 125.736 64.872 125.659 64.8829C125.393 64.9646 125.138 65.0361 124.852 65.0974L107.625 68.9189L102.178 88.3431L119.406 84.5216L119.569 84.4808C119.804 84.4297 119.998 84.3786 120.203 84.3173C120.283 84.2996 120.361 84.2757 120.438 84.2458C120.68 84.1764 120.919 84.0945 121.153 84.0005L121.204 83.9494L121.327 83.8268L121.654 83.6838L121.909 83.5509C121.909 83.5509 121.981 83.4794 122.022 83.4386C122.039 83.409 122.064 83.3844 122.093 83.367C122.216 83.2444 122.4 83.1831 122.532 83.0912C122.544 83.0696 122.562 83.0519 122.584 83.0401C122.602 83.0115 122.627 82.9872 122.655 82.9685L122.859 82.7642C122.931 82.6927 123.002 82.6211 123.074 82.5496L123.207 82.5802Z" fill="#07001C"/>
<path d="M57.1492 57.5371L39.5437 45.8989C39.0839 45.6026 38.6752 45.296 38.2767 44.9997L37.776 44.6012L37.1527 43.978L36.131 42.9562C35.9916 42.8371 35.8618 42.7072 35.7427 42.5679C35.5911 42.3969 35.4512 42.216 35.3238 42.0264L35.0479 41.6278L34.7414 41.0761L34.5574 40.6878C34.4837 40.5106 34.419 40.3299 34.3633 40.1463L34.2611 39.7989C34.2217 39.6107 34.2012 39.419 34.1998 39.2267C34.2509 39.1756 34.1691 39.0325 34.1794 38.9406C34.1795 38.6676 34.2173 38.3959 34.2917 38.1333L28.8456 57.5575C28.7712 57.8201 28.7334 58.0918 28.7333 58.3648C28.7298 58.4606 28.7367 58.5565 28.7537 58.6508C28.755 58.8431 28.7755 59.0348 28.815 59.223L28.9172 59.5705L29.1011 60.1222L29.2952 60.5002C29.3816 60.6925 29.4842 60.8771 29.6018 61.0521L29.8776 61.4505L30.2864 62.0023L30.6746 62.3906L31.6964 63.4124L32.3708 63.9846L32.8204 64.4341L32.9737 64.5874L34.067 65.3538L51.7132 76.951L57.1492 57.5371Z" fill="#07001C"/>
<path d="M123.872 109.178C123.976 109.085 124.075 108.986 124.168 108.882C124.168 108.882 124.229 108.82 124.26 108.79C124.291 108.759 124.311 108.739 124.342 108.708C124.381 108.68 124.416 108.645 124.444 108.606C124.518 108.494 124.586 108.378 124.648 108.258L124.771 107.952C124.801 107.875 124.825 107.797 124.842 107.717L130.329 88.1292C130.28 88.3148 130.215 88.4959 130.135 88.6707C130.046 88.8356 129.944 88.9929 129.829 89.1407C129.829 89.1407 129.778 89.1918 129.747 89.2225C129.716 89.2531 129.471 89.4984 129.328 89.6414L129.267 89.7027C129.134 89.8355 129.001 89.9684 128.858 90.1114C128.715 90.2545 128.807 90.1625 128.776 90.1932C128.589 90.3321 128.391 90.4552 128.184 90.561L128.071 90.6734L127.499 90.9391L127.376 91.0617C127.111 91.1639 126.845 91.266 126.549 91.358L126.304 91.4193C126.048 91.4909 125.793 91.5623 125.506 91.6236C125.22 91.685 124.761 91.777 124.362 91.828C123.964 91.8791 123.228 91.9813 122.615 92.0222L121.338 92.0733C121.317 92.0865 121.3 92.1039 121.287 92.1244L119.805 92.0937L119.325 92.063L118.272 91.9915L117.68 91.9302L116.709 91.8178L116.035 91.7156C115.677 91.6646 115.319 91.6135 114.962 91.542L114.625 91.4909C114.124 91.3989 113.644 91.3069 113.153 91.1843L112.918 91.1332L111.436 90.7756L111.232 90.7143C110.731 90.5814 110.231 90.4486 109.74 90.2851L109.536 90.2238C109.035 90.0705 108.555 89.9173 108.075 89.7436L107.86 89.6721L106.399 89.0896L106.195 89.0079C105.725 88.824 105.255 88.6196 104.774 88.3846L104.56 88.2927C104.1 88.0781 103.64 87.8635 103.191 87.6183L103.088 87.5161L101.893 86.8724L101.648 86.7293C101.205 86.4773 100.783 86.2184 100.381 85.9528L82.7753 74.335L77.1044 93.7183L94.7098 105.336L94.8018 105.428C95.0675 105.694 95.4762 105.857 95.8236 106.062L95.9462 106.184L96.1404 106.378L96.6614 106.675L97.3256 107.032L97.4278 107.134L97.4789 107.185L98.327 107.604L98.7766 107.809L98.9912 107.901L99.124 108.034L99.9414 108.401L100.33 108.544L100.473 108.688L100.728 108.779L101.556 109.096L101.913 109.229L102.128 109.301L102.383 109.393L103.211 109.668L103.579 109.791L103.783 109.852L104.049 109.934L104.897 110.169L105.275 110.282L105.49 110.333L105.745 110.404L106.603 110.608C106.724 110.645 106.847 110.673 106.971 110.69L107.206 110.741L107.503 110.813L108.453 111.007L108.678 111.048L109.005 111.109L109.577 111.211L110.088 111.273C110.313 111.313 110.537 111.354 110.762 111.375L111.099 111.426L111.733 111.487L112.642 111.314L113.695 111.385L114.175 111.416L115.656 111.446C115.656 111.446 115.657 111.446 115.708 111.497L116.913 111.457C117.526 111.416 118.099 111.354 118.661 111.262L118.793 111.252C119.134 111.205 119.471 111.14 119.805 111.058C119.864 111.054 119.922 111.043 119.979 111.027C120.193 110.976 120.398 110.915 120.602 110.854L120.847 110.792C121.092 110.711 121.327 110.639 121.562 110.547C121.797 110.455 121.562 110.547 121.613 110.496L121.797 110.414L122.114 110.282L122.37 110.149L122.482 110.036L122.564 109.955C122.676 109.842 122.86 109.781 122.993 109.689L123.136 109.546C123.136 109.546 123.187 109.495 123.218 109.464C123.287 109.404 123.352 109.34 123.412 109.27C123.483 109.198 123.555 109.127 123.626 109.055L123.872 109.178Z" fill="#07001C"/>
<path d="M82.5923 74.3349L65.3956 78.1462C65.0277 78.2279 64.6394 78.2892 64.2409 78.3608C63.8424 78.4323 63.1067 78.4936 62.4937 78.5344C61.8806 78.5753 61.6558 78.5753 61.2165 78.5856L61.1143 78.5856C60.634 78.5958 60.1334 78.5856 59.6327 78.5549L59.1423 78.5345L58.1 78.4527L57.5073 78.3914L56.5469 78.2892L55.8623 78.1973L54.7997 78.0134L54.442 77.9623L52.9911 77.6558L52.7561 77.6046C52.2554 77.4923 51.7547 77.3798 51.2642 77.2368L51.0496 77.1857L49.5681 76.7667L49.3535 76.6953L47.8515 76.1537L47.6369 76.0822L46.2268 75.5508L46.0225 75.4691L44.6124 74.8356L44.3979 74.7437C43.938 74.5291 43.4782 74.3145 43.0287 74.0693L42.9264 73.9671L41.7514 73.3233L41.496 73.1701L40.229 72.3935C39.7692 72.0972 39.3604 71.7907 38.9619 71.4944L38.4613 71.0959L37.8278 70.4624L36.806 69.4406C36.6834 69.318 36.5505 69.1851 36.4279 69.0625C36.2723 68.8887 36.1289 68.7043 35.9987 68.5107L35.7228 68.1122L35.4163 67.5605L35.2324 67.1722C35.1588 66.995 35.0939 66.8142 35.0382 66.6306L34.9361 66.2832L34.8748 65.711L34.8543 65.4249C34.8602 65.1524 34.8979 64.8815 34.9667 64.6177L29.5206 84.0419C29.4518 84.3056 29.4141 84.5766 29.4082 84.8491C29.3571 84.9002 29.4286 85.033 29.4286 85.1352L29.49 85.7074L29.5921 86.0548C29.6478 86.2384 29.7126 86.4192 29.7863 86.5963L29.9702 86.9847L30.2767 87.5364L30.5526 87.9349L30.9715 88.4969L31.3496 88.8749L32.3714 89.8967L33.0049 90.5302L33.4545 90.9798L33.6078 91.1331C33.9041 91.4294 34.3026 91.644 34.7011 91.8994L34.7828 91.9812L35.8046 92.6147L35.9272 92.7373L36.1724 92.8804L36.6936 93.1767L37.3577 93.5343L37.4599 93.6365L38.3182 94.0656L38.7576 94.2598L38.9619 94.362L39.1049 94.505L39.9224 94.8524L40.3005 95.0057L40.5048 95.0874L40.75 95.1896L41.5777 95.5063L41.9455 95.6289L42.1499 95.7107L42.4155 95.7924L43.2535 96.0786L43.6111 96.191L43.8154 96.2523L44.0811 96.334L44.9291 96.5894L45.3072 96.6814L45.5116 96.7427L45.7772 96.804L46.6458 97.0186L47.2486 97.0084L47.4836 97.0595L47.7902 97.1208L48.72 97.3149L48.9448 97.3558L49.2922 97.4171L49.8542 97.5091L50.3548 97.5806L51.0394 97.6725C51.1501 97.6995 51.2629 97.7166 51.3766 97.7236L52.0102 97.785L52.6028 97.8463C52.9502 97.8871 53.2976 97.9076 53.645 97.928L54.1355 97.9484C54.6362 97.9791 55.1368 97.9893 55.6171 97.9791C56.0258 97.9791 56.4243 97.9689 56.8228 97.9382C57.4256 97.9076 58.008 97.836 58.57 97.7645C58.57 97.7645 58.57 97.7645 58.7029 97.7339C59.0503 97.693 59.3874 97.6214 59.7246 97.5499L77.1052 93.7182L82.5923 74.3349Z" fill="#07001C"/>
<path d="M124.414 53.8475C131.444 58.4864 131.556 63.4829 124.7 65.0054L107.473 68.8269L125.099 80.4651C132.118 85.0938 132.241 90.1005 125.375 91.6128C118.508 93.125 107.248 90.6114 100.218 85.9725L82.6127 74.3547L65.416 78.166C58.5394 79.6885 47.2793 77.1544 40.2596 72.5257C33.2399 67.8971 33.0969 62.8903 39.9735 61.3679L57.1702 57.5566L39.5648 45.9184C32.5451 41.2897 32.4123 36.2932 39.2889 34.7708C46.1656 33.2483 57.4154 35.7721 64.4453 40.411L81.9894 52.0492L99.2167 48.2277C106.114 46.6848 117.384 49.2086 124.414 53.8475Z" fill="#07001C"/>
</g>
<defs>
<filter id="filter0_d" x="0.732422" y="6.32739" width="171.713" height="147.17" filterUnits="userSpaceOnUse" color-interpolation-filters="sRGB">
<feFlood flood-opacity="0" result="BackgroundImageFix"/>
<feColorMatrix in="SourceAlpha" type="matrix" values="0 0 0 0 0 0 0 0 0 0 0 0 0 0 0 0 0 0 127 0" result="hardAlpha"/>
<feOffset dx="7" dy="7"/>
<feGaussianBlur stdDeviation="17.5"/>
<feColorMatrix type="matrix" values="0 0 0 0 1 0 0 0 0 0.137255 0 0 0 0 0.654902 0 0 0 0.5 0"/>
<feBlend mode="normal" in2="BackgroundImageFix" result="effect1_dropShadow"/>
<feBlend mode="normal" in="SourceGraphic" in2="effect1_dropShadow" result="shape"/>
</filter>
</defs>
</svg>
