<svg width="169" height="163" viewBox="0 0 169 163" fill="none" xmlns="http://www.w3.org/2000/svg">
<g filter="url(#filter0_d)">
<path d="M98.7533 46.3457C98.7049 46.2511 98.6518 46.159 98.594 46.0699C98.594 46.0699 98.561 46.0128 98.5501 45.9938C98.5391 45.9748 98.5171 45.9367 98.5006 45.9082C98.4842 45.8797 98.4622 45.8416 98.4457 45.8131C98.3779 45.7366 98.3062 45.6637 98.2309 45.5947C98.1665 45.5359 98.0975 45.4824 98.0245 45.4349C97.9778 45.3961 97.928 45.3612 97.8755 45.3306L84.6151 37.4759C84.7387 37.5507 84.8558 37.6359 84.965 37.7305C85.0716 37.8261 85.1701 37.9305 85.2593 38.0425C85.2593 38.0425 85.2593 38.0425 85.3032 38.1186C85.3925 38.2399 85.468 38.3707 85.5284 38.5086L85.5613 38.5657C85.6327 38.6893 85.7096 38.8225 85.781 38.9461C85.7915 38.9737 85.8063 38.9994 85.8249 39.0222C85.9073 39.1649 85.9286 39.3555 85.9784 39.5297C86.0282 39.7039 86.0169 39.5963 86.0388 39.6343C86.0765 39.7933 86.1058 39.9542 86.1268 40.1162C86.1453 40.152 86.1654 40.1869 86.1872 40.2208C86.2179 40.4416 86.2362 40.6639 86.2419 40.8868C86.2496 40.9455 86.2499 41.005 86.2427 41.0639C86.2505 41.275 86.2527 41.4766 86.2414 41.6987L85.6581 55.0984L98.8475 62.9179L99.4309 49.5183L99.433 49.3902C99.4417 49.2076 99.4424 49.0551 99.4376 48.893C99.4404 48.8307 99.4383 48.7683 99.4313 48.7063C99.4281 48.5147 99.4149 48.3233 99.392 48.133L99.3645 48.0854L99.2986 47.9713L99.2579 47.7031L99.2107 47.4894C99.2107 47.4894 99.1722 47.4228 99.1503 47.3848C99.132 47.3662 99.1188 47.3433 99.1118 47.3182C99.0459 47.2041 99.0371 47.0569 98.9957 46.9413C98.9823 46.9284 98.9727 46.9119 98.9683 46.8938C98.951 46.8745 98.9379 46.8518 98.9298 46.8272L98.82 46.637C98.7815 46.5704 98.7431 46.5038 98.7047 46.4372L98.7533 46.3457Z" fill="#07001C"/>
<path d="M67.3716 89.9172L55.3637 100.553C55.0557 100.832 54.7503 101.072 54.4543 101.307L54.0633 101.596L53.4831 101.931L52.5319 102.48C52.417 102.559 52.2962 102.629 52.1704 102.689C52.0151 102.766 51.8548 102.833 51.6905 102.89L51.3436 103.014L50.8782 103.13L50.557 103.189C50.4124 103.208 50.267 103.22 50.1212 103.225L49.8461 103.232C49.7001 103.223 49.5553 103.201 49.4139 103.164C49.3864 103.116 49.2653 103.148 49.1998 103.123C48.9994 103.069 48.8074 102.988 48.6293 102.881L61.8187 110.701C61.9968 110.807 62.1888 110.889 62.3892 110.942C62.4589 110.964 62.5306 110.977 62.6033 110.984C62.7447 111.02 62.8895 111.043 63.0354 111.051L63.3106 111.044L63.7519 111.018L64.0676 110.95C64.2257 110.924 64.3815 110.885 64.533 110.833L64.8798 110.709L65.3654 110.518L65.7268 110.309L66.678 109.76L67.2307 109.377L67.6493 109.136L67.792 109.053L68.5696 108.401L80.5555 97.7273L67.3716 89.9172Z" fill="#07001C"/>
<path d="M118.411 51.0903C118.363 50.9955 118.31 50.9035 118.252 50.8144C118.252 50.8144 118.219 50.7574 118.203 50.7288C118.186 50.7003 118.175 50.6813 118.159 50.6527C118.146 50.6183 118.127 50.5861 118.104 50.5576C118.036 50.4811 117.964 50.4082 117.889 50.3392L117.688 50.1889C117.638 50.1519 117.585 50.1189 117.53 50.0902L104.228 42.2084C104.355 42.2812 104.475 42.3645 104.588 42.4575C104.691 42.5552 104.787 42.6614 104.872 42.775C104.872 42.775 104.9 42.8226 104.916 42.8511C104.933 42.8796 105.065 43.1079 105.142 43.2411L105.174 43.2982C105.246 43.4218 105.317 43.5455 105.394 43.6786C105.471 43.8118 105.422 43.7262 105.438 43.7547C105.503 43.9193 105.555 44.089 105.592 44.2622L105.652 44.3668L105.734 44.8392L105.8 44.9533C105.823 45.1685 105.846 45.3836 105.855 45.6193L105.852 45.8113C105.854 46.013 105.856 46.2146 105.845 46.4367C105.834 46.6588 105.811 47.0145 105.77 47.3171C105.729 47.6197 105.659 48.1799 105.569 48.6381L105.355 49.5858C105.361 49.6034 105.37 49.6196 105.383 49.6334L105.069 50.7151L104.952 51.0617L104.692 51.8203L104.53 52.2433L104.257 52.9338L104.049 53.4089C103.941 53.6614 103.834 53.9139 103.711 54.1624L103.607 54.3999C103.441 54.7494 103.279 55.0839 103.092 55.4198L103.009 55.5823L102.455 56.5997L102.369 56.7377C102.173 57.0792 101.977 57.4206 101.761 57.7485L101.676 57.8865C101.465 58.2239 101.258 58.5463 101.036 58.8647L100.941 59.0082L100.226 59.9664L100.126 60.1004C99.8981 60.4093 99.6556 60.7141 99.3886 61.0205L99.2789 61.1599C99.0309 61.4553 98.7829 61.7506 98.5144 62.0325L98.4193 62.0874L97.7115 62.8384L97.5583 62.9904C97.2861 63.2658 97.013 63.525 96.7389 63.7678L84.746 74.4078L97.8612 82.3844L109.854 71.7444L109.94 71.695C110.187 71.5522 110.387 71.2843 110.606 71.0694L110.72 71.0035L110.901 70.8992L111.221 70.5749L111.614 70.1576L111.709 70.1027L111.757 70.0753L112.231 69.535L112.469 69.2451L112.579 69.1057L112.703 69.0343L113.134 68.5065L113.315 68.2496L113.448 68.1727L113.566 68.0033L113.961 67.458L114.129 67.2215L114.224 67.0781L114.342 66.9086L114.707 66.3552L114.87 66.1093L114.955 65.9713L115.067 65.7924L115.406 65.2159L115.563 64.9605L115.643 64.813L115.746 64.6395L116.065 64.0496C116.115 63.9686 116.16 63.8837 116.197 63.7956L116.281 63.6331L116.392 63.4296L116.721 62.7702L116.795 62.6132L116.905 62.3852L117.092 61.9852L117.238 61.6222C117.312 61.4652 117.386 61.3082 117.445 61.1472L117.549 60.9096L117.719 60.4566L117.77 59.7548L118.03 58.9962L118.147 58.6496L118.461 57.5679C118.461 57.5679 118.461 57.5679 118.508 57.5404L118.715 56.6472C118.806 56.1891 118.874 55.7569 118.917 55.3262L118.935 55.2267C118.968 54.9676 118.987 54.7069 118.992 54.4458C119 54.4018 119.004 54.357 119.003 54.3122C119.008 54.1447 119.003 53.9826 118.998 53.8205L119.002 53.6284C118.99 53.4322 118.984 53.2456 118.962 53.055C118.941 52.8644 118.962 53.055 118.935 53.0075L118.911 52.8564L118.876 52.5977L118.829 52.384L118.768 52.2794L118.724 52.2033C118.664 52.0986 118.655 51.9515 118.614 51.8359L118.537 51.7028C118.537 51.7028 118.509 51.6552 118.493 51.6267C118.463 51.5638 118.428 51.5034 118.389 51.4459C118.35 51.3793 118.312 51.3128 118.273 51.2462L118.411 51.0903Z" fill="#07001C"/>
<path d="M84.7096 74.5426L84.1248 87.9178C84.1125 88.2039 84.0811 88.501 84.0552 88.8077C84.0293 89.1143 83.9296 89.6665 83.839 90.1246C83.7484 90.5828 83.7042 90.7478 83.6253 91.0724L83.6052 91.1474C83.5182 91.502 83.4122 91.8676 83.2912 92.2291L83.1797 92.5852L82.9146 93.3343L82.753 93.7573L82.4891 94.4424L82.2869 94.9269L81.9428 95.6709L81.835 95.9234L81.3245 96.9284L81.2408 97.0909C81.0597 97.4363 80.8787 97.7818 80.6772 98.1138L80.5975 98.2612L79.9984 99.2666L79.9038 99.41L79.2107 100.406L79.1159 100.55L78.4485 101.48L78.3482 101.614L77.6057 102.525L77.496 102.664C77.248 102.96 77.0001 103.255 76.7316 103.537L76.6364 103.592L75.9326 104.328L75.7699 104.485L74.9505 105.263C74.6425 105.542 74.3371 105.782 74.0411 106.016L73.6501 106.305L73.0603 106.646L72.1092 107.195C71.995 107.261 71.8714 107.332 71.7572 107.398C71.599 107.478 71.4354 107.547 71.2677 107.605L70.9208 107.729L70.4554 107.845L70.1342 107.904C69.9896 107.923 69.8442 107.935 69.6984 107.94L69.4233 107.947L68.9911 107.879L68.777 107.838C68.5781 107.78 68.3866 107.699 68.2065 107.597L81.3959 115.416C81.576 115.519 81.7675 115.599 81.9664 115.657C81.9939 115.705 82.1054 115.679 82.1805 115.699L82.6127 115.766L82.8878 115.76C83.0336 115.755 83.179 115.743 83.3236 115.724L83.6449 115.665L84.1102 115.548L84.4571 115.424L84.9521 115.227L85.304 115.024L86.2552 114.475L86.8449 114.134L87.2634 113.893L87.4061 113.81C87.682 113.651 87.9179 113.401 88.1838 113.158L88.2599 113.115L88.926 112.489L89.0402 112.423L89.1934 112.271L89.5135 111.947L89.9067 111.53L90.0018 111.475L90.4858 110.929L90.7147 110.645L90.83 110.515L90.9631 110.438L91.379 109.906L91.5659 109.659L91.6661 109.525L91.7893 109.365L92.1847 108.819L92.3471 108.573L92.4473 108.44L92.5596 108.261L92.9345 107.702L93.0874 107.461L93.1726 107.323L93.2848 107.144L93.6392 106.572L93.7811 106.312L93.8663 106.174L93.9636 105.991L94.292 105.396L94.4031 104.951L94.4868 104.789L94.5921 104.576L94.9176 103.931L94.9918 103.774L95.1052 103.531L95.2832 103.137L95.4342 102.783L95.6364 102.299C95.678 102.223 95.7128 102.144 95.7403 102.061L95.9099 101.608L96.0715 101.185C96.1699 100.938 96.2532 100.687 96.3365 100.436L96.448 100.08C96.569 99.7186 96.675 99.3531 96.762 98.9985C96.8424 98.6984 96.9133 98.4038 96.9692 98.1052C97.0653 97.6566 97.1273 97.2149 97.1853 96.7883C97.1853 96.7883 97.1854 96.7883 97.189 96.6847C97.2273 96.4216 97.2411 96.16 97.255 95.8984L97.861 82.3842L84.7096 74.5426Z" fill="#07001C"/>
<path d="M77.8958 39.8074C82.6845 35.5588 86.3749 36.4593 86.1439 41.7924L85.5605 55.1921L97.5724 44.5411C102.352 40.298 106.052 41.1929 105.811 46.5315C105.571 51.8702 101.51 59.6426 96.7213 63.8912L84.7284 74.5312L84.1436 87.9064C83.9086 93.2545 79.8331 101.023 75.0538 105.266C70.2746 109.509 66.5707 108.629 66.8057 103.281L67.3905 89.9059L55.3827 100.542C50.6035 104.785 46.9091 103.9 47.1441 98.5514C47.3791 93.2033 51.4451 85.4404 56.2338 81.1918L68.2296 70.6008L68.8129 57.2011C69.037 51.834 73.107 44.056 77.8958 39.8074Z" fill="#07001C"/>
</g>
<defs>
<filter id="filter0_d" x="0.244141" y="0.547852" width="168.584" height="162.023" filterUnits="userSpaceOnUse" color-interpolation-filters="sRGB">
<feFlood flood-opacity="0" result="BackgroundImageFix"/>
<feColorMatrix in="SourceAlpha" type="matrix" values="0 0 0 0 0 0 0 0 0 0 0 0 0 0 0 0 0 0 127 0" result="hardAlpha"/>
<feOffset dx="7" dy="7"/>
<feGaussianBlur stdDeviation="17.5"/>
<feColorMatrix type="matrix" values="0 0 0 0 1 0 0 0 0 0.137255 0 0 0 0 0.654902 0 0 0 0.5 0"/>
<feBlend mode="normal" in2="BackgroundImageFix" result="effect1_dropShadow"/>
<feBlend mode="normal" in="SourceGraphic" in2="effect1_dropShadow" result="shape"/>
</filter>
</defs>
</svg>
