<svg width="252" height="98" viewBox="0 0 252 98" fill="none" xmlns="http://www.w3.org/2000/svg">
<g filter="url(#filter0_d)">
<path fill-rule="evenodd" clip-rule="evenodd" d="M15 15.4341H202.47L227 37.2153V72.4341H38.3272L15 49.8225V15.4341Z" fill="url(#paint0_linear)"/>
</g>
<path d="M117.851 48.4341H115.133L120.533 35.7621H123.017L128.417 48.4341H125.663L124.421 45.5181H119.093L117.851 48.4341ZM121.757 39.0021L119.903 43.3761H123.593L121.757 39.0021ZM135.883 45.1761V39.4521H138.421V48.4341H135.883V47.3541C135.079 48.2301 134.077 48.6681 132.877 48.6681C131.845 48.6681 131.041 48.3441 130.465 47.6961C129.889 47.0361 129.601 46.1241 129.601 44.9601V39.4521H132.139V44.4381C132.139 45.0861 132.295 45.5661 132.607 45.8781C132.931 46.1901 133.345 46.3461 133.849 46.3461C134.233 46.3461 134.611 46.2381 134.983 46.0221C135.367 45.7941 135.667 45.5121 135.883 45.1761ZM144.543 48.6681C143.331 48.6681 142.317 48.2181 141.501 47.3181C140.709 46.4061 140.313 45.2781 140.313 43.9341C140.313 42.6021 140.709 41.4861 141.501 40.5861C142.305 39.6741 143.319 39.2181 144.543 39.2181C145.803 39.2181 146.787 39.6621 147.495 40.5501V35.8341H150.033V48.4341H147.495V47.3361C146.823 48.2241 145.839 48.6681 144.543 48.6681ZM145.263 46.4541C145.743 46.4541 146.181 46.3281 146.577 46.0761C146.973 45.8241 147.279 45.5001 147.495 45.1041V42.7641C147.279 42.3681 146.973 42.0501 146.577 41.8101C146.181 41.5581 145.743 41.4321 145.263 41.4321C144.543 41.4321 143.961 41.6721 143.517 42.1521C143.061 42.6441 142.833 43.2381 142.833 43.9341C142.833 44.6421 143.061 45.2421 143.517 45.7341C143.961 46.2141 144.543 46.4541 145.263 46.4541ZM155.173 48.4341H152.635V39.4521H155.173V48.4341ZM152.383 37.0761C152.383 36.6441 152.527 36.2841 152.815 35.9961C153.115 35.6961 153.475 35.5461 153.895 35.5461C154.315 35.5461 154.669 35.6961 154.957 35.9961C155.257 36.2841 155.407 36.6441 155.407 37.0761C155.407 37.4961 155.257 37.8561 154.957 38.1561C154.669 38.4441 154.315 38.5881 153.895 38.5881C153.475 38.5881 153.115 38.4441 152.815 38.1561C152.527 37.8561 152.383 37.4961 152.383 37.0761ZM158.628 45.6441V41.5761H156.864V39.4521H158.628V36.9861H161.166V39.4521H163.722V41.5761H161.166V45.1401C161.166 45.5841 161.262 45.9081 161.454 46.1121C161.646 46.3041 161.958 46.4001 162.39 46.4001C162.834 46.4001 163.272 46.2921 163.704 46.0761V48.1821C163.176 48.5061 162.462 48.6681 161.562 48.6681C159.606 48.6681 158.628 47.6601 158.628 45.6441Z" fill="white"/>
<g clip-path="url(#clip0)">
<path d="M100.45 43.6452C100.052 43.6452 99.7335 43.9635 99.7335 44.3614V50.8767C99.7335 52.6488 98.2904 54.0866 96.5236 54.0866H80.8084C79.0363 54.0866 77.5985 52.6435 77.5985 50.8767V44.2553C77.5985 43.8574 77.2802 43.5391 76.8823 43.5391C76.4844 43.5391 76.166 43.8574 76.166 44.2553V50.8767C76.166 53.4393 78.2511 55.5191 80.8084 55.5191H96.5236C99.0862 55.5191 101.166 53.434 101.166 50.8767V44.3614C101.166 43.9688 100.848 43.6452 100.45 43.6452Z" fill="white"/>
<path d="M88.161 49.8313C88.2989 49.9693 88.4846 50.0436 88.665 50.0436C88.8454 50.0436 89.0311 49.9746 89.1691 49.8313L93.7213 45.2791C94.0025 44.9979 94.0025 44.5469 93.7213 44.2657C93.4401 43.9846 92.9891 43.9846 92.7079 44.2657L89.3813 47.5977V33.0656C89.3813 32.6677 89.0629 32.3494 88.665 32.3494C88.2671 32.3494 87.9488 32.6677 87.9488 33.0656V47.5977L84.6168 44.2657C84.3356 43.9846 83.8847 43.9846 83.6035 44.2657C83.3223 44.5469 83.3223 44.9979 83.6035 45.2791L88.161 49.8313Z" fill="white"/>
</g>
<defs>
<filter id="filter0_d" x="0" y="0.434082" width="252" height="97" filterUnits="userSpaceOnUse" color-interpolation-filters="sRGB">
<feFlood flood-opacity="0" result="BackgroundImageFix"/>
<feColorMatrix in="SourceAlpha" type="matrix" values="0 0 0 0 0 0 0 0 0 0 0 0 0 0 0 0 0 0 127 0" result="hardAlpha"/>
<feOffset dx="5" dy="5"/>
<feGaussianBlur stdDeviation="10"/>
<feComposite in2="hardAlpha" operator="out"/>
<feColorMatrix type="matrix" values="0 0 0 0 0.231373 0 0 0 0 0.487372 0 0 0 0 0.984314 0 0 0 0.3 0"/>
<feBlend mode="normal" in2="BackgroundImageFix" result="effect1_dropShadow"/>
<feBlend mode="normal" in="SourceGraphic" in2="effect1_dropShadow" result="shape"/>
</filter>
<linearGradient id="paint0_linear" x1="199.698" y1="7.60781" x2="27.9654" y2="62.9689" gradientUnits="userSpaceOnUse">
<stop stop-color="#D73898"/>
<stop offset="1" stop-color="#056ECF"/>
</linearGradient>
<clipPath id="clip0">
<rect width="25" height="25" fill="white" transform="translate(76.166 31.4341)"/>
</clipPath>
</defs>
</svg>
