<svg width="252" height="98" viewBox="0 0 252 98" fill="none" xmlns="http://www.w3.org/2000/svg">
<g filter="url(#filter0_d)">
<path fill-rule="evenodd" clip-rule="evenodd" d="M15 15.4341H202.47L227 37.2153V72.4341H38.3272L15 49.8225V15.4341Z" fill="url(#paint0_linear)"/>
</g>
<path d="M95.8999 48.4341H91.1839V35.8341H95.8999C97.9399 35.8341 99.6019 36.4221 100.886 37.5981C102.17 38.7741 102.812 40.2861 102.812 42.1341C102.812 43.9941 102.17 45.5121 100.886 46.6881C99.6139 47.8521 97.9519 48.4341 95.8999 48.4341ZM93.7759 38.1561V46.1121H95.6839C97.0879 46.1121 98.1799 45.7641 98.9599 45.0681C99.7519 44.3601 100.148 43.3821 100.148 42.1341C100.148 40.8861 99.7519 39.9141 98.9599 39.2181C98.1799 38.5101 97.0879 38.1561 95.6839 38.1561H93.7759ZM104.156 39.4521H107L108.8 41.9721L110.618 39.4521H113.426L110.276 43.7361L113.696 48.4341H110.852L108.764 45.5541L106.658 48.4341H103.85L107.288 43.7541L104.156 39.4521ZM119.565 48.6861C117.669 48.6861 116.073 48.2361 114.777 47.3361V44.6361C115.305 45.0921 116.001 45.4881 116.865 45.8241C117.741 46.1481 118.605 46.3101 119.457 46.3101C120.165 46.3101 120.747 46.1841 121.203 45.9321C121.659 45.6681 121.887 45.3081 121.887 44.8521C121.887 44.3601 121.671 44.0121 121.239 43.8081C121.059 43.7001 120.819 43.5921 120.519 43.4841L120.087 43.3401L119.079 43.0341L118.143 42.7281C118.011 42.6921 117.729 42.5901 117.297 42.4221C116.925 42.2781 116.655 42.1521 116.487 42.0441C115.863 41.6121 115.467 41.2461 115.299 40.9461C115.011 40.3701 114.867 39.7821 114.867 39.1821C114.867 38.0661 115.293 37.1901 116.145 36.5541C116.997 35.9061 118.155 35.5821 119.619 35.5821C121.095 35.5821 122.469 35.9301 123.741 36.6261V39.1461C122.457 38.3541 121.095 37.9581 119.655 37.9581C118.227 37.9581 117.513 38.3721 117.513 39.2001C117.513 39.5601 117.735 39.8481 118.179 40.0641C118.443 40.2081 118.785 40.3341 119.205 40.4421C119.769 40.5981 120.225 40.7301 120.573 40.8381C121.617 41.1621 122.529 41.6001 123.309 42.1521C124.149 42.7401 124.569 43.6161 124.569 44.7801C124.569 45.9921 124.095 46.9461 123.147 47.6421C122.199 48.3381 121.005 48.6861 119.565 48.6861ZM135.115 46.4721C135.331 46.4721 135.505 46.4361 135.637 46.3641V48.2181C135.313 48.4701 134.857 48.5961 134.269 48.5961C133.249 48.5961 132.571 48.2121 132.235 47.4441C131.443 48.2601 130.411 48.6681 129.139 48.6681C128.155 48.6681 127.357 48.3921 126.745 47.8401C126.133 47.2881 125.827 46.5621 125.827 45.6621C125.827 44.7021 126.175 43.9701 126.871 43.4661C127.567 42.9621 128.401 42.7101 129.373 42.7101C130.393 42.7101 131.257 42.8961 131.965 43.2681V42.9981C131.965 41.8701 131.173 41.3061 129.589 41.3061C128.617 41.3061 127.711 41.5581 126.871 42.0621V39.9381C127.783 39.4581 128.893 39.2181 130.201 39.2181C131.497 39.2181 132.529 39.5301 133.297 40.1541C134.089 40.7781 134.485 41.6421 134.485 42.7461V45.7881C134.485 46.2441 134.695 46.4721 135.115 46.4721ZM131.965 45.7881V44.8881C131.437 44.5401 130.813 44.3661 130.093 44.3661C129.553 44.3661 129.121 44.4681 128.797 44.6721C128.485 44.8761 128.329 45.1641 128.329 45.5361C128.329 45.9201 128.473 46.2141 128.761 46.4181C129.049 46.6101 129.439 46.7061 129.931 46.7061C130.819 46.7061 131.497 46.4001 131.965 45.7881ZM139.787 48.6681C139.043 48.6681 138.455 48.4701 138.023 48.0741C137.603 47.6661 137.393 47.0361 137.393 46.1841V35.8341H139.931V45.5181C139.931 46.1181 140.201 46.4181 140.741 46.4181C140.993 46.4181 141.209 46.3641 141.389 46.2561V48.3441C140.957 48.5601 140.423 48.6681 139.787 48.6681ZM147.516 48.6681C146.112 48.6681 144.93 48.2361 143.97 47.3721C143.01 46.5081 142.53 45.3621 142.53 43.9341C142.53 42.6021 142.962 41.4861 143.826 40.5861C144.69 39.6741 145.818 39.2181 147.21 39.2181C148.506 39.2181 149.544 39.6801 150.324 40.6041C151.104 41.5281 151.494 42.6501 151.494 43.9701V44.6361H145.05C145.182 45.2361 145.512 45.6981 146.04 46.0221C146.58 46.3461 147.252 46.5081 148.056 46.5081C149.052 46.5081 150.012 46.2441 150.936 45.7161V47.7501C150.132 48.3621 148.992 48.6681 147.516 48.6681ZM145.05 43.0161H148.992C148.968 42.5001 148.782 42.0741 148.434 41.7381C148.098 41.3901 147.654 41.2161 147.102 41.2161C146.538 41.2161 146.07 41.3841 145.698 41.7201C145.326 42.0441 145.11 42.4761 145.05 43.0161Z" fill="white"/>
<defs>
<filter id="filter0_d" x="0" y="0.434082" width="252" height="97" filterUnits="userSpaceOnUse" color-interpolation-filters="sRGB">
<feFlood flood-opacity="0" result="BackgroundImageFix"/>
<feColorMatrix in="SourceAlpha" type="matrix" values="0 0 0 0 0 0 0 0 0 0 0 0 0 0 0 0 0 0 127 0" result="hardAlpha"/>
<feOffset dx="5" dy="5"/>
<feGaussianBlur stdDeviation="10"/>
<feComposite in2="hardAlpha" operator="out"/>
<feColorMatrix type="matrix" values="0 0 0 0 0.231373 0 0 0 0 0.487372 0 0 0 0 0.984314 0 0 0 0.3 0"/>
<feBlend mode="normal" in2="BackgroundImageFix" result="effect1_dropShadow"/>
<feBlend mode="normal" in="SourceGraphic" in2="effect1_dropShadow" result="shape"/>
</filter>
<linearGradient id="paint0_linear" x1="199.698" y1="7.60781" x2="27.9654" y2="62.9689" gradientUnits="userSpaceOnUse">
<stop stop-color="#D73898"/>
<stop offset="1" stop-color="#056ECF"/>
</linearGradient>
</defs>
</svg>
