<svg width="252" height="98" viewBox="0 0 252 98" fill="none" xmlns="http://www.w3.org/2000/svg">
<g filter="url(#filter0_d)">
<path fill-rule="evenodd" clip-rule="evenodd" d="M15 15.4341H202.47L227 37.2153V72.4341H38.3272L15 49.8225V15.4341Z" fill="url(#paint0_linear)"/>
</g>
<path d="M100.027 48.6861C98.7193 48.6861 97.7113 48.4401 97.0033 47.9481V45.3921C97.7233 45.9681 98.5513 46.2561 99.4873 46.2561C100.303 46.2561 100.903 46.0701 101.287 45.6981C101.683 45.3141 101.881 44.7021 101.881 43.8621V35.8341H104.455V44.2941C104.455 45.0981 104.335 45.7941 104.095 46.3821C103.867 46.9701 103.543 47.4261 103.123 47.7501C102.703 48.0741 102.235 48.3081 101.719 48.4521C101.215 48.6081 100.651 48.6861 100.027 48.6861ZM108.825 43.9341C108.825 44.6541 109.059 45.2541 109.527 45.7341C109.995 46.2141 110.589 46.4541 111.309 46.4541C112.029 46.4541 112.623 46.2141 113.091 45.7341C113.559 45.2421 113.793 44.6421 113.793 43.9341C113.793 43.2141 113.559 42.6201 113.091 42.1521C112.623 41.6721 112.029 41.4321 111.309 41.4321C110.589 41.4321 109.995 41.6721 109.527 42.1521C109.059 42.6201 108.825 43.2141 108.825 43.9341ZM106.323 43.9341C106.323 42.6021 106.791 41.4861 107.727 40.5861C108.651 39.6741 109.845 39.2181 111.309 39.2181C112.773 39.2181 113.967 39.6741 114.891 40.5861C115.827 41.4981 116.295 42.6141 116.295 43.9341C116.295 45.2781 115.827 46.4061 114.891 47.3181C113.955 48.2181 112.761 48.6681 111.309 48.6681C109.857 48.6681 108.663 48.2181 107.727 47.3181C106.791 46.4061 106.323 45.2781 106.323 43.9341ZM120.831 48.4341H118.293V39.4521H120.831V48.4341ZM118.041 37.0761C118.041 36.6441 118.185 36.2841 118.473 35.9961C118.773 35.6961 119.133 35.5461 119.553 35.5461C119.973 35.5461 120.327 35.6961 120.615 35.9961C120.915 36.2841 121.065 36.6441 121.065 37.0761C121.065 37.4961 120.915 37.8561 120.615 38.1561C120.327 38.4441 119.973 38.5881 119.553 38.5881C119.133 38.5881 118.773 38.4441 118.473 38.1561C118.185 37.8561 118.041 37.4961 118.041 37.0761ZM125.979 42.7101V48.4341H123.441V39.4521H125.979V40.5321C126.783 39.6561 127.785 39.2181 128.985 39.2181C130.017 39.2181 130.821 39.5481 131.397 40.2081C131.973 40.8561 132.261 41.7621 132.261 42.9261V48.4341H129.723V43.4481C129.723 42.8001 129.561 42.3201 129.237 42.0081C128.925 41.6961 128.517 41.5401 128.013 41.5401C127.629 41.5401 127.245 41.6541 126.861 41.8821C126.489 42.0981 126.195 42.3741 125.979 42.7101ZM141.855 48.4341H139.317V35.8341H141.531L147.885 43.8981V35.8341H150.405V48.4341H148.263L141.855 40.3341V48.4341ZM154.968 43.9341C154.968 44.6541 155.202 45.2541 155.67 45.7341C156.138 46.2141 156.732 46.4541 157.452 46.4541C158.172 46.4541 158.766 46.2141 159.234 45.7341C159.702 45.2421 159.936 44.6421 159.936 43.9341C159.936 43.2141 159.702 42.6201 159.234 42.1521C158.766 41.6721 158.172 41.4321 157.452 41.4321C156.732 41.4321 156.138 41.6721 155.67 42.1521C155.202 42.6201 154.968 43.2141 154.968 43.9341ZM152.466 43.9341C152.466 42.6021 152.934 41.4861 153.87 40.5861C154.794 39.6741 155.988 39.2181 157.452 39.2181C158.916 39.2181 160.11 39.6741 161.034 40.5861C161.97 41.4981 162.438 42.6141 162.438 43.9341C162.438 45.2781 161.97 46.4061 161.034 47.3181C160.098 48.2181 158.904 48.6681 157.452 48.6681C156 48.6681 154.806 48.2181 153.87 47.3181C152.934 46.4061 152.466 45.2781 152.466 43.9341ZM168.436 48.5061H166.276L163.234 39.4521H165.772L167.554 44.7981L169.318 39.4161H171.352L173.17 44.7981L174.916 39.4521H177.436L174.358 48.5061H172.162L170.29 43.0881L168.436 48.5061Z" fill="white"/>
<path fill-rule="evenodd" clip-rule="evenodd" d="M67.6698 46.0067C67.7151 46.022 67.7608 46.0328 67.8064 46.0394C67.8562 46.1565 67.9206 46.3078 67.9956 46.4848C68.1788 46.9168 68.4256 47.5011 68.6803 48.1105C69.1998 49.3535 69.7238 50.6348 69.8396 51.0016C69.9828 51.455 70.1343 51.7632 70.2996 51.9737C70.3851 52.0825 70.484 52.1775 70.5996 52.2495C70.6579 52.2857 70.7194 52.3153 70.7836 52.3375C70.7864 52.3385 70.7893 52.3395 70.7921 52.3404C71.1231 52.4653 71.4249 52.4133 71.6139 52.3497C71.7149 52.3156 71.7967 52.2745 71.8547 52.2412C71.8843 52.2241 71.9093 52.2083 71.9292 52.1948L71.9339 52.1917L74.8572 50.3687L78.2339 52.9575C78.2838 52.9957 78.3381 53.0277 78.3957 53.0529C78.8014 53.2298 79.1942 53.2916 79.5637 53.2411C79.9326 53.1907 80.2255 53.0358 80.4436 52.8613C80.6571 52.6905 80.8018 52.4992 80.892 52.357C80.938 52.2844 80.9725 52.2202 80.9969 52.1711C81.0092 52.1463 81.019 52.125 81.0265 52.108L81.0364 52.0854L81.04 52.0765L81.0415 52.0728L81.0423 52.071L81.0429 52.0694C81.0607 52.025 81.0742 51.9791 81.0835 51.9322L84.1663 36.3903C84.1761 36.3406 84.1811 36.29 84.1811 36.2394C84.1811 35.7842 84.0096 35.3515 83.6064 35.0888C83.2617 34.8644 82.8778 34.8547 82.6351 34.8731C82.3734 34.893 82.1317 34.9576 81.9694 35.0092C81.885 35.0361 81.8142 35.062 81.7632 35.0818C81.7376 35.0918 81.7165 35.1003 81.7008 35.1068L81.6891 35.1117L64.4009 41.8936L64.3986 41.8945C64.3876 41.8985 64.3735 41.9038 64.3567 41.9103C64.3232 41.9233 64.2783 41.9416 64.226 41.9654C64.1238 42.0118 63.9804 42.0841 63.8333 42.1848C63.5983 42.3458 63.0579 42.7865 63.1489 43.514C63.2215 44.0944 63.6191 44.4508 63.8613 44.6222C63.9943 44.7163 64.1207 44.7836 64.2127 44.8274C64.2554 44.8477 64.3441 44.8837 64.3825 44.8994L64.3922 44.9034L67.6698 46.0067ZM82.2938 36.5403L82.2913 36.5413C82.2827 36.5451 82.2741 36.5486 82.2654 36.5521L64.9561 43.3422C64.9471 43.3457 64.938 43.3492 64.9288 43.3524L64.9192 43.356C64.9081 43.3603 64.8895 43.3679 64.8661 43.3784C64.8528 43.3844 64.839 43.391 64.8249 43.3981C64.8443 43.409 64.8628 43.4185 64.8793 43.4263C64.8951 43.4339 64.9072 43.439 64.9138 43.4417L68.1645 44.5361C68.224 44.5562 68.2794 44.5826 68.3304 44.6147L79.0638 38.3314L79.0738 38.3255C79.0817 38.3208 79.0919 38.3149 79.1042 38.3079C79.1286 38.2941 79.1623 38.2757 79.2022 38.2554C79.2767 38.2175 79.3958 38.1612 79.5301 38.1197C79.6236 38.0908 79.8992 38.0094 80.1972 38.105C80.3812 38.164 80.5716 38.2908 80.6954 38.5057C80.7569 38.6124 80.7897 38.7196 80.8056 38.8178C80.8478 38.9724 80.8411 39.1251 80.8081 39.2569C80.737 39.5409 80.5374 39.7623 80.3559 39.9317C80.2005 40.077 78.1882 42.0173 76.2031 43.9327C75.2131 44.8879 74.2333 45.8337 73.5009 46.5406L73.0198 47.005L79.0937 51.6616C79.2329 51.7114 79.3152 51.7089 79.3534 51.7037C79.3988 51.6975 79.4359 51.68 79.4739 51.6497C79.5163 51.6158 79.5535 51.5698 79.5812 51.5261L79.5823 51.5243L82.5722 36.4504C82.5278 36.4611 82.4829 36.4738 82.4397 36.4876C82.3906 36.5031 82.3503 36.518 82.3235 36.5284C82.3103 36.5335 82.3007 36.5374 82.2956 36.5396L82.2938 36.5403ZM73.5423 49.3602L72.3306 48.4311L72.0369 50.2989L73.5423 49.3602ZM71.2188 46.5879L72.4239 45.4246C73.1563 44.7176 74.1363 43.7717 75.1263 42.8164L76.1322 41.8459L69.3881 45.7939L69.4243 45.8793C69.6081 46.3128 69.856 46.8996 70.1121 47.5123C70.3036 47.9705 70.5038 48.4529 70.6862 48.8995L70.9789 47.0373C71.0072 46.8577 71.0949 46.7023 71.2188 46.5879Z" fill="white"/>
<defs>
<filter id="filter0_d" x="0" y="0.434082" width="252" height="97" filterUnits="userSpaceOnUse" color-interpolation-filters="sRGB">
<feFlood flood-opacity="0" result="BackgroundImageFix"/>
<feColorMatrix in="SourceAlpha" type="matrix" values="0 0 0 0 0 0 0 0 0 0 0 0 0 0 0 0 0 0 127 0" result="hardAlpha"/>
<feOffset dx="5" dy="5"/>
<feGaussianBlur stdDeviation="10"/>
<feComposite in2="hardAlpha" operator="out"/>
<feColorMatrix type="matrix" values="0 0 0 0 0.231373 0 0 0 0 0.487372 0 0 0 0 0.984314 0 0 0 0.3 0"/>
<feBlend mode="normal" in2="BackgroundImageFix" result="effect1_dropShadow"/>
<feBlend mode="normal" in="SourceGraphic" in2="effect1_dropShadow" result="shape"/>
</filter>
<linearGradient id="paint0_linear" x1="199.698" y1="7.60781" x2="27.9654" y2="62.9689" gradientUnits="userSpaceOnUse">
<stop stop-color="#D73898"/>
<stop offset="1" stop-color="#056ECF"/>
</linearGradient>
</defs>
</svg>
