<svg width="252" height="98" viewBox="0 0 252 98" fill="none" xmlns="http://www.w3.org/2000/svg">
<g filter="url(#filter0_d)">
<path fill-rule="evenodd" clip-rule="evenodd" d="M15 15.4341H202.47L227 37.2153V72.4341H38.3272L15 49.8225V15.4341Z" fill="url(#paint0_linear)"/>
</g>
<path d="M92.1519 48.5061H89.8659L85.6359 35.8341H88.5159L91.1079 44.3301L93.9519 35.7981H95.9679L98.8299 44.3301L101.422 35.8341H104.248L99.9999 48.5061H97.7139L94.9599 40.1001L92.1519 48.5061ZM108.391 42.7101V48.4341H105.853V35.8341H108.391V40.5501C109.207 39.6621 110.209 39.2181 111.397 39.2181C112.429 39.2181 113.233 39.5481 113.809 40.2081C114.385 40.8561 114.673 41.7621 114.673 42.9261V48.4341H112.135V43.4481C112.135 42.8001 111.973 42.3201 111.649 42.0081C111.337 41.6961 110.929 41.5401 110.425 41.5401C110.041 41.5401 109.657 41.6541 109.273 41.8821C108.901 42.0981 108.607 42.3741 108.391 42.7101ZM119.644 48.4341H117.106V39.4521H119.644V48.4341ZM116.854 37.0761C116.854 36.6441 116.998 36.2841 117.286 35.9961C117.586 35.6961 117.946 35.5461 118.366 35.5461C118.786 35.5461 119.14 35.6961 119.428 35.9961C119.728 36.2841 119.878 36.6441 119.878 37.0761C119.878 37.4961 119.728 37.8561 119.428 38.1561C119.14 38.4441 118.786 38.5881 118.366 38.5881C117.946 38.5881 117.586 38.4441 117.286 38.1561C116.998 37.8561 116.854 37.4961 116.854 37.0761ZM123.1 45.6441V41.5761H121.336V39.4521H123.1V36.9861H125.638V39.4521H128.194V41.5761H125.638V45.1401C125.638 45.5841 125.734 45.9081 125.926 46.1121C126.118 46.3041 126.43 46.4001 126.862 46.4001C127.306 46.4001 127.744 46.2921 128.176 46.0761V48.1821C127.648 48.5061 126.934 48.6681 126.034 48.6681C124.078 48.6681 123.1 47.6601 123.1 45.6441ZM134.591 48.6681C133.187 48.6681 132.005 48.2361 131.045 47.3721C130.085 46.5081 129.605 45.3621 129.605 43.9341C129.605 42.6021 130.037 41.4861 130.901 40.5861C131.765 39.6741 132.893 39.2181 134.285 39.2181C135.581 39.2181 136.619 39.6801 137.399 40.6041C138.179 41.5281 138.569 42.6501 138.569 43.9701V44.6361H132.125C132.257 45.2361 132.587 45.6981 133.115 46.0221C133.655 46.3461 134.327 46.5081 135.131 46.5081C136.127 46.5081 137.087 46.2441 138.011 45.7161V47.7501C137.207 48.3621 136.067 48.6681 134.591 48.6681ZM132.125 43.0161H136.067C136.043 42.5001 135.857 42.0741 135.509 41.7381C135.173 41.3901 134.729 41.2161 134.177 41.2161C133.613 41.2161 133.145 41.3841 132.773 41.7201C132.401 42.0441 132.185 42.4761 132.125 43.0161ZM146.007 39.2181C147.231 39.2181 148.239 39.6741 149.031 40.5861C149.835 41.4741 150.237 42.5961 150.237 43.9521C150.237 45.2841 149.835 46.4061 149.031 47.3181C148.239 48.2181 147.231 48.6681 146.007 48.6681C144.747 48.6681 143.763 48.2241 143.055 47.3361V52.0341H140.517V39.4521H143.055V40.5501C143.727 39.6621 144.711 39.2181 146.007 39.2181ZM145.287 41.4321C144.807 41.4321 144.369 41.5581 143.973 41.8101C143.577 42.0621 143.271 42.3861 143.055 42.7821V45.1221C143.271 45.5181 143.577 45.8421 143.973 46.0941C144.369 46.3341 144.807 46.4541 145.287 46.4541C146.007 46.4541 146.589 46.2141 147.033 45.7341C147.489 45.2421 147.717 44.6481 147.717 43.9521C147.717 43.2441 147.489 42.6441 147.033 42.1521C146.589 41.6721 146.007 41.4321 145.287 41.4321ZM160.651 46.4721C160.867 46.4721 161.041 46.4361 161.173 46.3641V48.2181C160.849 48.4701 160.393 48.5961 159.805 48.5961C158.785 48.5961 158.107 48.2121 157.771 47.4441C156.979 48.2601 155.947 48.6681 154.675 48.6681C153.691 48.6681 152.893 48.3921 152.281 47.8401C151.669 47.2881 151.363 46.5621 151.363 45.6621C151.363 44.7021 151.711 43.9701 152.407 43.4661C153.103 42.9621 153.937 42.7101 154.909 42.7101C155.929 42.7101 156.793 42.8961 157.501 43.2681V42.9981C157.501 41.8701 156.709 41.3061 155.125 41.3061C154.153 41.3061 153.247 41.5581 152.407 42.0621V39.9381C153.319 39.4581 154.429 39.2181 155.737 39.2181C157.033 39.2181 158.065 39.5301 158.833 40.1541C159.625 40.7781 160.021 41.6421 160.021 42.7461V45.7881C160.021 46.2441 160.231 46.4721 160.651 46.4721ZM157.501 45.7881V44.8881C156.973 44.5401 156.349 44.3661 155.629 44.3661C155.089 44.3661 154.657 44.4681 154.333 44.6721C154.021 44.8761 153.865 45.1641 153.865 45.5361C153.865 45.9201 154.009 46.2141 154.297 46.4181C154.585 46.6101 154.975 46.7061 155.467 46.7061C156.355 46.7061 157.033 46.4001 157.501 45.7881ZM168.42 39.2181C169.644 39.2181 170.652 39.6741 171.444 40.5861C172.248 41.4741 172.65 42.5961 172.65 43.9521C172.65 45.2841 172.248 46.4061 171.444 47.3181C170.652 48.2181 169.644 48.6681 168.42 48.6681C167.16 48.6681 166.176 48.2241 165.468 47.3361V52.0341H162.93V39.4521H165.468V40.5501C166.14 39.6621 167.124 39.2181 168.42 39.2181ZM167.7 41.4321C167.22 41.4321 166.782 41.5581 166.386 41.8101C165.99 42.0621 165.684 42.3861 165.468 42.7821V45.1221C165.684 45.5181 165.99 45.8421 166.386 46.0941C166.782 46.3341 167.22 46.4541 167.7 46.4541C168.42 46.4541 169.002 46.2141 169.446 45.7341C169.902 45.2421 170.13 44.6481 170.13 43.9521C170.13 43.2441 169.902 42.6441 169.446 42.1521C169.002 41.6721 168.42 41.4321 167.7 41.4321ZM178.906 48.6681C177.502 48.6681 176.32 48.2361 175.36 47.3721C174.4 46.5081 173.92 45.3621 173.92 43.9341C173.92 42.6021 174.352 41.4861 175.216 40.5861C176.08 39.6741 177.208 39.2181 178.6 39.2181C179.896 39.2181 180.934 39.6801 181.714 40.6041C182.494 41.5281 182.884 42.6501 182.884 43.9701V44.6361H176.44C176.572 45.2361 176.902 45.6981 177.43 46.0221C177.97 46.3461 178.642 46.5081 179.446 46.5081C180.442 46.5081 181.402 46.2441 182.326 45.7161V47.7501C181.522 48.3621 180.382 48.6681 178.906 48.6681ZM176.44 43.0161H180.382C180.358 42.5001 180.172 42.0741 179.824 41.7381C179.488 41.3901 179.044 41.2161 178.492 41.2161C177.928 41.2161 177.46 41.3841 177.088 41.7201C176.716 42.0441 176.5 42.4761 176.44 43.0161ZM187.37 48.4341H184.832V39.4521H187.37V40.9641C187.646 40.4841 188.066 40.0761 188.63 39.7401C189.218 39.3921 189.842 39.2181 190.502 39.2181C190.646 39.2181 190.742 39.2241 190.79 39.2361V41.7201C190.55 41.6601 190.286 41.6301 189.998 41.6301C189.41 41.6301 188.87 41.7861 188.378 42.0981C187.898 42.3981 187.562 42.7641 187.37 43.1961V48.4341Z" fill="white"/>
<g clip-path="url(#clip0)">
<path d="M72.3033 43.6452C71.9054 43.6452 71.587 43.9635 71.587 44.3614V50.8767C71.587 52.6488 70.1439 54.0866 68.3771 54.0866H52.6619C50.8899 54.0866 49.452 52.6435 49.452 50.8767V44.2553C49.452 43.8574 49.1337 43.5391 48.7358 43.5391C48.3379 43.5391 48.0195 43.8574 48.0195 44.2553V50.8767C48.0195 53.4393 50.1046 55.5191 52.6619 55.5191H68.3771C70.9397 55.5191 73.0195 53.434 73.0195 50.8767V44.3614C73.0195 43.9688 72.7012 43.6452 72.3033 43.6452Z" fill="white"/>
<path d="M60.0145 49.8313C60.1524 49.9693 60.3381 50.0436 60.5185 50.0436C60.6989 50.0436 60.8846 49.9746 61.0226 49.8313L65.5748 45.2791C65.856 44.9979 65.856 44.5469 65.5748 44.2657C65.2936 43.9846 64.8426 43.9846 64.5614 44.2657L61.2348 47.5977V33.0656C61.2348 32.6677 60.9165 32.3494 60.5185 32.3494C60.1206 32.3494 59.8023 32.6677 59.8023 33.0656V47.5977L56.4704 44.2657C56.1892 43.9846 55.7382 43.9846 55.457 44.2657C55.1758 44.5469 55.1758 44.9979 55.457 45.2791L60.0145 49.8313Z" fill="white"/>
</g>
<defs>
<filter id="filter0_d" x="0" y="0.434082" width="252" height="97" filterUnits="userSpaceOnUse" color-interpolation-filters="sRGB">
<feFlood flood-opacity="0" result="BackgroundImageFix"/>
<feColorMatrix in="SourceAlpha" type="matrix" values="0 0 0 0 0 0 0 0 0 0 0 0 0 0 0 0 0 0 127 0" result="hardAlpha"/>
<feOffset dx="5" dy="5"/>
<feGaussianBlur stdDeviation="10"/>
<feComposite in2="hardAlpha" operator="out"/>
<feColorMatrix type="matrix" values="0 0 0 0 0.231373 0 0 0 0 0.487372 0 0 0 0 0.984314 0 0 0 0.3 0"/>
<feBlend mode="normal" in2="BackgroundImageFix" result="effect1_dropShadow"/>
<feBlend mode="normal" in="SourceGraphic" in2="effect1_dropShadow" result="shape"/>
</filter>
<linearGradient id="paint0_linear" x1="199.698" y1="7.60781" x2="27.9654" y2="62.9689" gradientUnits="userSpaceOnUse">
<stop stop-color="#D73898"/>
<stop offset="1" stop-color="#056ECF"/>
</linearGradient>
<clipPath id="clip0">
<rect width="25" height="25" fill="white" transform="translate(48.0195 31.4341)"/>
</clipPath>
</defs>
</svg>
