<svg width="146" height="138" viewBox="0 0 146 138" fill="none" xmlns="http://www.w3.org/2000/svg">
<g filter="url(#filter0_d)">
<path d="M74.6698 34.9298L63.9398 43.5976L71.8937 49.1798L82.6199 40.4979C85.777 37.9429 89.1195 37.4632 91.2265 38.948L83.2725 33.3658C81.1693 31.895 77.8268 32.3748 74.6698 34.9298Z" fill="url(#paint0_linear)"/>
<path d="M37.7221 64.8238L37.591 64.927C37.4739 65.0264 37.3569 65.1258 37.2417 65.2323C37.1266 65.3388 37.0584 65.3949 36.9748 65.4778L36.9183 65.4929L36.883 65.5024C36.7608 65.6107 36.6476 65.7243 36.5343 65.8378C36.421 65.9513 36.32 66.054 36.2138 66.1657C36.0954 66.2882 35.9807 66.4248 35.8642 66.5543C35.7476 66.6838 35.6922 66.7592 35.6053 66.8581L35.5306 66.9462L35.4812 66.9594C35.3283 67.1415 35.1827 67.3318 35.0443 67.5302C35.0257 67.5486 35.0111 67.5706 35.0011 67.5947C34.7342 67.9536 34.4872 68.3298 34.2561 68.7094L34.0993 68.9707C33.9082 69.3017 33.726 69.6379 33.5599 69.9773L33.472 70.1294L33.4364 70.2222L33.3167 70.4811C33.2604 70.6096 33.1951 70.733 33.1459 70.8596L33.061 71.079L32.9761 71.2984L32.8977 71.4857L32.7055 72.0666L32.7149 72.1019L32.5725 72.5862L32.491 72.903L32.4662 73.0079L32.4813 73.0644L32.3812 73.5374L32.3377 73.7986L32.3604 73.8833L32.3459 73.9703L32.2961 74.3769L32.2678 74.6946L32.2791 74.7369L32.2659 75.111L32.2579 75.4761L32.2711 75.5255L32.2825 75.5679L32.2903 75.8229L32.3208 76.1626L32.3643 76.3248L32.3813 76.3883L32.4078 76.4871L32.4576 76.8141L32.5445 77.1386L32.6334 77.4703L32.7223 77.8019L32.7468 77.8936L32.813 78.1406C32.8451 78.2605 32.8754 78.3734 32.9691 78.4693L32.9994 78.5822L33.0259 78.6809L33.1027 78.8267L33.3318 79.1737L33.3469 79.2301L33.4266 79.3298L33.5986 79.5484L33.7427 79.6913L33.9194 79.8708L34.0202 79.9648C34.1306 80.0635 34.2464 80.1562 34.3669 80.2424L42.3208 85.8247C42.1621 85.7128 42.0125 85.5885 41.8734 85.4531L41.6967 85.2735C41.5816 85.1619 41.4758 85.041 41.3806 84.9121L41.3009 84.8124C41.173 84.6395 41.0563 84.4586 40.9516 84.2708L40.9251 84.172C40.8101 83.9536 40.7092 83.7281 40.6232 83.4967C40.5417 83.249 40.4742 82.997 40.4209 82.7417C40.3687 82.5025 40.3292 82.2607 40.3024 82.0172L40.2854 81.9537C40.2564 81.7044 40.2415 81.4513 40.2374 81.2104L40.2261 81.168C40.2158 80.8937 40.223 80.6189 40.2477 80.3455L40.2363 80.3032C40.2548 80.0335 40.2893 79.7672 40.3366 79.5201L40.3492 79.426C40.3926 79.1648 40.4412 78.8946 40.5058 78.6278L40.5325 78.5299L40.7457 77.7165C40.8263 77.4529 40.9158 77.1945 41.0195 76.9323C41.043 76.8574 41.0714 76.7841 41.1044 76.7129C41.179 76.5114 41.2696 76.3132 41.3531 76.1169L41.4728 75.858L41.5962 75.6132C41.763 75.2761 41.9452 74.9399 42.1427 74.6046L42.2925 74.3452C42.5236 73.9657 42.7706 73.5894 43.0374 73.2306C43.2089 72.9956 43.3822 72.7676 43.5645 72.5448L43.6322 72.4586C43.8389 72.2142 44.0405 71.9787 44.2581 71.7464C44.4827 71.5123 44.7144 71.2763 44.9569 71.0525C44.9727 71.0458 44.9893 71.0414 45.0063 71.0393C45.2489 70.8155 45.5003 70.5969 45.7537 70.3853L56.4889 61.7085L48.533 56.1192L37.7221 64.8238Z" fill="url(#paint1_linear)"/>
<path d="M52.41 31.6153L52.4523 31.604C52.5144 31.5916 52.5757 31.5752 52.6358 31.5548C52.7557 31.5227 52.8756 31.4906 52.9823 31.409L53.3309 31.2703C53.4226 31.2457 53.5072 31.223 53.599 31.1984L53.7048 31.1701C53.8318 31.136 53.9518 31.1039 54.0788 31.0699C54.2058 31.0358 54.3398 30.9999 54.4668 30.9659L54.7208 30.8978C54.7409 30.8888 54.7624 30.883 54.7843 30.8808C54.8161 30.8682 54.8493 30.8594 54.8831 30.8543C55.0359 30.8277 55.1899 30.8091 55.3446 30.7987C55.5069 30.7553 55.6721 30.7791 55.8387 30.7798C56.0584 30.7814 56.2819 30.7972 56.4913 30.8167L56.7544 30.8672L56.9196 30.891C57.1993 30.949 57.4739 31.0297 57.7405 31.1323C57.7758 31.1229 57.8281 31.1769 57.878 31.1938C58.1457 31.3096 58.4015 31.4513 58.6417 31.6168L66.5957 37.1991C66.3543 37.0319 66.096 36.8908 65.8249 36.778L65.6874 36.7165C65.4218 36.6144 65.1478 36.536 64.8684 36.4822C64.8137 36.4672 64.7578 36.4568 64.7014 36.4513C64.3964 36.3995 64.0879 36.3709 63.7785 36.3659C63.4269 36.3683 63.076 36.399 62.7293 36.4579C62.7293 36.4579 62.687 36.4693 62.6588 36.4768C62.2927 36.5483 61.932 36.6449 61.5793 36.7661L61.5369 36.7774C61.153 36.9064 60.7769 37.0577 60.4106 37.2305L60.3612 37.2437C59.9634 37.438 59.5771 37.6551 59.2044 37.894C58.7956 38.1552 58.4022 38.4398 58.0263 38.7466C57.771 38.9511 57.5266 39.1678 57.2841 39.3916C57.2657 39.3979 57.2468 39.403 57.2276 39.4068C56.9851 39.6306 56.7534 39.8666 56.5307 40.1077C56.3131 40.34 56.1115 40.5755 55.9119 40.8181L55.8371 40.9061C55.6548 41.1289 55.4815 41.3569 55.3081 41.5848C55.0432 41.9507 54.7961 42.327 54.5632 42.6994L54.4083 42.9678C54.2107 43.3031 54.0286 43.6393 53.8618 43.9764L53.7435 44.2122L53.6257 44.4782L53.37 45.0761L53.2851 45.2955C53.1884 45.5558 53.0918 45.8161 53.0112 46.0797L52.791 46.8949L52.7662 46.9999C52.7016 47.2668 52.653 47.5369 52.6095 47.7981L52.6322 47.8828C52.5926 48.1581 52.5581 48.4245 52.532 48.6659L52.5433 48.7082C52.5198 48.9823 52.5103 49.2575 52.5147 49.5326L52.526 49.5749C52.5358 49.837 52.5506 50.0901 52.574 50.3183L52.591 50.3818C52.6542 50.8984 52.7751 51.4063 52.9514 51.896L56.524 61.6167L48.5681 56.0274L44.879 46.4362L44.8544 46.3445L44.7655 46.0129L44.6767 45.6813L44.5916 45.3638L44.5399 45.0297L44.5134 44.931L44.4964 44.8675L44.4529 44.7052L44.4295 44.3636L44.4216 44.1086L44.4103 44.0662L44.399 44.0239L44.3999 43.6607L44.4202 43.2847L44.4107 43.2494L44.3994 43.2071C44.4082 43.0988 44.4118 42.9996 44.4296 42.8965C44.4381 42.7601 44.4548 42.6243 44.4795 42.4899L44.492 42.3958L44.5046 42.3016L44.55 42.0475L44.643 41.5764L44.6684 41.5015L44.6932 41.3966L44.7676 41.0817L44.9153 40.5884L45.1094 40.0146L45.191 39.8112L45.2707 39.6008L45.3575 39.3885L45.5265 39.0029L45.6442 38.7369L45.6888 38.6494L45.7625 38.5011C45.9387 38.1614 46.1209 37.8253 46.309 37.4925L46.464 37.2241C46.695 36.8446 46.944 36.4754 47.2089 36.1095L47.2521 36.045C47.3977 35.8547 47.5434 35.6644 47.698 35.4793L47.736 35.4238L47.8126 35.3427L48.0645 35.0408C48.1791 34.9042 48.3027 34.7728 48.4192 34.6433C48.5273 34.5387 48.6335 34.427 48.7398 34.3154C48.846 34.2038 48.9663 34.0883 49.0885 33.98L49.1238 33.9705C49.1238 33.9705 49.159 33.9611 49.1802 33.9554C49.2014 33.9497 49.3565 33.7947 49.4472 33.7099L49.7983 33.4117L49.9295 33.3085C50.0028 33.2434 50.078 33.1855 50.1532 33.1275C50.2284 33.0695 50.3789 32.9536 50.4997 32.8683C50.6205 32.783 50.7221 32.7104 50.8377 32.634C50.9534 32.5577 51.0164 32.5105 51.1005 32.4577L51.1499 32.4445L51.4814 32.2423C51.6014 32.2101 51.7043 32.1145 51.8167 32.0541C51.9291 31.9938 52.0414 31.9334 52.1487 31.882L52.41 31.6153Z" fill="url(#paint2_linear)"/>
<path d="M58.897 82.2387L66.8439 87.8229C66.0497 87.2477 65.453 86.4407 65.1359 85.5128L61.5595 75.778L53.6056 70.1957L57.1801 79.9234C57.4965 80.8556 58.0969 81.6653 58.897 82.2387Z" fill="url(#paint3_linear)"/>
<path d="M40.5117 83.701C39.1138 79.8104 41.3954 73.8752 45.6731 70.4225L56.4082 61.7457L52.8389 52.009C51.4128 48.126 53.7277 42.1743 58.0035 38.7146C62.2794 35.2548 66.9022 35.5739 68.3321 39.471L71.9048 49.1917L82.631 40.5098C86.9138 37.0482 91.5226 37.3711 92.9544 41.2752C94.3862 45.1794 92.0708 51.101 87.7949 54.5608L77.0264 63.254L80.6009 72.9818C82.0251 76.8577 79.7102 82.8094 75.4363 86.2763C71.1623 89.7431 66.5376 89.4169 65.1077 85.5198L61.5313 75.785L50.805 84.4669C46.5786 87.9134 41.95 87.5731 40.5117 83.701Z" fill="url(#paint4_linear)"/>
</g>
<defs>
<filter id="filter0_d" x="0.36084" y="0.348389" width="144.963" height="137.494" filterUnits="userSpaceOnUse" color-interpolation-filters="sRGB">
<feFlood flood-opacity="0" result="BackgroundImageFix"/>
<feColorMatrix in="SourceAlpha" type="matrix" values="0 0 0 0 0 0 0 0 0 0 0 0 0 0 0 0 0 0 127 0" result="hardAlpha"/>
<feOffset dx="7" dy="7"/>
<feGaussianBlur stdDeviation="17.5"/>
<feColorMatrix type="matrix" values="0 0 0 0 1 0 0 0 0 0.137255 0 0 0 0 0.654902 0 0 0 0.5 0"/>
<feBlend mode="normal" in2="BackgroundImageFix" result="effect1_dropShadow"/>
<feBlend mode="normal" in="SourceGraphic" in2="effect1_dropShadow" result="shape"/>
</filter>
<linearGradient id="paint0_linear" x1="89.3084" y1="46.8239" x2="74.5506" y2="38.8441" gradientUnits="userSpaceOnUse">
<stop stop-color="#140B31"/>
<stop offset="0.557292" stop-color="#10072D"/>
<stop offset="1" stop-color="#07001C"/>
</linearGradient>
<linearGradient id="paint1_linear" x1="58.9815" y1="85.806" x2="38.8878" y2="81.9691" gradientUnits="userSpaceOnUse">
<stop stop-color="#140B31"/>
<stop offset="0.557292" stop-color="#10072D"/>
<stop offset="1" stop-color="#07001C"/>
</linearGradient>
<linearGradient id="paint2_linear" x1="70.0754" y1="62.9327" x2="51.8259" y2="61.1664" gradientUnits="userSpaceOnUse">
<stop stop-color="#140B31"/>
<stop offset="0.557292" stop-color="#10072D"/>
<stop offset="1" stop-color="#07001C"/>
</linearGradient>
<linearGradient id="paint3_linear" x1="66.5614" y1="91.2555" x2="59.8133" y2="91.7283" gradientUnits="userSpaceOnUse">
<stop stop-color="#140B31"/>
<stop offset="0.557292" stop-color="#10072D"/>
<stop offset="1" stop-color="#07001C"/>
</linearGradient>
<linearGradient id="paint4_linear" x1="97.0672" y1="90.1743" x2="53.5591" y2="78.8712" gradientUnits="userSpaceOnUse">
<stop stop-color="#140B31"/>
<stop offset="0.557292" stop-color="#10072D"/>
<stop offset="1" stop-color="#07001C"/>
</linearGradient>
</defs>
</svg>
