<svg width="113" height="116" viewBox="0 0 113 116" fill="none" xmlns="http://www.w3.org/2000/svg">
<g filter="url(#filter0_d)">
<path d="M31.0776 42.027L37.4413 49.9046L41.5396 44.0651L35.1656 36.1903C33.2898 33.8725 32.9376 31.4185 34.0277 29.8716L29.9294 35.7112C28.8496 37.2552 29.2018 39.7092 31.0776 42.027Z" fill="url(#paint0_linear)"/>
<path d="M53.0247 69.1523L53.1005 69.2486C53.1735 69.3345 53.2465 69.4204 53.3247 69.505C53.4028 69.5895 53.444 69.6396 53.5049 69.701L53.516 69.7424L53.5229 69.7683C53.6025 69.8581 53.6858 69.9412 53.7692 70.0244C53.8525 70.1075 53.9279 70.1817 54.0099 70.2597C54.0998 70.3466 54.2001 70.4308 54.2952 70.5163C54.3903 70.6019 54.4456 70.6426 54.5182 70.7064L54.5829 70.7613L54.5926 70.7975C54.7263 70.9097 54.866 71.0167 55.0117 71.1183C55.0252 71.1319 55.0413 71.1427 55.0591 71.15C55.3225 71.3459 55.5987 71.5273 55.8774 71.6969L56.0692 71.8121C56.3123 71.9524 56.5591 72.0861 56.8083 72.2081L56.92 72.2726L56.988 72.2987L57.1781 72.3866C57.2725 72.4279 57.3631 72.4759 57.456 72.512L57.6171 72.5744L57.7781 72.6367L57.9157 72.6942L58.3422 72.8353L58.3681 72.8284L58.7236 72.933L58.9562 72.9928L59.0333 73.011L59.0747 72.9999L59.422 73.0734L59.6137 73.1053L59.6759 73.0887L59.7398 73.0993L60.0383 73.1359L60.2715 73.1567L60.3026 73.1484L60.5773 73.1581L60.8453 73.164L60.8816 73.1543L60.9127 73.1459L61.0999 73.1402L61.3493 73.1178L61.4684 73.0858L61.515 73.0734L61.5876 73.0539L61.8276 73.0174L62.0659 72.9535L62.3094 72.8883L62.5528 72.823L62.6202 72.805L62.8015 72.7564C62.8895 72.7328 62.9724 72.7106 63.0428 72.6418L63.1257 72.6196L63.1982 72.6001L63.3052 72.5437L63.56 72.3755L63.6014 72.3644L63.6746 72.3059L63.835 72.1797L63.9399 72.0738L64.0717 71.9441L64.1407 71.8701C64.2133 71.789 64.2813 71.7041 64.3446 71.6156L68.4429 65.7761C68.3608 65.8926 68.2695 66.0024 68.1701 66.1046L68.0383 66.2343C67.9563 66.3188 67.8676 66.3964 67.7729 66.4664L67.6997 66.5249C67.5728 66.6188 67.44 66.7044 67.3021 66.7813L67.2296 66.8007C67.0692 66.8852 66.9036 66.9593 66.7338 67.0224C66.5519 67.0822 66.3669 67.1318 66.1795 67.1709C66.0038 67.2093 65.8263 67.2383 65.6476 67.2579L65.601 67.2704C65.4179 67.2917 65.2321 67.3027 65.0552 67.3056L65.0241 67.314C64.8227 67.3215 64.621 67.3162 64.4203 67.2981L64.3892 67.3064C64.1912 67.2928 63.9957 67.2675 63.8143 67.2328L63.7452 67.2236C63.5534 67.1917 63.3551 67.156 63.1591 67.1086L63.0873 67.089L62.4902 66.9325C62.2966 66.8733 62.1069 66.8076 61.9144 66.7315C61.8594 66.7142 61.8056 66.6934 61.7533 66.6691C61.6054 66.6144 61.4599 66.5479 61.3158 66.4866L61.1257 66.3987L60.9459 66.3081C60.6984 66.1856 60.4516 66.0519 60.2055 65.9068L60.015 65.7969C59.7364 65.6272 59.4602 65.4459 59.1967 65.25C59.0242 65.1241 58.8568 64.9968 58.6933 64.863L58.63 64.8133C58.4505 64.6615 58.2776 64.5135 58.1071 64.3538C57.9352 64.1889 57.762 64.0188 57.5977 63.8407C57.5927 63.8292 57.5895 63.8169 57.5879 63.8045C57.4236 63.6264 57.2631 63.4418 57.1078 63.2558L50.7376 55.3744L46.6341 61.2153L53.0247 69.1523Z" fill="url(#paint1_linear)"/>
<path d="M28.6441 58.3689L28.6358 58.3378C28.6267 58.2922 28.6146 58.2472 28.5997 58.2031C28.5761 58.1151 28.5525 58.027 28.4926 57.9487L28.3908 57.6928C28.3727 57.6255 28.3561 57.5633 28.338 57.496L28.3172 57.4183C28.2922 57.325 28.2686 57.237 28.2436 57.1437C28.2187 57.0505 28.1923 56.9521 28.1673 56.8588L28.1173 56.6723C28.1107 56.6576 28.1065 56.6418 28.1048 56.6257C28.0956 56.6024 28.0891 56.578 28.0854 56.5532C28.0658 56.441 28.0522 56.3279 28.0446 56.2144C28.0127 56.0952 28.0301 55.9739 28.0307 55.8516C28.0319 55.6903 28.0434 55.5262 28.0577 55.3725L28.0948 55.1793L28.1123 55.058C28.1549 54.8527 28.2142 54.6511 28.2895 54.4554C28.2825 54.4295 28.3222 54.3911 28.3346 54.3544C28.4196 54.1579 28.5236 53.9701 28.6452 53.7938L32.7435 47.9542C32.6208 48.1314 32.5171 48.3211 32.4343 48.5201L32.3892 48.621C32.3143 48.816 32.2567 49.0172 32.2172 49.2223C32.2061 49.2625 32.1986 49.3035 32.1945 49.3449C32.1565 49.5689 32.1355 49.7953 32.1318 50.0224C32.1335 50.2806 32.1561 50.5382 32.1994 50.7927C32.1994 50.7927 32.2077 50.8238 32.2133 50.8445C32.2657 51.1133 32.3367 51.3781 32.4256 51.6371L32.4339 51.6682C32.5286 51.9501 32.6397 52.2262 32.7666 52.4951L32.7763 52.5314C32.9189 52.8234 33.0783 53.107 33.2537 53.3806C33.4454 53.6808 33.6544 53.9696 33.8796 54.2456C34.0298 54.433 34.1889 54.6124 34.3532 54.7904C34.3578 54.804 34.3615 54.8178 34.3643 54.8319C34.5286 55.0099 34.7019 55.18 34.8789 55.3436C35.0494 55.5033 35.2223 55.6513 35.4004 55.7979L35.4651 55.8528C35.6286 55.9866 35.796 56.1139 35.9633 56.2411C36.232 56.4357 36.5082 56.617 36.7817 56.788L36.9787 56.9018C37.2249 57.0468 37.4717 57.1806 37.7192 57.303L37.8923 57.3899L38.0876 57.4763L38.5266 57.6641L38.6876 57.7264C38.8787 57.7973 39.0699 57.8683 39.2634 57.9275L39.8619 58.0891L39.9389 58.1073C40.1349 58.1548 40.3332 58.1905 40.525 58.2224L40.5871 58.2057C40.7892 58.2348 40.9848 58.2601 41.162 58.2793L41.1931 58.271C41.3944 58.2882 41.5964 58.2952 41.7984 58.292L41.8295 58.2837C42.0219 58.2765 42.2077 58.2656 42.3752 58.2485L42.4218 58.236C42.8011 58.1896 43.174 58.1008 43.5335 57.9714L50.6701 55.3485L46.5666 61.1894L39.5251 63.8979L39.4578 63.9159L39.2143 63.9812L38.9708 64.0464L38.7377 64.1089L38.4925 64.1468L38.42 64.1663L38.3734 64.1788L38.2542 64.2107L38.0035 64.2279L37.8162 64.2336L37.7851 64.242L37.7541 64.2503L37.4874 64.2496L37.2114 64.2347L37.1855 64.2417L37.1544 64.25C37.0749 64.2435 37.002 64.2409 36.9264 64.2278C36.8262 64.2216 36.7265 64.2093 36.6278 64.1912L36.5587 64.182L36.4896 64.1727L36.3031 64.1394L35.9572 64.0711L35.9022 64.0525L35.8252 64.0343L35.594 63.9796L35.2318 63.8713L34.8106 63.7288L34.6613 63.6688L34.5068 63.6103L34.3509 63.5466L34.0678 63.4225L33.8725 63.3361L33.8083 63.3033L33.6994 63.2492C33.45 63.1199 33.2032 62.9861 32.9589 62.848L32.7619 62.7342C32.4833 62.5646 32.2122 62.3818 31.9436 62.1873L31.8962 62.1556C31.7565 62.0487 31.6168 61.9418 31.4809 61.8283L31.4401 61.8003L31.3806 61.7441L31.159 61.5592C31.0587 61.475 30.9622 61.3843 30.8671 61.2987C30.7903 61.2194 30.7084 61.1414 30.6264 61.0634C30.5444 60.9855 30.4597 60.8971 30.3801 60.8074L30.3732 60.7815C30.3732 60.7815 30.3663 60.7556 30.3621 60.7401C30.3579 60.7245 30.2441 60.6107 30.1819 60.5441L29.9629 60.2863L29.8871 60.19C29.8394 60.1362 29.7968 60.0809 29.7543 60.0257C29.7117 59.9705 29.6266 59.86 29.564 59.7713C29.5013 59.6826 29.4481 59.6081 29.392 59.5232C29.3359 59.4383 29.3013 59.392 29.2626 59.3302L29.2528 59.294L29.1044 59.0506C29.0808 58.9625 29.0105 58.887 28.9662 58.8045C28.9219 58.7219 28.8776 58.6394 28.8398 58.5607L28.6441 58.3689Z" fill="url(#paint2_linear)"/>
<path d="M65.8103 53.6064L69.91 47.7721C69.4877 48.3551 68.8952 48.7932 68.2139 49.026L61.067 51.6517L56.9686 57.4912L64.1104 54.8669C64.7948 54.6346 65.3893 54.1938 65.8103 53.6064Z" fill="url(#paint3_linear)"/>
<path d="M66.8841 67.1049C64.0277 68.1312 59.6703 66.4562 57.1354 63.3156L50.7652 55.4342L43.6169 58.0547C40.7661 59.1017 36.3965 57.4022 33.8565 54.263C31.3164 51.1238 31.5507 47.7299 34.4119 46.6801L41.5485 44.0572L35.1745 36.1823C32.6331 33.038 32.8701 29.6544 35.7365 28.6032C38.6028 27.552 42.9502 29.2519 45.4903 32.3911L51.8726 40.297L59.0144 37.6727C61.86 36.6271 66.2295 38.3267 68.7748 41.4644C71.32 44.6022 71.0805 47.9976 68.2194 49.0474L61.0724 51.673L67.4464 59.5479C69.9767 62.6508 69.7269 66.0489 66.8841 67.1049Z" fill="url(#paint4_linear)"/>
</g>
<defs>
<filter id="filter0_d" x="0.0253906" y="0.291992" width="112.51" height="114.872" filterUnits="userSpaceOnUse" color-interpolation-filters="sRGB">
<feFlood flood-opacity="0" result="BackgroundImageFix"/>
<feColorMatrix in="SourceAlpha" type="matrix" values="0 0 0 0 0 0 0 0 0 0 0 0 0 0 0 0 0 0 127 0" result="hardAlpha"/>
<feOffset dx="7" dy="7"/>
<feGaussianBlur stdDeviation="17.5"/>
<feColorMatrix type="matrix" values="0 0 0 0 1 0 0 0 0 0.137255 0 0 0 0 0.654902 0 0 0 0.5 0"/>
<feBlend mode="normal" in2="BackgroundImageFix" result="effect1_dropShadow"/>
<feBlend mode="normal" in="SourceGraphic" in2="effect1_dropShadow" result="shape"/>
</filter>
<linearGradient id="paint0_linear" x1="39.8099" y1="31.2798" x2="33.9514" y2="42.1145" gradientUnits="userSpaceOnUse">
<stop stop-color="#140B31"/>
<stop offset="0.557292" stop-color="#10072D"/>
<stop offset="1" stop-color="#07001C"/>
</linearGradient>
<linearGradient id="paint1_linear" x1="68.4292" y1="53.5444" x2="65.6122" y2="68.2965" gradientUnits="userSpaceOnUse">
<stop stop-color="#140B31"/>
<stop offset="0.557292" stop-color="#10072D"/>
<stop offset="1" stop-color="#07001C"/>
</linearGradient>
<linearGradient id="paint2_linear" x1="51.6363" y1="45.3995" x2="50.3396" y2="58.7977" gradientUnits="userSpaceOnUse">
<stop stop-color="#140B31"/>
<stop offset="0.557292" stop-color="#10072D"/>
<stop offset="1" stop-color="#07001C"/>
</linearGradient>
<linearGradient id="paint3_linear" x1="72.4301" y1="47.9794" x2="72.7772" y2="52.9337" gradientUnits="userSpaceOnUse">
<stop stop-color="#140B31"/>
<stop offset="0.557292" stop-color="#10072D"/>
<stop offset="1" stop-color="#07001C"/>
</linearGradient>
<linearGradient id="paint4_linear" x1="71.6366" y1="25.5837" x2="63.3382" y2="57.5259" gradientUnits="userSpaceOnUse">
<stop stop-color="#140B31"/>
<stop offset="0.557292" stop-color="#10072D"/>
<stop offset="1" stop-color="#07001C"/>
</linearGradient>
</defs>
</svg>
