<svg width="252" height="98" viewBox="0 0 252 98" fill="none" xmlns="http://www.w3.org/2000/svg">
<g id="Group 127305">
<g id="Rectangle" filter="url(#filter0_d_728:3102)">
<path d="M15.5 15.5195H202.28L226.5 37.0254V71.5195H38.5298L15.5 49.1963V15.5195Z" stroke="white" shape-rendering="crispEdges"/>
</g>
<path id="Request Demo" d="M70.372 48.0195H65.092V37.5195H70.027C70.997 37.5195 71.767 37.7495 72.337 38.2095C72.917 38.6695 73.207 39.3145 73.207 40.1445C73.207 40.6545 73.082 41.0895 72.832 41.4495C72.582 41.8095 72.267 42.0695 71.887 42.2295C72.457 42.3495 72.957 42.6595 73.387 43.1595C73.807 43.6495 74.017 44.2745 74.017 45.0345C74.017 45.9245 73.687 46.6445 73.027 47.1945C72.377 47.7445 71.492 48.0195 70.372 48.0195ZM67.252 43.4145V46.1595H69.967C70.507 46.1595 70.927 46.0445 71.227 45.8145C71.527 45.5745 71.677 45.2345 71.677 44.7945C71.677 44.3545 71.527 44.0145 71.227 43.7745C70.927 43.5345 70.507 43.4145 69.967 43.4145H67.252ZM67.252 39.3195V41.6295H69.682C70.132 41.6295 70.482 41.5295 70.732 41.3295C70.992 41.1295 71.122 40.8495 71.122 40.4895C71.122 40.1195 70.992 39.8345 70.732 39.6345C70.482 39.4245 70.132 39.3195 69.682 39.3195H67.252ZM82.8343 46.3845C83.0143 46.3845 83.1593 46.3545 83.2693 46.2945V47.8395C82.9993 48.0495 82.6193 48.1545 82.1293 48.1545C81.2793 48.1545 80.7143 47.8345 80.4343 47.1945C79.7743 47.8745 78.9143 48.2145 77.8543 48.2145C77.0343 48.2145 76.3693 47.9845 75.8593 47.5245C75.3493 47.0645 75.0943 46.4595 75.0943 45.7095C75.0943 44.9095 75.3843 44.2995 75.9643 43.8795C76.5443 43.4595 77.2393 43.2495 78.0493 43.2495C78.8993 43.2495 79.6193 43.4045 80.2093 43.7145V43.4895C80.2093 42.5495 79.5493 42.0795 78.2293 42.0795C77.4193 42.0795 76.6643 42.2895 75.9643 42.7095V40.9395C76.7243 40.5395 77.6493 40.3395 78.7393 40.3395C79.8193 40.3395 80.6793 40.5995 81.3193 41.1195C81.9793 41.6395 82.3093 42.3595 82.3093 43.2795V45.8145C82.3093 46.1945 82.4843 46.3845 82.8343 46.3845ZM80.2093 45.8145V45.0645C79.7693 44.7745 79.2493 44.6295 78.6493 44.6295C78.1993 44.6295 77.8393 44.7145 77.5693 44.8845C77.3093 45.0545 77.1793 45.2945 77.1793 45.6045C77.1793 45.9245 77.2993 46.1695 77.5393 46.3395C77.7793 46.4995 78.1043 46.5795 78.5143 46.5795C79.2543 46.5795 79.8193 46.3245 80.2093 45.8145ZM88.3028 48.2145C87.1928 48.2145 86.2378 47.8545 85.4378 47.1345C84.6378 46.3945 84.2378 45.4345 84.2378 44.2545C84.2378 43.0745 84.6378 42.1295 85.4378 41.4195C86.2478 40.6995 87.2128 40.3395 88.3328 40.3395C89.1528 40.3395 89.8928 40.5045 90.5528 40.8345V42.6345C89.9028 42.3345 89.2678 42.1845 88.6478 42.1845C87.9878 42.1845 87.4328 42.3795 86.9828 42.7695C86.5428 43.1495 86.3228 43.6495 86.3228 44.2695C86.3228 44.8895 86.5478 45.3945 86.9978 45.7845C87.4478 46.1745 87.9978 46.3695 88.6478 46.3695C89.4178 46.3695 90.0928 46.1995 90.6728 45.8595V47.6595C89.9728 48.0295 89.1828 48.2145 88.3028 48.2145ZM94.5821 48.0195H92.4671V37.5195H94.5821V43.2645L97.1621 40.5345H99.7571L96.5021 43.9095L100.267 48.0195H97.5371L94.5821 44.7945V48.0195ZM105.99 45.6945V42.3045H104.52V40.5345H105.99V38.4795H108.105V40.5345H110.235V42.3045H108.105V45.2745C108.105 45.6445 108.185 45.9145 108.345 46.0845C108.505 46.2445 108.765 46.3245 109.125 46.3245C109.495 46.3245 109.86 46.2345 110.22 46.0545V47.8095C109.78 48.0795 109.185 48.2145 108.435 48.2145C106.805 48.2145 105.99 47.3745 105.99 45.6945ZM113.496 44.2695C113.496 44.8695 113.691 45.3695 114.081 45.7695C114.471 46.1695 114.966 46.3695 115.566 46.3695C116.166 46.3695 116.661 46.1695 117.051 45.7695C117.441 45.3595 117.636 44.8595 117.636 44.2695C117.636 43.6695 117.441 43.1745 117.051 42.7845C116.661 42.3845 116.166 42.1845 115.566 42.1845C114.966 42.1845 114.471 42.3845 114.081 42.7845C113.691 43.1745 113.496 43.6695 113.496 44.2695ZM111.411 44.2695C111.411 43.1595 111.801 42.2295 112.581 41.4795C113.351 40.7195 114.346 40.3395 115.566 40.3395C116.786 40.3395 117.781 40.7195 118.551 41.4795C119.331 42.2395 119.721 43.1695 119.721 44.2695C119.721 45.3895 119.331 46.3295 118.551 47.0895C117.771 47.8395 116.776 48.2145 115.566 48.2145C114.356 48.2145 113.361 47.8395 112.581 47.0895C111.801 46.3295 111.411 45.3895 111.411 44.2695ZM125.824 45.6945V42.3045H124.354V40.5345H125.824V38.4795H127.939V40.5345H130.069V42.3045H127.939V45.2745C127.939 45.6445 128.019 45.9145 128.179 46.0845C128.339 46.2445 128.599 46.3245 128.959 46.3245C129.329 46.3245 129.694 46.2345 130.054 46.0545V47.8095C129.614 48.0795 129.019 48.2145 128.269 48.2145C126.639 48.2145 125.824 47.3745 125.824 45.6945ZM133.855 43.2495V48.0195H131.74V37.5195H133.855V41.4495C134.535 40.7095 135.37 40.3395 136.36 40.3395C137.22 40.3395 137.89 40.6145 138.37 41.1645C138.85 41.7045 139.09 42.4595 139.09 43.4295V48.0195H136.975V43.8645C136.975 43.3245 136.84 42.9245 136.57 42.6645C136.31 42.4045 135.97 42.2745 135.55 42.2745C135.23 42.2745 134.91 42.3695 134.59 42.5595C134.28 42.7395 134.035 42.9695 133.855 43.2495ZM144.672 48.2145C143.502 48.2145 142.517 47.8545 141.717 47.1345C140.917 46.4145 140.517 45.4595 140.517 44.2695C140.517 43.1595 140.877 42.2295 141.597 41.4795C142.317 40.7195 143.257 40.3395 144.417 40.3395C145.497 40.3395 146.362 40.7245 147.012 41.4945C147.662 42.2645 147.987 43.1995 147.987 44.2995V44.8545H142.617C142.727 45.3545 143.002 45.7395 143.442 46.0095C143.892 46.2795 144.452 46.4145 145.122 46.4145C145.952 46.4145 146.752 46.1945 147.522 45.7545V47.4495C146.852 47.9595 145.902 48.2145 144.672 48.2145ZM142.617 43.5045H145.902C145.882 43.0745 145.727 42.7195 145.437 42.4395C145.157 42.1495 144.787 42.0045 144.327 42.0045C143.857 42.0045 143.467 42.1445 143.157 42.4245C142.847 42.6945 142.667 43.0545 142.617 43.5045ZM154.154 45.6945V42.3045H152.684V40.5345H154.154V38.4795H156.269V40.5345H158.399V42.3045H156.269V45.2745C156.269 45.6445 156.349 45.9145 156.509 46.0845C156.669 46.2445 156.929 46.3245 157.289 46.3245C157.659 46.3245 158.024 46.2345 158.384 46.0545V47.8095C157.944 48.0795 157.349 48.2145 156.599 48.2145C154.969 48.2145 154.154 47.3745 154.154 45.6945ZM161.66 44.2695C161.66 44.8695 161.855 45.3695 162.245 45.7695C162.635 46.1695 163.13 46.3695 163.73 46.3695C164.33 46.3695 164.825 46.1695 165.215 45.7695C165.605 45.3595 165.8 44.8595 165.8 44.2695C165.8 43.6695 165.605 43.1745 165.215 42.7845C164.825 42.3845 164.33 42.1845 163.73 42.1845C163.13 42.1845 162.635 42.3845 162.245 42.7845C161.855 43.1745 161.66 43.6695 161.66 44.2695ZM159.575 44.2695C159.575 43.1595 159.965 42.2295 160.745 41.4795C161.515 40.7195 162.51 40.3395 163.73 40.3395C164.95 40.3395 165.945 40.7195 166.715 41.4795C167.495 42.2395 167.885 43.1695 167.885 44.2695C167.885 45.3895 167.495 46.3295 166.715 47.0895C165.935 47.8395 164.94 48.2145 163.73 48.2145C162.52 48.2145 161.525 47.8395 160.745 47.0895C159.965 46.3295 159.575 45.3895 159.575 44.2695ZM174.02 40.3395C175.04 40.3395 175.88 40.7195 176.54 41.4795C177.21 42.2195 177.545 43.1545 177.545 44.2845C177.545 45.3945 177.21 46.3295 176.54 47.0895C175.88 47.8395 175.04 48.2145 174.02 48.2145C172.97 48.2145 172.15 47.8445 171.56 47.1045V51.0195H169.445V40.5345H171.56V41.4495C172.12 40.7095 172.94 40.3395 174.02 40.3395ZM173.42 42.1845C173.02 42.1845 172.655 42.2895 172.325 42.4995C171.995 42.7095 171.74 42.9795 171.56 43.3095V45.2595C171.74 45.5895 171.995 45.8595 172.325 46.0695C172.655 46.2695 173.02 46.3695 173.42 46.3695C174.02 46.3695 174.505 46.1695 174.875 45.7695C175.255 45.3595 175.445 44.8645 175.445 44.2845C175.445 43.6945 175.255 43.1945 174.875 42.7845C174.505 42.3845 174.02 42.1845 173.42 42.1845Z" fill="white"/>
</g>
<defs>
<filter id="filter0_d_728:3102" x="0" y="0.0195312" width="252" height="97" filterUnits="userSpaceOnUse" color-interpolation-filters="sRGB">
<feFlood flood-opacity="0" result="BackgroundImageFix"/>
<feColorMatrix in="SourceAlpha" type="matrix" values="0 0 0 0 0 0 0 0 0 0 0 0 0 0 0 0 0 0 127 0" result="hardAlpha"/>
<feOffset dx="5" dy="5"/>
<feGaussianBlur stdDeviation="10"/>
<feComposite in2="hardAlpha" operator="out"/>
<feColorMatrix type="matrix" values="0 0 0 0 0.231373 0 0 0 0 0.487372 0 0 0 0 0.984314 0 0 0 0.3 0"/>
<feBlend mode="normal" in2="BackgroundImageFix" result="effect1_dropShadow_728:3102"/>
<feBlend mode="normal" in="SourceGraphic" in2="effect1_dropShadow_728:3102" result="shape"/>
</filter>
</defs>
</svg>
