<svg width="434" height="93" viewBox="0 0 434 93" fill="none" xmlns="http://www.w3.org/2000/svg">
<path fill-rule="evenodd" clip-rule="evenodd" d="M4.00018 1.69788C3.33307 2.05042 2.73022 2.49448 2.19522 3.02945L2.18515 3.03955L2.17532 3.04996C1.5126 3.75165 0.990906 4.56622 0.608185 5.48477C0.216888 6.42383 0.0234375 7.41833 0.0234375 8.45923V67.9749C0.0234375 69.0445 0.215057 70.0566 0.608185 71.0001C0.990906 71.9186 1.5126 72.7332 2.17532 73.4349L2.19495 73.4557L2.21573 73.4753C2.91742 74.138 3.73199 74.6597 4.65054 75.0425C5.59402 75.4356 6.60611 75.6272 7.67578 75.6272H38.1318V73.6272H7.67578C6.84964 73.6272 6.10129 73.4803 5.41977 73.1963C4.72281 72.9059 4.12234 72.5201 3.60983 72.0409C3.13058 71.5283 2.74475 70.9279 2.45432 70.2309C2.17038 69.5494 2.02344 68.801 2.02344 67.9749V8.45923C2.02344 7.67203 2.16852 6.93994 2.45432 6.254C2.74661 5.55252 3.13556 4.94879 3.61908 4.43411C3.74124 4.3125 3.86829 4.19724 4.00018 4.08835V1.69788ZM51.1318 73.6272V75.6272H57.7969C60.8573 75.6272 63.5127 75.0823 65.7208 73.9415L65.7323 73.9353C67.8649 72.798 69.617 71.3794 70.9652 69.67C72.3289 67.9832 73.3069 66.1415 73.8879 64.1476C74.4855 62.2118 74.793 60.371 74.793 58.6311V56.092C74.793 53.4452 74.497 51.0033 73.8952 48.7729C73.2997 46.5663 72.4897 44.5708 71.4588 42.7934C70.4352 41.0288 69.2309 39.4677 67.8434 38.115C66.7623 37.0344 65.6096 36.0774 64.3855 35.2457C65.8704 33.0108 66.9754 30.6578 67.6945 28.188L67.6955 28.1848C68.4948 25.4044 68.9024 22.7884 68.9024 20.342V17.8538C68.9024 14.7926 68.3403 12.1358 67.1639 9.92633C66.0576 7.78604 64.6346 6.02927 62.8868 4.67941C61.2039 3.32022 59.3677 2.32877 57.3813 1.71475C55.4421 1.11539 53.5982 0.806885 51.8555 0.806885H17.0002V2.80688H51.8555C53.3628 2.80688 55.0059 3.07391 56.7907 3.62558C58.5252 4.16171 60.1396 5.03015 61.6369 6.24075L61.6459 6.24808L61.6551 6.25516C63.1516 7.40866 64.3989 8.9317 65.3889 10.848L65.395 10.8595C66.3825 12.7111 66.9024 15.0279 66.9024 17.8538V20.342C66.9024 22.5676 66.5313 24.9958 65.7733 27.6321C65.0283 30.1898 63.8282 32.626 62.1644 34.9422L61.5371 35.8156L62.4536 36.378C63.8736 37.2493 65.2003 38.3002 66.4335 39.5336L66.4428 39.5426C67.694 40.7618 68.7898 42.1781 69.7287 43.7969C70.6614 45.4049 71.4086 47.2349 71.9642 49.294C72.5134 51.3292 72.793 53.593 72.793 56.092V58.6311C72.793 60.1384 72.526 61.7815 71.9743 63.5663L71.9718 63.5742L71.9695 63.5822C71.4669 65.3098 70.6176 66.9188 69.4098 68.4125L69.4018 68.4227C68.2471 69.8894 66.7205 71.1407 64.7979 72.167C62.9443 73.1235 60.6246 73.6272 57.7969 73.6272H51.1318ZM58.8489 51.8423L58.8458 51.8345C58.3507 50.5657 57.6621 49.5004 56.7851 48.6234C55.9127 47.751 54.8543 47.0821 53.5939 46.621L53.5839 46.6173L53.574 46.6135C52.3187 46.1236 50.8873 45.8694 49.2656 45.8694H19.5078H18.5078V44.8694V31.5647V30.5647H19.5078H43.3242C44.9483 30.5647 46.3833 30.3267 47.6418 29.8678C48.9064 29.373 49.9689 28.6855 50.8437 27.8107C51.7203 26.9341 52.389 25.889 52.8488 24.6628L52.8535 24.6503C53.3435 23.3951 53.5977 21.9637 53.5977 20.342V17.8538C53.5977 17.0511 53.4037 16.6343 53.1923 16.4151C52.9874 16.2026 52.606 16.01 51.8555 16.01H15.2266V60.4241H57.7969C57.9898 60.4241 58.2423 60.4101 58.5607 60.3782C58.7565 60.3587 58.9121 60.3032 59.0442 60.2206C59.1065 60.1817 59.2369 60.0657 59.3907 59.7581C59.4961 59.5474 59.5899 59.1642 59.5899 58.5295V56.092C59.5899 54.4698 59.3355 53.0588 58.8489 51.8423ZM48.3497 31.7384L48.3397 31.7421C46.8248 32.2963 45.1487 32.5647 43.3242 32.5647H20.5078V43.8694H49.2656C51.0942 43.8694 52.7747 44.1558 54.2936 44.7474C55.804 45.3018 57.1111 46.121 58.1993 47.2091C59.2844 48.2942 60.1183 49.5964 60.7064 51.101L60.7058 51.0996L59.7802 51.4698L60.7089 51.1074L60.7064 51.101C61.3028 52.5924 61.5899 54.2617 61.5899 56.092V58.5295C61.5899 59.3167 61.4805 60.0508 61.1796 60.6525C60.9272 61.1574 60.5836 61.617 60.1042 61.9166C59.6947 62.1726 59.2409 62.3202 58.7597 62.3683C58.401 62.4042 58.0779 62.4241 57.7969 62.4241H14.2266H13.2266V61.4241V15.01V14.01H14.2266H51.8555C52.9331 14.01 53.9228 14.2914 54.632 15.0268C55.3346 15.7555 55.5977 16.7606 55.5977 17.8538V20.342C55.5977 22.1735 55.3102 23.8567 54.7168 25.3775C54.1611 26.8545 53.3417 28.1411 52.2579 29.2249C51.1714 30.3115 49.8669 31.1463 48.3597 31.7346L48.3497 31.7384ZM142.899 44.1425L142.897 44.1468C142.215 46.3724 141.105 48.446 139.577 50.3655C138.055 52.2852 136.06 53.8765 133.619 55.1505C131.14 56.4618 128.162 57.092 124.726 57.092H100.91H99.9102V56.092V43.5491V42.5491H100.91H124.726C126.308 42.5491 127.399 42.0804 128.149 41.2525C128.949 40.3372 129.363 39.2113 129.363 37.8108C129.363 36.3207 128.893 35.26 128.027 34.4995L128.021 34.4944L128.016 34.4893C127.129 33.6857 126.053 33.2756 124.726 33.2756H100.91C99.3387 33.2756 98.2502 33.7547 97.4973 34.6115L97.4922 34.6173L97.4871 34.6229C96.691 35.5013 96.2735 36.6073 96.2735 38.0139V56.4475C96.2735 57.9846 96.736 59.0609 97.5642 59.8145C98.4803 60.6174 99.6083 61.0334 101.012 61.0334H124.726H125.726V62.0334V74.6272V75.6272H124.726H115V73.6272H123.726V63.0334H101.012C99.1681 63.0334 97.5555 62.4694 96.2383 61.312L96.2326 61.3069L96.2269 61.3018C94.8922 60.0921 94.2735 58.4276 94.2735 56.4475V38.0139C94.2735 36.1714 94.8369 34.5698 96.0033 33.2818C97.2132 31.9108 98.8977 31.2756 100.91 31.2756H124.726C126.514 31.2756 128.079 31.8473 129.359 33.0073C130.72 34.2094 131.363 35.8534 131.363 37.8108C131.363 39.6545 130.799 41.267 129.642 42.5842L129.637 42.5899L129.631 42.5956C128.418 43.9344 126.734 44.5491 124.726 44.5491H101.91V55.092H124.726C127.925 55.092 130.564 54.5045 132.688 53.3801L132.693 53.3773C134.924 52.2138 136.687 50.7921 138.009 49.1233L138.01 49.1215C139.393 47.385 140.381 45.5322 140.985 43.5608C141.605 41.5036 141.906 39.6229 141.906 37.9124C141.906 34.7142 141.319 32.0744 140.194 29.9506L140.191 29.9452C139.03 27.719 137.594 25.9577 135.894 24.6353L135.886 24.629L135.878 24.6225C134.18 23.2456 132.332 22.2592 130.328 21.6549L130.324 21.6536C128.302 21.0338 126.438 20.7327 124.726 20.7327H100.91C97.7148 20.7327 95.0564 21.3194 92.8964 22.4453C90.7025 23.6068 88.9357 25.0456 87.5753 26.754C86.9646 27.5248 86.4308 28.3273 85.9733 29.1616H83.7283C84.3378 27.8765 85.0986 26.659 86.0092 25.51L86.0107 25.5082C87.5615 23.5607 89.5521 21.9527 91.9618 20.677L91.9671 20.6742C94.4781 19.3641 97.4722 18.7327 100.91 18.7327H124.726C126.67 18.7327 128.733 19.0742 130.906 19.7401C133.164 20.421 135.238 21.5308 137.128 23.0608C139.081 24.5816 140.69 26.5766 141.965 29.0201C143.276 31.4994 143.906 34.4776 143.906 37.9124C143.906 39.8569 143.564 41.9357 142.899 44.1425ZM83.7305 56.4475V42.1616H81.7305V56.4475C81.7305 59.8855 82.3619 62.8795 83.672 65.3906L83.6748 65.3959C84.9485 67.8017 86.5368 69.7906 88.4481 71.3413L88.4561 71.3477L88.4642 71.354C90.383 72.8464 92.4543 73.9377 94.6758 74.6185L94.68 74.6198C96.8868 75.2853 98.9656 75.6272 100.91 75.6272H102V73.6272H100.91C99.1985 73.6272 97.3163 73.3259 95.2575 72.7049C93.2858 72.1002 91.4344 71.1289 89.7007 69.782C88.028 68.4231 86.6068 66.6579 85.4452 64.4654C84.3178 62.3045 83.7305 59.645 83.7305 56.4475ZM246.235 62.5369L246.233 62.542C245.632 64.4171 244.83 66.0973 243.822 67.574L243.815 67.5835C242.813 69.0153 241.645 70.256 240.312 71.301L240.305 71.3062L240.299 71.3113C238.989 72.3027 237.604 73.1205 236.145 73.7618C234.73 74.3982 233.294 74.8776 231.835 75.1977L231.824 75.2002L231.812 75.2024C230.369 75.484 228.984 75.6272 227.66 75.6272H203.844H202.844V74.6272V61.4241V60.4241H203.844H227.66C229.256 60.4241 230.272 60.0116 230.901 59.3593C231.545 58.6904 231.941 57.655 231.941 56.092V38.3186C231.941 36.6413 231.522 35.5981 230.876 34.9764L230.87 34.9699L230.863 34.9632C230.534 34.6338 230.101 34.3679 229.539 34.1891V32.1225C230.609 32.3546 231.534 32.8109 232.264 33.5358C233.446 34.6745 233.941 36.3396 233.941 38.3186V56.092C233.941 57.9822 233.457 59.5874 232.341 60.7466C231.209 61.9225 229.584 62.4241 227.66 62.4241H204.844V73.6272H227.66C228.837 73.6272 230.088 73.5004 231.415 73.2423C232.73 72.9531 234.033 72.519 235.324 71.9379L235.332 71.9342C236.641 71.3596 237.889 70.6246 239.078 69.7269C240.247 68.8105 241.278 67.7184 242.17 66.446C243.057 65.1479 243.777 63.6475 244.327 61.9363C244.867 60.2212 245.144 58.2766 245.144 56.092V38.217C245.144 37.0454 245.002 35.7973 244.711 34.4705L244.708 34.4591L244.706 34.4476C244.45 33.1386 244.035 31.8408 243.455 30.5532L243.451 30.5448C242.877 29.2373 242.126 27.9887 241.193 26.7988L241.188 26.7921L241.183 26.7853C240.305 25.6248 239.217 24.5981 237.912 23.7069L237.903 23.7004C236.641 22.8173 235.16 22.0973 233.448 21.5482C231.77 21.01 229.845 20.7327 227.66 20.7327H203.844C202.707 20.7327 201.458 20.8748 200.092 21.1675L200.083 21.1694L200.074 21.1712C198.763 21.4269 197.446 21.8438 196.121 22.4257C194.848 22.9992 193.617 23.7503 192.425 24.6838L192.419 24.689L192.412 24.6941C191.249 25.5743 190.203 26.6648 189.276 27.9741C188.393 29.2355 187.673 30.7168 187.124 32.4287C186.586 34.1065 186.308 36.0321 186.308 38.217V90.7913H197.512V38.217C197.512 36.3198 198.017 34.7155 199.189 33.5866C200.352 32.4314 201.997 31.9358 203.945 31.9358H216.539V33.9358H203.945C202.311 33.9358 201.253 34.3504 200.59 35.014L200.583 35.0207L200.576 35.0272C199.92 35.6587 199.512 36.6611 199.512 38.217V91.7913V92.7913H198.512H185.308H184.308V91.7913V38.217C184.308 35.8656 184.607 33.7286 185.219 31.8179C185.821 29.9412 186.625 28.2741 187.638 26.8272L187.64 26.8232C188.677 25.3582 189.864 24.1141 191.205 23.0993C192.512 22.0759 193.88 21.2408 195.308 20.5981L195.317 20.5943C196.765 19.9584 198.222 19.4954 199.685 19.2094C201.159 18.8943 202.546 18.7327 203.844 18.7327H227.66C230.011 18.7327 232.148 19.0309 234.059 19.6437C235.936 20.2457 237.603 21.049 239.05 22.0619C240.517 23.065 241.762 24.2367 242.778 25.5784C243.804 26.8897 244.64 28.2774 245.283 29.7408C245.92 31.1586 246.384 32.6001 246.669 34.0641C246.984 35.5053 247.144 36.8904 247.144 38.217V56.092C247.144 58.444 246.846 60.5957 246.235 62.5369ZM314.082 62.6777L314.081 62.6819C313.399 64.9084 312.287 66.9826 310.759 68.9025C309.24 70.82 307.247 72.4098 304.808 73.6829C302.327 74.996 299.347 75.6272 295.91 75.6272H278.108V73.6272H295.91C299.108 73.6272 301.748 73.0397 303.872 71.9153L303.877 71.9125C306.107 70.7489 307.87 69.3273 309.193 67.6585L309.194 67.6566C310.576 65.9215 311.564 64.0702 312.168 62.1004L312.167 62.1002C312.788 60.0413 313.09 58.1592 313.09 56.4475V37.9124C313.09 34.7142 312.502 32.0744 311.378 29.9506L311.375 29.9452C310.213 27.719 308.778 25.9577 307.077 24.6353L307.069 24.629L307.061 24.6225C305.364 23.2456 303.516 22.2592 301.512 21.6549L301.508 21.6536C300.475 21.3371 299.483 21.1037 298.532 20.951V18.9279C299.683 19.0944 300.871 19.3666 302.094 19.7414C304.351 20.4226 306.425 21.5325 308.312 23.0622C310.265 24.5828 311.874 26.5773 313.148 29.0201C314.459 31.4994 315.09 34.4776 315.09 37.9124V56.4475C315.09 58.3921 314.748 60.4709 314.082 62.6777ZM259.648 71.354C261.348 72.6769 263.17 73.6847 265.108 74.3707V72.2327C263.633 71.6378 262.228 70.8242 260.892 69.7881C259.216 68.4284 257.793 66.6612 256.629 64.4654C255.501 62.3045 254.914 59.645 254.914 56.4475C254.914 54.7358 255.215 52.8537 255.836 50.7948C256.442 48.7867 257.414 46.9362 258.759 45.2384C260.118 43.531 261.885 42.093 264.076 40.9317C266.237 39.8043 268.896 39.217 272.094 39.217H294.91V49.8108H272.094C270.076 49.8108 268.389 50.4489 267.178 51.8265C266.017 53.1128 265.457 54.7113 265.457 56.5491C265.457 58.5121 266.104 60.1598 267.473 61.3627L267.485 61.3733L267.497 61.3835C268.835 62.4858 270.417 63.0334 272.195 63.0334H295.91C297.917 63.0334 299.602 62.4188 300.815 61.08C301.983 59.7917 302.547 58.1893 302.547 56.3459V37.9124C302.547 35.9585 301.924 34.3054 300.606 33.0695C299.35 31.8596 297.758 31.2756 295.91 31.2756H267.914V20.7327H285.532V18.7327H266.914H265.914V19.7327V32.2756V33.2756H266.914H295.91C297.307 33.2756 298.385 33.7035 299.226 34.5177L299.232 34.5232L299.238 34.5286C300.086 35.324 300.547 36.4131 300.547 37.9124V56.3459C300.547 57.7526 300.129 58.8585 299.333 59.7369C298.583 60.5647 297.491 61.0334 295.91 61.0334H272.195C270.868 61.0334 269.748 60.6386 268.788 59.8559C267.925 59.0956 267.457 58.0361 267.457 56.5491C267.457 55.1424 267.874 54.0365 268.671 53.1581L268.676 53.1524L268.681 53.1467C269.434 52.2899 270.522 51.8108 272.094 51.8108H295.91H296.91V50.8108V38.217V37.217H295.91H272.094C268.656 37.217 265.662 37.8485 263.151 39.1586L263.145 39.1614C260.735 40.4371 258.745 42.045 257.194 43.9925L257.193 43.9944C255.695 45.8847 254.602 47.9604 253.921 50.2174C253.256 52.4241 252.914 54.503 252.914 56.4475C252.914 59.8855 253.545 62.8795 254.855 65.3906L254.858 65.3959C256.132 67.8017 257.72 69.7906 259.632 71.3413L259.639 71.3477L259.648 71.354ZM374.402 33.9358H373.402H343.695C342.061 33.9358 341.003 34.3504 340.34 35.014L340.333 35.0207L340.326 35.0272C339.67 35.6587 339.262 36.6611 339.262 38.217V53.4009H337.262V38.217C337.262 36.3198 337.767 34.7155 338.939 33.5866C340.102 32.4314 341.747 31.9358 343.695 31.9358H372.402V20.7327H360.024V18.7327H373.402H374.402V19.7327V32.9358V33.9358ZM343.594 18.7327H347.024V20.7327H343.594C342.457 20.7327 341.208 20.8748 339.842 21.1675L339.833 21.1694L339.824 21.1712C338.513 21.4269 337.196 21.8438 335.871 22.4257C334.598 22.9992 333.367 23.7503 332.175 24.6838L332.169 24.689L332.162 24.6941C330.999 25.5743 329.953 26.6648 329.026 27.9741C328.143 29.2355 327.423 30.7168 326.874 32.4287C326.336 34.1065 326.058 36.0321 326.058 38.217V73.6272H337.262V66.4009H339.262V74.6272V75.6272H338.262H325.058H324.058V74.6272V38.217C324.058 35.8656 324.357 33.7286 324.969 31.8179C325.571 29.9412 326.375 28.2741 327.388 26.8272L327.39 26.8232C328.427 25.3582 329.614 24.1141 330.955 23.0993C332.262 22.0759 333.63 21.2408 335.058 20.5981L335.067 20.5943C336.515 19.9585 337.972 19.4956 339.434 19.2095C340.908 18.8943 342.295 18.7327 343.594 18.7327ZM433.055 33.9358H432.055H410V74.6272V75.6272H409H395.644H394.644V74.6272V53.2991H396.644V73.6272H408V32.9358V31.9358H409H431.055V20.7327H430V18.7327H432.055H433.055V19.7327V32.9358V33.9358ZM417 18.7327H410V1.80688V0.806885H409H395.644H394.644V1.80688V18.7327H378.48H377.48V19.7327V32.9358V33.9358H378.48H394.644V40.2991H396.644V32.9358V31.9358H395.644H379.48V20.7327H395.644H396.644V19.7327V2.80688H408V19.7327V20.7327H409H417V18.7327Z" fill="#FF4FB9"/>
</svg>
