<svg width="129" height="141" viewBox="0 0 129 141" fill="none" xmlns="http://www.w3.org/2000/svg">
<g filter="url(#filter0_d)">
<path d="M63.299 32.8372L54.1708 45.3697L64.4307 49.1165L73.5506 36.5699C76.235 32.8774 79.7245 31.3841 82.4441 32.3833L72.1842 28.6365C69.4729 27.6515 65.9834 29.1447 63.299 32.8372Z" fill="url(#paint0_linear)"/>
<path d="M31.8805 76.0427L31.7681 76.193C31.6699 76.335 31.5718 76.4769 31.4777 76.6261C31.3837 76.7752 31.326 76.8559 31.2593 76.9702L31.2024 77.0031L31.1669 77.0236C31.0657 77.1768 30.9758 77.333 30.8858 77.4892C30.7959 77.6455 30.716 77.7864 30.6332 77.9385C30.5403 78.1059 30.4555 78.2876 30.3667 78.4621C30.2778 78.6366 30.2396 78.7346 30.174 78.8673L30.1185 78.9846L30.0687 79.0134C29.9557 79.2556 29.853 79.5045 29.7604 79.7602C29.7456 79.7856 29.7361 79.8137 29.7323 79.8428C29.547 80.3101 29.3882 80.7905 29.2477 81.2697L29.1535 81.5991C29.0423 82.0141 28.9423 82.4321 28.8607 82.849L28.8096 83.0396L28.7978 83.1507L28.7432 83.4666C28.7195 83.6226 28.6845 83.7755 28.6679 83.9273L28.6395 84.1902L28.6111 84.4531L28.5806 84.6793L28.5409 85.3659L28.5614 85.4014L28.5476 85.9687L28.5513 86.3364L28.5549 86.4575L28.5877 86.5144L28.6166 87.0571L28.6455 87.3533L28.6947 87.4386L28.7043 87.5374L28.7685 87.9934L28.8301 88.3465L28.8548 88.3891L28.9493 88.7991L29.0468 89.1979L29.0755 89.2477L29.1001 89.2903L29.1828 89.5649L29.3148 89.9249L29.4092 90.0884L29.4462 90.1524L29.5036 90.252L29.6528 90.5925L29.8417 90.9195L30.0346 91.2537L30.2276 91.5879L30.2809 91.6804L30.4246 91.9292C30.4944 92.0501 30.5601 92.1639 30.6898 92.2407L30.7555 92.3545L30.8129 92.454L30.9388 92.5899L31.2885 92.9L31.3213 92.9569L31.4368 93.0419L31.6871 93.2292L31.8852 93.3424L32.1292 93.4859L32.266 93.5587C32.4146 93.6338 32.5673 93.7007 32.7232 93.7593L42.983 97.5061C42.7781 97.4308 42.5795 97.3394 42.389 97.2328L42.145 97.0893C41.9876 97.0016 41.8376 96.9011 41.6966 96.7888L41.5811 96.7038C41.392 96.5533 41.2127 96.3908 41.0443 96.2173L40.9868 96.1178C40.7984 95.9141 40.6232 95.6986 40.4625 95.4724C40.302 95.2272 40.1554 94.9732 40.0233 94.7116C39.897 94.467 39.7837 94.2159 39.6838 93.9595L39.6469 93.8955C39.5429 93.6332 39.4531 93.3627 39.3786 93.1023L39.3539 93.0596C39.2629 92.7648 39.1908 92.4644 39.1381 92.1603L39.1135 92.1177C39.0551 91.8195 39.0151 91.5203 38.9945 91.2383L38.9808 91.1324C38.952 90.8362 38.9262 90.5288 38.9187 90.2202L38.9192 90.1062L38.9139 89.1611C38.9248 88.8515 38.9469 88.5448 38.9831 88.23C38.9869 88.1418 38.9964 88.054 39.0115 87.9671C39.0338 87.7266 39.0745 87.4851 39.1081 87.2477L39.1627 86.9317L39.2255 86.63C39.3085 86.2155 39.4085 85.7975 39.5255 85.376L39.6126 85.0508C39.7531 84.5715 39.9118 84.0911 40.0971 83.6239C40.2149 83.3188 40.3368 83.0209 40.4699 82.726L40.5183 82.6127C40.6717 82.2872 40.822 81.9728 40.9907 81.6574C41.1665 81.3379 41.3493 81.0142 41.5475 80.7007C41.5627 80.6888 41.5795 80.6791 41.5973 80.6719C41.7955 80.3584 42.005 80.0479 42.2185 79.7445L51.3497 67.2008L41.0858 63.4468L31.8805 76.0427Z" fill="url(#paint1_linear)"/>
<path d="M38.1665 35.7142L38.2091 35.6896C38.273 35.658 38.3348 35.6224 38.394 35.5828C38.5149 35.513 38.6357 35.4433 38.7279 35.3237L39.0659 35.0717C39.1583 35.0183 39.2437 34.969 39.3361 34.9157L39.4428 34.8541C39.5708 34.7802 39.6916 34.7104 39.8196 34.6365C39.9476 34.5626 40.0827 34.4846 40.2107 34.4107L40.4667 34.2629C40.4859 34.2472 40.5075 34.2348 40.5307 34.226C40.5615 34.2031 40.595 34.1838 40.6302 34.1685C40.7883 34.0951 40.9502 34.0301 41.1151 33.9739C41.2787 33.8794 41.4649 33.8572 41.646 33.8096C41.8851 33.7474 42.1323 33.6994 42.3654 33.6597L42.6657 33.638L42.852 33.6158C43.1726 33.5974 43.4941 33.6052 43.8135 33.639C43.849 33.6185 43.9215 33.6619 43.9806 33.6658C44.305 33.7136 44.6239 33.793 44.9328 33.9029L55.1927 37.6497C54.882 37.5385 54.5604 37.4604 54.2333 37.4167L54.0662 37.39C53.7481 37.3564 53.4278 37.3511 53.1088 37.3739C53.045 37.3735 52.9813 37.3785 52.9184 37.389C52.5722 37.4214 52.2289 37.4801 51.8916 37.5646C51.5105 37.6695 51.1385 37.805 50.7793 37.9698C50.7793 37.9698 50.7366 37.9945 50.7082 38.0109C50.3315 38.1949 49.968 38.4048 49.6203 38.639L49.5776 38.6636C49.1982 38.9153 48.8339 39.189 48.4865 39.4832L48.4367 39.5119C48.0613 39.8386 47.7051 40.1866 47.37 40.5544C47.002 40.957 46.6578 41.3805 46.3389 41.8229C46.1212 42.1192 45.9189 42.4256 45.7207 42.7391C45.7025 42.7514 45.6835 42.7623 45.6638 42.772C45.4656 43.0855 45.2827 43.4092 45.1111 43.7358C44.9424 44.0513 44.792 44.3656 44.6458 44.687L44.5903 44.8044C44.4572 45.0993 44.3353 45.3972 44.2134 45.6952C44.0322 46.1695 43.8734 46.6499 43.7289 47.1221L43.6387 47.4585C43.5218 47.88 43.4218 48.298 43.3388 48.7125L43.279 49.003L43.2285 49.3261L43.1248 50.0496L43.0964 50.3125C43.0672 50.6232 43.038 50.934 43.0272 51.2436L43.0253 52.1928L43.0289 52.314C43.0364 52.6225 43.0622 52.93 43.091 53.2262L43.1403 53.3115C43.1773 53.622 43.2174 53.9212 43.2593 54.1909L43.2839 54.2335C43.3382 54.538 43.4078 54.8395 43.4927 55.137L43.5173 55.1796C43.6041 55.4613 43.6939 55.7318 43.7856 55.9728L43.8225 56.0368C44.0414 56.5793 44.3204 57.0956 44.6543 57.576L51.3611 67.0906L41.0972 63.3366L34.3015 53.9965L34.2482 53.9041L34.0552 53.5699L33.8623 53.2357L33.6775 52.9157L33.5242 52.5681L33.4668 52.4686L33.4298 52.4046L33.3354 52.241L33.2106 51.877L33.1279 51.6024L33.1032 51.5597L33.0786 51.5171L32.974 51.1224L32.8866 50.7083L32.8661 50.6727L32.8414 50.6301C32.8195 50.51 32.7946 50.4011 32.7839 50.2841C32.7534 50.1335 32.732 49.9812 32.7197 49.8281L32.706 49.7223L32.6923 49.6164L32.6676 49.3273L32.6316 48.7887L32.6373 48.7001L32.6337 48.5789L32.6229 48.2154L32.6397 47.6369L32.6835 46.9574L32.713 46.7128L32.7383 46.4612L32.7708 46.2054L32.8421 45.7376L32.8926 45.4146L32.9155 45.3065L32.9524 45.1241C33.0449 44.7041 33.1448 44.2861 33.2523 43.8701L33.3425 43.5336C33.4829 43.0543 33.6458 42.5811 33.827 42.1067L33.8551 42.0241C33.9579 41.7752 34.0607 41.5262 34.1746 41.2803L34.1998 41.2089L34.2594 41.0986L34.445 40.6975C34.5297 40.5159 34.6257 40.3372 34.7145 40.1627C34.8015 40.0177 34.8843 39.8656 34.9671 39.7135C35.05 39.5614 35.147 39.401 35.2482 39.2478L35.2837 39.2273C35.2837 39.2273 35.3193 39.2068 35.3406 39.1945C35.3619 39.1821 35.4852 38.9687 35.559 38.8503L35.8535 38.4243L35.9659 38.2741C36.0266 38.1822 36.0914 38.0973 36.1562 38.0125C36.221 37.9277 36.3506 37.7581 36.4569 37.6303C36.5633 37.5025 36.6524 37.3942 36.7558 37.2776C36.8592 37.1611 36.9138 37.0916 36.9899 37.0098L37.0396 36.981L37.3407 36.665C37.4616 36.5952 37.5455 36.4614 37.65 36.3632C37.7544 36.265 37.8589 36.1667 37.9603 36.0797L38.1665 35.7142Z" fill="url(#paint2_linear)"/>
<path d="M59.9374 88.7902L70.1901 92.5412C69.1605 92.1477 68.2779 91.4451 67.6637 90.5299L60.9486 81.001L50.6888 77.2541L57.3998 86.7759C58.0144 87.696 58.9019 88.4004 59.9374 88.7902Z" fill="url(#paint3_linear)"/>
<path d="M40.4002 95.7265C37.7506 91.9091 38.5011 84.8014 42.141 79.8082L51.2722 67.2646L44.5643 57.7316C41.8863 53.9306 42.6682 46.7952 46.3041 41.7949C49.9399 36.7947 55.0519 35.7963 57.7382 39.6115L64.445 49.1261L73.565 36.5795C77.2079 31.5751 82.3058 30.5849 84.9961 34.4072C87.6864 38.2296 86.8952 45.3324 83.2593 50.3327L74.0967 62.9039L80.8076 72.4257C83.4815 76.2196 82.6996 83.355 79.0679 88.3623C75.4361 93.3697 70.32 94.361 67.6337 90.5458L60.9187 81.0169L51.7987 93.5636C48.2127 98.5351 43.0883 99.5122 40.4002 95.7265Z" fill="url(#paint4_linear)"/>
</g>
<defs>
<filter id="filter0_d" x="0.541016" y="0.340576" width="128.053" height="139.693" filterUnits="userSpaceOnUse" color-interpolation-filters="sRGB">
<feFlood flood-opacity="0" result="BackgroundImageFix"/>
<feColorMatrix in="SourceAlpha" type="matrix" values="0 0 0 0 0 0 0 0 0 0 0 0 0 0 0 0 0 0 127 0" result="hardAlpha"/>
<feOffset dx="7" dy="7"/>
<feGaussianBlur stdDeviation="17.5"/>
<feColorMatrix type="matrix" values="0 0 0 0 1 0 0 0 0 0.137255 0 0 0 0 0.654902 0 0 0 0.5 0"/>
<feBlend mode="normal" in2="BackgroundImageFix" result="effect1_dropShadow"/>
<feBlend mode="normal" in="SourceGraphic" in2="effect1_dropShadow" result="shape"/>
</filter>
<linearGradient id="paint0_linear" x1="82.6528" y1="41.4923" x2="64.3084" y2="37.1218" gradientUnits="userSpaceOnUse">
<stop stop-color="#140B31"/>
<stop offset="0.557292" stop-color="#10072D"/>
<stop offset="1" stop-color="#07001C"/>
</linearGradient>
<linearGradient id="paint1_linear" x1="61.0664" y1="92.6389" x2="38.1339" y2="94.3187" gradientUnits="userSpaceOnUse">
<stop stop-color="#140B31"/>
<stop offset="0.557292" stop-color="#10072D"/>
<stop offset="1" stop-color="#07001C"/>
</linearGradient>
<linearGradient id="paint2_linear" x1="66.4571" y1="64.577" x2="46.1293" y2="67.9685" gradientUnits="userSpaceOnUse">
<stop stop-color="#140B31"/>
<stop offset="0.557292" stop-color="#10072D"/>
<stop offset="1" stop-color="#07001C"/>
</linearGradient>
<linearGradient id="paint3_linear" x1="70.8821" y1="96.3502" x2="63.6929" y2="98.8267" gradientUnits="userSpaceOnUse">
<stop stop-color="#140B31"/>
<stop offset="0.557292" stop-color="#10072D"/>
<stop offset="1" stop-color="#07001C"/>
</linearGradient>
<linearGradient id="paint4_linear" x1="103.687" y1="86.3017" x2="53.161" y2="86.687" gradientUnits="userSpaceOnUse">
<stop stop-color="#140B31"/>
<stop offset="0.557292" stop-color="#10072D"/>
<stop offset="1" stop-color="#07001C"/>
</linearGradient>
</defs>
</svg>
