<svg width="170" height="165" viewBox="0 0 170 165" fill="none" xmlns="http://www.w3.org/2000/svg">
<g filter="url(#filter0_d)">
<path d="M127.355 64.1051L69.4818 67.5542L93.1344 122.864L127.355 64.1051Z" fill="#07001C"/>
<path opacity="0.7" d="M127.356 64.1051L69.4828 67.5542L93.1353 122.864L127.356 64.1051Z" fill="url(#paint0_linear)"/>
<path opacity="0.7" d="M69.4929 67.5941L93.135 122.865L127.274 64.1907L69.4929 67.5941Z" fill="url(#paint1_linear)"/>
<path opacity="0.7" d="M69.5155 67.6395L93.1348 122.865L127.195 64.2842L69.5155 67.6395Z" fill="url(#paint2_linear)"/>
<path opacity="0.7" d="M69.539 67.6857L93.1355 122.865L127.104 64.3715L69.539 67.6857Z" fill="url(#paint3_linear)"/>
<path opacity="0.7" d="M69.5501 67.7247L93.1362 122.865L127.023 64.4561L69.5501 67.7247Z" fill="url(#paint4_linear)"/>
<path opacity="0.7" d="M69.5736 67.7698L93.137 122.864L126.942 64.5396L69.5736 67.7698Z" fill="url(#paint5_linear)"/>
<path opacity="0.7" d="M69.5936 67.8065L93.1367 122.864L126.853 64.6369L69.5936 67.8065Z" fill="url(#paint6_linear)"/>
<path opacity="0.7" d="M69.6054 67.857L93.1355 122.866L126.77 64.7232L69.6054 67.857Z" fill="url(#paint7_linear)"/>
<path opacity="0.7" d="M69.6263 67.8931L93.1362 122.866L126.689 64.8075L69.6263 67.8931Z" fill="url(#paint8_linear)"/>
<path opacity="0.7" d="M69.6488 67.9393L93.1359 122.866L126.597 64.8947L69.6488 67.9393Z" fill="url(#paint9_linear)"/>
<path opacity="0.7" d="M69.6616 67.987L93.1357 122.865L126.518 64.9881L69.6616 67.987Z" fill="url(#paint10_linear)"/>
<path opacity="0.7" d="M69.6815 68.0234L93.1354 122.865L126.436 65.0726L69.6815 68.0234Z" fill="url(#paint11_linear)"/>
<path opacity="0.7" d="M69.704 68.0703L93.1351 122.866L126.344 65.1606L69.704 68.0703Z" fill="url(#paint12_linear)"/>
<path opacity="0.7" d="M69.7142 68.1086L93.1349 122.865L126.262 65.2444L69.7142 68.1086Z" fill="url(#paint13_linear)"/>
<path opacity="0.7" d="M69.7377 68.1548L93.1356 122.865L126.174 65.3414L69.7377 68.1548Z" fill="url(#paint14_linear)"/>
<path opacity="0.7" d="M69.7612 68.2009L93.1363 122.865L126.093 65.426L69.7612 68.2009Z" fill="url(#paint15_linear)"/>
<path opacity="0.7" d="M69.7714 68.2401L93.1361 122.865L126.011 65.5108L69.7714 68.2401Z" fill="url(#paint16_linear)"/>
<path opacity="0.7" d="M69.793 68.2856L93.1348 122.865L125.918 65.5973L69.793 68.2856Z" fill="url(#paint17_linear)"/>
<path opacity="0.7" d="M69.8149 68.3222L93.1365 122.865L125.841 65.6919L69.8149 68.3222Z" fill="url(#paint18_linear)"/>
<path opacity="0.7" d="M69.8277 68.3712L93.1363 122.865L125.759 65.7767L69.8277 68.3712Z" fill="url(#paint19_linear)"/>
<path opacity="0.7" d="M69.8511 68.4174L93.137 122.865L125.668 65.864L69.8511 68.4174Z" fill="url(#paint20_linear)"/>
<path opacity="0.7" d="M69.8701 68.4533L93.1357 122.865L125.585 65.948L69.8701 68.4533Z" fill="url(#paint21_linear)"/>
<path d="M69.4832 67.5554L28.5709 93.3948L93.1357 122.866L69.4832 67.5554Z" fill="url(#paint22_linear)"/>
<path d="M127.356 64.1072L67.8393 28.4605L69.4828 67.5562L127.356 64.1072Z" fill="url(#paint23_linear)"/>
<path d="M28.5703 93.3951L67.8391 28.4599L69.4826 67.5557L28.5703 93.3951Z" fill="url(#paint24_linear)"/>
</g>
<defs>
<filter id="filter0_d" x="0.570312" y="0.459961" width="168.786" height="164.406" filterUnits="userSpaceOnUse" color-interpolation-filters="sRGB">
<feFlood flood-opacity="0" result="BackgroundImageFix"/>
<feColorMatrix in="SourceAlpha" type="matrix" values="0 0 0 0 0 0 0 0 0 0 0 0 0 0 0 0 0 0 127 0" result="hardAlpha"/>
<feOffset dx="7" dy="7"/>
<feGaussianBlur stdDeviation="17.5"/>
<feColorMatrix type="matrix" values="0 0 0 0 1 0 0 0 0 0.137255 0 0 0 0 0.654902 0 0 0 0.5 0"/>
<feBlend mode="normal" in2="BackgroundImageFix" result="effect1_dropShadow"/>
<feBlend mode="normal" in="SourceGraphic" in2="effect1_dropShadow" result="shape"/>
</filter>
<linearGradient id="paint0_linear" x1="74.0218" y1="119.282" x2="83.1677" y2="75.7231" gradientUnits="userSpaceOnUse">
<stop stop-color="#140B31"/>
<stop offset="0.557292" stop-color="#10072D"/>
<stop offset="1" stop-color="#07001C"/>
</linearGradient>
<linearGradient id="paint1_linear" x1="74.0384" y1="119.285" x2="83.1954" y2="75.7688" gradientUnits="userSpaceOnUse">
<stop stop-color="#140B31"/>
<stop offset="0.557292" stop-color="#10072D"/>
<stop offset="1" stop-color="#07001C"/>
</linearGradient>
<linearGradient id="paint2_linear" x1="74.0667" y1="119.284" x2="83.2334" y2="75.8187" gradientUnits="userSpaceOnUse">
<stop stop-color="#140B31"/>
<stop offset="0.557292" stop-color="#10072D"/>
<stop offset="1" stop-color="#07001C"/>
</linearGradient>
<linearGradient id="paint3_linear" x1="74.0976" y1="119.283" x2="83.2767" y2="75.8712" gradientUnits="userSpaceOnUse">
<stop stop-color="#140B31"/>
<stop offset="0.557292" stop-color="#10072D"/>
<stop offset="1" stop-color="#07001C"/>
</linearGradient>
<linearGradient id="paint4_linear" x1="74.1152" y1="119.284" x2="83.3054" y2="75.9161" gradientUnits="userSpaceOnUse">
<stop stop-color="#140B31"/>
<stop offset="0.557292" stop-color="#10072D"/>
<stop offset="1" stop-color="#07001C"/>
</linearGradient>
<linearGradient id="paint5_linear" x1="74.1445" y1="119.283" x2="83.3444" y2="75.9658" gradientUnits="userSpaceOnUse">
<stop stop-color="#140B31"/>
<stop offset="0.557292" stop-color="#10072D"/>
<stop offset="1" stop-color="#07001C"/>
</linearGradient>
<linearGradient id="paint6_linear" x1="74.174" y1="119.281" x2="83.3906" y2="76.0122" gradientUnits="userSpaceOnUse">
<stop stop-color="#140B31"/>
<stop offset="0.557292" stop-color="#10072D"/>
<stop offset="1" stop-color="#07001C"/>
</linearGradient>
<linearGradient id="paint7_linear" x1="74.19" y1="119.286" x2="83.4136" y2="76.0655" gradientUnits="userSpaceOnUse">
<stop stop-color="#140B31"/>
<stop offset="0.557292" stop-color="#10072D"/>
<stop offset="1" stop-color="#07001C"/>
</linearGradient>
<linearGradient id="paint8_linear" x1="74.2189" y1="119.284" x2="83.4565" y2="76.1095" gradientUnits="userSpaceOnUse">
<stop stop-color="#140B31"/>
<stop offset="0.557292" stop-color="#10072D"/>
<stop offset="1" stop-color="#07001C"/>
</linearGradient>
<linearGradient id="paint9_linear" x1="74.2488" y1="119.283" x2="83.499" y2="76.1624" gradientUnits="userSpaceOnUse">
<stop stop-color="#140B31"/>
<stop offset="0.557292" stop-color="#10072D"/>
<stop offset="1" stop-color="#07001C"/>
</linearGradient>
<linearGradient id="paint10_linear" x1="74.2658" y1="119.285" x2="83.523" y2="76.2131" gradientUnits="userSpaceOnUse">
<stop stop-color="#140B31"/>
<stop offset="0.557292" stop-color="#10072D"/>
<stop offset="1" stop-color="#07001C"/>
</linearGradient>
<linearGradient id="paint11_linear" x1="74.2938" y1="119.284" x2="83.565" y2="76.2575" gradientUnits="userSpaceOnUse">
<stop stop-color="#140B31"/>
<stop offset="0.557292" stop-color="#10072D"/>
<stop offset="1" stop-color="#07001C"/>
</linearGradient>
<linearGradient id="paint12_linear" x1="74.3236" y1="119.284" x2="83.6075" y2="76.3112" gradientUnits="userSpaceOnUse">
<stop stop-color="#140B31"/>
<stop offset="0.557292" stop-color="#10072D"/>
<stop offset="1" stop-color="#07001C"/>
</linearGradient>
<linearGradient id="paint13_linear" x1="74.3403" y1="119.284" x2="83.6354" y2="76.3558" gradientUnits="userSpaceOnUse">
<stop stop-color="#140B31"/>
<stop offset="0.557292" stop-color="#10072D"/>
<stop offset="1" stop-color="#07001C"/>
</linearGradient>
<linearGradient id="paint14_linear" x1="74.3711" y1="119.284" x2="83.6789" y2="76.4089" gradientUnits="userSpaceOnUse">
<stop stop-color="#140B31"/>
<stop offset="0.557292" stop-color="#10072D"/>
<stop offset="1" stop-color="#07001C"/>
</linearGradient>
<linearGradient id="paint15_linear" x1="74.4004" y1="119.283" x2="83.7181" y2="76.4601" gradientUnits="userSpaceOnUse">
<stop stop-color="#140B31"/>
<stop offset="0.557292" stop-color="#10072D"/>
<stop offset="1" stop-color="#07001C"/>
</linearGradient>
<linearGradient id="paint16_linear" x1="74.417" y1="119.285" x2="83.7461" y2="76.5057" gradientUnits="userSpaceOnUse">
<stop stop-color="#140B31"/>
<stop offset="0.557292" stop-color="#10072D"/>
<stop offset="1" stop-color="#07001C"/>
</linearGradient>
<linearGradient id="paint17_linear" x1="74.4459" y1="119.284" x2="83.7877" y2="76.5582" gradientUnits="userSpaceOnUse">
<stop stop-color="#140B31"/>
<stop offset="0.557292" stop-color="#10072D"/>
<stop offset="1" stop-color="#07001C"/>
</linearGradient>
<linearGradient id="paint18_linear" x1="74.4758" y1="119.282" x2="83.8319" y2="76.6033" gradientUnits="userSpaceOnUse">
<stop stop-color="#140B31"/>
<stop offset="0.557292" stop-color="#10072D"/>
<stop offset="1" stop-color="#07001C"/>
</linearGradient>
<linearGradient id="paint19_linear" x1="74.4929" y1="119.285" x2="83.856" y2="76.6556" gradientUnits="userSpaceOnUse">
<stop stop-color="#140B31"/>
<stop offset="0.557292" stop-color="#10072D"/>
<stop offset="1" stop-color="#07001C"/>
</linearGradient>
<linearGradient id="paint20_linear" x1="74.5236" y1="119.285" x2="83.8997" y2="76.709" gradientUnits="userSpaceOnUse">
<stop stop-color="#140B31"/>
<stop offset="0.557292" stop-color="#10072D"/>
<stop offset="1" stop-color="#07001C"/>
</linearGradient>
<linearGradient id="paint21_linear" x1="74.5506" y1="119.283" x2="83.941" y2="76.7535" gradientUnits="userSpaceOnUse">
<stop stop-color="#140B31"/>
<stop offset="0.557292" stop-color="#10072D"/>
<stop offset="1" stop-color="#07001C"/>
</linearGradient>
<linearGradient id="paint22_linear" x1="29.7057" y1="131.158" x2="39.4296" y2="88.0767" gradientUnits="userSpaceOnUse">
<stop stop-color="#140B31"/>
<stop offset="0.557292" stop-color="#10072D"/>
<stop offset="1" stop-color="#07001C"/>
</linearGradient>
<linearGradient id="paint23_linear" x1="61.9792" y1="74.3406" x2="67.3085" y2="36.2677" gradientUnits="userSpaceOnUse">
<stop stop-color="#140B31"/>
<stop offset="0.557292" stop-color="#10072D"/>
<stop offset="1" stop-color="#07001C"/>
</linearGradient>
<linearGradient id="paint24_linear" x1="18.2677" y1="88.4733" x2="25.1227" y2="49.1175" gradientUnits="userSpaceOnUse">
<stop stop-color="#140B31"/>
<stop offset="0.557292" stop-color="#10072D"/>
<stop offset="1" stop-color="#07001C"/>
</linearGradient>
</defs>
</svg>
