<svg width="139" height="123" viewBox="0 0 139 123" fill="none" xmlns="http://www.w3.org/2000/svg">
<g filter="url(#filter0_d)">
<path d="M34.2952 56.6321L47.5433 61.7357L48.4258 51.7731L35.1671 46.6801C31.2649 45.1809 29.1172 42.4484 29.3564 39.8062L28.4739 49.7689C28.2453 52.4004 30.3931 55.133 34.2952 56.6321Z" fill="url(#paint0_linear)"/>
<path d="M79.9554 74.181L80.1149 74.2448C80.2637 74.2979 80.4126 74.3511 80.5668 74.3989C80.7209 74.4468 80.806 74.4787 80.9229 74.5106L80.9655 74.5531L80.9921 74.5797C81.1515 74.6329 81.311 74.6754 81.4705 74.7179C81.63 74.7604 81.7735 74.7977 81.9277 74.8349C82.0978 74.8774 82.2786 74.9093 82.454 74.9465C82.6295 74.9837 82.7251 74.9944 82.8581 75.0209L82.975 75.0422L83.0122 75.0794C83.2532 75.122 83.4978 75.1538 83.7459 75.1751C83.7718 75.1822 83.7989 75.184 83.8256 75.1804C84.2828 75.2336 84.7453 75.2602 85.2025 75.2708L85.5162 75.2761C85.9096 75.2761 86.303 75.2655 86.6911 75.2389L86.8718 75.2389L86.9728 75.223L87.2652 75.1964C87.4088 75.1804 87.5523 75.1751 87.6905 75.1539L87.9298 75.1166L88.169 75.0794L88.3763 75.0528L88.993 74.9253L89.0196 74.8987L89.5246 74.7764L89.8489 74.686L89.9553 74.6541L89.9978 74.6116L90.4709 74.4574L90.7261 74.3617L90.7899 74.2979L90.875 74.266L91.263 74.1012L91.5608 73.963L91.5927 73.9311L91.9329 73.7504L92.2625 73.5696L92.2997 73.5324L92.3316 73.5005L92.5549 73.3623L92.842 73.1603L92.9643 73.038L93.0121 72.9901L93.0865 72.9157L93.3523 72.7031L93.5969 72.4585L93.8467 72.2086L94.0966 71.9588L94.1657 71.8897L94.3518 71.7036C94.4422 71.6132 94.5272 71.5282 94.5644 71.3953L94.6495 71.3102L94.7239 71.2358L94.8143 71.0922L95.0057 70.7095L95.0482 70.6669L95.0961 70.5447L95.2024 70.2789L95.2556 70.0768L95.3247 69.827L95.3566 69.6887C95.3878 69.5395 95.4108 69.3886 95.4257 69.2369L96.3082 59.2742C96.2901 59.4733 96.2563 59.6706 96.2072 59.8643L96.138 60.1142C96.0978 60.2742 96.0445 60.4307 95.9786 60.582L95.9307 60.7043C95.8424 60.9073 95.7412 61.1044 95.6277 61.2944L95.5533 61.3688C95.4178 61.5838 95.2687 61.7897 95.1067 61.9855C94.9279 62.1856 94.7379 62.3755 94.5379 62.5543C94.3515 62.724 94.1563 62.8837 93.9531 63.0328L93.9052 63.0806C93.6979 63.2348 93.4799 63.3784 93.2673 63.5059L93.2354 63.5378C92.9961 63.6882 92.7475 63.8232 92.4911 63.9419L92.4592 63.9738C92.2093 64.0961 91.9542 64.2024 91.7096 64.2874L91.6192 64.3247C91.3641 64.4203 91.0982 64.516 90.8271 64.5958L90.7261 64.6224L89.8915 64.851C89.615 64.9148 89.3386 64.9679 89.0515 65.0104C88.9726 65.028 88.8927 65.0404 88.8123 65.0477C88.5943 65.0849 88.371 65.1061 88.153 65.1327L87.8607 65.1593L87.5789 65.1753C87.1926 65.2001 86.7992 65.2107 86.3987 65.2071L86.0903 65.2071C85.6331 65.1965 85.1706 65.1699 84.7134 65.1168C84.4157 65.0849 84.1233 65.0477 83.8309 64.9998L83.7193 64.9839C83.395 64.9254 83.0813 64.8669 82.7624 64.7925C82.4381 64.7127 82.1085 64.6277 81.7842 64.5267C81.7701 64.5161 81.7576 64.5035 81.747 64.4895C81.4227 64.3884 81.0984 64.2768 80.7794 64.1598L67.5207 59.0562L66.6329 69.0242L79.9554 74.181Z" fill="url(#paint1_linear)"/>
<path d="M42.7956 78.1792L42.7637 78.1474C42.7207 78.0983 42.6745 78.0522 42.6255 78.0091C42.5351 77.9187 42.4448 77.8284 42.3172 77.7752L42.0141 77.536C41.945 77.4669 41.8812 77.4031 41.8121 77.334L41.7324 77.2542C41.6367 77.1585 41.5463 77.0682 41.4506 76.9725C41.3549 76.8768 41.2539 76.7758 41.1582 76.6801L40.9668 76.4887C40.9484 76.4754 40.9323 76.4593 40.919 76.4408C40.8914 76.419 40.8664 76.394 40.8446 76.3664C40.7422 76.244 40.6464 76.1162 40.5575 75.9836C40.4352 75.8614 40.3714 75.7019 40.2864 75.553C40.1747 75.3563 40.0737 75.149 39.9833 74.9523L39.893 74.6918L39.8292 74.5323C39.737 74.2531 39.6676 73.9668 39.6218 73.6764C39.5952 73.6498 39.6165 73.5754 39.6059 73.5222C39.5713 73.224 39.566 72.9231 39.5899 72.6238L40.4724 62.6611C40.4476 62.9623 40.4548 63.2652 40.4937 63.5649L40.5096 63.719C40.5554 64.0083 40.6265 64.2929 40.7223 64.5696C40.737 64.6262 40.7566 64.6813 40.7808 64.7344C40.8915 65.033 41.0248 65.3227 41.1795 65.601C41.3626 65.9132 41.5706 66.2101 41.8015 66.4888C41.8015 66.4888 41.8334 66.5207 41.8547 66.542C42.1067 66.8315 42.3785 67.1033 42.668 67.3554L42.6999 67.3873C43.0125 67.6631 43.3409 67.9205 43.6834 68.1581L43.7207 68.1953C44.0985 68.45 44.4908 68.6825 44.8955 68.8918C45.3388 69.1218 45.795 69.3259 46.2618 69.5031C46.5755 69.6254 46.8945 69.7317 47.2188 69.8327C47.2339 69.8459 47.2481 69.8601 47.2613 69.8753C47.5856 69.9763 47.9152 70.0613 48.2448 70.1358C48.5638 70.2102 48.8774 70.2687 49.1964 70.3218L49.3134 70.3431C49.6058 70.3909 49.8981 70.4282 50.1905 70.4654C50.6531 70.5132 51.1156 70.5398 51.5675 70.5558L51.8864 70.5557C52.2869 70.5593 52.6803 70.5487 53.0666 70.5238L53.3378 70.5079L53.6355 70.476L54.3 70.3963L54.5392 70.359C54.821 70.3112 55.1028 70.2634 55.3792 70.1996L56.2192 69.9763L56.3255 69.9444C56.5966 69.8646 56.8624 69.7689 57.1176 69.6732L57.1814 69.6094C57.4472 69.5031 57.7024 69.3968 57.931 69.2958L57.9629 69.2639C58.2194 69.1438 58.4695 69.0107 58.7125 68.8652L58.7444 68.8333C58.973 68.6897 59.1909 68.5462 59.3823 68.408L59.4302 68.3601C59.8581 68.0379 60.2487 67.6688 60.5944 67.2597L67.4205 59.0726L66.5327 69.0406L59.8821 77.2648L59.8129 77.334L59.5631 77.5838L59.3132 77.8337L59.074 78.0729L58.8029 78.2909L58.7284 78.3653L58.6806 78.4132L58.5583 78.5354L58.2659 78.7321L58.0426 78.8704L58.0107 78.9023L57.9788 78.9341L57.6546 79.1202L57.309 79.2957L57.2824 79.3222L57.2505 79.3541C57.1495 79.402 57.0591 79.4498 56.9581 79.4871C56.8322 79.5496 56.7026 79.6047 56.57 79.6518L56.4797 79.6891L56.3893 79.7263L56.1394 79.8166L55.6716 79.9762L55.5918 79.9921L55.4855 80.024L55.1665 80.1197L54.6509 80.242L54.0395 80.3642L53.8162 80.3961L53.5876 80.4333L53.3537 80.4652L52.9231 80.5131L52.6254 80.545L52.5244 80.5503L52.3543 80.5609C51.9609 80.5787 51.5674 80.5893 51.174 80.5928L50.8551 80.5928C50.3979 80.5822 49.9407 80.5503 49.4782 80.5025L49.3984 80.4971C49.1539 80.4652 48.9093 80.4333 48.6648 80.3908L48.5957 80.3855L48.484 80.3589L48.0853 80.2898C47.9045 80.2579 47.7238 80.2154 47.5484 80.1782C47.3995 80.1356 47.2453 80.0984 47.0912 80.0612C46.937 80.024 46.7722 79.9761 46.6127 79.923L46.5861 79.8964C46.5861 79.8964 46.5595 79.8698 46.5436 79.8539C46.5276 79.8379 46.3097 79.7794 46.1874 79.7422L45.7408 79.5827L45.5813 79.5189C45.4857 79.487 45.3953 79.4498 45.3049 79.4126C45.2145 79.3754 45.0338 79.301 44.8956 79.2372C44.7573 79.1734 44.6404 79.1202 44.5128 79.0564C44.3852 78.9926 44.3108 78.9607 44.2204 78.9129L44.1832 78.8757L43.8323 78.6843C43.7419 78.5939 43.6037 78.5514 43.4921 78.4823C43.3804 78.4132 43.2688 78.3441 43.1678 78.2749L42.7956 78.1792Z" fill="url(#paint2_linear)"/>
<path d="M84.5817 46.3453L85.4695 36.3879C85.3655 37.3919 84.9532 38.339 84.2893 39.0992L77.4526 47.2969L76.5701 57.2595L83.4015 49.0672C84.0696 48.3054 84.4823 47.3536 84.5817 46.3453Z" fill="url(#paint3_linear)"/>
<path d="M95.3464 61.9804C92.5979 65.2286 86.1333 66.2494 80.8543 64.2132L67.5955 59.1096L60.7535 67.302C58.0263 70.5715 51.5298 71.5709 46.2455 69.5401C40.9611 67.5093 38.8665 63.2244 41.6044 59.9443L48.4305 51.7573L35.1717 46.6643C29.882 44.6282 27.7981 40.3539 30.5413 37.0685C33.2844 33.783 39.7543 32.7995 45.0387 34.8303L58.3293 39.9552L65.1607 31.7628C67.8826 28.4987 74.3791 27.4992 79.6687 29.5247C84.9584 31.5502 87.0477 35.8404 84.3098 39.1205L77.4731 47.3182L90.7319 52.4112C95.979 54.4048 98.0576 58.7056 95.3464 61.9804Z" fill="url(#paint4_linear)"/>
</g>
<defs>
<filter id="filter0_d" x="0.457031" y="0.477051" width="138.08" height="122.116" filterUnits="userSpaceOnUse" color-interpolation-filters="sRGB">
<feFlood flood-opacity="0" result="BackgroundImageFix"/>
<feColorMatrix in="SourceAlpha" type="matrix" values="0 0 0 0 0 0 0 0 0 0 0 0 0 0 0 0 0 0 127 0" result="hardAlpha"/>
<feOffset dx="7" dy="7"/>
<feGaussianBlur stdDeviation="17.5"/>
<feColorMatrix type="matrix" values="0 0 0 0 1 0 0 0 0 0.137255 0 0 0 0 0.654902 0 0 0 0.5 0"/>
<feBlend mode="normal" in2="BackgroundImageFix" result="effect1_dropShadow"/>
<feBlend mode="normal" in="SourceGraphic" in2="effect1_dropShadow" result="shape"/>
</filter>
<linearGradient id="paint0_linear" x1="37.3637" y1="37.4627" x2="37.8456" y2="54.7239" gradientUnits="userSpaceOnUse">
<stop stop-color="#140B31"/>
<stop offset="0.557292" stop-color="#10072D"/>
<stop offset="1" stop-color="#07001C"/>
</linearGradient>
<linearGradient id="paint1_linear" x1="87.7174" y1="44.4332" x2="94.6381" y2="64.3185" gradientUnits="userSpaceOnUse">
<stop stop-color="#140B31"/>
<stop offset="0.557292" stop-color="#10072D"/>
<stop offset="1" stop-color="#07001C"/>
</linearGradient>
<linearGradient id="paint2_linear" x1="61.6195" y1="46.3162" x2="69.4369" y2="63.492" gradientUnits="userSpaceOnUse">
<stop stop-color="#140B31"/>
<stop offset="0.557292" stop-color="#10072D"/>
<stop offset="1" stop-color="#07001C"/>
</linearGradient>
<linearGradient id="paint3_linear" x1="88.6745" y1="34.8732" x2="92.5688" y2="40.6449" gradientUnits="userSpaceOnUse">
<stop stop-color="#140B31"/>
<stop offset="0.557292" stop-color="#10072D"/>
<stop offset="1" stop-color="#07001C"/>
</linearGradient>
<linearGradient id="paint4_linear" x1="72.0115" y1="8.23768" x2="84.3268" y2="52.8359" gradientUnits="userSpaceOnUse">
<stop stop-color="#140B31"/>
<stop offset="0.557292" stop-color="#10072D"/>
<stop offset="1" stop-color="#07001C"/>
</linearGradient>
</defs>
</svg>
