<svg width="151" height="188" viewBox="0 0 151 188" fill="none" xmlns="http://www.w3.org/2000/svg">
<g filter="url(#filter0_d)">
<path d="M54.3126 43.3428C54.1757 43.2984 54.0366 43.2612 53.8959 43.2312C53.8959 43.2312 53.8097 43.2081 53.781 43.2004C53.7522 43.1927 53.6948 43.1773 53.6517 43.1657C53.6086 43.1542 53.5511 43.1388 53.508 43.1272C53.3698 43.1189 53.2314 43.1178 53.0931 43.1239C52.9752 43.1291 52.8579 43.144 52.7424 43.1684C52.6605 43.176 52.5794 43.1903 52.4999 43.2113L32.2792 48.388C32.4692 48.3412 32.6629 48.3107 32.8581 48.2967C33.0517 48.2862 33.246 48.2919 33.4387 48.3137C33.4387 48.3137 33.4387 48.3137 33.5537 48.3445C33.7553 48.3751 33.9528 48.4281 34.1427 48.5023L34.2289 48.5254C34.4157 48.5755 34.6169 48.6294 34.8037 48.6794C34.8401 48.6958 34.8789 48.7062 34.9186 48.7102C35.1341 48.768 35.3371 48.9301 35.5516 49.0492C35.766 49.1683 35.6521 49.0761 35.7096 49.0915C35.8979 49.2077 36.0801 49.3337 36.2553 49.4688C36.3073 49.4854 36.36 49.4995 36.4133 49.5111C36.6542 49.6931 36.8846 49.8885 37.1035 50.0965C37.1672 50.1453 37.2244 50.202 37.2738 50.2652C37.4835 50.46 37.6787 50.651 37.8806 50.8745L50.154 64.2652L70.2731 59.1228L57.9997 45.7321L57.8791 45.6074C57.7126 45.4242 57.5671 45.2774 57.4073 45.1268C57.3503 45.0645 57.2885 45.0067 57.2225 44.9541C57.0359 44.7736 56.84 44.603 56.6358 44.4427L56.564 44.4234L56.3915 44.3772L56.0957 44.1593L55.8458 44C55.8458 44 55.7453 43.973 55.6878 43.9576C55.6525 43.9573 55.6179 43.948 55.5872 43.9307C55.4148 43.8845 55.2655 43.7521 55.1152 43.681C55.0899 43.6815 55.065 43.6748 55.0433 43.6617C55.0083 43.6598 54.974 43.6506 54.9427 43.6348L54.6554 43.5578C54.5548 43.5308 54.4542 43.5039 54.3537 43.4769L54.3126 43.3428Z" fill="#07001C"/>
<path d="M65.9865 115.121L64.6727 136.806C64.6452 137.368 64.5823 137.891 64.5232 138.398L64.4257 139.05L64.1908 139.926L63.8059 141.363C63.7714 141.549 63.7225 141.731 63.6596 141.909C63.5851 142.132 63.4959 142.35 63.3924 142.561L63.1792 143.012L62.8451 143.569L62.5936 143.933C62.4735 144.09 62.3458 144.241 62.2107 144.385L61.9536 144.655C61.8061 144.787 61.6458 144.904 61.4751 145.004C61.4032 144.985 61.3178 145.131 61.2305 145.17C60.9872 145.31 60.7255 145.416 60.4531 145.485L80.5722 140.342C80.8446 140.274 81.1062 140.168 81.3496 140.027C81.4368 139.981 81.5188 139.925 81.5941 139.862C81.7649 139.762 81.9252 139.645 82.0727 139.513L82.3298 139.243L82.727 138.795L82.9641 138.427C83.091 138.251 83.2028 138.065 83.2982 137.87L83.5115 137.419L83.793 136.77L83.9393 136.224L84.3243 134.788L84.4873 133.892L84.6567 133.26L84.7144 133.044L84.8349 131.675L86.0911 109.975L65.9865 115.121Z" fill="#07001C"/>
<path d="M77.6815 29.0612C77.5447 29.0166 77.4056 28.9793 77.2648 28.9496C77.2648 28.9496 77.1786 28.9265 77.1355 28.9149C77.0924 28.9034 77.0637 28.8957 77.0206 28.8841C76.9751 28.8636 76.9265 28.8506 76.8769 28.8456C76.7387 28.8373 76.6002 28.8362 76.462 28.8423L76.1256 28.8908C76.0421 28.9034 75.9598 28.9225 75.8793 28.9479L55.5935 34.138C55.7844 34.0865 55.9793 34.0512 56.1761 34.0324C56.3689 34.0268 56.5619 34.0372 56.7529 34.0637C56.7529 34.0637 56.8248 34.0829 56.8679 34.0945C56.911 34.106 57.2558 34.1984 57.457 34.2523L57.5432 34.2754C57.7299 34.3255 57.9167 34.3755 58.1179 34.4294C58.319 34.4833 58.1897 34.4487 58.2328 34.4602C58.4529 34.5554 58.6646 34.6688 58.8658 34.7992L59.0238 34.8416L59.5551 35.215L59.7276 35.2612C59.9554 35.4454 60.1832 35.6296 60.4177 35.8465L60.5986 36.0335C60.7938 36.2244 60.989 36.4154 61.1909 36.6389C61.3928 36.8623 61.7115 37.2249 61.9621 37.5538C62.2128 37.8828 62.6825 38.486 63.0345 39.0115L63.7374 40.1238C63.7598 40.1352 63.7842 40.1418 63.8093 40.1431L64.5445 41.4797L64.7643 41.9236L65.2423 42.8986L65.4926 43.4585L65.892 44.3816L66.148 45.0354C66.2866 45.3805 66.4251 45.7256 66.5454 46.0812L66.6734 46.4081C66.8491 46.9018 67.0143 47.3772 67.1574 47.8776L67.2328 48.1134L67.6766 49.6183L67.7271 49.832C67.8664 50.3467 68.0057 50.8614 68.1123 51.3828L68.1629 51.5965C68.2839 52.1218 68.3945 52.6287 68.4868 53.1462L68.5335 53.3743L68.7663 54.9767L68.7986 55.2009C68.8766 55.7146 68.9363 56.2388 68.974 56.7879L69.0025 57.0264C69.0478 57.5468 69.0932 58.0671 69.106 58.5941L69.0675 58.7379L69.1089 60.1349L69.1076 60.4271C69.1108 60.9516 69.0974 61.4613 69.0675 61.9563L67.7719 83.6305L87.9703 78.7095L89.2658 57.0354L89.3004 56.9061C89.4005 56.5325 89.3359 56.084 89.3393 55.6691L89.3855 55.4967L89.4586 55.2237L89.4546 54.6067L89.4315 53.8306L89.47 53.6868L89.4893 53.615L89.4262 52.6434L89.377 52.1374L89.3486 51.8987L89.3986 51.7119L89.3058 50.794L89.2335 50.3742L89.2874 50.173L89.2379 49.898L89.0943 48.9971L89.0286 48.61L88.982 48.3819L88.9325 48.1068L88.7524 47.227L88.6724 46.8359L88.6219 46.6222L88.558 46.3433L88.331 45.4663L88.2367 45.0714L88.1718 44.8538L88.104 44.5893L87.8445 43.719C87.8155 43.5928 87.7766 43.4691 87.728 43.349L87.6526 43.1132L87.5638 42.8123L87.2478 41.8652L87.1686 41.6438L87.0549 41.3207L86.8515 40.758L86.6432 40.2711C86.5639 40.0496 86.4847 39.8282 86.3872 39.6173L86.2592 39.2904L85.9878 38.694L85.3649 37.9728L84.887 36.9978L84.6671 36.5539L83.9319 35.2173C83.9319 35.2173 83.9319 35.2172 83.9512 35.1454L83.2941 34.0917C82.9422 33.5662 82.593 33.0876 82.2218 32.634L82.1443 32.5208C81.9272 32.2416 81.6957 31.9739 81.4506 31.7189C81.4164 31.6688 81.3773 31.6222 81.3339 31.5798C81.1779 31.4148 81.018 31.2643 80.8582 31.1136L80.6773 30.9265C80.4783 30.75 80.2935 30.5773 80.0906 30.4152C79.8877 30.253 80.0906 30.4152 80.0188 30.3959L79.8512 30.274L79.5698 30.06L79.3199 29.9006L79.1618 29.8583L79.0469 29.8275C78.8889 29.7851 78.7395 29.6527 78.5892 29.5816L78.388 29.5277C78.388 29.5277 78.3162 29.5085 78.2731 29.4969C78.1841 29.4655 78.0929 29.4411 78.0001 29.4238C77.8995 29.3968 77.799 29.3699 77.6984 29.3429L77.6815 29.0612Z" fill="#07001C"/>
<path d="M67.8667 83.794L80.1153 97.1626C80.3775 97.4485 80.6319 97.7631 80.9008 98.0815C81.1697 98.4 81.603 99.0243 81.9549 99.5498C82.3069 100.075 82.4226 100.276 82.6579 100.662L82.7105 100.753C82.9667 101.176 83.2153 101.628 83.4457 102.09L83.6799 102.537L84.1434 103.509L84.3938 104.069L84.7971 104.977L85.0675 105.635L85.4504 106.677L85.589 107.022L86.0625 108.473L86.1379 108.709C86.2954 109.213 86.4529 109.717 86.5778 110.228L86.6427 110.446L87.0318 111.982L87.0785 112.21L87.3688 113.828L87.4154 114.056L87.6675 115.587L87.6998 115.811L87.8608 117.394L87.8893 117.633C87.9346 118.153 87.98 118.673 87.9928 119.2L87.9543 119.344L87.9852 120.723L87.9801 121.029L87.9399 122.559C87.9124 123.121 87.8495 123.643 87.7904 124.151L87.6929 124.802L87.4542 125.693L87.0692 127.13C87.023 127.302 86.973 127.489 86.9268 127.662C86.8519 127.89 86.7614 128.113 86.6558 128.328L86.4425 128.779L86.1084 129.337L85.8569 129.7C85.7369 129.857 85.6091 130.008 85.4741 130.152L85.217 130.422L84.7384 130.771L84.4939 130.937C84.2479 131.072 83.987 131.177 83.7164 131.252L103.835 126.11C104.106 126.035 104.367 125.929 104.613 125.794C104.685 125.813 104.766 125.681 104.857 125.629L105.336 125.28L105.593 125.01C105.728 124.866 105.856 124.715 105.976 124.558L106.227 124.194L106.562 123.637L106.775 123.186L107.06 122.523L107.203 121.992L107.588 120.555L107.826 119.664L107.996 119.032L108.053 118.816C108.165 118.4 108.151 117.934 108.174 117.447L108.205 117.332L108.244 116.095L108.29 115.923L108.291 115.631L108.287 115.013L108.264 114.237L108.302 114.094L108.243 113.108L108.19 112.616L108.176 112.381L108.23 112.18L108.119 111.273L108.061 110.857L108.029 110.632L107.994 110.361L107.85 109.46L107.77 109.069L107.738 108.845L107.674 108.566L107.498 107.672L107.414 107.295L107.363 107.082L107.299 106.803L107.091 105.915L106.978 105.531L106.927 105.317L106.845 105.049L106.59 104.164L106.27 103.632L106.195 103.396L106.092 103.091L105.786 102.162L105.707 101.941L105.583 101.6L105.376 101.051L105.182 100.568L104.911 99.9107C104.878 99.7981 104.836 99.6887 104.783 99.5838L104.512 98.9874L104.261 98.4276C104.119 98.0968 103.959 97.7766 103.798 97.4564L103.564 97.0086C103.333 96.5465 103.085 96.095 102.828 95.6721C102.618 95.3077 102.404 94.9577 102.171 94.6183C101.834 94.0966 101.47 93.6143 101.117 93.1501C101.117 93.1501 101.117 93.15 101.022 93.0474C100.806 92.7587 100.569 92.495 100.332 92.2312L87.9704 78.7091L67.8667 83.794Z" fill="#07001C"/>
<path d="M28.0774 57.0557C28.5946 48.4012 32.991 45.7294 37.877 51.0578L50.1505 64.4485L51.4537 42.7457C51.9671 34.1055 56.3673 31.4193 61.2495 36.7621C66.1317 42.1049 69.6863 53.4367 69.1691 62.0912L67.8736 83.7654L80.1221 97.134C85.0187 102.481 88.5551 113.823 88.0417 122.463C87.5283 131.103 83.1386 133.808 78.2421 128.461L65.9935 115.092L64.6798 136.777C64.1664 145.417 59.7805 148.107 54.884 142.76C49.9874 137.414 46.4471 126.086 46.9644 117.431L48.3097 95.8014L36.0362 82.4107C31.1109 77.0563 27.5602 65.7102 28.0774 57.0557Z" fill="#07001C"/>
</g>
<defs>
<filter id="filter0_d" x="0.0273438" y="0.838379" width="150.275" height="186.672" filterUnits="userSpaceOnUse" color-interpolation-filters="sRGB">
<feFlood flood-opacity="0" result="BackgroundImageFix"/>
<feColorMatrix in="SourceAlpha" type="matrix" values="0 0 0 0 0 0 0 0 0 0 0 0 0 0 0 0 0 0 127 0" result="hardAlpha"/>
<feOffset dx="7" dy="7"/>
<feGaussianBlur stdDeviation="17.5"/>
<feColorMatrix type="matrix" values="0 0 0 0 1 0 0 0 0 0.137255 0 0 0 0 0.654902 0 0 0 0.5 0"/>
<feBlend mode="normal" in2="BackgroundImageFix" result="effect1_dropShadow"/>
<feBlend mode="normal" in="SourceGraphic" in2="effect1_dropShadow" result="shape"/>
</filter>
</defs>
</svg>
